<svg xmlns="http://www.w3.org/2000/svg" viewBox="0 0 44.26 100.33"><defs><style>.cls-1{fill:#d8d8d8;}.cls-2{fill:#f6ad86;}.cls-3{fill:#3c3c3b;}.cls-4{fill:#848483;}.cls-5{fill:#5c5c5b;}.cls-6{fill:#1877ab;}.cls-7{fill:#1c1e37;}.cls-8{fill:#2d8acb;}</style></defs><title>paso4</title><g id="Capa_2" data-name="Capa 2"><g id="Layer_4" data-name="Layer 4"><path class="cls-1" d="M0,99.24c0,.6,2.2,1.09,4.93,1.09s4.93-.49,4.93-1.09-2.21-1.09-4.93-1.09S0,98.63,0,99.24Z"/><path class="cls-2" d="M14.18,5.89C14.34,5.13,15.91-.73,17,.07s1,3.35.9,4.17a3.1,3.1,0,0,1-2.42,2.61C14.79,6.9,14,6.6,14.18,5.89Z"/><path class="cls-3" d="M16.47,5.75a.92.92,0,0,0-1.17-.57,1,1,0,0,0-.48.38c-.52,1-3.18,7.36-3.45,9.27v.35l-.08.11c-.6,1.09-3.27,3.91-6.42,7.84-.56.7-.57,2.88.07,4.17a2.07,2.07,0,0,0,2.91.35,2.26,2.26,0,0,0,.34-.35A32,32,0,0,0,11.49,23a35.25,35.25,0,0,0,3-5.11.87.87,0,0,0,.37-.45A30.36,30.36,0,0,0,16.25,10C16.56,7,17,6.81,16.47,5.75Z"/><path class="cls-4" d="M5.71,95.79a7.37,7.37,0,0,1,.18,1.31c.09.53.59.72.88,1.15s.83,1.17-1.14,1.21-3.36,0-3-1.17a5.89,5.89,0,0,0,.4-2,1.25,1.25,0,0,1,.24-1C3.56,95,5.4,94.64,5.71,95.79Z"/><path class="cls-4" d="M26.87,72.36A4.82,4.82,0,0,0,29,73.76c1.11.41,3.44.52,2.18,1a7.9,7.9,0,0,1-3.55.22,17.67,17.67,0,0,0-2.41.1c-1.18,0-1.19-.15-1.09-1.44C24.25,71.86,26.29,71.39,26.87,72.36Z"/><path class="cls-2" d="M8.48,14.63c.23,2.4.3,2.93,1.35,3.91a5.57,5.57,0,0,0,3.82,1.12c1.22,0,2-1.48,2.31-2.49a14.87,14.87,0,0,0,.24-5.64,3.9,3.9,0,0,0-3.51-2.94C11,8.59,7.89,8.78,8.48,14.63Z"/><path class="cls-2" d="M9.7,18.85c-.07.83-.13,1.79-.16,2.66a2.3,2.3,0,0,0,2,2.32h.13c1,0,2.25-.94,2.16-2-.06-.67-.08-1.35-.09-1.94A2.72,2.72,0,0,0,12,17.36h0A1.69,1.69,0,0,0,9.7,18.85Z"/><path class="cls-5" d="M4.9,29.09A49.34,49.34,0,0,1,7.08,46.41H21.56s-.08-13.55-1-21a5.57,5.57,0,0,0-3.06-4.25,10.42,10.42,0,0,0-3.85-.86H11a10.74,10.74,0,0,0-2.82.35C4.14,21.88,3.79,25.43,4.9,29.09Z"/><path class="cls-6" d="M10,74.21c1.16-4.71-3.66-5.54-5.18-2.13C2.67,76.9,2.82,92.31,3,95.39c0,.4-.06.89.15,1a2.89,2.89,0,0,0,1.53.25c.54,0,1.07,0,1.12-.68C6.13,91.5,8.87,78.77,10,74.21Z"/><path class="cls-6" d="M14.32,55.9c.51-5.85-1.81-10.4-5.44-8.46a4.91,4.91,0,0,0-2.29,4C6.38,53,5.26,68.9,4.86,71.77c-.88,6.49,4.24,4.74,4.79,3C11.06,70.15,14.05,59.09,14.32,55.9Z"/><path class="cls-2" d="M15.56,14.13c-.34.83-.27,1.64.17,1.82s1.06-.35,1.4-1.18S17.39,13.13,17,13,15.9,13.3,15.56,14.13Z"/><path class="cls-2" d="M9.33,14.13c.34.83.26,1.64-.17,1.82s-1.06-.35-1.4-1.18S7.5,13.13,7.93,13,9,13.3,9.33,14.13Z"/><path class="cls-7" d="M9.21,9.91c.93,1.4,5.44,1.53,6.91,1a1.89,1.89,0,0,0-.73-3.55c-1.19,0-.33.28-1.29.67C13.61,8.24,8.22,8.43,9.21,9.91Z"/><path class="cls-2" d="M37.85,19.14c.73-.25,6.55-1.94,6.41-.63s-2.32,2.62-3.1,2.93a3.1,3.1,0,0,1-3.49-.72C37.3,20.18,37.16,19.38,37.85,19.14Z"/><path class="cls-2" d="M38.1,18.78c.25-.25,1.76-1.72,2-1.46.45.4-.48,1.42-1.1,2.09-.34.36-1,.63-1.29.32S37.7,19.18,38.1,18.78Z"/><path class="cls-5" d="M39.16,21c-.67,1-1,.69-3.75,2a29.68,29.68,0,0,1-7.1,2.72c-1.64.35-1.66-3.48.43-4.38,1.77-.77,8.55-1.76,9.72-1.86a.92.92,0,0,1,.7,1.52Z"/><path class="cls-5" d="M29.93,25.35c-.84.37-2.86.92-7.93.93a23.24,23.24,0,0,1-4.41-.2,3.34,3.34,0,0,1-2.81-2.78c0-1.48.79-2.58,1.68-2.51,5,.37,10.57,1,11.8.92C30.06,21.52,30.94,24.9,29.93,25.35Z"/><path class="cls-8" d="M7.14,55.27s-1.25-3-.06-8.86H21.56v8.86Z"/><path class="cls-8" d="M24.23,72.44C26.69,66,28.6,53.72,32.3,49.17c2.36-2.9,6.35-1.35,4.5,2.64C34.8,56.07,30,63.94,27,72.51,26.73,73.35,24,73.2,24.23,72.44Z"/><path class="cls-8" d="M35.49,53.23c1.82-.5,3.83-6.39-2.71-6.11-2.9.12-13.12.06-14.67.12s-3.8.25-4.11,1c-1.54,3.81,2.92,7.72,8.74,6.91C26.63,54.62,31.73,54.28,35.49,53.23Z"/><path class="cls-7" d="M14.27,9.67C15.66,10.5,16,11.24,16,13S15.19,17.6,12,18.26s-3.91-2.47-4.1-4.63S7.85,9.85,9.45,9.46C11.82,8.87,13.43,9.16,14.27,9.67Z"/></g></g></svg>