<svg xmlns="http://www.w3.org/2000/svg" xmlns:xlink="http://www.w3.org/1999/xlink" viewBox="0 0 186.73 123.91"><defs><style>.cls-1{fill:#3c3c3b;}.cls-2{fill:url(#Degradado_sin_nombre);}.cls-3{fill:#848483;}.cls-4{fill:#fff;opacity:0.35;isolation:isolate;}.cls-5{fill:#e7e6f4;}.cls-6{fill:#f39f73;}.cls-7{fill:#7dcada;}.cls-8{fill:#e84386;}</style><linearGradient id="Degradado_sin_nombre" x1="93.36" y1="2.1" x2="93.36" y2="114.71" gradientTransform="matrix(1, 0, 0, -1, 0, 137.86)" gradientUnits="userSpaceOnUse"><stop offset="0" stop-color="#fff"/><stop offset="1" stop-color="#0098db"/></linearGradient></defs><title>paso1</title><g id="Capa_2" data-name="Capa 2"><g id="Layer_1" data-name="Layer 1"><path class="cls-1" d="M186.39,120.61a5.13,5.13,0,0,1-4.8,3.3H5.14a5.16,5.16,0,0,1-4.81-3.3,1.38,1.38,0,0,1,.82-1.76,1.44,1.44,0,0,1,.46-.08H185.12a1.36,1.36,0,0,1,1.36,1.36A1.28,1.28,0,0,1,186.39,120.61Z"/><rect class="cls-1" width="186.73" height="118.77" rx="9.8" ry="9.8"/><rect class="cls-2" x="9.79" y="9.79" width="167.14" height="99.18" rx="2.86" ry="2.86"/><path class="cls-3" d="M110.1,118.77v.84a1.75,1.75,0,0,1-1.74,1.74h-30a1.76,1.76,0,0,1-1.73-1.74v-.84Z"/><path class="cls-4" d="M168.83,19.37V97.5a2.89,2.89,0,0,1-2.87,2.87H20.74a2.88,2.88,0,0,1-2.91-2.85V19.37h151m.75-.76H17.11V97.5a3.62,3.62,0,0,0,3.62,3.62H166a3.62,3.62,0,0,0,3.62-3.62V18.61Z"/><rect class="cls-5" x="17.11" y="16.09" width="152.51" height="5.05" rx="1.37" ry="1.37"/><path class="cls-4" d="M156.43,69.28H30.3a3.41,3.41,0,0,1-3.4-3.41v-33a3.41,3.41,0,0,1,3.4-3.41H156.43a3.42,3.42,0,0,1,3.4,3.37v33a3.41,3.41,0,0,1-3.37,3.45ZM30.3,30.18a2.65,2.65,0,0,0-2.65,2.65h0v33a2.65,2.65,0,0,0,2.65,2.65H156.43a2.65,2.65,0,0,0,2.65-2.65v-33a2.65,2.65,0,0,0-2.65-2.65Z"/><path class="cls-4" d="M123.49,96.55H30.3a3.4,3.4,0,0,1-3.4-3.4h0V75.48a3.4,3.4,0,0,1,3.4-3.4h93.19a3.41,3.41,0,0,1,3.41,3.4V93.15A3.41,3.41,0,0,1,123.49,96.55ZM30.3,72.83a2.65,2.65,0,0,0-2.65,2.65h0V93.15A2.65,2.65,0,0,0,30.3,95.8h93.19a2.65,2.65,0,0,0,2.65-2.65V75.48a2.65,2.65,0,0,0-2.65-2.65Z"/><path class="cls-4" d="M156.43,96.55H133.58a3.41,3.41,0,0,1-3.41-3.4V75.48a3.41,3.41,0,0,1,3.41-3.4h22.85a3.4,3.4,0,0,1,3.4,3.4V93.15A3.4,3.4,0,0,1,156.43,96.55ZM133.58,72.83a2.65,2.65,0,0,0-2.65,2.65V93.15a2.65,2.65,0,0,0,2.65,2.65h22.85a2.65,2.65,0,0,0,2.65-2.65V75.48a2.65,2.65,0,0,0-2.65-2.65Z"/><path class="cls-6" d="M23.49,18.61a1.26,1.26,0,1,1-2.52,0h0a1.26,1.26,0,1,1,2.52,0Z"/><path class="cls-7" d="M27.51,18.61a1.26,1.26,0,1,1-1.26-1.26h0a1.25,1.25,0,0,1,1.25,1.25Z"/><path class="cls-8" d="M31.54,18.61a1.26,1.26,0,0,1-2.52,0h0a1.26,1.26,0,0,1,2.52,0Z"/><path class="cls-3" d="M93,2.62a2.68,2.68,0,1,1-2.33,3,2.68,2.68,0,0,1,2.33-3Z"/></g></g></svg>