<svg xmlns="http://www.w3.org/2000/svg" viewBox="0 0 43.65 77.39"><defs><style>.cls-1,.cls-8{fill:#1c1e37;}.cls-1{opacity:0.2;isolation:isolate;}.cls-2{fill:#db918d;}.cls-3{fill:#f6b6af;}.cls-4{fill:#f39f73;}.cls-5{fill:#5c5c5b;}.cls-6{fill:#1877ab;}.cls-7{fill:#2d8acb;}.cls-9{fill:#e7e6f4;}</style></defs><title>paso7</title><g id="Capa_2" data-name="Capa 2"><g id="Capa_1-2" data-name="Capa 1"><g id="Layer_7" data-name="Layer 7"><path class="cls-1" d="M43.34,76.66c0,.41-9.3.73-20.77.73s-20.76-.32-20.76-.73,9.3-.72,20.76-.72S43.34,76.26,43.34,76.66Z"/><path class="cls-2" d="M22.61,10.93c-.18-.42-1.1-3.76-.66-3.88l3.1-.83c.3-.08,1.25,1.11,1.35,1.4,0,0,.23.82.23.85a9.41,9.41,0,0,0,.57,2.22,1.65,1.65,0,0,0,.51.54,5.69,5.69,0,0,0,1,.61.16.16,0,0,1,.07.22l-.07.06c-1.05.71-5.11,3.39-6.4,3.11S23.68,13.51,22.61,10.93Z"/><path class="cls-3" d="M19.33,5.52c0,3.45.21,7.55,2.34,6.64s6-2.19,6-5.64S27.16.29,23.47.29C21.16.29,19.33,2.08,19.33,5.52Z"/><rect class="cls-4" x="11.19" y="71.74" width="2.06" height="2.51" rx="0.19" ry="0.19" transform="translate(-61 62.18) rotate(-72.09)"/><path class="cls-5" d="M13.49,74s-.45,2.32-.81,2.5a5.37,5.37,0,0,1-2.89-.94c-.85-.57-1.71-.32-3.45-.89a8.06,8.06,0,0,1-1.66-.77S4.52,72.76,6.22,73A11,11,0,0,0,10.39,73C10.84,72.73,11.58,73.71,13.49,74Z"/><rect class="cls-4" x="36.49" y="69.77" width="2.51" height="2.06" rx="0.19" ry="0.19" transform="translate(-32.29 31.65) rotate(-32.73)"/><path class="cls-5" d="M39.28,70.4s1.5,1.82,1.41,2.21a5.35,5.35,0,0,1-2.55,1.64c-1,.29-1.47,2.22-3.3,2.35-2.34.15-2.12,0-2.12,0s-.48-.7,1.56-1.49a4.14,4.14,0,0,0,2.26-3C36.65,71.67,37.87,71.72,39.28,70.4Z"/><path class="cls-6" d="M31.17,37c.13,4,1.35,13.53,1.24,14.81s-5.91,4.79-6.56,2.39-4.28-15.79-5.91-20.88S28.55,29,28.55,29,30.9,28.85,31.17,37Z"/><path class="cls-6" d="M35.23,58.92c1.37,3.54,3.66,8,4,9.14s-3.09,4.32-4.35,2.23S27.35,59,25.79,54c-1.22-3.93,5.93-4.43,5.93-4.43S32.44,51.73,35.23,58.92Z"/><path class="cls-7" d="M28.14,39.37c-1.9,3.56-5.58,12.4-6.31,13.46S14.32,54,15,51.63s4.17-15.82,5.3-21.05,9.61.56,9.61.56S32,32.12,28.14,39.37Z"/><path class="cls-4" d="M18.37,25.32c-3.55.08-9-.65-10-1.23s-.83-2.63.36-2.58,7.18-.38,9,.22"/><path class="cls-7" d="M19.28,61.36C18.15,65,16.05,70.79,15.6,71.88s-5.11,1.45-4.79-1S13,56.52,15,51.6c1.49-3.84,7.4.23,7.4.23S21.59,54,19.28,61.36Z"/><path class="cls-5" d="M30.45,20c1.53,3.14,2,6,2.51,6.78,1.67,2.31,1.94,1.2,3,.22a1.43,1.43,0,0,0,.47-1.44C35.59,22.82,34,15.8,32.23,14a7.56,7.56,0,0,0-4.55-2.68s-2.78,2.05-4.86,1.21a3.17,3.17,0,0,0-1.66,1.66A18.62,18.62,0,0,0,19.61,23c.11,3.12.57,5.92.33,7.16-.37,1.88-.44,2.46.33,2.57s9.93.39,10.07-.36c0-.12.4-.24.4-.59,0-1.73-1.17-6-.48-9.52a8.66,8.66,0,0,0,.17-1.83Z"/><path class="cls-8" d="M22.16,3.15s-2.82,1-3.34.56a3.67,3.67,0,0,1-.71-.9.09.09,0,0,1,0-.12.08.08,0,0,1,.11,0,1,1,0,0,0,.29.11c.31,0,.91-1,1.91-1.59a.09.09,0,0,0,0-.12.08.08,0,0,0,0,0A1.56,1.56,0,0,1,20,.79c-.15-.18,1.45,0,2.44-.48S27-.17,27.33.88"/><path class="cls-8" d="M23.79,7.39s-2.71-2.54-2.21-3.78A6.1,6.1,0,0,1,26.86.79c2.28.18,2.37,3.08,1.7,4.8a25.48,25.48,0,0,1-1.39,3S25.16,7.22,23.79,7.39Z"/><path class="cls-3" d="M23.09,6.59a1,1,0,0,0,2-.08,1,1,0,0,0-.73-.92A1.16,1.16,0,0,0,23.09,6.59Z"/><rect class="cls-9" x="17.78" y="3" width="8.08" height="44.63" transform="translate(-10.5 33.82) rotate(-63.97)"/><path class="cls-3" d="M7.22,23.45c.9.4,2.31,1.12,2.63.41s-.43-1.32-1.33-1.72-2.17-.51-2.49.2S6.32,23,7.22,23.45Z"/><path class="cls-3" d="M28.79,30.26a2.89,2.89,0,0,0,.63.72,16,16,0,0,1-2.22,1.41,4.61,4.61,0,0,1-1.94.46c-.93.07-1.83,0-2.19-1.17-.3-1,1-1.65,1.69-1.61a8.69,8.69,0,0,0,2.47.22,10.7,10.7,0,0,0,1.31-.66A2.85,2.85,0,0,0,28.79,30.26Z"/><path class="cls-5" d="M34.38,23.61c-2.78,2.21-6.13,5.08-6.54,6.18S29.2,33,30.09,32.21s5-3.78,6.08-5.42"/></g></g></g></svg>