<svg xmlns="http://www.w3.org/2000/svg" viewBox="0 0 33.66 29.02"><defs><style>.cls-1{fill:#b9b9b9;}.cls-2{fill:#3c3c3b;}.cls-3{fill:#f9fafc;}</style></defs><title>paso2</title><g id="Capa_2" data-name="Capa 2"><g id="Layer_2" data-name="Layer 2"><path class="cls-1" d="M6.66,0H31a2.66,2.66,0,0,1,2.7,2.62V16.7A2.66,2.66,0,0,1,31,19.36H28.24L24.81,24a1.84,1.84,0,0,1-2.58.42,2.09,2.09,0,0,1-.42-.42l-3.43-4.6H6.66A2.66,2.66,0,0,1,4,16.7V2.7A2.66,2.66,0,0,1,6.64,0Z"/><path class="cls-2" d="M2.66,4.36H26.94A2.66,2.66,0,0,1,29.6,7h0V21A2.66,2.66,0,0,1,27,23.7H24.14l-3.48,4.59a1.84,1.84,0,0,1-2.58.36,1.75,1.75,0,0,1-.36-.36l-3.4-4.59H2.66A2.66,2.66,0,0,1,0,21H0V7A2.66,2.66,0,0,1,2.64,4.36Z"/><path class="cls-3" d="M9.39,14a2.17,2.17,0,1,1-2.17-2.17h0A2.16,2.16,0,0,1,9.39,14Z"/><path class="cls-3" d="M16.92,14a2.17,2.17,0,1,1-2.17-2.17h0A2.16,2.16,0,0,1,16.92,14Z"/><path class="cls-3" d="M24.45,14a2.17,2.17,0,1,1-2.17-2.17h0A2.16,2.16,0,0,1,24.45,14Z"/></g></g></svg>