<svg xmlns="http://www.w3.org/2000/svg" viewBox="0 0 51.48 54.88"><defs><style>.cls-1{fill:#1c1e37;opacity:0.2;isolation:isolate;}.cls-2{fill:#0075a9;}.cls-3{fill:#0094da;}</style></defs><title>paso5</title><g id="Capa_2" data-name="Capa 2"><g id="Capa_1-2" data-name="Capa 1"><g id="Layer_5" data-name="Layer 5"><path class="cls-1" d="M51.48,54.07c0,.45-11.52.81-25.74.81S0,54.52,0,54.07s11.53-.82,25.74-.82S51.48,53.62,51.48,54.07Z"/><path class="cls-2" d="M48.48,53.24,35.3.83a.59.59,0,0,0-1.14.28L39,20.17H20.48L19.11.93a.57.57,0,0,0-.57-.59h-.06a.61.61,0,0,0-.55.63l3.83,52.42a.59.59,0,0,0,.59.54h0a.59.59,0,0,0,.55-.63h0L21.9,39H43.7l3.66,14.52a.58.58,0,0,0,.57.44h.14A.58.58,0,0,0,48.48,53.24ZM21.81,37.84l-1.2-16.5H39.25l4.16,16.49Z"/><path class="cls-3" d="M35.42,0H17.84a1,1,0,0,0-.77,1.19,1,1,0,0,0,.62.72L4.76,53.24a.59.59,0,0,0,.42.71h.15a.59.59,0,0,0,.57-.44L9.55,39H31.36L30.31,53.34a.59.59,0,0,0,.55.63h0a.58.58,0,0,0,.58-.54L35.25,1.94h.17a1,1,0,0,0,0-1.94ZM9.85,37.84,14,21.34H32.65l-1.17,16.5ZM32.74,20.17H14.3L18.89,1.94H34.07Z"/></g></g></g></svg>