<svg xmlns="http://www.w3.org/2000/svg" viewBox="0 0 55.79 46.84"><defs><style>.cls-1{fill:#fddfbc;}.cls-2{fill:#f29100;}.cls-3{fill:#fac077;}</style></defs><title>paso3</title><g id="Capa_2" data-name="Capa 2"><g id="Layer_3" data-name="Layer 3"><path class="cls-1" d="M51.5,0H12.34A4.29,4.29,0,0,0,8.05,4.26V26.87a4.29,4.29,0,0,0,4.29,4.29h4.45l5.54,7.42a3,3,0,0,0,4.21.54,3.07,3.07,0,0,0,.54-.54l5.54-7.42H51.5a4.29,4.29,0,0,0,4.29-4.29V4.26A4.29,4.29,0,0,0,51.5,0Z"/><path class="cls-2" d="M43.45,7H4.29A4.3,4.3,0,0,0,0,11.34V33.92a4.29,4.29,0,0,0,4.24,4.34h4.5l5.54,7.41a3,3,0,0,0,4.21.54,3.07,3.07,0,0,0,.54-.54l5.54-7.41H43.45A4.29,4.29,0,0,0,47.74,34h0V11.34A4.3,4.3,0,0,0,43.45,7Z"/><path class="cls-3" d="M37.79,14.93H6.49a1.51,1.51,0,0,1-.35-3H37.79a1.51,1.51,0,0,1,0,3Z"/><path class="cls-3" d="M37.79,22.06H6.49a1.51,1.51,0,0,1,0-3h31.3a1.51,1.51,0,0,1,0,3Z"/><path class="cls-3" d="M23.41,29.18H6.49a1.51,1.51,0,0,1-.35-3H23.41a1.51,1.51,0,0,1,0,3Z"/></g></g></svg>