<svg xmlns="http://www.w3.org/2000/svg" viewBox="0 0 44.37 102.49"><defs><style>.cls-1{fill:#3c3c3b;}.cls-2{fill:#f6b6af;}.cls-3{fill:#1c1e37;}.cls-4{fill:#5c5c5b;}.cls-5{fill:#47a2cc;}.cls-6{fill:#2b7e99;}.cls-7{fill:#f29100;}</style></defs><title>paso6</title><g id="Capa_2" data-name="Capa 2"><g id="Layer_6" data-name="Layer 6"><path class="cls-1" d="M11,31.67a3.14,3.14,0,0,1,.79.46,16.15,16.15,0,0,0,.9-2.34,4.68,4.68,0,0,0,.06-1.9c-.11-.89-.31-1.72-1.51-1.83C10.21,26,9.85,27.28,10,28s.77,1.71.68,2.26a10.5,10.5,0,0,1-.37,1.36A2.84,2.84,0,0,1,11,31.67Z"/><path class="cls-1" d="M5.59,45.84c2.25-1.31,5.05-2.92,5.92-4.88s1-8.41.9-9.57A.49.49,0,0,0,12.2,31a1.83,1.83,0,0,0-1.86-.29c-.18.23.13,7.42-2,9.73C6.88,42.08,6.62,42,4.89,42.82s-2.82.12-2.9,2.07S3.42,47.08,5.59,45.84Z"/><path class="cls-2" d="M5.88,46.18a4.06,4.06,0,0,0,3.71-1.32c.41-.5-.88-1-1.35-1.51a1.39,1.39,0,0,1-.28-1A20.82,20.82,0,0,1,8.1,39l-3.88.42s.13,2,.13,2.73a1.93,1.93,0,0,1,0,.34c-.15.46-.63.66-1.4,1.26C1.92,44.49,3.88,45.91,5.88,46.18Z"/><path class="cls-2" d="M2.49,38.89c1.15,2,1.74,2.89,3,3.34a3.91,3.91,0,0,0,2.91.12c.83-.4,1.4-2.45,1.21-3.42a19.17,19.17,0,0,0-2.34-5.58,3.43,3.43,0,0,0-3.92-1.21C2,32.78-.31,34.11,2.49,38.89Z"/><path class="cls-3" d="M7.3,35.66a4.51,4.51,0,0,1-.06,3.85A3,3,0,0,1,5,41.27c-.89.06-1.1-.18-2.66-1.64A6.82,6.82,0,0,1,0,36.08a3.38,3.38,0,0,1,1.86-3.46C3.26,32,5.83,31.06,7.3,35.66Z"/><path class="cls-2" d="M8.28,36.84a1.24,1.24,0,0,1-.51,1.56c-.5.15-1.07-.29-1.28-1A1.19,1.19,0,0,1,7,35.84C7.5,35.69,8.07,36.13,8.28,36.84Z"/><path class="cls-3" d="M6.26,34.9C7,33.9,7.92,33,7,32.28a4.53,4.53,0,0,0-5.5.43C-1.11,34.9,6.26,34.9,6.26,34.9Z"/><path class="cls-1" d="M15.44,100.89c-2.07-.12-3.87-.67-3.79.6.08,1.07.17,1,3.7,1,2.07,0,3.76-.16,3.78-.6S17.5,101,15.44,100.89Z"/><path class="cls-1" d="M5.48,100.89c-2-.68-3.87-.67-3.79.6.08,1.07-.07,1,3.46,1,2.07,0,2.61-.42,2.27-.7A5.72,5.72,0,0,0,5.48,100.89Z"/><path class="cls-4" d="M8.29,42.7a18.18,18.18,0,0,0-5.15.45c-1.56.38-3.24,1.38-2.63,6,0,0,1.16,11.45,1.23,13,.16,3.69-.89,4.43,2.08,4.17s6.85-.13,8.36-.31c.47-.06.34-1.18.16-2.56a132.24,132.24,0,0,1-.92-13.92C11.43,46.74,12.19,42.69,8.29,42.7Z"/><path class="cls-5" d="M2,99.51A9.81,9.81,0,0,1,1.78,101a12.57,12.57,0,0,0,3-.15c.23,0,.62-3.28.76-4.85s.86-9.18.8-11,.28-12.61.28-12.61h.79A63.38,63.38,0,0,1,9.9,80a48.53,48.53,0,0,1,.79,6c-.08,1.92.84,11.79,1,12.84a8.75,8.75,0,0,1,0,2.17,6.94,6.94,0,0,0,3.39.06s-.24-14.68-.29-17c0-1.64-1.2-10-1.86-14.62v-.3l-.4-2.73s0-.45-.39-.5a9,9,0,0,0-1.26-.12H6.79c-4.37,0-5.07.1-5.07.4,0,0,.53,15.61.64,18.09S2.13,98.41,2,99.51Z"/><path class="cls-6" d="M10.59,65.77a1.6,1.6,0,0,0,.31,0,2.45,2.45,0,0,0-.15.85,2.52,2.52,0,0,0,2.2,2.5v.3a2.8,2.8,0,0,1-2.54-2.8A2.49,2.49,0,0,1,10.59,65.77Z"/><path class="cls-7" d="M27.18,41.51A24.32,24.32,0,0,1,10,0l7.83,7.83A13.26,13.26,0,0,0,36.59,26.56l7.78,7.79A24.16,24.16,0,0,1,27.18,41.51Z"/><path class="cls-2" d="M24.27,42.05a3,3,0,0,1,.14.9,14.29,14.29,0,0,0,2.38-.75,4.75,4.75,0,0,0,1.53-1.14c.62-.65,1.15-1.32.48-2.33-.53-.82-1.8-.29-2.21.26s-.86,1.67-1.35,1.94a12.26,12.26,0,0,1-1.29.56A2.39,2.39,0,0,1,24.27,42.05Z"/><path class="cls-4" d="M9.83,46.68c2.43.94,5.43,2.11,7.5,1.56s7.17-4.49,8-5.28a.5.5,0,0,0,.16-.4c-.07-1-.67-1.62-.94-1.62s-5.7,4.74-8.81,4.56c-2.17-.13-2.28-.38-4-1.22s-1.86-2.12-3.44-1S7.53,45.8,9.83,46.68Z"/></g></g></svg>