<svg xmlns="http://www.w3.org/2000/svg" xmlns:xlink="http://www.w3.org/1999/xlink" viewBox="0 0 101.93 91.23"><defs><style>.cls-1{fill:#303637;}.cls-2{fill:url(#Degradado_sin_nombre);}</style><linearGradient id="Degradado_sin_nombre" x1="50.99" y1="7.28" x2="50.99" y2="67.57" gradientTransform="matrix(1, 0, 0, -1, 0, 70.86)" gradientUnits="userSpaceOnUse"><stop offset="0" stop-color="#fff"/><stop offset="1" stop-color="#0098db"/></linearGradient></defs><title>paso2</title><g id="Capa_2" data-name="Capa 2"><g id="Layer_2" data-name="Layer 2"><rect class="cls-1" width="101.93" height="66.86" rx="3.44" ry="3.44"/><path class="cls-2" d="M95.94,63.58H6A3.18,3.18,0,0,1,2.74,60.5V6.39A3.18,3.18,0,0,1,6,3.29H96a3.18,3.18,0,0,1,3.26,3.1h0V60.5A3.18,3.18,0,0,1,96,63.58Z"/><path class="cls-1" d="M44.34,66.86V87.22H57.6V66.86ZM51,82.11a4.32,4.32,0,1,1,4.32-4.32h0A4.31,4.31,0,0,1,51,82.11Z"/><rect class="cls-1" x="30.62" y="87.22" width="40.69" height="4.01"/></g></g></svg>