<svg xmlns="http://www.w3.org/2000/svg" viewBox="0 0 190.17 112.56"><defs><style>.cls-1{fill:#e4e4e4;}</style></defs><title>paso1</title><g id="Capa_2" data-name="Capa 2"><g id="Layer_1" data-name="Layer 1"><path class="cls-1" d="M182.9,36c14,16.54,5.5,29.28-6.23,32-16.63,3.86-14.89-3.45-19.22,21.55C156,98,150.9,106.23,142.59,110.2a24.14,24.14,0,0,1-19.42.63c-3.4-1.43-6.32-3.7-9.55-5.44s-13.57-4.57-16.76-3.23c-28.63,12-18.68-4.25-57.5,3C25.79,107.7,4.79,85.79,2.17,72.94-.15,61.5-.89,49.67,1.37,38.22,4.94,20.07,18.59-3.16,41.6.36c27.71,4.23,23,31.81,40.19,14.79C92.06,5,115.31-5.18,129.88,20.93S164.06,13.77,182.9,36Z"/></g></g></svg>