<svg xmlns="http://www.w3.org/2000/svg" xmlns:xlink="http://www.w3.org/1999/xlink" viewBox="0 0 109.05 92.76"><defs><style>.cls-1,.cls-16,.cls-18{fill:none;}.cls-2{fill:#f9fafc;}.cls-25,.cls-3{fill:#303637;}.cls-4{fill:#eb625a;}.cls-5{fill:#e7e7e8;}.cls-6{fill:#929396;}.cls-7{clip-path:url(#clip-path);}.cls-8{fill:#f6d8bc;}.cls-9{fill:#27aae2;}.cls-10{fill:#f3a29a;}.cls-11{fill:#292c2c;}.cls-12,.cls-14{fill:#f4a383;}.cls-13{fill:#27282a;}.cls-14,.cls-32{opacity:0.2;}.cls-14,.cls-15,.cls-23,.cls-25,.cls-32{isolation:isolate;}.cls-15{fill:#f2f2f2;}.cls-15,.cls-25{opacity:0.1;}.cls-16{stroke:#27282a;stroke-width:0.16px;}.cls-16,.cls-18{stroke-miterlimit:10;}.cls-17{fill:#cfd2d3;}.cls-18{stroke:#59595b;stroke-width:0.4px;}.cls-19,.cls-23{fill:#f4a67d;}.cls-20{clip-path:url(#clip-path-2);}.cls-21{fill:#f8bc90;}.cls-22{fill:#f4ceb3;}.cls-23{opacity:0.4;}.cls-24{fill:#4e4d4d;}.cls-26{fill:#fdce57;}.cls-27{fill:#f4a279;}.cls-28{fill:#e77a43;}.cls-29{fill:#f5a97c;}.cls-30{fill:#999898;}.cls-31{fill:#131313;}.cls-32{fill:#f1f0f0;}</style><clipPath id="clip-path"><circle class="cls-1" cx="52.56" cy="16.54" r="7.83"/></clipPath><clipPath id="clip-path-2"><path class="cls-1" d="M108.24,78H18.29A3.18,3.18,0,0,1,15,74.87V20.76a3.18,3.18,0,0,1,3.25-3.1h90a3.18,3.18,0,0,1,3.26,3.1h0V74.87A3.18,3.18,0,0,1,108.27,78Z"/></clipPath></defs><title>paso3</title><g id="Capa_2" data-name="Capa 2"><g id="Layer_3" data-name="Layer 3"><rect class="cls-2" x="41.11" width="47.8" height="62.32"/><rect class="cls-3" x="41.11" width="47.8" height="3.98"/><path class="cls-4" d="M86.42,1.7a.73.73,0,0,1-.73.73h0A.73.73,0,0,1,85,1.7.72.72,0,0,1,85.69,1h0A.73.73,0,0,1,86.42,1.7Z"/><path class="cls-5" d="M83.62,1.7a.73.73,0,0,1-.73.73h0a.73.73,0,0,1-.72-.73A.72.72,0,0,1,82.89,1h0A.73.73,0,0,1,83.62,1.7Z"/><path class="cls-5" d="M80.82,1.7a.73.73,0,1,1-1.45,0h0A.73.73,0,0,1,80.1,1a.72.72,0,0,1,.72.72Z"/><circle class="cls-6" cx="52.14" cy="16.67" r="7.92"/><g class="cls-7"><path class="cls-8" d="M53.64,20.34l.81.18a2.78,2.78,0,0,1,2.17,2.7v1.14a.29.29,0,0,1-.3.3H48.87a.29.29,0,0,1-.3-.28V23.22a2.76,2.76,0,0,1,2.17-2.7l.7-.15h0l.72-.09h1l.47.07Z"/><path class="cls-9" d="M54.88,20.62l-1.24-.28h-.32v.78h0a.73.73,0,0,1-1.45-.06h0v-.69l-.41.06-1.14.25a2.31,2.31,0,0,0-.79.34v3.7H55.7V21A2.31,2.31,0,0,0,54.88,20.62Z"/><path class="cls-9" d="M49.52,23.2h-1a2.38,2.38,0,0,1,1-2.24Z"/><path class="cls-9" d="M55.71,23.2h1a2.38,2.38,0,0,0-1-2.24Z"/><path class="cls-8" d="M53.37,20.27V21a.73.73,0,0,1-1.46,0h0V19.87l.18-.16h.12l.71-.16.21.05.24.08"/><path class="cls-10" d="M52.87,19.53l-.71.16H52l-.18.16v.56a1.4,1.4,0,0,0,.75.22,1.36,1.36,0,0,0,.71-.2v-.77l-.24-.08Z"/><path class="cls-8" d="M52.6,20.11h0a2.91,2.91,0,0,1-2.91-2.91h0V14a2.91,2.91,0,0,1,2.91-2.91h0A2.91,2.91,0,0,1,55.51,14h0V17.2a2.91,2.91,0,0,1-2.91,2.91Z"/><path class="cls-11" d="M54.22,15.38a.31.31,0,1,1-.61.11.21.21,0,0,1,0-.11.31.31,0,0,1,.36-.25A.3.3,0,0,1,54.22,15.38Z"/><path class="cls-11" d="M51.67,15.38a.31.31,0,0,1-.31.31.29.29,0,0,1-.3-.3h0a.29.29,0,0,1,.28-.3h0a.29.29,0,0,1,.31.29Z"/><path class="cls-12" d="M52.65,18.32a1.87,1.87,0,0,1-1-.31.08.08,0,0,1,0-.09h.1a1.82,1.82,0,0,0,2,0,.08.08,0,0,1,.1,0,.07.07,0,0,1,0,.1s0,0,0,0A1.93,1.93,0,0,1,52.65,18.32Z"/><path class="cls-12" d="M52.37,19.37h-.06a.07.07,0,0,1,0-.09.88.88,0,0,1,.32-.07.72.72,0,0,1,.29.06.07.07,0,0,1,0,.09.06.06,0,0,1-.08,0,.69.69,0,0,0-.24-.05.58.58,0,0,0-.26.06Z"/><path class="cls-10" d="M55.51,15.32h0a.56.56,0,0,1,.56.56v.32a.56.56,0,0,1-.56.56h0"/><path class="cls-10" d="M49.69,15.32h0a.56.56,0,0,0-.56.56v.32a.56.56,0,0,0,.56.56h0"/><path class="cls-10" d="M52.56,15.52l-.22.93a.32.32,0,0,0,.23.39h.08a.32.32,0,0,0,.33-.31.28.28,0,0,0,0-.09l-.23-.93a.09.09,0,1,0-.18,0Z"/><path class="cls-13" d="M51.79,14.6h-.08a.45.45,0,0,0-.68,0,.15.15,0,0,1-.18,0,.14.14,0,0,1,0-.19.72.72,0,0,1,1,0,.12.12,0,0,1,0,.17h-.07Z"/><path class="cls-13" d="M53.46,14.6h-.1a.15.15,0,0,1,0-.18.72.72,0,0,1,1,0,.13.13,0,0,1,0,.18h0a.15.15,0,0,1-.18,0,.48.48,0,0,0-.68,0Z"/><path class="cls-8" d="M54,19.28v.08"/><rect class="cls-10" x="55.71" y="23.2" width="0.36" height="1.46"/><rect class="cls-10" x="49.16" y="23.2" width="0.36" height="1.46"/><path class="cls-14" d="M52.61,20.11h0a2.9,2.9,0,0,0,2.9-2.9h0V15.12s-.14,2.87-2.4,3.75a1.33,1.33,0,0,1-1,0c-2.24-.87-2.41-3.74-2.41-3.74v2.08a2.91,2.91,0,0,0,2.91,2.91h0"/><path class="cls-13" d="M55.27,11.65c-.41-1-1.39-1.8-3.6-1.43a1.56,1.56,0,0,0-.92.67c-.65.08-1.51.73-1.06,4.1,0,0,.49-3.79,1.76-2.4h0c.41.48,1.5,1.32,4,1.38a8.34,8.34,0,0,1,0,1C56.3,12.45,55.65,11.81,55.27,11.65Z"/><path class="cls-15" d="M52.8,13a2.35,2.35,0,0,1-.92-.79,1,1,0,0,0-1-.42v.11a.86.86,0,0,1,.86.37,2.23,2.23,0,0,0,.95.82,8.29,8.29,0,0,0,3.07.62v-.11A8.32,8.32,0,0,1,52.8,13Z"/><path class="cls-15" d="M55.86,12.65c-2.54-.05-3.1-.61-3.22-.87h0a1.51,1.51,0,0,0-1.72-.59v.1a1.38,1.38,0,0,1,1.59.55h0c.27.57,1.44.9,3.32.93A.27.27,0,0,0,55.86,12.65Z"/></g><path class="cls-16" d="M54.62,15.43a.75.75,0,1,1-.76-.74h0A.75.75,0,0,1,54.62,15.43Z"/><line class="cls-16" x1="54.58" y1="15.21" x2="55.49" y2="15.21"/><path class="cls-16" d="M50.55,15.43a.75.75,0,1,0,.76-.74h0A.75.75,0,0,0,50.55,15.43Z"/><line class="cls-16" x1="50.59" y1="15.21" x2="49.69" y2="15.21"/><line class="cls-16" x1="52" y1="15.37" x2="53.17" y2="15.37"/><rect class="cls-17" x="64.17" y="11.24" width="20.07" height="2.43"/><rect class="cls-17" x="64.17" y="16.44" width="20.07" height="2.43"/><rect class="cls-17" x="64.17" y="21.64" width="20.07" height="2.43"/><rect class="cls-17" x="53.87" y="29.48" width="30.37" height="2.43"/><rect class="cls-17" x="53.87" y="37.32" width="30.37" height="2.43"/><rect class="cls-17" x="53.87" y="45.16" width="30.37" height="2.43"/><rect class="cls-17" x="53.87" y="53" width="30.37" height="2.43"/><rect class="cls-18" x="46.19" y="28.88" width="3.37" height="3.01"/><rect class="cls-18" x="46.19" y="37.03" width="3.37" height="3.01"/><rect class="cls-18" x="46.19" y="45.19" width="3.37" height="3.01"/><rect class="cls-18" x="46.19" y="53.35" width="3.37" height="3.01"/><path class="cls-19" d="M41.1,59.35l-.87-.12a6.76,6.76,0,0,1-1.6-.37,5.06,5.06,0,0,1-1.84-1.47A14.88,14.88,0,0,1,34,43.3c1-3.16,7-6.66,7-6.66Z"/><g class="cls-20"><path class="cls-21" d="M41.07,56.27a3,3,0,0,1-1-2.39,2.93,2.93,0,0,1-2.51,2.55h0a6.49,6.49,0,0,0,2.56-4.83,15.13,15.13,0,0,0-2.52-8.43c-1.1-1.64-2.69-3.45-1.32-5.41a5.75,5.75,0,0,1,1.4-1.2,7,7,0,0,0,2.53-3.37c.21-.65.71-4.22-.65-4a1.44,1.44,0,0,0-.59.3,42.93,42.93,0,0,1-4.49,2.84c-1.35.75-2.25,1-2.77,2.51-1.69,5-3.54,9.72-2.52,15.07.64,3.36-1.3,7-3.08,9.87a4.91,4.91,0,0,0-.74,1.57,47.06,47.06,0,0,0,8.56,8.42,26.81,26.81,0,0,1,4-4.7c1.38-1.2,1.51-1.92,3.1-2.82l.11-2.72Z"/><path class="cls-22" d="M36,33.77a.22.22,0,0,0,.09.1.25.25,0,0,0,.17,0,14.36,14.36,0,0,0,1.57-1,2.81,2.81,0,0,0,.62-.52,2.26,2.26,0,0,0,.43-1.05,4,4,0,0,0-.06-1.69c-1.1.79-2.25,1.53-3.43,2.21A4,4,0,0,0,36,33.77Z"/><path class="cls-19" d="M35,34.25c-.27-.21-.35-1.08-.39-1.39a2.36,2.36,0,0,1,0-.54h-.06l-.26.14A2.2,2.2,0,0,0,35,34.25Z"/><path class="cls-19" d="M34.22,34.25c-.26-.21-.35-1.08-.39-1.39V32.7l-.32.17A2.11,2.11,0,0,0,34.22,34.25Z"/><path class="cls-23" d="M32,51.63c-.07-3.16-1.82-6-2.4-9l-.09-.44A18.9,18.9,0,0,0,29.19,50c.64,3.36-1.3,7-3.08,9.87a5.05,5.05,0,0,0-.74,1.51q.61.74,1.26,1.47c.47-.57.91-1.18,1.33-1.79C29.94,58.19,32,55.09,32,51.63Z"/><path class="cls-19" d="M34.28,38.06a10,10,0,0,0,2.09-.44,2.2,2.2,0,0,1,.3-.31l-.41.15a7.12,7.12,0,0,1-2.26.63Z"/><path class="cls-19" d="M34.37,69.16l.71-1c-.22-.25-.44-.5-.68-.73A43.17,43.17,0,0,1,29,61.9l4.11,5.6C33.53,68.08,33.94,68.63,34.37,69.16Z"/><path class="cls-2" d="M24.53,57.62A38.89,38.89,0,0,0,35.07,70.5c.1.3-1.21,2.24-1.21,2.24s-8.73-5.4-11.72-13.26C22.44,58.66,24.53,57.62,24.53,57.62Z"/><path class="cls-24" d="M21.54,57.62S22.89,66,37.13,73.38c-.59-.4-15,19.38-15,19.38L0,75.19Z"/><path class="cls-25" d="M30.37,69.16H29.23l-20.51,13L22.14,92.76s14.4-19.78,15-19.38A46.41,46.41,0,0,1,30.37,69.16Z"/><path class="cls-26" d="M33.05,74.31a1.57,1.57,0,1,1-1.57-1.57h0A1.57,1.57,0,0,1,33.05,74.31Z"/><rect class="cls-1" x="63.63" y="24.53" width="36.02" height="51.2"/><path class="cls-27" d="M88.23,36.36a7.66,7.66,0,0,1,.93,1.74c.5,1.16,1,2.34,1.41,3.53a16.94,16.94,0,0,1,1,3.9,19.11,19.11,0,0,1,.07,2.62c-.08,3.84-.15,7.68-.23,11.52a8,8,0,0,1-1.22-2.36,94.52,94.52,0,0,1-3.82-12.76,33.67,33.67,0,0,0-1.1-4.2,29,29,0,0,0-1.17-2.68c-.65-1.36-1.27-2.73-2-4.07.94-.35,2,.41,2.88.74A6.68,6.68,0,0,1,88.23,36.36Z"/><path class="cls-28" d="M71.64,37.29a2,2,0,0,0,.75.41c.61.15,1.19-.42,1.76-.56A5.26,5.26,0,0,1,75.27,37l2.65-.13a.69.69,0,0,1,.35,0,.84.84,0,0,1,.26.27,8.13,8.13,0,0,0,1.18,1.37,1.07,1.07,0,0,1,.37.47,1.27,1.27,0,0,1-.23.92,4.18,4.18,0,0,0-.4,2.46.9.9,0,0,1,0,.4.93.93,0,0,1-.33.38,3.9,3.9,0,0,0-1.4,3.09,8.11,8.11,0,0,0,3.61-.63A4.3,4.3,0,0,0,83,44.46a4.05,4.05,0,0,0,.8-2.17A11.34,11.34,0,0,0,83.73,40a6.41,6.41,0,0,0-.48-2.12,4.28,4.28,0,0,0-1.44-1.55,7.54,7.54,0,0,0-2.69-1.1,8.49,8.49,0,0,0-5.11.12L71.5,36.4a.35.35,0,0,0-.2.14C71.17,36.8,71.37,37.06,71.64,37.29Z"/><path class="cls-27" d="M80.58,42.72a4.36,4.36,0,0,1,0-1.25,3.89,3.89,0,0,1,.84-1.24.46.46,0,0,0,.13-.27.68.68,0,0,0-.08-.24c-.85-1.54-.83-3.08-2.74-3.64s-4.3-.21-6.36-.21c-.67,0-1.44-.09-1.6-.91a.38.38,0,0,1,0-.15.34.34,0,0,1,.12-.12,4.3,4.3,0,0,1,1.1-.36c1-.28,2-.7,3-.9l4.91-.94a1.35,1.35,0,0,1,1.34.38l2.69,2.21A4.93,4.93,0,0,1,85.54,37,5,5,0,0,1,85.7,39a70.1,70.1,0,0,0,0,7.94,3.29,3.29,0,0,1-.47,2.33c-1,1.16-3.91.18-5-.46-1.49-.85-2-2.32-.92-3.75A4.56,4.56,0,0,0,80.52,43,1.36,1.36,0,0,0,80.58,42.72Z"/><path class="cls-21" d="M91.94,54.19c-.29-3.06-.45-6-1-9,0,0,.09.72.1.66a4.49,4.49,0,0,0-.58-2.91c-.47-.9-1.09-1.7-1.59-2.58-1.17-2.08-1.6-4.52-2.82-6.57a3.08,3.08,0,0,0-1.15-1.25,3.52,3.52,0,0,0-1.32-.33L79,31.64a16.75,16.75,0,0,0-3-.2c-1.56.09-3,.52-4.5.13-.31-.08-.62.24-.63.56a1.32,1.32,0,0,0,.37.88,4.89,4.89,0,0,0,3,1.7c.84.13,1.71,0,2.55.16a8.55,8.55,0,0,1,2.15.74c1.23.55,2.46,1.13,3.68,1.73.39.19.83.45.9.89a1.55,1.55,0,0,1-.45,1.06,6.43,6.43,0,0,0-.93,5.35c.26,1-.9,1.29-1.71,1.42s-1.42-.41-1.88-1.17A19.3,19.3,0,0,1,77,40.46a1.63,1.63,0,0,0-.11-.31,13.38,13.38,0,0,0-1.06-2.23A9.65,9.65,0,0,0,75,36.8a2.2,2.2,0,0,0-2.44-.68,2.3,2.3,0,0,0-1.21,1.15c-.56,1.1-.23,2.18,0,3.32l.33,2a15,15,0,0,0,1.17,4.09A36,36,0,0,1,75,52.9a25,25,0,0,0,3.34,6.39c2.62,4.08,5.75,7.86,7.79,12.3a38.43,38.43,0,0,1,2.42,7.48c.25,1.07.63,6.44,1.66,6.75.47.14,1.62-.85,2.08-1a29.24,29.24,0,0,1,3.92-1c.8-.18,7.32-2,7.67-1.42C98.37,74.26,92.9,64.14,91.94,54.19Z"/><path class="cls-22" d="M71.37,38.78s-.21-3,3-1.52a9.69,9.69,0,0,1,.76,2.8c-.08-.16-1.32,1.1-3,1.23C72.07,41.36,71.37,38.78,71.37,38.78Z"/><path class="cls-22" d="M72.08,32.27a4.82,4.82,0,0,0,2.2.16c-.06-.26-.12-.52-.17-.79a7.65,7.65,0,0,1-2.34,0,1.12,1.12,0,0,0,.17.58A.34.34,0,0,0,72.08,32.27Z"/><path class="cls-29" d="M75,32.73a7.88,7.88,0,0,1,0-1.19h-.18A6,6,0,0,0,75,32.73Z"/><path class="cls-29" d="M75.6,32.31a3,3,0,0,1,0-.84h-.16v.1A6.08,6.08,0,0,0,75.6,32.31Z"/><path class="cls-29" d="M76.37,34.87c.16-.1.31-.21.45-.31a3.53,3.53,0,0,0,.72-.61,4.6,4.6,0,0,1-1.58.9Z"/><path class="cls-29" d="M80.69,36.42c.37-.12.73-.27,1.09-.42a3.72,3.72,0,0,1-1.36.29Z"/><path class="cls-29" d="M84.2,34.06a5.08,5.08,0,0,1,0-1.74l-.29-.06A4.82,4.82,0,0,0,84.2,34.06Z"/><path class="cls-27" d="M78.94,45.45a14.52,14.52,0,0,1,.23,3.66,18.65,18.65,0,0,0,.09-3.34A2.42,2.42,0,0,1,78.94,45.45Z"/><path class="cls-29" d="M86.13,38.6a12.56,12.56,0,0,1-2.82-.78.72.72,0,0,1,.2.41,1.22,1.22,0,0,1,0,.27A5.8,5.8,0,0,0,86.13,38.6Z"/><path class="cls-29" d="M75.85,40.59A8.35,8.35,0,0,1,72.49,42a5.91,5.91,0,0,1,1.39-.66A7,7,0,0,0,75.85,40.59Z"/><path class="cls-29" d="M72.77,42.49a3.45,3.45,0,0,0,1.69,0,2.73,2.73,0,0,0,1.4-.9c-.42.23-.89.34-1.32.54A5.64,5.64,0,0,1,72.77,42.49Z"/><path class="cls-2" d="M81.1,65.55v2s12.21-2.86,14-5.64c-.2.11-1.2-1.58-1.2-1.58S92.67,63.25,81.1,65.55Z"/><path class="cls-24" d="M97.37,59.87s-5.6,6-19,8.24c0,.15,6.31,22.78,6.31,22.78s24.52-8.84,24.37-9.07S97.37,59.87,97.37,59.87Z"/><path class="cls-25" d="M97.31,86.3C94.88,79.73,89.39,65,89.24,65.18A34.26,34.26,0,0,1,82,67.36c-1.14.28-2.34.53-3.62.74,0,.15,6.31,22.78,6.31,22.78S91.09,88.58,97.31,86.3Z"/><path class="cls-3" d="M66.37,31.16a146.92,146.92,0,0,1,27.3,15.78c.09.23.52,1.36-1.46,1.89C92.11,48.87,70.56,35.56,66.37,31.16Z"/><path class="cls-30" d="M66.37,31.16a28.83,28.83,0,0,0,2.32,2s.83.07.68-.67Z"/><path class="cls-31" d="M66.37,31.16l1,.92s.4,0,.35-.33C67.69,31.76,66.37,31.16,66.37,31.16Z"/><path class="cls-31" d="M86.62,42.07A4.58,4.58,0,0,1,85,44.36l.21.14a4.74,4.74,0,0,0,1.66-2.28Z"/><path class="cls-32" d="M70.43,33.36s11.38,5.77,15.28,8.88c0,.11-.38.53-.38.53Z"/><path class="cls-32" d="M86.84,43.66l6,4.27a.65.65,0,0,0,.42-.8l-6.31-4Z"/><path class="cls-26" d="M85.37,71.34a1.57,1.57,0,1,1-1.57-1.57h0A1.57,1.57,0,0,1,85.37,71.34Z"/></g><path class="cls-3" d="M97.37,59.87a6.41,6.41,0,0,0-3.18,1c-.06-.09.88,1.07.88,1.07Z"/><path class="cls-3" d="M78.37,68.1a3.27,3.27,0,0,1,2.69-1.81v1.29Z"/><path class="cls-3" d="M21.54,57.62a1.59,1.59,0,0,1,1.51.89,2.91,2.91,0,0,0-.91,1A9,9,0,0,1,21.54,57.62Z"/><path class="cls-3" d="M35,70.87s2.23,1.4,2.17,2.49c0,0-2.23-1.22-2.75-1.53A9.41,9.41,0,0,0,35,70.87Z"/></g></g></svg>