<svg xmlns="http://www.w3.org/2000/svg" viewBox="0 0 31.82 52.47"><defs><style>.cls-1{fill:#fdce57;}</style></defs><title>paso7</title><g id="Capa_2" data-name="Capa 2"><g id="Layer_7" data-name="Layer 7"><path class="cls-1" d="M26.63,17.5a4.7,4.7,0,0,0-1-.72,18.58,18.58,0,0,0-2.07-1.09,25.93,25.93,0,0,0-2.8-1.12,16.51,16.51,0,0,0-3.1-.76v7.61l1.79.45a49.08,49.08,0,0,1,5.14,1.7,13.78,13.78,0,0,1,3.89,2.3,9.3,9.3,0,0,1,2.46,3.33,11.43,11.43,0,0,1,.87,4.69,12,12,0,0,1-1.12,5.43,10.24,10.24,0,0,1-3,3.66,13.14,13.14,0,0,1-4.31,2.16,21.23,21.23,0,0,1-5.12.84v6.49H14.43V45.92A33.69,33.69,0,0,1,6.8,44.36,27.79,27.79,0,0,1,0,41.11l4-8A5.63,5.63,0,0,0,5.2,34a20,20,0,0,0,2.49,1.35,35.32,35.32,0,0,0,3.44,1.39,21.07,21.07,0,0,0,3.92.92V30.2l-2.72-.78A33.7,33.7,0,0,1,7.58,27.6a12.8,12.8,0,0,1-3.25-2.26,8.24,8.24,0,0,1-2-3,10.84,10.84,0,0,1-.64-3.91,12.46,12.46,0,0,1,1-5.18A12.12,12.12,0,0,1,5.4,9.36a12.37,12.37,0,0,1,4-2.54,18.26,18.26,0,0,1,5-1.2V0h3.93V5.65a24,24,0,0,1,6.83,1.62A46,46,0,0,1,30.7,9.9ZM11.13,17a2.73,2.73,0,0,0,1,2.21,8.74,8.74,0,0,0,2.94,1.43V13.77Q11.14,14.09,11.13,17ZM22,34.77a2.61,2.61,0,0,0-1.17-2.27A13,13,0,0,0,17.68,31v6.75C20.55,37.65,22,36.65,22,34.77Z"/></g></g></svg>