<svg xmlns="http://www.w3.org/2000/svg" viewBox="0 0 57.89 57.44"><defs><style>.cls-1{fill:#e7e7e8;}.cls-2{fill:#a5a7aa;}.cls-3{fill:#cfd2d3;}.cls-4{fill:#f9fafc;}.cls-5{fill:#fdce57;}.cls-6{fill:none;stroke:#fff;stroke-miterlimit:10;stroke-width:0.14px;opacity:0.3;}.cls-6,.cls-7{isolation:isolate;}.cls-7{fill:#fff;opacity:0.2;}</style></defs><title>paso4</title><g id="Capa_2" data-name="Capa 2"><g id="Layer_4" data-name="Layer 4"><polygon class="cls-1" points="48.96 30.01 28.31 50.94 0 23.02 17.86 4.91 17.86 4.91 20.32 4.72 23.11 4.51 48.96 30.01"/><polygon class="cls-2" points="17.86 4.91 20.33 7.34 23.11 4.51 23.11 4.51 17.86 4.91"/><rect class="cls-3" x="6.66" y="20.13" width="8.26" height="8.26" transform="translate(-14.06 14.9) rotate(-45.39)"/><rect class="cls-3" x="11.56" y="12.69" width="11.33" height="1.02" transform="translate(-4.27 16.19) rotate(-45.39)"/><rect class="cls-3" x="13.08" y="14.17" width="11.33" height="1.02" transform="translate(-4.87 17.71) rotate(-45.39)"/><rect class="cls-3" x="14.6" y="15.67" width="11.33" height="1.02" transform="translate(-5.49 19.24) rotate(-45.39)"/><rect class="cls-3" x="16.1" y="17.17" width="11.33" height="1.02" transform="translate(-6.11 20.76) rotate(-45.39)"/><rect class="cls-3" x="14.73" y="28.09" width="8.26" height="8.26" transform="translate(-17.32 23.02) rotate(-45.39)"/><rect class="cls-3" x="19.62" y="20.64" width="11.33" height="1.02" transform="translate(-7.53 24.3) rotate(-45.39)"/><rect class="cls-3" x="21.15" y="22.14" width="11.33" height="1.02" transform="translate(-8.14 25.83) rotate(-45.39)"/><rect class="cls-3" x="22.65" y="23.63" width="11.33" height="1.02" transform="translate(-8.75 27.34) rotate(-45.39)"/><rect class="cls-3" x="24.16" y="25.11" width="11.33" height="1.02" transform="translate(-9.36 28.86) rotate(-45.39)"/><rect class="cls-3" x="22.78" y="36.03" width="8.26" height="8.26" transform="translate(-20.58 31.11) rotate(-45.39)"/><rect class="cls-3" x="27.69" y="28.59" width="11.33" height="1.02" transform="translate(-10.78 32.41) rotate(-45.39)"/><rect class="cls-3" x="29.2" y="30.08" width="11.33" height="1.02" transform="translate(-11.4 33.92) rotate(-45.39)"/><rect class="cls-3" x="30.71" y="31.58" width="11.33" height="1.02" transform="translate(-12.02 35.45) rotate(-45.39)"/><rect class="cls-3" x="32.23" y="33.07" width="11.33" height="1.02" transform="translate(-12.63 36.98) rotate(-45.39)"/><polygon class="cls-4" points="49.28 27.81 26.82 46.79 1.16 16.41 20.59 0 20.59 0 23.05 0.04 25.85 0.08 49.28 27.81"/><polygon class="cls-2" points="20.59 0 22.82 2.64 25.85 0.08 25.85 0.08 20.59 0"/><rect class="cls-3" x="7.67" y="14.5" width="8.26" height="8.26" transform="translate(-9.24 12.02) rotate(-40.2)"/><rect class="cls-3" x="13.54" y="7.68" width="11.33" height="1.02" transform="translate(-0.75 14.33) rotate(-40.2)"/><rect class="cls-3" x="14.9" y="9.09" width="11.33" height="1.02" transform="translate(-1.3 15.67) rotate(-40.54)"/><rect class="cls-3" x="16.28" y="10.94" width="11.33" height="1.02" transform="translate(-2.21 16.87) rotate(-40.2)"/><rect class="cls-3" x="17.65" y="12.32" width="11.33" height="1.02" transform="translate(-2.74 18.23) rotate(-40.54)"/><rect class="cls-3" x="14.97" y="23.15" width="8.26" height="8.26" transform="translate(-13.1 18.77) rotate(-40.2)"/><rect class="cls-3" x="20.85" y="16.06" width="11.33" height="1.02" transform="translate(-4.41 21.22) rotate(-40.54)"/><rect class="cls-3" x="22.22" y="17.95" width="11.33" height="1.02" transform="translate(-5.33 22.36) rotate(-40.2)"/><rect class="cls-3" x="23.59" y="19.58" width="11.33" height="1.02" transform="translate(-6.06 23.63) rotate(-40.2)"/><rect class="cls-3" x="24.96" y="21.21" width="11.33" height="1.02" transform="translate(-6.79 24.89) rotate(-40.2)"/><rect class="cls-3" x="22.28" y="31.8" width="8.26" height="8.26" transform="translate(-16.95 25.53) rotate(-40.2)"/><rect class="cls-3" x="28.16" y="24.98" width="11.33" height="1.02" transform="translate(-8.46 27.85) rotate(-40.2)"/><rect class="cls-3" x="29.52" y="26.6" width="11.33" height="1.02" transform="translate(-9.19 29.12) rotate(-40.2)"/><rect class="cls-3" x="30.9" y="28.23" width="11.33" height="1.02" transform="translate(-9.92 30.39) rotate(-40.2)"/><rect class="cls-3" x="32.27" y="29.86" width="11.33" height="1.02" transform="translate(-10.64 31.66) rotate(-40.2)"/><path class="cls-5" d="M18.34,24.39l-2.75-4.75a2.7,2.7,0,0,1,1-3.7h0L34.29,5.67a2.7,2.7,0,0,1,3.7,1h0L57.53,40.38a2.72,2.72,0,0,1-1,3.71l-14.3,8.28-5.76,3.34-2.35,1.36a2.7,2.7,0,0,1-3.7-1h0l-14-24.26a2.7,2.7,0,0,1,1-3.7h0a2.71,2.71,0,0,0,1-3.7Z"/><path class="cls-6" d="M56.46,41.78,32.52,55.65,18,30.54l1.26-.73a3.87,3.87,0,0,0,1.41-5.29h0l-3.88-6.7L36.12,6.62Z"/><path class="cls-7" d="M50.43,40.41h0A1.67,1.67,0,0,0,51,38.13L36.21,12.51a1.67,1.67,0,0,0-2.28-.6h0a1.67,1.67,0,0,0-.61,2.28L48.15,39.8A1.67,1.67,0,0,0,50.43,40.41Z"/></g></g></svg>