<svg xmlns="http://www.w3.org/2000/svg" viewBox="0 0 45.38 16"><defs><style>.cls-1{fill:#fdce57;}.cls-2{fill:#fff;}</style></defs><title>paso8</title><g id="Capa_2" data-name="Capa 2"><g id="Layer_8" data-name="Layer 8"><path class="cls-1" d="M37.38,16H8A8,8,0,0,1,0,8H0A8,8,0,0,1,8,0H37.38a8,8,0,0,1,8,8h0A8,8,0,0,1,37.38,16Z"/><path class="cls-2" d="M7.79,8.62H6.85v1H6.28V6.29H7.67a1.5,1.5,0,0,1,1,.3A1,1,0,0,1,9,7.43a1.24,1.24,0,0,1-.18.68,1.12,1.12,0,0,1-.51.4l.75,1.12H8.44ZM8.24,8a.66.66,0,0,0,.21-.51A.6.6,0,0,0,8.24,7a1,1,0,0,0-.6-.17H6.85V8.12h.82a1,1,0,0,0,.57-.21Z"/><path class="cls-2" d="M10.29,6.79V7.7h1.63v.5H10.29v.92h1.88v.51H9.73V6.29h2.38v.5Z"/><path class="cls-2" d="M15.67,8V9.22a2.34,2.34,0,0,1-.61.31,2,2,0,0,1-.69.12,1.83,1.83,0,0,1-.89-.22A1.69,1.69,0,0,1,12.62,8a1.73,1.73,0,0,1,.23-.86,1.78,1.78,0,0,1,.65-.6,1.92,1.92,0,0,1,.91-.23,2.06,2.06,0,0,1,1.28.47l-.32.42a1.34,1.34,0,0,0-1-.38,1.18,1.18,0,0,0-1.06.58,1.22,1.22,0,0,0,0,1.2,1.24,1.24,0,0,0,.45.43,1.32,1.32,0,0,0,.61.16,1.61,1.61,0,0,0,.77-.23V8Z"/><path class="cls-2" d="M16.42,9.63V6.29H17V9.63Z"/><path class="cls-2" d="M19.58,6.36a1.83,1.83,0,0,1,.55.25l-.24.5a2.38,2.38,0,0,0-.51-.24,1.77,1.77,0,0,0-.46-.08.7.7,0,0,0-.4.09.3.3,0,0,0-.15.26.39.39,0,0,0,.1.25.63.63,0,0,0,.24.16,2.7,2.7,0,0,0,.4.14,3.83,3.83,0,0,1,.56.22A1.12,1.12,0,0,1,20,8.2a.79.79,0,0,1,.15.51.86.86,0,0,1-.16.51,1.08,1.08,0,0,1-.45.34,1.82,1.82,0,0,1-.65.12,1.88,1.88,0,0,1-.74-.15,2.07,2.07,0,0,1-.62-.38l.24-.49a1.74,1.74,0,0,0,.56.36,1.4,1.4,0,0,0,.57.13A.83.83,0,0,0,19.39,9a.34.34,0,0,0,.17-.3.39.39,0,0,0-.1-.25.82.82,0,0,0-.25-.16l-.4-.13a3.62,3.62,0,0,1-.55-.2,1,1,0,0,1-.36-.28.72.72,0,0,1-.15-.49.75.75,0,0,1,.16-.5,1,1,0,0,1,.42-.32A1.54,1.54,0,0,1,19,6.3,2.07,2.07,0,0,1,19.58,6.36Z"/><path class="cls-2" d="M22.05,6.79V9.63h-.57V6.79H20.43v-.5H23.1v.5Z"/><path class="cls-2" d="M25.09,8.62h-.94v1h-.57V6.29h1.36a1.5,1.5,0,0,1,1,.3,1,1,0,0,1,.35.84,1.24,1.24,0,0,1-.18.68,1.12,1.12,0,0,1-.51.4l.75,1.12h-.68ZM25.54,8a.66.66,0,0,0,.21-.51A.6.6,0,0,0,25.54,7a1,1,0,0,0-.6-.17h-.79V8.12h.79a1,1,0,0,0,.6-.21Z"/><path class="cls-2" d="M27.5,8.91l-.32.76H26.6l1.47-3.34h.6l1.45,3.34h-.6l-.32-.76Zm.84-2-.67,1.46h1.26Z"/><path class="cls-2" d="M32.05,8.62h-.94v1h-.56V6.29H31.9a1.43,1.43,0,0,1,1,.3,1,1,0,0,1,.36.84,1.24,1.24,0,0,1-.18.68,1.08,1.08,0,0,1-.52.4l.75,1.12h-.64ZM32.5,8a.66.66,0,0,0,.21-.51A.6.6,0,0,0,32.5,7a1,1,0,0,0-.6-.17h-.79V8.12h.79a1,1,0,0,0,.6-.21Z"/><path class="cls-2" d="M35.67,6.36a1.77,1.77,0,0,1,.54.25l-.23.5a2.38,2.38,0,0,0-.51-.24A1.77,1.77,0,0,0,35,6.79a.7.7,0,0,0-.4.09.3.3,0,0,0-.15.26.35.35,0,0,0,.1.25.63.63,0,0,0,.23.16l.41.14a5.1,5.1,0,0,1,.55.19,1.12,1.12,0,0,1,.36.29.79.79,0,0,1,.15.51.86.86,0,0,1-.16.51,1.08,1.08,0,0,1-.45.34,1.82,1.82,0,0,1-.65.12,1.88,1.88,0,0,1-.74-.15,1.73,1.73,0,0,1-.62-.38l.24-.49a1.58,1.58,0,0,0,.56.36,1.4,1.4,0,0,0,.57.13A.83.83,0,0,0,35.47,9a.33.33,0,0,0,.16-.3.38.38,0,0,0-.09-.25.82.82,0,0,0-.25-.16l-.4-.13a3.62,3.62,0,0,1-.55-.2A1,1,0,0,1,34,7.69a.72.72,0,0,1-.15-.49A.89.89,0,0,1,34,6.7a1.06,1.06,0,0,1,.43-.32,1.54,1.54,0,0,1,.64-.11A2.16,2.16,0,0,1,35.67,6.36Z"/><path class="cls-2" d="M37.52,6.79V7.7h1.63v.5H37.52v.92H39.4v.51H37V6.29h2.39v.5Z"/></g></g></svg>