<svg xmlns="http://www.w3.org/2000/svg" viewBox="0 0 156.46 58.93"><defs><style>.cls-1{fill:#fdce57;}.cls-2,.cls-3,.cls-4,.cls-5,.cls-6{fill:none;stroke-linecap:round;stroke-linejoin:round;}.cls-2,.cls-5{stroke:#fff;}.cls-2{stroke-width:1.77px;}.cls-3{stroke:#d1d1d2;}.cls-3,.cls-6{stroke-width:1.19px;}.cls-4{stroke:#f1f0f1;}.cls-5{stroke-width:1.21px;}.cls-6{stroke:#c4c4c5;}.cls-7{fill:#e1e1e1;}</style></defs><title>paso9</title><g id="Capa_2" data-name="Capa 2"><g id="Layer_9" data-name="Layer 9"><polygon class="cls-1" points="124.4 41.61 144.45 48.96 139.09 55.02 124.4 41.61"/><polygon class="cls-1" points="121.59 42.67 126.43 52.08 121.59 52.75 121.59 42.67"/><line class="cls-2" x1="151.72" y1="8.83" x2="125.45" y2="8.83"/><path class="cls-3" d="M155.86,2.55a2,2,0,1,1-2-1.95,1.93,1.93,0,0,1,2,1.87Z"/><path class="cls-4" d="M28.05,56.87a1.59,1.59,0,1,1-1.59-1.62,1.6,1.6,0,0,1,1.59,1.62Z"/><path class="cls-5" d="M86.47,49.69a2,2,0,1,1-2.06-1.94h.06A2,2,0,0,1,86.47,49.69Z"/><circle class="cls-6" cx="7.86" cy="18.52" r="1.95"/><polygon class="cls-7" points="15.71 39.56 3.39 50.62 0 46.34 15.71 39.56"/><polygon class="cls-7" points="14.7 37.01 2.79 39.91 2.21 34.74 14.7 37.01"/></g></g></svg>