<svg xmlns="http://www.w3.org/2000/svg" viewBox="0 0 107.32 94.84"><defs><style>.cls-1{fill:#333;}.cls-2{fill:#fff;}.cls-3{fill:#80cef4;}</style></defs><title>paso9</title><g id="Capa_2" data-name="Capa 2"><g id="Layer_8" data-name="Layer 8"><path class="cls-1" d="M11.36,4.17A5.79,5.79,0,1,1,4.17.24,5.79,5.79,0,0,1,11.36,4.17Z"/><path class="cls-2" d="M9.07,5.92a.39.39,0,0,0,.36-.44V5.41A.41.41,0,0,0,9,5l-.65.05V4.94l.55,0a.38.38,0,0,0,.32-.43V4.4A.37.37,0,0,0,8.86,4L8.31,4H8.2l-1.82.12.29-.82a.68.68,0,0,0-.54-.81.69.69,0,0,0-.74.63l-.5,1.41a3.08,3.08,0,0,0-.25,1.16l.1,1.49c0,.37.38,1,.75,1l3-.2h.11l.54,0a.39.39,0,0,0,.3-.44V7.47a.37.37,0,0,0-.35-.39l-.54,0V7l.64,0a.41.41,0,0,0,.36-.44V6.44a.39.39,0,0,0-.41-.39l-.64,0V6Z"/><rect class="cls-3" x="2.48" y="4.51" width="2.45" height="3.74" rx="0.49" ry="0.49" transform="translate(-0.41 0.26) rotate(-3.8)"/><path class="cls-2" d="M4.22,5.13A.3.3,0,0,1,4,5.44a.29.29,0,0,1-.3-.27.3.3,0,0,1,.27-.31A.29.29,0,0,1,4.22,5.13Z"/><circle class="cls-1" cx="98.63" cy="86.16" r="8.68" transform="translate(-31.67 72.99) rotate(-35.37)"/><path class="cls-2" d="M103.54,86.35a.61.61,0,0,0,.54-.66v-.1a.6.6,0,0,0-.61-.59l-1,.07,0-.19.84-.06a.57.57,0,0,0,.47-.65v-.1a.57.57,0,0,0-.55-.59l-.84,0-.15,0-2.73.18.43-1.24A1,1,0,1,0,98,82.23l-.75,2.11a4.26,4.26,0,0,0-.37,1.74l.15,2.23c0,.56.55,1.52,1.12,1.48l4.45-.3h.16l.8,0a.56.56,0,0,0,.45-.65v-.11a.58.58,0,0,0-.54-.59l-.8.06V88l1-.07a.6.6,0,0,0,.53-.65v-.11a.6.6,0,0,0-.61-.58l-1,.06,0-.19Z"/><rect class="cls-3" x="93.67" y="84.23" width="3.67" height="5.6" rx="0.74" ry="0.74" transform="translate(-5.56 6.52) rotate(-3.8)"/><path class="cls-2" d="M96.27,85.16a.43.43,0,1,1-.85.06.43.43,0,0,1,.85-.06Z"/></g></g></svg>