<svg xmlns="http://www.w3.org/2000/svg" viewBox="0 0 167.3 74.58"><defs><style>.cls-1{fill:#fff;}.cls-2{fill:#e62a69;}.cls-3{fill:#80cef4;}.cls-4{fill:#3e94ba;}</style></defs><title>paso6</title><g id="Capa_2" data-name="Capa 2"><g id="Layer_5" data-name="Layer 5"><circle class="cls-1" cx="159.54" cy="62.73" r="7.76"/><path class="cls-2" d="M161.82,59.74a2.2,2.2,0,1,1-2.18-2.22A2.19,2.19,0,0,1,161.82,59.74Z"/><path class="cls-2" d="M163.91,67a.76.76,0,0,0,0-.15c0-2.75-1.89-5-4.28-5s-4.35,2.19-4.38,4.94c0,0,0,.1,0,.14Z"/><circle class="cls-1" cx="128.21" cy="33.72" r="7.76"/><path class="cls-3" d="M130.49,30.73a2.2,2.2,0,1,1-2.18-2.22A2.19,2.19,0,0,1,130.49,30.73Z"/><path class="cls-3" d="M132.58,37.94a.76.76,0,0,0,0-.15c0-2.75-1.89-5-4.28-5S124,35,123.93,37.71c0,0,0,.1,0,.15Z"/><circle class="cls-1" cx="75.04" cy="7.76" r="7.76"/><path class="cls-2" d="M77.32,4.77a2.2,2.2,0,1,1-2.17-2.21A2.19,2.19,0,0,1,77.32,4.77Z"/><path class="cls-2" d="M79.42,12v-.14c0-2.76-1.89-5-4.28-5S70.79,9,70.77,11.75v.15Z"/><circle class="cls-1" cx="43.45" cy="32.63" r="7.76"/><path class="cls-4" d="M45.73,29.64a2.2,2.2,0,1,1-2.18-2.22A2.2,2.2,0,0,1,45.73,29.64Z"/><path class="cls-4" d="M47.82,36.85c0-.05,0-.1,0-.15,0-2.75-1.89-5-4.28-5s-4.35,2.19-4.38,4.94a.76.76,0,0,0,0,.15Z"/><circle class="cls-1" cx="7.76" cy="66.81" r="7.76"/><path class="cls-3" d="M10.05,63.82A2.2,2.2,0,1,1,7.87,61.6,2.21,2.21,0,0,1,10.05,63.82Z"/><path class="cls-3" d="M12.14,71v-.15c0-2.75-1.89-5-4.28-5S3.52,68.05,3.49,70.8V71Z"/></g></g></svg>