<svg xmlns="http://www.w3.org/2000/svg" viewBox="0 0 180.33 119.9"><defs><style>.cls-1{fill:#ececec;}</style></defs><title>paso1</title><g id="Capa_2" data-name="Capa 2"><g id="Layer_1" data-name="Layer 1"><path class="cls-1" d="M166.13,6.87C183.79,18.42,178.9,33,170.54,39.62c-13.68,10.85,7.08.63,9.59,26.08,2.56,25.93-20.94,32.24-27.93,31.76-3.89-.26-9.43,11.94-15.93,17.06-16.58,13.06-31-4.65-57.35,2.48C36.71,128.41,28.4,102.61,26.29,99.9c-4.15-5.32-20.82-5.75-24.88-27C-2.52,52.28.7,27.49,24.68,23.36c28.86-5,22.66,16.21,33.09-5.49,6.24-13,27.34-28.22,51.58-8.2S138.42-11.26,166.13,6.87Z"/></g></g></svg>