<svg xmlns="http://www.w3.org/2000/svg" viewBox="0 0 83.43 93.04"><defs><style>.cls-1{fill:#f4d8c0;}.cls-2{fill:#e0bca3;}.cls-3{fill:#fff;}.cls-4{fill:#0094da;}.cls-5{fill:#333;}.cls-6{fill:#fce15c;}.cls-7{fill:#dd7500;}.cls-8{fill:#3e94ba;}.cls-9{fill:#fce9d4;}.cls-10{fill:#fdf5eb;}.cls-11{fill:#4e4d4d;}</style></defs><title>paso4</title><g id="Capa_2" data-name="Capa 2"><g id="Layer_3" data-name="Layer 3"><path class="cls-1" d="M20.51,65.85,31,77.56l4.62-4.41C42.57,75,56.08,57.51,56.08,57.51l-21-8.69L23.65,62.62"/><path class="cls-2" d="M34.32,53.38,32,55.89l2.18,8.93s4.79,3.71,9.8.55,1.75-2.29,1.75-2.29L36.28,52.73Z"/><path class="cls-3" d="M26,55.71H25A3.78,3.78,0,0,1,21.21,52h0A3.78,3.78,0,0,1,25,48.18H26A3.78,3.78,0,0,1,29.8,52h0A3.78,3.78,0,0,1,26,55.71Z"/><path class="cls-4" d="M66.09,24l-2,1.31c-.83.53-1.76.43-2.1-.2a15.29,15.29,0,0,0-5.26-6.07c-.58-.43-.55-1.36.1-2.11l1.58-1.82a1.91,1.91,0,0,1,2.43-.51,20.64,20.64,0,0,1,6.13,7.07A1.9,1.9,0,0,1,66.09,24Z"/><rect class="cls-5" x="35.57" y="38.6" width="7.3" height="31.83" rx="2.11" ry="2.11" transform="translate(-26.18 39.25) rotate(-41.13)"/><path class="cls-6" d="M71.09,19.9l11.12-3.31a1,1,0,0,1,1.18.63h0a1,1,0,0,1-.64,1.18L71.63,21.71a1,1,0,0,1-1.18-.63h0A1,1,0,0,1,71.09,19.9Z"/><path class="cls-6" d="M67.31,15.19l8.75-7.64a1,1,0,0,1,1.33.09h0A1,1,0,0,1,77.3,9l-8.75,7.63a1,1,0,0,1-1.33-.09h0A1,1,0,0,1,67.31,15.19Z"/><path class="cls-6" d="M62.93,11.4,67.18.6A.94.94,0,0,1,68.41.07h0a.94.94,0,0,1,.53,1.22L64.69,12.1a1,1,0,0,1-1.23.53h0A1,1,0,0,1,62.93,11.4Z"/><path class="cls-5" d="M32.6,33.29,20.16,45h0A12.77,12.77,0,0,0,31.45,55.66l2.2.23,15.59-13Z"/><path class="cls-7" d="M49.36,10.63S42.06,24,32.6,33.29c0,4.49,8.52,11.76,13,12.44,15.77-11.92,24-12,24-12Z"/><path class="cls-5" d="M69.2,36.15h0a2.51,2.51,0,0,1-3.38-1.07A66.91,66.91,0,0,0,46.9,13.33a2.52,2.52,0,0,1-.59-3.5h0A2.65,2.65,0,0,1,50,9.2,71.53,71.53,0,0,1,70.34,32.6,2.64,2.64,0,0,1,69.2,36.15Z"/><rect class="cls-3" x="24.45" y="42.07" width="10.23" height="4.3" rx="1.54" ry="1.54" transform="translate(-22.42 32.95) rotate(-44)"/><rect class="cls-8" x="29.82" y="41" width="3.22" height="3.24" rx="1.28" ry="1.28" transform="translate(-16.54 20.19) rotate(-28.53)"/><path class="cls-1" d="M38.05,49.85h0a2.46,2.46,0,0,1,.41-3.44l4.68-3.69a2.47,2.47,0,0,1,3.45.41h0a2.47,2.47,0,0,1-.41,3.45L41.5,50.26A2.46,2.46,0,0,1,38.05,49.85Z"/><path class="cls-2" d="M46.59,43.13a2.47,2.47,0,0,0-.82-.66,2.13,2.13,0,0,1,.33.34,2.46,2.46,0,0,1-.41,3.44L41,49.94a2.45,2.45,0,0,1-2.63.25,2.46,2.46,0,0,0,3.12.07l4.68-3.68A2.47,2.47,0,0,0,46.59,43.13Z"/><path class="cls-1" d="M39.36,55.07h0a2.45,2.45,0,0,1,.41-3.44L46.86,46a2.46,2.46,0,0,1,3.45.4h0a2.47,2.47,0,0,1-.41,3.45l-7.1,5.59A2.46,2.46,0,0,1,39.36,55.07Z"/><path class="cls-2" d="M50.31,46.44a2.59,2.59,0,0,0-.37-.37l0,0a2.45,2.45,0,0,1-.41,3.44l-7.09,5.59a2.47,2.47,0,0,1-3.08,0,2.46,2.46,0,0,0,3.4.36l7.1-5.59A2.47,2.47,0,0,0,50.31,46.44Z"/><path class="cls-1" d="M42.36,58.89h0a2.47,2.47,0,0,1,.41-3.45l7.1-5.59a2.46,2.46,0,0,1,3.44.41h0a2.46,2.46,0,0,1-.4,3.44l-7.1,5.6A2.47,2.47,0,0,1,42.36,58.89Z"/><path class="cls-2" d="M53.31,50.26a2.16,2.16,0,0,0-.62-.55,2.13,2.13,0,0,1,.3.3,2.47,2.47,0,0,1-.41,3.45l-7.1,5.59a2.46,2.46,0,0,1-2.82.15,2.47,2.47,0,0,0,3.15.1l7.1-5.6A2.46,2.46,0,0,0,53.31,50.26Z"/><rect class="cls-1" x="49.04" y="51.78" width="4.91" height="12.43" rx="2.08" ry="2.08" transform="translate(65.2 -18.34) rotate(51.78)"/><path class="cls-2" d="M56.46,54.26,56.29,54a2.38,2.38,0,0,0-.35-.36l0,0,.17.21a2.32,2.32,0,0,1-.39,3.25L49.62,62a2.32,2.32,0,0,1-2.89,0,2.32,2.32,0,0,0,3.22.36l6.13-4.83A2.32,2.32,0,0,0,56.46,54.26Z"/><rect class="cls-9" x="38.63" y="47" width="2.98" height="2.45" rx="0.76" ry="0.76" transform="matrix(0.62, 0.79, -0.79, 0.62, 53.18, -13.13)"/><rect class="cls-9" x="39.87" y="52.27" width="2.98" height="2.45" rx="0.76" ry="0.76" transform="translate(57.79 -12.1) rotate(51.77)"/><rect class="cls-9" x="43.07" y="56.15" width="2.98" height="2.45" rx="0.76" ry="0.76" transform="translate(62.07 -13.13) rotate(51.77)"/><rect class="cls-9" x="47.3" y="58.87" width="2.98" height="2.45" rx="0.76" ry="0.76" transform="translate(65.81 -15.42) rotate(51.77)"/><path class="cls-1" d="M20.51,65.85l3.14-3.23s-1.24-4,.64-6.17S35.91,43.74,35.91,43.74s1.64-.18,2.38,3-1.65,5.82-2.4,6.58A10.91,10.91,0,0,1,33.83,55s5.2,3.48,2.51,11.4"/><path class="cls-9" d="M35.54,44.52s1.08,1.58.39,2.85a6.67,6.67,0,0,1-.62,1,1,1,0,0,1-1.56-.06L33,47.16Z"/><path class="cls-10" d="M21.62,63.69l9.73,11.65a3.56,3.56,0,0,1-.54,4.94L18,91.39,6.45,76.71l15.17-13"/><path class="cls-11" d="M20.24,64.33l11.22,13.5a2.23,2.23,0,0,1-.24,3.09L17.39,93,2.55,93A2.55,2.55,0,0,1,0,90.49V80.4L20.24,64.33"/><path class="cls-10" d="M27.87,81a1.4,1.4,0,1,1,.23-2A1.41,1.41,0,0,1,27.87,81Z"/></g></g></svg>