<svg xmlns="http://www.w3.org/2000/svg" viewBox="0 0 155.56 41.23"><defs><style>.cls-1{fill:#fdc507;}.cls-2{fill:#ffdf9c;}</style></defs><title>paso8</title><g id="Capa_2" data-name="Capa 2"><g id="Layer_7" data-name="Layer 7"><path class="cls-1" d="M14.16,7.08A7.08,7.08,0,1,1,7.08,0,7.08,7.08,0,0,1,14.16,7.08Z"/><circle class="cls-2" cx="7.08" cy="7.08" r="5.39"/><path class="cls-1" d="M7.54,10.14v.93H6.71v-.9a4,4,0,0,1-2.06-.66l.45-1a3.35,3.35,0,0,0,1.61.59V7.7C5.79,7.47,4.76,7.17,4.76,6c0-.88.64-1.63,2-1.78V3.28h.83v.9a3.73,3.73,0,0,1,1.68.51l-.41,1a3.36,3.36,0,0,0-1.27-.43V6.69c.92.21,1.93.52,1.93,1.69C9.47,9.24,8.84,10,7.54,10.14ZM6.71,6.48V5.3c-.44.1-.61.34-.61.61S6.35,6.36,6.71,6.48Zm1.43,2c0-.29-.24-.45-.6-.57V9.05C8,9,8.14,8.74,8.14,8.48Z"/><path class="cls-1" d="M152.48,33.86a4.95,4.95,0,1,1-4.95-4.95A4.95,4.95,0,0,1,152.48,33.86Z"/><path class="cls-2" d="M151.3,33.86a3.77,3.77,0,1,1-3.77-3.77A3.77,3.77,0,0,1,151.3,33.86Z"/><path class="cls-1" d="M147.85,36v.65h-.58V36a2.67,2.67,0,0,1-1.44-.46l.31-.71a2.39,2.39,0,0,0,1.13.41v-1c-.64-.15-1.36-.37-1.36-1.2,0-.61.44-1.14,1.36-1.24V31.2h.58v.64a2.55,2.55,0,0,1,1.17.35l-.28.71a2.47,2.47,0,0,0-.89-.3v1c.64.15,1.35.36,1.35,1.18C149.2,35.37,148.76,35.89,147.85,36Zm-.58-2.56v-.82c-.31.07-.43.24-.43.43S147,33.36,147.27,33.44Zm1,1.4c0-.2-.17-.31-.42-.4v.8C148.14,35.17,148.27,35,148.27,34.84Z"/><path class="cls-1" d="M59.67,31.46a5,5,0,1,1-5-4.94A4.95,4.95,0,0,1,59.67,31.46Z"/><path class="cls-2" d="M58.49,31.46a3.77,3.77,0,1,1-3.77-3.76A3.77,3.77,0,0,1,58.49,31.46Z"/><path class="cls-1" d="M55,33.61v.64h-.58v-.63A2.7,2.7,0,0,1,53,33.16l.32-.71a2.29,2.29,0,0,0,1.12.41v-1c-.64-.16-1.36-.38-1.36-1.2,0-.62.45-1.15,1.36-1.25v-.64H55v.63a2.59,2.59,0,0,1,1.18.35l-.29.71a2.68,2.68,0,0,0-.89-.3v1c.65.15,1.35.36,1.35,1.18C56.39,33,56,33.49,55,33.61ZM54.46,31v-.82c-.3.07-.43.24-.43.43S54.21,31,54.46,31Zm1,1.4c0-.2-.17-.31-.42-.4v.8C55.33,32.78,55.46,32.63,55.46,32.44Z"/><circle class="cls-1" cx="152.21" cy="5.17" r="3.35"/><path class="cls-2" d="M154.76,5.17a2.55,2.55,0,1,1-2.55-2.55A2.55,2.55,0,0,1,154.76,5.17Z"/><path class="cls-1" d="M152.43,6.62v.44H152V6.63a1.81,1.81,0,0,1-1-.31l.21-.48a1.69,1.69,0,0,0,.77.28V5.46c-.44-.11-.93-.25-.93-.81s.31-.78.93-.85V3.37h.39V3.8a1.87,1.87,0,0,1,.8.23l-.2.49a1.6,1.6,0,0,0-.6-.21V5c.43.1.91.25.91.8S153.05,6.54,152.43,6.62ZM152,4.88V4.33c-.21,0-.29.16-.29.29S151.86,4.83,152,4.88Zm.67,1c0-.14-.11-.21-.28-.27V6.1C152.63,6.06,152.71,6,152.71,5.83Z"/><circle class="cls-1" cx="37.09" cy="37.88" r="3.35"/><circle class="cls-2" cx="37.09" cy="37.88" r="2.55"/><path class="cls-1" d="M37.31,39.33v.44h-.4v-.43a1.77,1.77,0,0,1-1-.31l.21-.48a1.69,1.69,0,0,0,.76.28v-.66c-.43-.1-.92-.25-.92-.81s.3-.77.92-.85v-.43h.4v.43a1.67,1.67,0,0,1,.79.24l-.19.48a1.88,1.88,0,0,0-.6-.21v.67c.43.1.91.25.91.8S37.92,39.26,37.31,39.33Zm-.4-1.74V37c-.21,0-.29.16-.29.29S36.74,37.54,36.91,37.59Zm.68.95c0-.14-.12-.21-.28-.27v.54C37.5,38.77,37.59,38.67,37.59,38.54Z"/></g></g></svg>