<svg xmlns="http://www.w3.org/2000/svg" viewBox="0 0 144.58 90.61"><defs><style>.cls-1{fill:#e62a69;}.cls-2{fill:#fdf5eb;}</style></defs><title>paso7</title><g id="Capa_2" data-name="Capa 2"><g id="Layer_6" data-name="Layer 6"><path class="cls-1" d="M23.64,82a5.41,5.41,0,1,1-7.57-1.06A5.41,5.41,0,0,1,23.64,82Z"/><path class="cls-2" d="M16.2,85a1.73,1.73,0,0,1,1.68-1.79,1.77,1.77,0,0,1,1.41.66,1.73,1.73,0,0,1,3.15.95c0,1.24-1.74,2.42-2.58,3.23a.52.52,0,0,1-.68,0C18.21,87.29,16.24,86.43,16.2,85Z"/><circle class="cls-1" cx="136.56" cy="8.02" r="8.02" transform="translate(109.76 142.16) rotate(-82.07)"/><path class="cls-2" d="M131.91,7.71A2.57,2.57,0,0,1,136.5,6a2.57,2.57,0,0,1,4.67,1.4c.06,1.84-2.57,3.6-3.82,4.8a.76.76,0,0,1-1,0C134.9,11.11,132,9.84,131.91,7.71Z"/><path class="cls-1" d="M9.72,22.1a5.41,5.41,0,1,1-7.57-1.05A5.42,5.42,0,0,1,9.72,22.1Z"/><path class="cls-2" d="M2.28,25.15A1.74,1.74,0,0,1,5.37,24a1.69,1.69,0,0,1,1.36-.73A1.72,1.72,0,0,1,8.51,25c0,1.24-1.73,2.42-2.57,3.23a.51.51,0,0,1-.68,0C4.29,27.44,2.32,26.58,2.28,25.15Z"/></g></g></svg>