<svg xmlns="http://www.w3.org/2000/svg" xmlns:xlink="http://www.w3.org/1999/xlink" viewBox="0 0 81.42 74.57"><defs><style>.cls-1{fill:#333;}.cls-2{fill:#fff;}.cls-3{fill:url(#linear-gradient);}.cls-4{fill:#cccbcb;}</style><linearGradient id="linear-gradient" x1="40.76" y1="46.51" x2="40.76" y2="3.51" gradientUnits="userSpaceOnUse"><stop offset="0" stop-color="#fff"/><stop offset="1" stop-color="#0098db"/></linearGradient></defs><title>paso3</title><g id="Capa_2" data-name="Capa 2"><g id="Layer_2" data-name="Layer 2"><rect class="cls-1" x="34.82" y="54.82" width="12.52" height="19.14" rx="1.71" ry="1.71"/><rect class="cls-2" y="21.54" width="81.36" height="39.21" rx="2.64" ry="2.64"/><path class="cls-1" d="M2,0H79.43a2,2,0,0,1,2,2V50.8a0,0,0,0,1,0,0H0a0,0,0,0,1,0,0V2A2,2,0,0,1,2,0Z"/><rect class="cls-3" x="3.75" y="3.51" width="74.01" height="43" rx="2.77" ry="2.77"/><path class="cls-1" d="M54.7,74.57H26.35a1.85,1.85,0,0,1-1.84-1.84h0a1.84,1.84,0,0,1,1.84-1.84H54.7a1.84,1.84,0,0,1,1.84,1.84h0A1.85,1.85,0,0,1,54.7,74.57Z"/><circle class="cls-4" cx="41.19" cy="56.33" r="2.29"/></g></g></svg>