<?xml version="1.0" encoding="utf-8"?>
<!-- Generator: Adobe Illustrator 22.0.0, SVG Export Plug-In . SVG Version: 6.00 Build 0)  -->
<svg version="1.1" id="Layer_1" xmlns="http://www.w3.org/2000/svg" xmlns:xlink="http://www.w3.org/1999/xlink" x="0px" y="0px"
	 viewBox="0 0 100 100" style="enable-background:new 0 0 100 100;" xml:space="preserve">
<style type="text/css">
	.st0{fill:#706F6F;}
</style>
<g>
	<path class="st0" d="M96.4,26c-0.7-0.9-1.7-1.4-2.8-1.4H32l-2.4-9.5c-0.3-1.2-1.2-2.1-2.2-2.4c-0.2,0-5.7-1.9-11.4-1.9
		c-5.9,0-9.7,1.9-10.2,2.1c-1.7,0.9-2.4,2.9-1.6,4.7s2.9,2.4,4.7,1.6c0,0,2.8-1.4,7.1-1.4c2.8,0,5.7,0.5,7.4,1l9.5,39.5
		c-3.5,4.1-7.6,10.5-5.7,14.8c0.5,1.2,2.1,3.3,6,3.3h46.6c1.9,0,3.5-1.6,3.5-3.5c0-1.9-1.6-3.5-3.5-3.5H33.9
		c0.7-1.7,2.4-4.3,4.5-6.9h45c1.6,0,2.8-1,3.3-2.4l10.4-31.1C97.3,28.1,97.1,27,96.4,26z M80.9,55.7H39.4l-5.9-24.2h55.2L80.9,55.7z
		"/>
	<path class="st0" d="M38.4,79.8c-2.9,0-5.2,2.2-5.2,5.2s2.2,5.2,5.2,5.2s5.2-2.2,5.2-5.2S41.3,79.8,38.4,79.8z M38.4,86.7
		c-1,0-1.7-0.7-1.7-1.7c0-1,0.7-1.7,1.7-1.7s1.7,0.7,1.7,1.7C40.1,86,39.4,86.7,38.4,86.7z"/>
	<path class="st0" d="M72.9,79.8c-2.9,0-5.2,2.2-5.2,5.2s2.2,5.2,5.2,5.2c2.9,0,5.2-2.2,5.2-5.2S75.9,79.8,72.9,79.8z M72.9,86.7
		c-1,0-1.7-0.7-1.7-1.7c0-1,0.7-1.7,1.7-1.7c1,0,1.7,0.7,1.7,1.7C74.6,86,74,86.7,72.9,86.7z"/>
</g>
</svg>
