<?xml version="1.0" encoding="utf-8"?>
<!-- Generator: Adobe Illustrator 22.0.0, SVG Export Plug-In . SVG Version: 6.00 Build 0)  -->
<svg version="1.1" id="Layer_1" xmlns="http://www.w3.org/2000/svg" xmlns:xlink="http://www.w3.org/1999/xlink" x="0px" y="0px"
	 viewBox="0 0 100 100" style="enable-background:new 0 0 100 100;" xml:space="preserve">
<style type="text/css">
	.st0{fill:#706F6F;}
</style>
<g>
	<path class="st0" d="M86.8,69.1L86.8,69.1c-1.6,0-2.9,1.3-2.9,2.9s1.3,2.9,2.9,2.9c1.6,0,2.9-1.3,2.9-2.9S88.4,69.1,86.8,69.1z"/>
	<path class="st0" d="M86.5,82.4l-10.9,0.9c2.5-4.7,3.8-11.8,3.8-20s-1-14.9-3.1-19.4l10,1.6c1.6,0.3,3.1-0.9,3.4-2.4
		c0.3-1.5-0.9-3.1-2.4-3.4l-17.7-2.9c-0.3,0-0.7,0-1,0s-0.6,0-0.9,0c-1.8,0-3.2,0.7-4.4,1.6c-1.8-2.5-4.1-5-7.4-7.1
		c-7.2-4.4-6.6-9.4-6-11.3c0.7-2.4,0.3-4.7-1.2-6.5c-1.5-1.9-3.8-3.1-6-3.1c-8.5,0-13.8,5.3-14.7,14.4c-0.4,4.7,0.7,9.6,3.1,13.7
		C24.5,38.8,16.8,40,14,43.1c-2.1,2.4-3.2,6-2.9,9.3c0.1,1.3,0.6,2.7,1.2,3.7c-1,1.5-1.9,3.4-1.9,5.9c0,3.1,1.8,5.4,3.5,6.9
		c-0.4,0.7-0.7,1.9-0.7,3.2c0,3.8,2.4,7.2,6.2,9.4c1.5,4.7,7.7,8.2,13,8.2c3.1,0,8-0.6,11.5-1c1.5-0.1,2.7-0.3,3.5-0.4
		c4.7-0.4,8.5-2.8,11.3-4.9c1.6,3.1,4.6,6.3,9,6.3l0,0c0.3,0,0.6,0,0.9,0l18.6-1.5c1.6-0.1,2.8-1.5,2.7-3.1
		C89.6,83.4,88.3,82.2,86.5,82.4z M67.6,42.6c0.9,0,1.9,0.9,2.8,2.5c-1.6-0.4-3.1-0.9-3.5-1.5c-0.1-0.1-0.1-0.3-0.3-0.4
		C66.9,42.9,67.3,42.6,67.6,42.6z M67.8,83.8h-0.3c-2.4-0.1-3.7-3.1-4.3-4.6c1.9-1.2,5.6-2.4,8.5-2.8C70.6,81.2,68.8,83.6,67.8,83.8
		z M73.1,70.6c-4.7,0.1-12.1,2.4-14.9,5.3c-2.7,2.7-6.6,6-11.5,6.5c-0.9,0.1-2.2,0.3-3.7,0.4c-3.4,0.4-8,1-10.7,1
		c-3.5,0-7.4-2.9-7.4-4.4c0-1.2-0.7-2.2-1.8-2.8c-1.3-0.4-4.1-1.9-4.1-4.6c0-1.5,0.7-2.5,0.7-2.5c0.6-0.7,0.9-1.6,0.6-2.5
		s-0.9-1.6-1.6-2.1c0,0-2.7-1.3-2.7-3.2c0-2.1,1.8-3.5,1.8-3.5c0.7-0.6,1.2-1.5,1.2-2.4s-0.4-1.8-1.2-2.4c-0.3-0.1-0.9-0.6-1-2.1
		c-0.1-1.8,0.6-3.8,1.5-4.7c1.2-1.2,8.5-2.7,18.4-2.7c1.2,0,2.2-0.7,2.7-1.8c0.4-1,0.1-2.4-0.6-3.2c-3.5-3.5-5.4-9-5-13.8
		c0.7-8.1,5.4-9.1,8.8-9.1c0.4,0,1,0.3,1.3,0.7c0.3,0.4,0.3,0.9,0.1,1.3c-1.5,5.3,0,12.8,8.7,18.1c3.4,2.1,5.6,5.4,7.4,8.1
		c0.9,1.2,1.5,2.4,2.2,3.1c2.5,2.8,7.8,3.5,10,3.8c0.6,3.2,1,7.2,1,11.9C73.5,66,73.4,68.4,73.1,70.6z"/>
</g>
</svg>
