<?xml version="1.0" encoding="utf-8"?>
<!-- Generator: Adobe Illustrator 22.0.0, SVG Export Plug-In . SVG Version: 6.00 Build 0)  -->
<svg version="1.1" id="Layer_1" xmlns="http://www.w3.org/2000/svg" xmlns:xlink="http://www.w3.org/1999/xlink" x="0px" y="0px"
	 viewBox="0 0 100 100" style="enable-background:new 0 0 100 100;" xml:space="preserve">
<style type="text/css">
	.st0{fill:#706F6F;}
</style>
<g>
	<path class="st0" d="M18,25.2h43.3V27c0,3.1,2.3,5.4,5.4,5.4h1.8c3.1,0,5.4-2.3,5.4-5.4v-1.8h9c2,0,3.6-1.6,3.6-3.6S85,18,83,18h-9
		v-1.8c0-3.1-2.3-5.4-5.4-5.4h-1.8c-3.1,0-5.4,2.3-5.4,5.4V18H18c-2,0-3.6,1.6-3.6,3.6S16,25.2,18,25.2z"/>
	<path class="st0" d="M83,46.9H39.7v-1.8c0-3.1-2.3-5.4-5.4-5.4h-1.8c-3.1,0-5.4,2.3-5.4,5.4v1.8h-9c-2,0-3.6,1.6-3.6,3.6
		s1.6,3.6,3.6,3.6h9v1.8c0,3.1,2.3,5.4,5.4,5.4h1.8c3.1,0,5.4-2.3,5.4-5.4v-1.8H83c2,0,3.6-1.6,3.6-3.6S85,46.9,83,46.9z"/>
	<path class="st0" d="M83,75.8h-9V74c0-3.1-2.3-5.4-5.4-5.4h-1.8c-3.1,0-5.4,2.3-5.4,5.4v1.8H18c-2,0-3.6,1.6-3.6,3.6
		c0,2,1.6,3.6,3.6,3.6h43.3v1.8c0,3.1,2.3,5.4,5.4,5.4h1.8c3.1,0,5.4-2.3,5.4-5.4V83h9c2,0,3.6-1.6,3.6-3.6
		C86.6,77.4,85,75.8,83,75.8z"/>
</g>
</svg>
