<?xml version="1.0" encoding="utf-8"?>
<!-- Generator: Adobe Illustrator 22.0.0, SVG Export Plug-In . SVG Version: 6.00 Build 0)  -->
<svg version="1.1" id="Layer_1" xmlns="http://www.w3.org/2000/svg" xmlns:xlink="http://www.w3.org/1999/xlink" x="0px" y="0px"
	 viewBox="0 0 100 100" style="enable-background:new 0 0 100 100;" xml:space="preserve">
<style type="text/css">
	.st0{fill:#706F6F;}
</style>
<g>
	<path class="st0" d="M67.6,60.3c1.6,0,2.9-1.3,2.9-2.9V42.7c0-1.2-0.7-2.4-1.9-2.8c-1.2-0.4-2.4-0.1-3.2,0.7L61,45.4l-4.4-4.9
		c-0.9-0.9-2.1-1.2-3.2-0.7c-1.2,0.4-1.9,1.5-1.9,2.8v14.7c0,1.6,1.3,2.9,2.9,2.9c1.6,0,2.9-1.3,2.9-2.9v-7.1l1.5,1.6
		c1.2,1.2,3.2,1.2,4.4,0l1.5-1.6v7.1C64.7,59,66,60.3,67.6,60.3z"/>
	<path class="st0" d="M16.2,35c1.5,0.7,3.2,0.3,4-1.2C26,23,37.5,16.2,49.9,16.2S73.7,23,79.5,33.8c0.6,1,1.5,1.5,2.6,1.5
		c0.4,0,1-0.1,1.5-0.3c1.5-0.7,1.9-2.5,1.2-4C77.9,18.3,64.6,10.3,50,10.3s-27.9,7.9-35,20.6C14.3,32.4,14.9,34.1,16.2,35z"/>
	<path class="st0" d="M39.7,60.3c1.6,0,2.9-1.3,2.9-2.9V45.6h2.9c1.6,0,2.9-1.3,2.9-2.9s-1.3-2.9-2.9-2.9H33.8
		c-1.6,0-2.9,1.3-2.9,2.9s1.3,2.9,2.9,2.9h2.9v11.8C36.8,59,38.1,60.3,39.7,60.3z"/>
	<path class="st0" d="M86.7,54.4h-7.3V42.7c0-1.6-1.3-2.9-2.9-2.9c-1.6,0-2.9,1.3-2.9,2.9v14.7c0,1.6,1.3,2.9,2.9,2.9h10.3
		c1.6,0,2.9-1.3,2.9-2.9C89.7,55.7,88.4,54.4,86.7,54.4z"/>
	<path class="st0" d="M16.2,57.3v-4.4h5.9v4.4c0,1.6,1.3,2.9,2.9,2.9c1.6,0,2.9-1.3,2.9-2.9V42.7c0-1.6-1.3-2.9-2.9-2.9
		c-1.6,0-2.9,1.3-2.9,2.9v4.4h-5.9v-4.4c0-1.6-1.3-2.9-2.9-2.9s-2.9,1.3-2.9,2.9v14.7c0,1.6,1.3,2.9,2.9,2.9S16.2,59,16.2,57.3z"/>
	<path class="st0" d="M83.8,65c-1.5-0.7-3.2-0.3-4,1.2C74,77,62.5,83.8,50.1,83.8S26.3,77,20.5,66.2c-0.7-1.5-2.5-1.9-4-1.2
		s-1.9,2.5-1.2,4C22.1,81.7,35.4,89.7,50,89.7s27.9-7.9,35-20.6C85.7,67.6,85.1,65.9,83.8,65z"/>
</g>
</svg>
