<svg id="Capa_1" data-name="Capa 1" xmlns="http://www.w3.org/2000/svg" xmlns:xlink="http://www.w3.org/1999/xlink" viewBox="0 0 378.6 265.3"><defs><style>.cls-1{fill:#34465c;}.cls-2{fill:#34404f;}.cls-3{fill:#6e808f;}.cls-4{fill:url(#Degradado_sin_nombre);}</style><linearGradient id="Degradado_sin_nombre" x1="217.25" y1="1078.9" x2="217.25" y2="962.5" gradientTransform="translate(0 -869.2)" gradientUnits="userSpaceOnUse"><stop offset="0" stop-color="#fff"/><stop offset="1" stop-color="#0098db"/></linearGradient></defs><title>svgcomputadora</title><g id="Layer_2" data-name="Layer 2"><path class="cls-1" d="M125.9,84.9H308.6a6.72,6.72,0,0,1,6.7,6.8V216.4H119.2V91.6a6.7,6.7,0,0,1,6.7-6.7Z"/><path class="cls-2" d="M88.8,239.2h257c.7,0,.6-.5-.3-1.2l-27.6-21.2a5.8,5.8,0,0,0-2.9-1.2H119.6a5.8,5.8,0,0,0-2.9,1.2L89.1,238c-.9.7-1,1.2-.3,1.2Z"/><path class="cls-1" d="M89.8,237.7h255c1.9,0,2.1,1.6.4,3.5l-3.5,3.9c-1.7,1.9-4.7,3.5-6.6,3.5H99.5c-1.9,0-4.9-1.6-6.6-3.5l-3.5-3.9c-1.7-1.9-1.6-3.5.4-3.5Z"/><polygon class="cls-3" points="197.2 227.4 208.1 227.4 226.5 227.4 237.3 227.4 243.3 234 220.5 234 214.1 234 191.2 234 197.2 227.4"/><rect class="cls-4" x="125.3" y="93.3" width="183.9" height="116.4"/></g></svg>