<svg id="Capa_1" data-name="Capa 1" xmlns="http://www.w3.org/2000/svg" viewBox="0 0 378.6 265.3"><defs><style>.cls-1{fill:#eeeeed;}</style></defs><title>svgfondo</title><g id="Layer_1" data-name="Layer 1"><path class="cls-1" d="M26.3,33.9c-39,19.3-28.4,49.3-8.4,61.2,28.3,16.9,43.7,7.5,33.8,54.2-3.4,15.9.2,33.5,12.9,45.6a48.35,48.35,0,0,0,35.9,12.9c7.4-.5,14.5-2.7,21.8-3.9s15.4-1,21.5,2.7c5.9,3.6,5.9,9.9,7.4,16.1,3.8,14.9.5-.1,5.8,14.6,4.5,12.4,38.6,28,74.4,28,47.7,0,133.8-4.1,145.3-99,5.4-44.4,1.8-97-43.9-104.7-54.9-9.3-62.1,38.8-82-1.7-11.9-24.3-52-52.7-98.2-15.3C106.7,82.1,82.5,6.1,26.3,33.9Z"/></g></svg>