<svg id="Capa_1" data-name="Capa 1" xmlns="http://www.w3.org/2000/svg" viewBox="0 0 378.6 265.3"><defs><style>.cls-1{fill:#0094da;}</style></defs><title>svgnubes</title><g id="Layer_4" data-name="Layer 4"><path class="cls-1" d="M132.4,0c-8.9,0-16.4,5.7-18.5,13.5-8.7.9-15.4,7.8-15.4,16.2,0,9,7.8,16.3,17.4,16.3h44.6c8.3,0,15-6.3,15-14.1A13.92,13.92,0,0,0,166.4,19v-.3c0-5.5-4.8-10-10.6-10a11.23,11.23,0,0,0-6.1,1.8A19,19,0,0,0,132.4,0Z"/><path class="cls-1" d="M193.2,37.4a9.79,9.79,0,0,0-9.6,7,8.75,8.75,0,0,0-8,8.5c0,4.7,4.1,8.5,9.1,8.5h23.2a7.59,7.59,0,0,0,7.8-7.3,7.23,7.23,0,0,0-4.7-6.7v-.2a5.36,5.36,0,0,0-5.5-5.2,5.78,5.78,0,0,0-3.2,1,10.11,10.11,0,0,0-9.1-5.6Z"/></g></svg>