<svg id="Capa_1" data-name="Capa 1" xmlns="http://www.w3.org/2000/svg" viewBox="0 0 378.6 265.3"><defs><style>.cls-1{fill:#fff;}.cls-2{fill:#353f49;}.cls-3{fill:#ee7a57;}.cls-4{fill:#7cc9d9;}.cls-5{fill:#ffda79;}.cls-6{fill:#cccbcb;}.cls-7{fill:#3db39a;}</style></defs><title>svgVentana</title><g id="Layer_3" data-name="Layer 3"><path class="cls-1" d="M70,64.9H277.2a5.23,5.23,0,0,1,5.2,5.2V188a5.16,5.16,0,0,1-5.2,5.2H70a5.23,5.23,0,0,1-5.2-5.2V70.1A5.1,5.1,0,0,1,70,64.9Z"/><path class="cls-2" d="M69.3,64.9H277.8a4.65,4.65,0,0,1,4.6,4.6V83.6a.43.43,0,0,1-.4.4H64.7V69.5a4.59,4.59,0,0,1,4.6-4.6Z"/><path class="cls-3" d="M75.5,78.4a4.21,4.21,0,1,0-4-4.2,4.12,4.12,0,0,0,4,4.2Z"/><path class="cls-4" d="M86.7,78.4a4.21,4.21,0,1,0-4-4.2,4.06,4.06,0,0,0,4,4.2Z"/><path class="cls-5" d="M97.8,78.4a4.21,4.21,0,1,0-4-4.2,4.12,4.12,0,0,0,4,4.2Z"/><rect class="cls-1" x="107.9" y="70.7" width="168.3" height="7.9"/><rect class="cls-6" x="82.2" y="91.4" width="46.7" height="6.2"/><rect class="cls-6" x="148.3" y="91.4" width="46.7" height="6.2"/><rect class="cls-6" x="214.6" y="91.4" width="46.7" height="6.2"/><rect class="cls-5" x="81" y="107.7" width="112.4" height="51.2"/><rect class="cls-3" x="202.6" y="107.7" width="34.4" height="32.7"/><rect class="cls-6" x="80.1" y="164.8" width="85.9" height="3.5"/><rect class="cls-6" x="96.5" y="171.4" width="85.9" height="3.5"/><rect class="cls-6" x="82.6" y="178.5" width="85.9" height="3.5"/><polygon class="cls-1" points="226.8 124.1 219.8 128.3 212.8 132.5 212.8 124.1 212.8 115.6 219.8 119.9 226.8 124.1"/><rect class="cls-7" x="202.6" y="148.4" width="68.9" height="32.7"/><rect class="cls-5" x="237" y="107.7" width="34.4" height="32.7"/><path class="cls-2" d="M106.7,137.7l-6.5-2.9,7.5-2.9.3-1.7L98.1,134l-.3,1.7,8.5,3.8Zm14.7-1.9-1.6,9.3h2.3l3.6-20.7h-2.3l-1.6,9.3h-5.1l1.6-9.3H116l-3.6,20.7h2.3l1.6-9.3Zm8.4,9.4,3.2-18.6h3.8l.4-2.1h-9.9l-.4,2.1h3.8l-3.2,18.6ZM149,128.5l-2.9,16.7h2.2l3.6-20.7h-3.2l-6.1,16.6-.5-16.6h-3.2l-3.6,20.7h2l2.9-16.5.6,16.5H143Zm9.9,16.7.4-2.1h-5.9l3.2-18.6h-2.3l-3.6,20.7Zm7.3-5.8,9.8-3.8.3-1.7-8.5-3.8-.3,1.7,6.5,2.9-7.5,2.9Z"/><path class="cls-1" d="M220.7,167.3l-5.2-2.3,5.9-2.3.2-1.3-7.7,3-.2,1.3,6.8,3Zm7.1-10.4-2.4,16.4h3.8c2.6,0,4-1.5,4.3-4.1l1.2-8.3c.4-2.5-.6-4.1-3.1-4.1h-3.8Zm-.4,14.7,2-13.1h2c1.3,0,1.8.8,1.6,2.3l-1.3,8.4c-.2,1.5-1,2.3-2.3,2.3h-2Zm9.7-14.7-2.4,16.4h1.8l2.5-16.4Zm3.2,0,.6,16.4h2.7l5.5-16.4h-1.7l-4.8,14.3-.5-14.3Zm12.1,11.8,7.7-3,.2-1.3-6.8-3-.2,1.3,5.2,2.3-5.9,2.3Z"/></g></svg>