<?xml version="1.0" encoding="utf-8"?>
<!-- Generator: Adobe Illustrator 22.0.0, SVG Export Plug-In . SVG Version: 6.00 Build 0)  -->
<svg version="1.1" id="Capa_1" xmlns="http://www.w3.org/2000/svg" xmlns:xlink="http://www.w3.org/1999/xlink" x="0px" y="0px"
	 viewBox="0 0 180.4 125.4" style="enable-background:new 0 0 180.4 125.4;" xml:space="preserve">
<style type="text/css">
	.st0{display:none;fill:none;stroke:#C5C5C5;stroke-width:0.5;stroke-linecap:round;stroke-linejoin:round;stroke-dasharray:0.88;}
	.st1{display:none;fill:#FFFFFF;}
	.st2{display:none;fill:#C72F67;}
	.st3{fill:#C72F67;}
	.st4{fill:#FFFFFF;}
	.st5{fill:#9BCEF3;}
	.st6{fill:#6194B8;}
	.st7{fill:#373636;}
	.st8{fill:#FBF6EC;}
	.st9{fill:#EEC32F;}
	.st10{fill:#F7DF9F;}
	.st11{fill:url(#SVGID_1_);}
	.st12{fill:none;stroke:#373636;stroke-width:0.59;stroke-miterlimit:10;}
	.st13{fill:#CBCBCB;}
	.st14{fill:#EDD8C1;}
	.st15{fill:#D6BBA2;}
	.st16{fill:#0094D8;}
	.st17{fill:#F4E066;}
	.st18{fill:#C57419;}
	.st19{fill:#F7E9D4;}
	.st20{fill:#4F4E4E;}
</style>
<title>marketing_digital</title>
<g id="Capa_2_1_">
	<g id="Layer_1">
		<polyline class="st0" points="119.8,76.9 148.3,67.3 113.7,61.7 		"/>
		<polyline class="st0" points="77.5,69.3 137.2,37 117,69.9 151.4,95.4 92.8,89.1 		"/>
		<polygon class="st0" points="41.8,96.3 64.4,60.1 26.5,36.6 15.2,70.2 		"/>
		<polygon class="st0" points="69.3,68 98.7,54.7 60.3,15 		"/>
		<polyline class="st0" points="150.5,94.2 167,67 137.2,37 82.3,11.3 51,36.8 17.7,69.5 		"/>
		<circle class="st1" cx="166.3" cy="66.4" r="7.8"/>
		<path class="st2" d="M168.6,63.4c0,1.2-1,2.2-2.2,2.2s-2.2-1-2.2-2.2s1-2.2,2.2-2.2l0,0C167.6,61.2,168.6,62.2,168.6,63.4z"/>
		<path class="st3" d="M170.6,70.6L170.6,70.6c0-2.9-1.9-5.1-4.3-5.1s-4.4,2.2-4.4,4.9v0.2H170.6z"/>
		<circle class="st4" cx="134.9" cy="37.4" r="7.8"/>
		<path class="st5" d="M137.2,34.4c0,1.2-1,2.2-2.2,2.2s-2.2-1-2.2-2.2s1-2.2,2.2-2.2C136.3,32.2,137.2,33.2,137.2,34.4z"/>
		<path class="st5" d="M139.3,41.6v-0.2c0-2.8-1.9-5-4.3-5s-4.3,2.2-4.4,4.9v0.2L139.3,41.6z"/>
		<circle class="st4" cx="81.8" cy="11.4" r="7.8"/>
		<path class="st3" d="M84.1,8.4c0,1.2-1,2.2-2.2,2.2s-2.2-1-2.2-2.2s1-2.2,2.2-2.2S84.1,7.2,84.1,8.4z"/>
		<path class="st3" d="M86.2,15.6v-0.1c0-2.8-1.9-5-4.3-5s-4.3,2.2-4.4,4.9v0.1L86.2,15.6z"/>
		<circle class="st4" cx="50.2" cy="36.3" r="7.8"/>
		<path class="st6" d="M52.5,33.3c0,1.2-1,2.2-2.2,2.2s-2.2-1-2.2-2.2s1-2.2,2.2-2.2l0,0C51.5,31.1,52.5,32.1,52.5,33.3z"/>
		<path class="st6" d="M54.6,40.5v-0.2c0-2.8-1.9-5-4.3-5s-4.3,2.2-4.4,4.9v0.2L54.6,40.5z"/>
		<circle class="st4" cx="14.5" cy="70.5" r="7.8"/>
		<path class="st5" d="M16.8,67.5c0,1.2-1,2.2-2.2,2.2s-2.2-1-2.2-2.2s1-2.2,2.2-2.2S16.8,66.3,16.8,67.5L16.8,67.5z"/>
		<path class="st5" d="M18.9,74.7v-0.2c0-2.8-1.9-5-4.3-5s-4.4,2.2-4.4,4.9v0.2L18.9,74.7z"/>
		<path class="st7" d="M65,11.8c0.9,3.1-0.9,6.3-3.9,7.2s-6.3-0.9-7.2-3.9C53,12,54.7,8.8,57.8,7.9C60.9,7,64.1,8.7,65,11.8L65,11.8
			z"/>
		<path class="st4" d="M62.7,13.5c0.2,0,0.4-0.2,0.4-0.4V13c0-0.2-0.2-0.4-0.4-0.4l0,0H62v-0.1h0.6c0.2,0,0.3-0.2,0.3-0.4l0,0V12
			c0-0.2-0.2-0.4-0.4-0.4h-0.6h-0.1L60,11.8l0.3-0.8c0.1-0.4-0.2-0.7-0.5-0.8l0,0c-0.4,0-0.7,0.3-0.7,0.6l-0.5,1.4
			c-0.2,0.4-0.2,0.8-0.3,1.2l0.1,1.5c0,0.4,0.4,1,0.7,1l3-0.2h0.1h0.5c0.2,0,0.3-0.2,0.3-0.4l0,0v-0.1c0-0.2-0.2-0.4-0.4-0.4h-0.5
			v-0.1h0.6c0.2,0,0.4-0.2,0.4-0.4l0,0v-0.1c0-0.2-0.2-0.4-0.4-0.4l-0.6,0.1v-0.1L62.7,13.5z"/>
		<path class="st5" d="M56.5,12.2l1.5-0.1c0.3,0,0.5,0.2,0.5,0.5l0.2,2.8c0,0.3-0.2,0.5-0.5,0.5L56.7,16c-0.3,0-0.5-0.2-0.5-0.5
			L56,12.7C56,12.4,56.2,12.2,56.5,12.2z"/>
		<path class="st4" d="M57.8,12.8c0,0.2-0.1,0.3-0.3,0.3s-0.3-0.1-0.3-0.3s0.1-0.3,0.3-0.3S57.8,12.6,57.8,12.8z"/>
		<ellipse class="st7" cx="152.2" cy="93.8" rx="8.7" ry="8.7"/>
		<path class="st4" d="M157.2,94c0.3,0,0.6-0.3,0.5-0.7v-0.1c0-0.3-0.3-0.6-0.6-0.6l-1,0.1v-0.2l0.8-0.1c0.3-0.1,0.5-0.3,0.5-0.7
			v-0.1c0-0.3-0.2-0.6-0.6-0.6H156h-0.2l-2.7,0.2l0.4-1.2c0.2-0.5,0-1.1-0.5-1.3c-0.5-0.2-1.1,0-1.3,0.5c-0.1,0.2-0.1,0.3-0.1,0.5
			l-0.7,2.2c-0.2,0.5-0.4,1.1-0.4,1.7l0.1,2.2c0,0.6,0.6,1.5,1.1,1.5l4.5-0.3h0.1l0.8-0.1c0.3-0.1,0.5-0.3,0.4-0.7v-0.1
			c0-0.3-0.2-0.6-0.5-0.6l0,0l-0.8,0.1v-0.2l1-0.1c0.3,0,0.6-0.3,0.5-0.6l0,0v-0.1C157.7,94.3,157.4,94,157.2,94L157.2,94l-1.1,0.1
			V94H157.2z"/>
		<path class="st5" d="M147.8,91.9l2.2-0.1c0.4,0,0.8,0.3,0.8,0.7l0.3,4.1c0,0.4-0.3,0.8-0.7,0.8l-2.2,0.1c-0.4,0-0.8-0.3-0.8-0.7
			l-0.3-4.1C147.1,92.3,147.4,92,147.8,91.9z"/>
		<path class="st4" d="M149.9,92.8c0,0.2-0.2,0.4-0.4,0.5l0,0c-0.2,0-0.4-0.2-0.5-0.4c0-0.2,0.2-0.4,0.4-0.5l0,0
			C149.7,92.4,149.9,92.6,149.9,92.8L149.9,92.8z"/>
		<path class="st3" d="M44.2,93.4c1.8,2.4,1.4,5.8-1,7.6c-2.4,1.8-5.8,1.4-7.6-1s-1.4-5.8,1-7.6l0,0C39,90.6,42.4,91.1,44.2,93.4z"
			/>
		<path class="st8" d="M36.8,96.5c0-1,0.7-1.8,1.7-1.8c0.5,0,1,0.2,1.4,0.6c0.3-0.4,0.8-0.7,1.4-0.7c0.9,0,1.7,0.7,1.8,1.7
			c0,1.2-1.7,2.4-2.6,3.2c-0.2,0.2-0.5,0.2-0.7,0C38.8,98.7,36.8,97.9,36.8,96.5z"/>
		<circle class="st3" cx="157.1" cy="19.5" r="8"/>
		<path class="st8" d="M152.5,19.2c0-1.4,1.1-2.6,2.5-2.6c0.8,0,1.6,0.3,2.1,1c0.5-0.7,1.2-1.1,2-1.1c1.4,0,2.6,1.1,2.6,2.5l0,0
			c0.1,1.8-2.6,3.6-3.8,4.8c-0.3,0.3-0.7,0.3-1,0C155.5,22.6,152.6,21.3,152.5,19.2z"/>
		<path class="st3" d="M30.3,33.6c1.8,2.4,1.3,5.8-1,7.6s-5.8,1.3-7.6-1c-1.8-2.4-1.3-5.8,1-7.6l0,0C25.1,30.7,28.5,31.2,30.3,33.6z
			"/>
		<path class="st8" d="M22.9,36.6c0-1,0.7-1.8,1.7-1.8c0.5,0,1.1,0.2,1.4,0.7c0.5-0.8,1.6-1,2.4-0.4c0.5,0.3,0.7,0.8,0.7,1.4
			c0,1.2-1.7,2.4-2.6,3.2c-0.2,0.2-0.5,0.2-0.7,0C24.9,38.9,22.9,38,22.9,36.6z"/>
		<path class="st9" d="M14.2,40.1c0,3.9-3.2,7.1-7.1,7.1S0,44,0,40.1S3.2,33,7.1,33S14.2,36.2,14.2,40.1L14.2,40.1z"/>
		<circle class="st10" cx="7.1" cy="40.1" r="5.4"/>
		<path class="st9" d="M7.5,43.1V44H6.7v-0.9c-0.7,0-1.5-0.3-2.1-0.7l0.4-1c0.5,0.3,1,0.5,1.6,0.6v-1.4c-0.9-0.2-1.9-0.5-1.9-1.7
			c0-0.9,0.6-1.6,2-1.8v-0.9h0.8v0.9c0.6,0,1.2,0.2,1.7,0.5l-0.4,1c-0.4-0.2-0.8-0.4-1.3-0.4v1.4c0.9,0.2,1.9,0.5,1.9,1.7
			C9.5,42.2,8.8,43,7.5,43.1z M6.7,39.5v-1.2c-0.4,0.1-0.6,0.3-0.6,0.6S6.3,39.4,6.7,39.5z M8.1,41.5c0-0.3-0.2-0.5-0.6-0.6V42
			C8,42,8.1,41.7,8.1,41.5z"/>
		<path class="st9" d="M152.5,66.9c0,2.7-2.3,4.9-5,4.9s-4.9-2.3-4.9-5s2.2-4.9,4.9-4.9C150.3,61.9,152.5,64.1,152.5,66.9z"/>
		<path class="st10" d="M151.3,66.9c0,2.1-1.7,3.8-3.8,3.8s-3.8-1.7-3.8-3.8s1.7-3.8,3.8-3.8S151.3,64.8,151.3,66.9L151.3,66.9z"/>
		<path class="st9" d="M147.9,69v0.7h-0.6V69c-0.5,0-1-0.2-1.4-0.5l0.3-0.7c0.3,0.2,0.7,0.4,1.1,0.4v-1c-0.6-0.2-1.4-0.4-1.4-1.2
			c0-0.6,0.4-1.1,1.4-1.2v-0.6h0.6v0.6c0.4,0,0.8,0.1,1.2,0.3l-0.3,0.7c-0.3-0.2-0.6-0.3-0.9-0.3v1c0.6,0.2,1.4,0.4,1.4,1.2
			C149.2,68.4,148.8,68.9,147.9,69z M147.3,66.4v-0.8c-0.3,0.1-0.4,0.2-0.4,0.4S147,66.4,147.3,66.4z M148.3,67.8
			c0-0.2-0.2-0.3-0.4-0.4v0.8C148.1,68.2,148.3,68,148.3,67.8z"/>
		<path class="st7" d="M86.2,105.7h9.1c0.9,0,1.7,0.8,1.7,1.7v15.7c0,0.9-0.8,1.7-1.7,1.7h-9.1c-0.9,0-1.7-0.8-1.7-1.7v-15.7
			C84.4,106.5,85.2,105.7,86.2,105.7z"/>
		<path class="st4" d="M52.3,72.4h76.1c1.5,0,2.6,1.2,2.6,2.6v34c0,1.5-1.2,2.6-2.6,2.6H52.3c-1.5,0-2.6-1.2-2.6-2.6V75.1
			C49.6,73.6,50.8,72.4,52.3,72.4z"/>
		<path class="st7" d="M51.6,50.9H129c1.1,0,2,0.9,2,2v48.8l0,0H49.6l0,0V52.9C49.6,51.8,50.5,50.9,51.6,50.9z"/>
		
			<linearGradient id="SVGID_1_" gradientUnits="userSpaceOnUse" x1="90.45" y1="1105.39" x2="90.45" y2="1062.39" gradientTransform="matrix(1 0 0 1 0 -1008)">
			<stop  offset="0" style="stop-color:#FFFFFF"/>
			<stop  offset="1" style="stop-color:#0098D8"/>
		</linearGradient>
		<path class="st11" d="M56.2,54.4h68.5c1.5,0,2.8,1.2,2.8,2.8v37.5c0,1.5-1.2,2.8-2.8,2.8H56.2c-1.5,0-2.8-1.2-2.8-2.8V57.2
			C53.4,55.6,54.6,54.4,56.2,54.4z"/>
		<path class="st7" d="M104.3,125.4H76c-1,0-1.8-0.8-1.8-1.8l0,0c0-1,0.8-1.8,1.8-1.8h28.3c1,0,1.8,0.8,1.8,1.8l0,0
			C106.2,124.6,105.4,125.5,104.3,125.4C104.3,125.5,104.3,125.5,104.3,125.4z"/>
		<path class="st9" d="M59.7,64.5c0,2.8-2.2,5-4.9,5c-2.8,0-5-2.2-5-4.9s2.2-5,4.9-5l0,0C57.4,59.5,59.6,61.7,59.7,64.5
			C59.7,64.4,59.7,64.4,59.7,64.5z"/>
		<path class="st10" d="M58.5,64.5c0,2.1-1.7,3.8-3.8,3.8S51,66.5,51,64.5s1.7-3.8,3.8-3.8C56.8,60.7,58.5,62.4,58.5,64.5L58.5,64.5
			z"/>
		<path class="st9" d="M55,66.6v0.7h-0.6v-0.6c-0.5,0-1-0.2-1.4-0.5l0.3-0.7c0.3,0.2,0.7,0.4,1.1,0.4v-1c-0.6-0.2-1.4-0.4-1.4-1.2
			c0-0.6,0.5-1.1,1.4-1.2v-0.6H55v0.6c0.4,0,0.8,0.1,1.2,0.3l-0.3,0.7c-0.3-0.2-0.6-0.3-0.9-0.3v1c0.7,0.2,1.3,0.4,1.3,1.2
			C56.4,66,56,66.5,55,66.6z M54.5,64v-0.8c-0.3,0.1-0.4,0.2-0.4,0.4S54.2,64,54.5,64z M55.5,65.4c0-0.2-0.2-0.3-0.4-0.4v0.8
			C55.3,65.8,55.5,65.6,55.5,65.4L55.5,65.4z"/>
		<path class="st4" d="M120.8,93L102,93.1c-1.3,0-2.4-1.1-2.3-2.4l-0.1-9.5c-0.1-1.3,1-2.4,2.3-2.5h0.2l-0.4-4l4.5,4l14.5-0.1
			c1.3,0,2.4,1.1,2.4,2.4l0,0l0.1,9.5C123.1,91.8,122.1,92.9,120.8,93L120.8,93z"/>
		<line class="st12" x1="105.3" y1="83.2" x2="117.7" y2="83.2"/>
		<line class="st12" x1="105.3" y1="86" x2="117.7" y2="86"/>
		<line class="st12" x1="105.3" y1="89" x2="117.7" y2="89"/>
		<circle class="st13" cx="90.8" cy="107.2" r="2.3"/>
		<path class="st14" d="M73.8,70.3L84.4,82l4.6-4.4c6.9,1.8,20.4-15.6,20.4-15.6l-21-8.7L77,67.1"/>
		<path class="st15" d="M87.7,57.8l-2.3,2.5l2.2,8.9c0,0,4.8,3.7,9.8,0.6s1.7-2.3,1.7-2.3l-9.5-10.3L87.7,57.8z"/>
		<path class="st4" d="M79.4,60.2h-1.1c-2.1,0-3.8-1.7-3.8-3.8l0,0c0-2.1,1.7-3.8,3.8-3.8h1.1c2.1,0,3.8,1.7,3.8,3.8l0,0
			C83.1,58.5,81.4,60.2,79.4,60.2z"/>
		<path class="st16" d="M119.4,28.5l-2,1.3c-0.8,0.5-1.8,0.4-2.1-0.2c-1.2-2.5-3.1-4.6-5.4-6.1c-0.6-0.4-0.5-1.4,0.1-2.1
			s0.9-1.1,1.6-1.8c0.6-0.7,1.6-1,2.4-0.5c2.6,1.9,4.6,4.3,6.1,7.1C120.6,27,120.2,28,119.4,28.5z"/>
		<path class="st7" d="M80.9,48l2.3-2c0.9-0.8,2.2-0.7,3,0.2L104.4,67c0.8,0.9,0.7,2.2-0.2,3l-2.3,2c-0.9,0.8-2.2,0.7-3-0.2L80.7,51
			C80,50.1,80.1,48.8,80.9,48z"/>
		<path class="st17" d="M124.4,24.4l11.1-3.3c0.5-0.1,1,0.1,1.2,0.6l0,0c0.1,0.5-0.1,1-0.6,1.2L125,26.2c-0.5,0.1-1-0.2-1.2-0.6l0,0
			C123.7,25,123.9,24.5,124.4,24.4z"/>
		<path class="st17" d="M120.7,19.7l8.7-7.7c0.4-0.3,1-0.3,1.3,0.1l0,0c0.3,0.4,0.3,1-0.1,1.3l0,0l-8.7,7.6c-0.4,0.3-1,0.3-1.3-0.1
			l0,0C120.3,20.6,120.3,20,120.7,19.7z"/>
		<path class="st17" d="M116.3,15.9l4.3-10.8c0.2-0.5,0.7-0.7,1.2-0.5l0,0c0.5,0.2,0.7,0.7,0.5,1.2L118,16.6
			c-0.2,0.5-0.7,0.7-1.2,0.5l0,0l0,0C116.3,16.9,116.1,16.4,116.3,15.9z"/>
		<path class="st7" d="M85.9,37.7L73.5,49.5l0,0c0.9,5.7,5.6,10,11.3,10.6l2.2,0.2l15.6-13L85.9,37.7z"/>
		<path class="st18" d="M102.7,15.1c0,0-7.3,13.4-16.8,22.7c0,4.5,8.5,11.8,13,12.4c15.8-11.9,24-12,24-12L102.7,15.1z"/>
		<path class="st7" d="M122.6,40.6L122.6,40.6c-1.2,0.6-2.7,0.2-3.4-1.1c-4.7-8.5-11.1-16-18.9-21.8c-1.1-0.8-1.4-2.4-0.6-3.5l0,0
			c0.8-1.2,2.5-1.5,3.7-0.6c8.4,6.2,15.4,14.2,20.4,23.4C124.3,38.4,123.8,39.9,122.6,40.6z"/>
		<path class="st4" d="M78.9,49.6l5.1-5c0.6-0.6,1.6-0.6,2.2,0l0.8,0.9c0.6,0.6,0.6,1.6,0,2.2l-5.1,5c-0.6,0.6-1.6,0.6-2.2,0
			l-0.8-0.9C78.2,51.2,78.2,50.2,78.9,49.6z"/>
		<path class="st6" d="M83.7,45.8l0.6-0.3c0.6-0.3,1.4-0.1,1.7,0.5l0.3,0.6c0.3,0.6,0.1,1.4-0.5,1.7l-0.6,0.3
			c-0.6,0.3-1.4,0.1-1.7-0.5l-0.3-0.6C82.9,46.9,83.1,46.2,83.7,45.8z"/>
		<path class="st14" d="M91.4,54.3L91.4,54.3c-0.8-1.1-0.6-2.6,0.4-3.4l4.7-3.7c1.1-0.8,2.6-0.6,3.4,0.4l0,0
			c0.8,1.1,0.6,2.6-0.4,3.5l-4.7,3.7C93.8,55.6,92.2,55.4,91.4,54.3z"/>
		<path class="st15" d="M99.9,47.6c-0.2-0.3-0.5-0.5-0.8-0.7c0.1,0.1,0.2,0.2,0.3,0.3c0.8,1.1,0.6,2.6-0.4,3.5l-4.7,3.7
			c-0.8,0.6-1.8,0.7-2.6,0.3c0.9,0.8,2.2,0.8,3.1,0.1l4.7-3.7C100.6,50.2,100.8,48.7,99.9,47.6z"/>
		<path class="st14" d="M92.7,59.5L92.7,59.5c-0.8-1.1-0.6-2.6,0.4-3.5l7.1-5.6c1.1-0.8,2.6-0.6,3.4,0.4l0,0
			c0.8,1.1,0.7,2.6-0.4,3.5L96.1,60C95.1,60.8,93.5,60.6,92.7,59.5z"/>
		<path class="st15" d="M103.7,50.9c-0.1-0.1-0.2-0.3-0.4-0.4l0,0c0.8,1.1,0.7,2.6-0.4,3.4l-7.1,5.6c-0.9,0.7-2.2,0.7-3.1,0
			c0.9,1,2.4,1.2,3.4,0.4l7.1-5.6C104.3,53.6,104.5,52,103.7,50.9L103.7,50.9z"/>
		<path class="st14" d="M95.7,63.3L95.7,63.3c-0.8-1.1-0.6-2.6,0.4-3.4l7.1-5.6c1.1-0.8,2.6-0.7,3.4,0.4l0,0
			c0.8,1.1,0.6,2.6-0.4,3.4l-7.1,5.6C98.1,64.6,96.5,64.4,95.7,63.3z"/>
		<path class="st15" d="M106.7,54.7c-0.2-0.2-0.4-0.4-0.6-0.6c0.1,0.1,0.2,0.2,0.3,0.3c0.8,1.1,0.6,2.6-0.4,3.5l-7.1,5.6
			c-0.8,0.6-1.9,0.7-2.8,0.1c0.9,0.8,2.2,0.8,3.2,0.1l7.1-5.6C107.3,57.3,107.5,55.8,106.7,54.7z"/>
		<path class="st14" d="M109.5,58.3l0.5,0.6c0.7,0.9,0.6,2.2-0.3,2.9l-6.5,5.1c-0.9,0.7-2.2,0.6-2.9-0.3L99.7,66
			c-0.7-0.9-0.6-2.2,0.3-2.9l6.5-5.1C107.5,57.3,108.8,57.4,109.5,58.3z"/>
		<path class="st15" d="M109.8,58.7l-0.2-0.2c-0.1-0.1-0.2-0.3-0.4-0.4l0,0l0.2,0.2c0.8,1,0.6,2.5-0.4,3.3l-6.1,4.9
			c-0.8,0.7-2.1,0.7-2.9,0c0.8,1,2.2,1.1,3.2,0.3l6.1-4.8C110.4,61.2,110.6,59.7,109.8,58.7z"/>
		<path class="st19" d="M94,51.4l0.9,1.1c0.3,0.3,0.2,0.8-0.1,1.1L94,54.2c-0.3,0.3-0.8,0.2-1.1-0.1L92,52.9
			c-0.3-0.3-0.2-0.8,0.1-1.1l0.7-0.6C93.2,51,93.7,51,94,51.4z"/>
		<path class="st19" d="M95.2,56.6l0.9,1.1c0.3,0.3,0.2,0.8-0.1,1.1l-0.7,0.6c-0.3,0.3-0.8,0.2-1.1-0.1l-0.9-1.1
			c-0.3-0.3-0.2-0.8,0.1-1.1l0.7-0.6C94.5,56.2,95,56.3,95.2,56.6z"/>
		<path class="st19" d="M98.4,60.5l0.9,1.1c0.3,0.3,0.2,0.8-0.1,1.1l-0.7,0.6c-0.3,0.3-0.8,0.2-1.1-0.1L96.5,62
			c-0.3-0.3-0.2-0.8,0.1-1.1l0.7-0.6C97.7,60.1,98.2,60.2,98.4,60.5z"/>
		<path class="st19" d="M102.7,63.2l0.9,1.1c0.3,0.3,0.2,0.8-0.1,1.1l-0.7,0.6c-0.3,0.3-0.8,0.2-1.1-0.1l-0.9-1.1
			c-0.3-0.3-0.2-0.8,0.1-1.1l0.7-0.6C101.9,62.8,102.4,62.9,102.7,63.2z"/>
		<path class="st14" d="M73.8,70.3l3.2-3.2c0,0-1.2-4,0.6-6.2s11.6-12.7,11.6-12.7s1.6-0.2,2.4,3S90,57,89.2,57.8
			c-0.6,0.6-1.3,1.2-2.1,1.6c0,0,5.2,3.5,2.5,11.4"/>
		<path class="st19" d="M88.9,49c0,0,1.1,1.6,0.4,2.8c-0.2,0.3-0.4,0.7-0.6,1c-0.4,0.4-1,0.5-1.4,0.1c-0.1,0-0.1-0.1-0.1-0.1
			l-0.8-1.1L88.9,49z"/>
		<path class="st8" d="M75,68.1l9.7,11.7c1.2,1.5,1,3.7-0.5,4.9L71.4,95.9L59.8,81.2L75,68.1"/>
		<path class="st20" d="M73.6,68.8l11.2,13.5c0.8,0.9,0.7,2.3-0.3,3.1L70.7,97.5H55.9c-1.4,0-2.5-1.1-2.6-2.5V84.9L73.6,68.8"/>
		<path class="st8" d="M81.2,85.4c-0.6,0.5-1.5,0.4-2-0.3c-0.5-0.6-0.4-1.5,0.3-2c0.6-0.5,1.5-0.4,1.9,0.2
			C81.9,84,81.8,84.9,81.2,85.4L81.2,85.4z"/>
		<circle class="st9" cx="152.2" cy="38.2" r="3.4"/>
		<path class="st10" d="M154.8,38.2c0,1.4-1.2,2.5-2.6,2.5s-2.5-1.2-2.5-2.6c0-1.4,1.1-2.5,2.5-2.5
			C153.6,35.6,154.8,36.8,154.8,38.2L154.8,38.2z"/>
		<path class="st9" d="M152.4,39.6V40H152v-0.4c-0.4,0-0.7-0.1-1-0.3l0.2-0.5c0.2,0.2,0.5,0.2,0.8,0.3v-0.7
			c-0.4-0.1-0.9-0.3-0.9-0.8s0.3-0.8,0.9-0.8v-0.4h0.4v0.4c0.3,0,0.6,0.1,0.8,0.2l-0.2,0.5c-0.2-0.1-0.4-0.2-0.6-0.2V38
			c0.4,0.1,0.9,0.3,0.9,0.8S153.1,39.5,152.4,39.6z M152,37.9v-0.6c-0.2,0-0.3,0.2-0.3,0.3S151.9,37.8,152,37.9z M152.7,38.8
			c0-0.1-0.1-0.2-0.3-0.3V39C152.6,39.1,152.7,39,152.7,38.8L152.7,38.8z"/>
		<circle class="st9" cx="37.1" cy="70.9" r="3.3"/>
		<circle class="st10" cx="37.1" cy="70.9" r="2.6"/>
		<path class="st9" d="M37.3,72.3v0.4h-0.4v-0.4c-0.4,0-0.7-0.1-1-0.3l0.2-0.5c0.2,0.2,0.5,0.2,0.8,0.3v-0.7
			C36.5,71,36,70.8,36,70.3s0.3-0.8,0.9-0.8v-0.4h0.4v0.4c0.3,0,0.5,0.1,0.8,0.2l-0.2,0.5c-0.2-0.1-0.4-0.2-0.6-0.2v0.7
			c0.4,0.1,0.9,0.3,0.9,0.8S37.9,72.2,37.3,72.3z M36.9,70.6V70c-0.2,0-0.3,0.2-0.3,0.3S36.7,70.5,36.9,70.6z M37.6,71.6
			c0-0.1-0.1-0.2-0.3-0.3v0.5C37.5,71.8,37.6,71.7,37.6,71.6L37.6,71.6z"/>
	</g>
</g>
</svg>
