<?xml version="1.0" encoding="utf-8"?>
<!-- Generator: Adobe Illustrator 22.0.0, SVG Export Plug-In . SVG Version: 6.00 Build 0)  -->
<svg version="1.1" id="Capa_1" xmlns="http://www.w3.org/2000/svg" xmlns:xlink="http://www.w3.org/1999/xlink" x="0px" y="0px"
	 viewBox="0 0 197.9 136.1" style="enable-background:new 0 0 197.9 136.1;" xml:space="preserve">
<style type="text/css">
	.st0{fill:#F6DA7F;}
	.st1{fill:#3D485C;}
	.st2{fill:#3B4250;}
	.st3{fill:#737F8E;}
	.st4{fill:url(#SVGID_1_);}
	.st5{fill:#3B4149;}
	.st6{fill:#C5E1F4;}
	.st7{fill:#FFFFFF;}
	.st8{fill:#D1695A;}
	.st9{fill:#A52D2D;}
	.st10{fill:#CFD0D2;}
	.st11{fill:#7B7B7B;}
	.st12{fill:#F4F4F4;}
	.st13{fill:#3B414A;}
	.st14{fill:#D57A5A;}
	.st15{fill:#97C9D8;}
	.st16{fill:#CBCBCB;}
	.st17{fill:#71B39B;}
</style>
<title>paginas_web</title>
<g id="Capa_2_1_">
	<g id="Layer_1">
		<g id="Web_Design">
			<polygon class="st0" points="71.8,8.6 95.7,8.6 96.3,8.6 96.3,9.1 96.3,25.2 115.5,25.2 116,25.2 116,25.8 116,34 114.9,34 
				114.9,26.4 95.7,26.4 95.1,26.4 95.1,25.8 95.1,9.7 71.8,9.7 			"/>
			<polygon class="st0" points="52.9,16.8 40.3,16.8 40.3,38.5 39.1,38.5 39.1,16.2 39.1,15.6 39.7,15.6 52.9,15.6 			"/>
			<path class="st1" d="M59.3,44.3h95.4c2,0,3.5,1.6,3.5,3.5V113H55.8V47.9C55.8,45.9,57.4,44.3,59.3,44.3z"/>
			<path class="st2" d="M39.9,125h134.3c0.4,0,0.3-0.3-0.2-0.6l-14.4-11.1c-0.4-0.3-0.9-0.6-1.5-0.6H56c-0.5,0.1-1.1,0.3-1.5,0.6
				l-14.4,11.1C39.6,124.7,39.5,125,39.9,125L39.9,125z"/>
			<path class="st1" d="M40.4,124.2h133.2c1,0,1.1,0.8,0.2,1.8l-1.8,2c-0.9,1-2.1,1.7-3.5,1.8h-123c-1.3-0.2-2.6-0.8-3.5-1.8l-1.8-2
				C39.3,125.1,39.4,124.2,40.4,124.2L40.4,124.2z"/>
			<polygon class="st3" points="96.6,118.8 102.2,118.8 111.8,118.8 117.5,118.8 120.6,122.3 108.7,122.3 105.4,122.3 93.4,122.3 
							"/>
			
				<linearGradient id="SVGID_1_" gradientUnits="userSpaceOnUse" x1="107.05" y1="1107.5" x2="107.05" y2="1046.7" gradientTransform="matrix(1 0 0 1 0 -998)">
				<stop  offset="0" style="stop-color:#FFFFFF"/>
				<stop  offset="1" style="stop-color:#0098D8"/>
			</linearGradient>
			<rect x="59" y="48.7" class="st4" width="96.1" height="60.8"/>
			<path class="st0" d="M164.7,32.9c0.7-1.2,1.2-2.6,1.5-4l4.3-0.7l-1.1-6.6l-4.3,0.7c-0.3-0.6-0.7-1.2-1.2-1.8
				c-0.5-0.5-1-1-1.5-1.5l1.5-4l-6.3-2.3l-1.5,4c-1.4,0-2.9,0.2-4.2,0.7l-2.8-3.3l-5.1,4.3l2.8,3.3c-0.8,1.2-1.2,2.6-1.5,4l-4.2,0.7
				l1.1,6.6l4.3-0.7c0.3,0.6,0.7,1.2,1.2,1.8c0.5,0.5,1,1,1.5,1.5l-1.5,4.1L154,42l1.5-4.1c1.4,0,2.8-0.2,4.2-0.7l2.8,3.3l5.1-4.3
				L164.7,32.9z"/>
			<path class="st5" d="M157.8,29.9c1.4-1.2,1.6-3.3,0.4-4.7c-1.2-1.4-3.3-1.6-4.7-0.4s-1.6,3.3-0.4,4.7
				C154.3,30.9,156.4,31.1,157.8,29.9L157.8,29.9z M159.9,32.4c2.8-2.3,3.2-6.5,0.8-9.3c-2.3-2.8-6.5-3.2-9.3-0.8
				c-2.8,2.3-3.2,6.5-0.8,9.3C153,34.4,157.1,34.7,159.9,32.4z"/>
			<path class="st0" d="M137.5,19c-0.4-0.9-1-1.7-1.7-2.4l1.3-2.7l-4.2-1.9l-1.3,2.7c-0.5,0-1,0-1.5,0c-0.5,0.1-1,0.1-1.4,0.3
				l-1.7-2.4l-3.8,2.7l1.7,2.4c-0.6,0.8-1,1.7-1.2,2.7l-3,0.3l0.4,4.6l3-0.3c0.4,0.9,1,1.7,1.7,2.4l-1.3,2.7l4.2,1.8l1.3-2.7
				c0.5,0,1,0,1.5,0s1-0.1,1.5-0.3l1.7,2.4l3.8-2.7l-1.7-2.5c0.6-0.8,1-1.7,1.2-2.7l3-0.3l-0.4-4.6L137.5,19z"/>
			<path class="st5" d="M133.1,21.8c-0.1-1.3-1.3-2.2-2.5-2.1c-1.3,0.1-2.2,1.3-2.1,2.5c0.1,1.3,1.3,2.2,2.5,2.1
				C132.3,24.2,133.2,23.1,133.1,21.8L133.1,21.8z M135.3,21.6c-0.2-2.5-2.5-4.4-5-4.1c-2.5,0.2-4.4,2.5-4.1,5
				c0.2,2.5,2.5,4.4,5,4.1C133.7,26.3,135.6,24.1,135.3,21.6z"/>
			<path class="st6" d="M62.7,0c-4.4-0.1-8.4,2.8-9.7,7c-4.4,0.4-7.9,4-8,8.4c0.1,4.9,4.2,8.7,9.1,8.6l0,0h23.3
				c4.2,0.1,7.7-3.2,7.8-7.4c0-3-1.9-5.7-4.7-6.8V9.7c-0.1-3-2.6-5.3-5.5-5.2c-1.1,0-2.3,0.4-3.2,1C70.1,2.1,66.5-0.1,62.7,0z"/>
			<path class="st6" d="M94.4,19.6c-2.3,0-4.3,1.5-5,3.7c-2.3,0.2-4.1,2.1-4.2,4.4c0.1,2.5,2.2,4.5,4.7,4.4l0,0h12.2
				c2.2,0.1,4-1.6,4.1-3.8c0-1.6-1-3-2.5-3.5v-0.1c0-1.5-1.3-2.8-2.9-2.7c-0.6,0-1.2,0.2-1.7,0.5C98.3,20.6,96.5,19.5,94.4,19.6
				L94.4,19.6z"/>
			<rect x="146.1" y="73.9" class="st7" width="32.1" height="41.3"/>
			<path class="st8" d="M178.5,73.9H146c-0.6,0-1.2-0.5-1.2-1.2V71c0-0.6,0.5-1.2,1.2-1.2h11.7c0-0.2,0-0.3,0-0.5
				c-0.1-2.5,1.8-4.7,4.3-4.8c2.5-0.1,4.7,1.8,4.8,4.3c0,0.1,0,0.3,0,0.4c0,0.2,0,0.3,0,0.5h11.7c0.6,0,1.1,0.5,1.1,1.2v1.7
				C179.6,73.4,179.1,73.9,178.5,73.9L178.5,73.9z M162.2,67.5c-1,0-1.8,0.8-1.8,1.7c0,1,0.8,1.8,1.7,1.8c1,0,1.8-0.8,1.8-1.7l0,0
				C163.9,68.3,163.2,67.5,162.2,67.5z"/>
			<path class="st9" d="M178.5,73.9H146c-0.6,0-1.2-0.5-1.2-1.2h34.9C179.6,73.3,179.1,73.9,178.5,73.9z"/>
			<polygon class="st10" points="173,115.2 178.3,109.9 173,110 			"/>
			<rect x="150.9" y="79.7" class="st11" width="22.7" height="1.9"/>
			<rect x="150.9" y="87.1" class="st11" width="22.7" height="1.9"/>
			<rect x="150.9" y="94.6" class="st11" width="22.7" height="1.9"/>
			<rect x="150.9" y="102" class="st11" width="22.7" height="1.9"/>
			<path class="st12" d="M30.1,33.9h108.3c1.5,0,2.7,1.2,2.7,2.7v61.6c0,1.5-1.2,2.7-2.7,2.7H30.1c-1.5,0-2.7-1.2-2.7-2.7V36.6
				C27.3,35.1,28.6,33.9,30.1,33.9z"/>
			<path class="st13" d="M29.7,33.9h108.9c1.3,0,2.4,1.1,2.4,2.4v7.4c0,0.1-0.1,0.2-0.2,0.2H27.3v-7.6C27.3,35,28.4,33.9,29.7,33.9z
				"/>
			<path class="st14" d="M33,41c1.2,0.1,2.2-0.9,2.3-2.1s-0.9-2.2-2.1-2.3s-2.2,0.9-2.3,2.1v0.1C30.9,40,31.8,41,33,41z"/>
			<path class="st15" d="M38.8,41c1.2,0.1,2.2-0.9,2.3-2.1s-0.9-2.2-2.1-2.3s-2.2,0.9-2.3,2.1v0.1C36.7,40,37.6,41,38.8,41z"/>
			<path class="st0" d="M44.6,41c1.2,0,2.2-0.9,2.3-2.1s-0.9-2.2-2.1-2.3c-1.2,0-2.2,0.9-2.3,2.1v0.1C42.5,40,43.5,41,44.6,41
				L44.6,41z"/>
			<rect x="49.9" y="36.9" class="st7" width="87.9" height="4.1"/>
			<rect x="36.5" y="47.8" class="st16" width="24.4" height="3.2"/>
			<rect x="71" y="47.8" class="st16" width="24.4" height="3.2"/>
			<rect x="105.6" y="47.8" class="st16" width="24.4" height="3.2"/>
			<rect x="35.8" y="56.3" class="st0" width="58.7" height="26.7"/>
			<rect x="99.3" y="56.3" class="st14" width="18" height="17.1"/>
			<rect x="35.4" y="86.1" class="st16" width="44.8" height="1.8"/>
			<rect x="44" y="89.6" class="st16" width="44.9" height="1.8"/>
			<rect x="36.7" y="93.2" class="st16" width="44.8" height="1.8"/>
			<polygon class="st7" points="112,64.8 108.3,67 104.7,69.2 104.7,64.8 104.7,60.4 108.3,62.6 			"/>
			<rect x="99.3" y="77.5" class="st17" width="36" height="17.1"/>
			<rect x="117.3" y="56.3" class="st0" width="18" height="17.1"/>
			<path class="st13" d="M49.3,71.9l-3.4-1.5l3.9-1.5L50,68l-5.2,2l-0.2,0.9l4.5,2L49.3,71.9z M57,71l-0.8,4.9h1.2L59.2,65H58
				l-0.8,4.9h-2.7l0.8-4.9h-1.2l-1.9,10.8h1.2l0.8-4.8H57z M61.4,75.9l1.6-9.8h2l0.2-1.1H60l-0.2,1.1h2l-1.7,9.7L61.4,75.9z
				 M71.4,67.2l-1.5,8.7H71L72.9,65h-1.7L68,73.7L67.7,65H66l-1.9,10.8h1l1.5-8.6l0.3,8.6h1.2L71.4,67.2z M76.5,75.9l0.2-1.1h-3.1
				l1.7-9.8h-1.2l-1.9,10.8L76.5,75.9z M80.4,72.9l5.1-2l0.2-0.9l-4.5-2L81,68.9l3.4,1.5l-3.9,1.5L80.4,72.9z"/>
			<path class="st7" d="M108.8,87.4l-2.7-1.2l3.1-1.2l0.1-0.7l-4,1.6l-0.1,0.7l3.6,1.6V87.4z M112.5,81.9l-1.3,8.6h2
				c1.2,0.1,2.2-0.9,2.3-2.1c0,0,0,0,0-0.1l0.6-4.3c0.2-1.3-0.3-2.1-1.6-2.1H112.5z M112.3,89.6l1-6.8h1c0.7,0,1,0.4,0.8,1.2
				l-0.7,4.4c-0.1,0.8-0.5,1.2-1.2,1.2C113.2,89.6,112.3,89.6,112.3,89.6z M117.3,81.9l-1.3,8.6h1l1.3-8.6H117.3z M119,81.9l0.3,8.6
				h1.4l2.9-8.6h-0.9l-2.5,7.4l-0.3-7.4H119z M125.3,88.1l4-1.6l0.1-0.7l-3.4-1.5l-0.1,0.7l2.7,1.2l-3.1,1.2L125.3,88.1z"/>
		</g>
	</g>
</g>
</svg>
