<svg xmlns="http://www.w3.org/2000/svg" xmlns:xlink="http://www.w3.org/1999/xlink" viewBox="0 0 228.42 145.32"><defs><style>.cls-1{isolation:isolate;}.cls-2{fill:#3e3e3d;}.cls-3{fill:url(#linear-gradient);}.cls-4{fill:#848483;}.cls-5{fill:#fff;opacity:0.35;}.cls-6{fill:#e7e7f4;}.cls-7{fill:#e09f75;}.cls-8{fill:#97cada;}.cls-9{fill:#ca4484;}.cls-10,.cls-16{fill:#222339;}.cls-10{opacity:0.2;mix-blend-mode:multiply;}.cls-11{fill:#c8908c;}.cls-12{fill:#e6b6af;}.cls-13{fill:#5c5c5c;}.cls-14{fill:#4776a8;}.cls-15{fill:#578bc8;}.cls-17{fill:#0074a6;}.cls-18{fill:#0094d8;}.cls-19{fill:#6ba1ca;}.cls-20{fill:#507d97;}.cls-21{fill:#dc911b;}.cls-22{fill:#f5dfbc;}.cls-23{fill:#ebbf7b;}.cls-24{fill:#b9b9b9;}.cls-25{fill:#fafafc;}.cls-26{fill:#d7d7d7;}.cls-27{fill:#e4ac87;}</style><linearGradient id="linear-gradient" x1="135.05" y1="135.76" x2="135.05" y2="23.15" gradientTransform="translate(75.66 194.44) rotate(-90)" gradientUnits="userSpaceOnUse"><stop offset="0" stop-color="#fff"/><stop offset="1" stop-color="#0098d8"/></linearGradient></defs><title>sistemas_medida</title><g class="cls-1"><g id="Capa_2" data-name="Capa 2"><g id="Layer_1" data-name="Layer 1"><path class="cls-2" d="M228.08,120.61a5.14,5.14,0,0,1-4.8,3.3H46.83a5.14,5.14,0,0,1-4.81-3.3,1.36,1.36,0,0,1,1.27-1.84H226.81A1.36,1.36,0,0,1,228.08,120.61Z"/><rect class="cls-2" x="41.68" width="186.73" height="118.77" rx="9.8" ry="9.8"/><rect class="cls-3" x="85.46" y="-24.18" width="99.18" height="167.14" rx="2.86" ry="2.86" transform="translate(194.44 -75.66) rotate(90)"/><path class="cls-4" d="M151.79,118.77v.84a1.75,1.75,0,0,1-1.74,1.74h-30a1.74,1.74,0,0,1-1.73-1.74v-.84Z"/><path class="cls-5" d="M210.56,19.37V97.5a2.88,2.88,0,0,1-2.88,2.87H62.42a2.88,2.88,0,0,1-2.87-2.87V19.37h151m.75-.76H58.8V97.5a3.62,3.62,0,0,0,3.62,3.62H207.68a3.62,3.62,0,0,0,3.63-3.62V18.61Z"/><rect class="cls-6" x="58.8" y="16.09" width="152.51" height="5.05" rx="1.37" ry="1.37"/><path class="cls-5" d="M198.12,69.28H72a3.41,3.41,0,0,1-3.41-3.41v-33A3.41,3.41,0,0,1,72,29.42H198.12a3.41,3.41,0,0,1,3.4,3.41v33A3.41,3.41,0,0,1,198.12,69.28ZM72,30.18a2.65,2.65,0,0,0-2.65,2.65v33A2.65,2.65,0,0,0,72,68.52H198.12a2.65,2.65,0,0,0,2.65-2.65v-33a2.65,2.65,0,0,0-2.65-2.65Z"/><path class="cls-5" d="M165.18,96.55H72a3.41,3.41,0,0,1-3.41-3.4V75.48A3.41,3.41,0,0,1,72,72.08h93.19a3.4,3.4,0,0,1,3.4,3.4V93.15A3.4,3.4,0,0,1,165.18,96.55ZM72,72.83a2.65,2.65,0,0,0-2.65,2.65V93.15A2.65,2.65,0,0,0,72,95.8h93.19a2.65,2.65,0,0,0,2.65-2.65V75.48a2.65,2.65,0,0,0-2.65-2.65Z"/><path class="cls-5" d="M198.11,96.55H175.26a3.4,3.4,0,0,1-3.4-3.4V75.48a3.4,3.4,0,0,1,3.4-3.4h22.85a3.41,3.41,0,0,1,3.41,3.4V93.15A3.41,3.41,0,0,1,198.11,96.55ZM175.26,72.83a2.65,2.65,0,0,0-2.65,2.65V93.15a2.65,2.65,0,0,0,2.65,2.65h22.85a2.65,2.65,0,0,0,2.65-2.65V75.48a2.65,2.65,0,0,0-2.65-2.65Z"/><path class="cls-7" d="M65.17,18.61a1.26,1.26,0,1,1-1.25-1.26A1.25,1.25,0,0,1,65.17,18.61Z"/><circle class="cls-8" cx="67.94" cy="18.61" r="1.26"/><circle class="cls-9" cx="71.97" cy="18.61" r="1.26"/><path class="cls-4" d="M134.72,2.62a2.68,2.68,0,1,1-2.33,3A2.67,2.67,0,0,1,134.72,2.62Z"/><path class="cls-10" d="M208.06,133.64c0,.41-9.29.73-20.76.73s-20.76-.32-20.76-.73,9.29-.72,20.76-.72S208.06,133.24,208.06,133.64Z"/><path class="cls-11" d="M187.33,67.91c-.17-.42-1.1-3.76-.66-3.88l3.11-.83c.3-.08,1.24,1.11,1.34,1.4,0,0,.24.82.24.85a8.83,8.83,0,0,0,.57,2.22,1.69,1.69,0,0,0,.5.54,6,6,0,0,0,1,.61.16.16,0,0,1,0,.28c-1,.71-5.1,3.39-6.39,3.11C185.67,71.89,188.41,70.49,187.33,67.91Z"/><path class="cls-12" d="M184.06,62.5c0,3.45.21,7.55,2.33,6.64s6-2.19,6-5.64-.51-6.23-4.19-6.23C185.88,57.27,184.06,59.06,184.06,62.5Z"/><rect class="cls-7" x="175.69" y="128.95" width="2.51" height="2.06" rx="0.19" ry="0.19" transform="translate(305.34 308.08) rotate(-162.09)"/><path class="cls-13" d="M178.21,130.93s-.45,2.32-.8,2.5a5.34,5.34,0,0,1-2.89-.94c-.86-.57-1.71-.32-3.46-.89a8,8,0,0,1-1.65-.77s-.17-1.09,1.53-.83a11.15,11.15,0,0,0,4.18-.07C175.57,129.71,176.3,130.69,178.21,130.93Z"/><rect class="cls-7" x="201.21" y="126.73" width="2.51" height="2.06" rx="0.19" ry="0.19" transform="matrix(-0.84, 0.54, -0.54, -0.84, 441.85, 125.78)"/><path class="cls-13" d="M204,127.38s1.5,1.82,1.42,2.21a5.43,5.43,0,0,1-2.56,1.64c-1,.29-1.46,2.22-3.29,2.34-2.35.16-2.12,0-2.12,0s-.48-.69,1.55-1.48a4.17,4.17,0,0,0,2.27-3C201.37,128.65,202.6,128.7,204,127.38Z"/><path class="cls-14" d="M195.89,94c.13,4,1.35,13.53,1.25,14.81s-5.91,4.79-6.56,2.39-4.28-15.79-5.91-20.88,8.61-4.31,8.61-4.31S195.63,85.83,195.89,94Z"/><path class="cls-14" d="M200,115.9c1.37,3.54,3.65,8,4,9.14s-3.08,4.32-4.34,2.23S192.08,116,190.5,111c-1.23-3.93,5.93-4.43,5.93-4.43S197.17,108.71,200,115.9Z"/><path class="cls-15" d="M192.87,96.35c-1.9,3.56-5.58,12.4-6.31,13.46s-7.52,1.2-6.88-1.2,4.17-15.82,5.3-21,9.6.56,9.6.56S196.73,89.1,192.87,96.35Z"/><path class="cls-7" d="M183.1,82.3c-3.55.08-9-.65-10-1.23s-.83-2.63.37-2.58,7.18-.38,9,.22"/><path class="cls-15" d="M184,118.34c-1.14,3.63-3.24,9.43-3.69,10.52s-5.11,1.45-4.79-1,2.24-14.36,4.15-19.28c1.49-3.84,7.39.23,7.39.23S186.31,111,184,118.34Z"/><path class="cls-13" d="M195.18,77c1.52,3.14,2,6,2.51,6.78,1.67,2.31,1.94,1.2,3,.22a1.44,1.44,0,0,0,.48-1.44c-.85-2.76-2.49-9.78-4.21-11.63a7.53,7.53,0,0,0-4.55-2.68s-2.78,2.05-4.86,1.21a3.13,3.13,0,0,0-1.65,1.66,18.53,18.53,0,0,0-1.56,8.9c.12,3.12.57,5.92.33,7.16-.36,1.88-.44,2.46.33,2.57s9.94.39,10.08-.36c0-.12.4-.24.4-.59,0-1.73-1.17-6-.48-9.52a8.59,8.59,0,0,0,.16-1.83Z"/><path class="cls-16" d="M186.88,60.13s-2.82,1-3.34.56a3.9,3.9,0,0,1-.71-.9.09.09,0,0,1,.12-.12.86.86,0,0,0,.28.11c.32,0,.91-1,1.92-1.59a.09.09,0,0,0,0-.16,1.24,1.24,0,0,1-.45-.26c-.16-.18,1.44,0,2.44-.48s4.58-.48,4.92.57"/><path class="cls-16" d="M188.49,64.37s-2.7-2.54-2.2-3.78a6.06,6.06,0,0,1,5.28-2.82c2.28.18,2.37,3.08,1.69,4.8a26.52,26.52,0,0,1-1.38,3S189.88,64.2,188.49,64.37Z"/><path class="cls-12" d="M187.81,63.57a1,1,0,1,0,1.95.47,1.15,1.15,0,0,0-.67-1.47A1.17,1.17,0,0,0,187.81,63.57Z"/><rect class="cls-6" x="182.52" y="59.99" width="8.08" height="44.63" transform="translate(30.73 213.81) rotate(-63.97)"/><path class="cls-12" d="M172,80.43c.89.41,2.31,1.12,2.63.41s-.44-1.32-1.33-1.72-2.17-.51-2.49.2S171.05,80,172,80.43Z"/><path class="cls-12" d="M193.55,87.24a3,3,0,0,0,.63.72A15.94,15.94,0,0,1,192,89.37a4.74,4.74,0,0,1-1.94.46c-.94.07-1.83,0-2.2-1.17-.29-1,1-1.65,1.7-1.61s1.92.43,2.47.22a11.83,11.83,0,0,0,1.31-.66A2.83,2.83,0,0,0,193.55,87.24Z"/><path class="cls-13" d="M199.1,80.59c-2.78,2.21-6.12,5.08-6.54,6.18s1.37,3.23,2.25,2.42,5.05-3.78,6.08-5.42"/><path class="cls-10" d="M51.48,124.73c0,.45-11.52.81-25.74.81S0,125.18,0,124.73s11.52-.82,25.74-.82S51.48,124.28,51.48,124.73Z"/><path class="cls-17" d="M48.53,123.9,35.34,71.49a.59.59,0,1,0-1.14.28L39,90.83H20.56L19.15,71.59a.58.58,0,0,0-.63-.55.6.6,0,0,0-.54.63l3.83,52.42a.58.58,0,0,0,.59.54h0A.58.58,0,0,0,23,124l-1.05-14.32H43.74l3.65,14.51a.6.6,0,0,0,.57.44.39.39,0,0,0,.15,0A.59.59,0,0,0,48.53,123.9ZM21.85,108.5,20.64,92H39.29l4.15,16.49Z"/><path class="cls-18" d="M35.46,70.66H17.87a1,1,0,0,0-1,1,1,1,0,0,0,.82.94L4.8,123.9a.59.59,0,0,0,.42.71.39.39,0,0,0,.15,0,.6.6,0,0,0,.57-.44l3.65-14.51H31.4l-1,14.32a.59.59,0,0,0,.54.63h.05a.58.58,0,0,0,.58-.54L35.28,72.6h.18a1,1,0,1,0,0-1.94ZM9.89,108.5,14,92H32.69L31.48,108.5ZM32.77,90.83H14.34L18.93,72.6H34.11Z"/><path class="cls-2" d="M21.89,38.32a2.71,2.71,0,0,1,.79.46,15.18,15.18,0,0,0,.9-2.34,4.44,4.44,0,0,0,.07-1.9c-.12-.89-.32-1.72-1.52-1.83-1-.09-1.35,1.22-1.18,1.89s.77,1.71.68,2.26a11.13,11.13,0,0,1-.38,1.36A2.65,2.65,0,0,1,21.89,38.32Z"/><path class="cls-2" d="M16.47,52.49c2.25-1.31,5-2.92,5.91-4.88s1-8.41.91-9.57a.47.47,0,0,0-.22-.37,1.8,1.8,0,0,0-1.85-.29c-.18.23.13,7.42-2,9.73-1.45,1.62-1.72,1.55-3.44,2.36s-2.82.12-2.9,2.07S14.34,53.73,16.47,52.49Z"/><path class="cls-12" d="M16.81,52.83a4.06,4.06,0,0,0,3.67-1.32c.4-.5-.89-1-1.35-1.51a1.49,1.49,0,0,1-.29-1A22.19,22.19,0,0,1,19,45.65l-3.88.42s.13,2,.12,2.73a.9.9,0,0,1-.05.34c-.14.46-.63.66-1.4,1.26C12.85,51.14,14.8,52.56,16.81,52.83Z"/><path class="cls-12" d="M13.42,45.54c1.14,2,1.73,2.89,2.94,3.34a3.9,3.9,0,0,0,2.91.12c.84-.4,1.41-2.45,1.22-3.42A19.27,19.27,0,0,0,18.19,40a3.41,3.41,0,0,0-3.91-1.21C13,39.43,10.61,40.76,13.42,45.54Z"/><path class="cls-16" d="M18.22,42.31c.6,1.88.47,2.74-.06,3.85A3,3,0,0,1,16,47.92c-.9.06-1.1-.18-2.67-1.64A6.88,6.88,0,0,1,11,42.73a3.36,3.36,0,0,1,1.86-3.46C14.19,38.67,16.76,37.71,18.22,42.31Z"/><path class="cls-12" d="M19.21,43.49a1.21,1.21,0,0,1-.52,1.56c-.49.15-1.07-.29-1.28-1a1.21,1.21,0,0,1,.52-1.56C18.42,42.34,19,42.78,19.21,43.49Z"/><path class="cls-16" d="M17.18,41.55c.7-1,1.67-1.94.71-2.62a4.53,4.53,0,0,0-5.5.43C9.82,41.55,17.18,41.55,17.18,41.55Z"/><path class="cls-2" d="M26.36,107.54c-2.06-.11-3.86-.67-3.78.6.07,1.07.17,1,3.7,1,2.06,0,3.75-.16,3.78-.6S28.43,107.65,26.36,107.54Z"/><path class="cls-2" d="M16.4,107.54c-1.95-.68-3.86-.67-3.78.6.07,1.07-.07,1,3.46,1,2.07,0,2.6-.42,2.26-.7A5.46,5.46,0,0,0,16.4,107.54Z"/><path class="cls-13" d="M19.22,49.35a18.28,18.28,0,0,0-5.16.45c-1.56.38-3.23,1.38-2.63,6,0,0,1.17,11.45,1.24,13,.16,3.69-.9,4.43,2.07,4.17,3.13-.28,6.86-.13,8.37-.31.47-.06.33-1.18.15-2.56a135.8,135.8,0,0,1-.92-13.92C22.36,53.39,23.12,49.34,19.22,49.35Z"/><path class="cls-19" d="M13,106.16a7.83,7.83,0,0,1-.25,1.52,12.36,12.36,0,0,0,3-.15c.22,0,.61-3.28.76-4.85s.85-9.18.8-11,.27-12.61.27-12.61h.79a63,63,0,0,1,2.5,7.62,44.17,44.17,0,0,1,.78,6c-.07,1.92.84,11.79,1,12.84a8.06,8.06,0,0,1,0,2.17,7,7,0,0,0,3.4.06s-.24-14.68-.29-17.05c0-1.64-1.21-10-1.87-14.62,0-.1,0-.2,0-.3-.23-1.64-.39-2.73-.39-2.73s0-.45-.4-.5a9.69,9.69,0,0,0-1.25-.12,1.67,1.67,0,0,1-.31,0c-.77,0-1.94,0-3.78,0-4.37,0-5.07.1-5.07.4,0,0,.53,15.61.64,18.09S13.06,105.06,13,106.16Z"/><path class="cls-20" d="M21.47,72.42a1.67,1.67,0,0,0,.31,0,2.42,2.42,0,0,0-.16.85,2.52,2.52,0,0,0,2.2,2.5c0,.1,0,.2,0,.3a2.81,2.81,0,0,1-2.39-3.67Z"/><path class="cls-21" d="M38.1,48.16A24.32,24.32,0,0,1,20.91,6.65l7.83,7.83A13.24,13.24,0,1,0,47.47,33.21L55.3,41A24.17,24.17,0,0,1,38.1,48.16Z"/><path class="cls-12" d="M35.2,48.7a2.74,2.74,0,0,1,.14.9,15.11,15.11,0,0,0,2.38-.75,4.5,4.5,0,0,0,1.52-1.14c.63-.65,1.15-1.32.49-2.33-.54-.82-1.8-.29-2.22.26s-.85,1.67-1.34,1.94a11.45,11.45,0,0,1-1.29.56A2.59,2.59,0,0,1,35.2,48.7Z"/><path class="cls-13" d="M20.75,53.33c2.43.94,5.43,2.11,7.51,1.56s7.17-4.49,8-5.28a.49.49,0,0,0,.16-.4c-.07-1-.68-1.62-.94-1.62s-5.71,4.74-8.82,4.56c-2.17-.13-2.28-.38-4-1.22s-1.86-2.12-3.43-1S18.46,52.45,20.75,53.33Z"/><path class="cls-22" d="M115,40.74H75.86A4.29,4.29,0,0,0,71.57,45V67.61a4.29,4.29,0,0,0,4.29,4.29h4.45l5.54,7.42a3,3,0,0,0,4.74,0l5.55-7.42H115a4.29,4.29,0,0,0,4.29-4.29V45A4.29,4.29,0,0,0,115,40.74Z"/><path class="cls-21" d="M107,47.78H67.81a4.3,4.3,0,0,0-4.29,4.3V74.66A4.29,4.29,0,0,0,67.81,79h4.45l5.54,7.41a3,3,0,0,0,4.74,0L88.09,79H107a4.29,4.29,0,0,0,4.29-4.29V52.08A4.3,4.3,0,0,0,107,47.78Z"/><path class="cls-23" d="M101.3,55.67H70a1.51,1.51,0,1,1,0-3h31.3a1.51,1.51,0,1,1,0,3Z"/><path class="cls-23" d="M101.3,62.8H70a1.51,1.51,0,0,1,0-3h31.3a1.51,1.51,0,1,1,0,3Z"/><path class="cls-23" d="M86.92,69.92H70a1.51,1.51,0,1,1,0-3H86.92a1.51,1.51,0,1,1,0,3Z"/><path class="cls-24" d="M140.54,34.3h24.28A2.66,2.66,0,0,1,167.48,37V51a2.66,2.66,0,0,1-2.66,2.66h-2.76l-3.44,4.6a1.84,1.84,0,0,1-2.94,0l-3.44-4.6h-11.7A2.66,2.66,0,0,1,137.88,51V37A2.66,2.66,0,0,1,140.54,34.3Z"/><path class="cls-2" d="M136.47,38.66h24.28a2.66,2.66,0,0,1,2.66,2.66v14A2.66,2.66,0,0,1,160.75,58H158l-3.43,4.6a1.85,1.85,0,0,1-2.95,0L148.18,58H136.47a2.66,2.66,0,0,1-2.66-2.66v-14A2.66,2.66,0,0,1,136.47,38.66Z"/><path class="cls-25" d="M143.25,48.31a2.17,2.17,0,1,1-2.17-2.17A2.17,2.17,0,0,1,143.25,48.31Z"/><path class="cls-25" d="M150.78,48.31a2.17,2.17,0,1,1-2.17-2.17A2.17,2.17,0,0,1,150.78,48.31Z"/><path class="cls-25" d="M158.31,48.31a2.17,2.17,0,1,1-2.17-2.17A2.17,2.17,0,0,1,158.31,48.31Z"/><path class="cls-26" d="M77,144.23c0,.6,2.21,1.09,4.93,1.09s4.94-.49,4.94-1.09-2.21-1.09-4.94-1.09S77,143.62,77,144.23Z"/><path class="cls-27" d="M91.14,50.88c.16-.76,1.73-6.62,2.77-5.82s1,3.35.91,4.17a3.12,3.12,0,0,1-2.42,2.61C91.74,51.89,91,51.59,91.14,50.88Z"/><path class="cls-2" d="M93.43,50.74a.92.92,0,0,0-1.66-.19c-.51,1.05-3.18,7.36-3.44,9.27a2.06,2.06,0,0,0,0,.35.76.76,0,0,1-.08.11c-.59,1.09-3.26,3.91-6.42,7.84-.56.7-.56,2.88.08,4.17a2.06,2.06,0,0,0,3.24,0A33.48,33.48,0,0,0,88.45,68a35.88,35.88,0,0,0,3-5.11.84.84,0,0,0,.37-.45A30.41,30.41,0,0,0,93.21,55C93.48,52,93.91,51.8,93.43,50.74Z"/><path class="cls-4" d="M82.67,140.78a7.26,7.26,0,0,1,.18,1.31c.08.53.59.72.88,1.15s.83,1.17-1.15,1.21-3.35,0-3-1.17a6,6,0,0,0,.41-2,1.2,1.2,0,0,1,.24-1C80.46,140,82.36,139.63,82.67,140.78Z"/><path class="cls-4" d="M103.82,117.35a5,5,0,0,0,2.12,1.4c1.12.41,3.45.52,2.18,1a8,8,0,0,1-3.55.22,16.85,16.85,0,0,0-2.4.1c-1.18.05-1.19-.15-1.1-1.44C101.21,116.85,103.24,116.38,103.82,117.35Z"/><path class="cls-27" d="M85.43,59.62c.24,2.4.31,2.93,1.36,3.91a5.62,5.62,0,0,0,3.81,1.12c1.23,0,2-1.48,2.31-2.49a14.56,14.56,0,0,0,.24-5.64,3.86,3.86,0,0,0-3.5-2.94C88,53.58,84.85,53.77,85.43,59.62Z"/><path class="cls-27" d="M86.65,63.84c-.06.83-.13,1.79-.15,2.66a2.28,2.28,0,0,0,2,2.32h.13c1,0,2.25-.94,2.16-2-.06-.67-.08-1.35-.08-1.94a2.69,2.69,0,0,0-1.8-2.53h0A1.69,1.69,0,0,0,86.65,63.84Z"/><path class="cls-13" d="M81.86,74.08A49.9,49.9,0,0,1,84,91.4H98.51s-.09-13.55-1.05-21a5.56,5.56,0,0,0-3.06-4.25,10.4,10.4,0,0,0-3.86-.86H87.87a10.41,10.41,0,0,0-2.83.35C81.1,66.87,80.75,70.42,81.86,74.08Z"/><path class="cls-14" d="M87,119.2c1.16-4.71-3.65-5.54-5.17-2.13-2.15,4.82-2,20.23-1.86,23.31,0,.4-.06.89.14,1a3,3,0,0,0,1.53.25c.55,0,1.07,0,1.13-.68C83.08,136.49,85.83,123.76,87,119.2Z"/><path class="cls-14" d="M91.28,100.89c.51-5.85-1.81-10.4-5.44-8.46a5,5,0,0,0-2.3,4c-.2,1.53-1.33,17.46-1.72,20.33-.89,6.49,4.23,4.74,4.79,3C88,115.14,91,104.08,91.28,100.89Z"/><path class="cls-27" d="M92.52,59.12c-.34.83-.26,1.64.17,1.82s1.06-.35,1.4-1.18.26-1.64-.17-1.82S92.86,58.29,92.52,59.12Z"/><path class="cls-27" d="M86.29,59.12c.33.83.26,1.64-.18,1.82s-1.06-.35-1.4-1.18-.26-1.64.18-1.82S86,58.29,86.29,59.12Z"/><path class="cls-16" d="M86.17,54.9c.93,1.4,5.44,1.53,6.91,1s1.37-3.35-.74-3.55c-1.18,0-.32.28-1.28.67C90.57,53.23,85.17,53.42,86.17,54.9Z"/><path class="cls-27" d="M114.8,64.13c.73-.25,6.55-1.94,6.41-.63s-2.31,2.62-3.09,2.93a3.12,3.12,0,0,1-3.49-.72C114.25,65.17,114.11,64.37,114.8,64.13Z"/><path class="cls-27" d="M115.06,63.77c.25-.25,1.75-1.72,2-1.46.45.4-.49,1.42-1.11,2.09-.33.36-1,.63-1.29.32S114.65,64.17,115.06,63.77Z"/><path class="cls-13" d="M116.11,66c-.66,1-1,.69-3.74,2a29.35,29.35,0,0,1-7.11,2.72c-1.64.35-1.66-3.48.44-4.38,1.77-.77,8.54-1.76,9.71-1.86A.92.92,0,0,1,116.11,66Z"/><path class="cls-13" d="M106.89,70.34c-.85.37-2.86.92-7.93.93a24,24,0,0,1-4.42-.2,3.39,3.39,0,0,1-2.81-2.78c0-1.48.8-2.58,1.68-2.51,5,.37,10.58,1,11.81.92C107,66.51,107.89,69.89,106.89,70.34Z"/><path class="cls-15" d="M84.1,100.26s-1.25-3-.06-8.86H98.51s0,4.15,0,8.86Z"/><path class="cls-15" d="M101.18,117.43c2.47-6.44,4.37-18.72,8.08-23.27,2.36-2.9,6.35-1.35,4.49,2.64-2,4.26-6.75,12.13-9.77,20.7C103.68,118.34,100.9,118.19,101.18,117.43Z"/><path class="cls-15" d="M112.45,98.22c1.81-.5,3.83-6.39-2.71-6.11-2.91.12-13.12.06-14.67.12s-3.8.25-4.11,1c-1.54,3.81,2.92,7.72,8.74,6.91C103.59,99.61,108.69,99.27,112.45,98.22Z"/><path class="cls-16" d="M91.23,54.66c1.39.83,1.71,1.57,1.68,3.28s-.76,4.65-3.92,5.31-3.91-2.47-4.11-4.63-.08-3.78,1.52-4.17C88.77,53.86,90.39,54.15,91.23,54.66Z"/></g></g></g></svg>