<svg xmlns="http://www.w3.org/2000/svg" viewBox="0 0 38.9 38.5"><defs><style>.cls-1{fill:#ffda79;}.cls-2{fill:#363f48;}</style></defs><title>svgengranaje2</title><g id="Capa_2" data-name="Capa 2"><g id="Capa_1-2" data-name="Capa 1"><g id="Layer_6" data-name="Layer 6"><path class="cls-1" d="M32.3,13.5a15.17,15.17,0,0,0-3.2-4.6l2.4-5.2L23.4,0,21,5.2a13.1,13.1,0,0,0-2.8,0,12.66,12.66,0,0,0-2.8.6L12.1,1.1,4.8,6.3,8.1,11a15,15,0,0,0-2.4,5.1L0,16.6l.8,8.9L6.5,25a13.86,13.86,0,0,0,3.3,4.6L7.4,34.8l8.1,3.7,2.4-5.2a13.1,13.1,0,0,0,2.8,0,23.25,23.25,0,0,0,2.8-.5l3.3,4.7,7.3-5.2-3.3-4.7a15,15,0,0,0,2.4-5.1l5.7-.5-.8-8.9Z"/><path class="cls-2" d="M23.9,18.8a4.47,4.47,0,0,0-8.9.8,4.39,4.39,0,0,0,4.8,4,4.47,4.47,0,0,0,4.1-4.8Zm4.3-.4a8.74,8.74,0,1,0-7.8,9.5,8.74,8.74,0,0,0,7.8-9.5Z"/></g></g></g></svg>