<?xml version="1.0" encoding="utf-8"?>
<!-- Generator: Adobe Illustrator 22.0.0, SVG Export Plug-In . SVG Version: 6.00 Build 0)  -->
<svg version="1.1" id="Layer_1" xmlns="http://www.w3.org/2000/svg" xmlns:xlink="http://www.w3.org/1999/xlink" x="0px" y="0px"
	 viewBox="0 0 100 100" style="enable-background:new 0 0 100 100;" xml:space="preserve">
<style type="text/css">
	.st0{fill:#009FDA;}
</style>
<g>
	<path class="st0" d="M44.9,80.7h13.2c2.6,0,4.6-2.1,4.6-4.6V8.7c0-2.6-2.1-4.6-4.6-4.6H44.9c-2.6,0-4.6,2.1-4.6,4.6V76
		C40.2,78.6,42.3,80.7,44.9,80.7z"/>
	<path class="st0" d="M14.2,80.7h13.2c2.6,0,4.6-2.1,4.6-4.6V43.5c0-2.6-2.1-4.6-4.6-4.6H14.2c-2.6,0-4.6,2.1-4.6,4.6V76
		C9.6,78.6,11.7,80.7,14.2,80.7z"/>
	<path class="st0" d="M86.5,25H73.2c-2.6,0-4.6,2.1-4.6,4.6V76c0,2.6,2.1,4.6,4.6,4.6h13.2c2.6,0,4.6-2.1,4.6-4.6V29.6
		C91.1,27,89,25,86.5,25z"/>
	<path class="st0" d="M86.5,87.7H13.5c-2.6,0-4.6,2.1-4.6,4.6s2.1,4.6,4.6,4.6h72.9c2.6,0,4.6-2.1,4.6-4.6S89,87.7,86.5,87.7z"/>
</g>
</svg>
