<?xml version="1.0" encoding="utf-8"?>
<!-- Generator: Adobe Illustrator 22.0.0, SVG Export Plug-In . SVG Version: 6.00 Build 0)  -->
<svg version="1.1" id="Layer_1" xmlns="http://www.w3.org/2000/svg" xmlns:xlink="http://www.w3.org/1999/xlink" x="0px" y="0px"
	 viewBox="0 0 100 100" style="enable-background:new 0 0 100 100;" xml:space="preserve">
<style type="text/css">
	.st0{fill:#009FDA;}
</style>
<g>
	<path class="st0" d="M63,28.8c6.3,0,11.4-5,11.4-11.4S69.4,6,63,6s-11.4,5-11.4,11.4S56.7,28.8,63,28.8z M63,12.5
		c2.8,0,4.9,2.1,4.9,4.9s-2.1,4.9-4.9,4.9s-4.9-2.1-4.9-4.9S60.3,12.5,63,12.5z"/>
	<path class="st0" d="M37,28.8c6.3,0,11.4-5,11.4-11.4S43.3,6,37,6s-11.4,5-11.4,11.4S30.6,28.8,37,28.8z M37,12.5
		c2.8,0,4.9,2.1,4.9,4.9s-2.1,4.9-4.9,4.9c-2.8,0-4.9-2.1-4.9-4.9S34.2,12.5,37,12.5z"/>
	<path class="st0" d="M93.9,54c0-2.8-1.5-4.9-2.4-5.9l-9.8-11.7c-3.4-3.9-7.8-6-12.2-6h-13c-2.1,0-4.7,0.5-6.8,1.5
		c-2-1-4.1-1.5-6.2-1.5h-13c-4.4,0-8.8,2.1-12.2,6L8.5,48c-1,1-2.4,3.3-2.4,6c0,5,3.9,9,9,9c0.5,0,3.9,0,6.2-1.6L16,78.3
		c-0.5,1.6-1.8,5.5-1.8,7.5c0,4.1,3.3,8.1,8.6,8.1c5.2,0,9-2.4,10.7-7c0.3-1,2-5.7,3.4-10.3l3.4,10.3c1.6,4.6,5.5,7,10.7,7
		c5,0,8.3-3.7,8.6-7.5l3.3-9.8l3.4,10.4c1.6,4.6,5.5,7,10.7,7c5.4,0,8.6-4.1,8.6-8.1c0-2.1-1.3-6-1.8-7.5l-5.2-17.1
		c2.4,1.6,5.7,1.8,6.2,1.8C90,63,93.9,59.1,93.9,54z M53.3,85.8c0,0.2-0.2,1.6-2.1,1.6c-3.3,0-4.1-1.5-4.6-2.6l-6.5-19.5
		C39.6,64,38.4,63,37,63l0,0c-1.5,0-2.6,1-3.1,2.3C32.3,70.1,28,83,27.4,84.6c-0.5,1.3-1.5,2.8-4.6,2.8c-2,0-2.1-1.6-2.1-1.6
		c0-0.7,0.7-3.3,1.5-5.5l6.5-21.2c0.2-0.3,0.2-0.7,0.2-1v-6.5c0-1.3-0.8-2.6-2.1-3.1c-1.3-0.5-2.8-0.2-3.6,1L17.5,56
		c-0.3,0.2-1.5,0.5-2.4,0.5c-1.8,0-2.4-1.3-2.4-2.4c0-0.5,0.3-1.1,0.8-1.8l9.8-11.6c2.3-2.4,4.9-3.7,7.3-3.7h13
		c2.4,0,5.2,1.3,7.3,3.7l9.8,11.7c0.5,0.5,0.8,1.3,0.8,1.6c0,1.1-0.7,2.4-2.4,2.4c-1,0-2.1-0.3-2.4-0.5l-5.7-6.5
		c-0.8-1-2.3-1.3-3.6-1c-1.3,0.5-2.1,1.6-2.1,3.1v6.5c0,0.3,0,0.7,0.2,1l6.5,21.3C52.6,82.5,53.3,85,53.3,85.8L53.3,85.8z
		 M76.9,49.5c-0.8-1-2.3-1.3-3.6-1c-1.3,0.5-2.1,1.6-2.1,3.1v6.5c0,0.3,0,0.7,0.2,1l6.5,21.3c0.8,2.1,1.5,4.7,1.5,5.4
		c0,0-0.2,1.6-2.1,1.6c-3.3,0-4.1-1.5-4.6-2.6l-6.5-19.5C65.6,64,64.5,63,63,63c-1.5,0-2.6,1-3.1,2.3l-3.1,9.3l-3.4-11.2l0.5-1.3
		c2.3,1.1,4.7,1.1,5.2,1.1c5,0,9-3.9,9-9c0-2.8-1.5-4.9-2.4-5.9L56.2,37c0.2,0,0.3,0,0.3,0h13c2.4,0,5.2,1.3,7.3,3.7l9.8,11.7
		c0.5,0.5,0.8,1.3,0.8,1.6c0,1.1-0.7,2.4-2.4,2.4c-1,0-2.1-0.3-2.4-0.5L76.9,49.5z"/>
</g>
</svg>
