<?xml version="1.0" encoding="utf-8"?>
<!-- Generator: Adobe Illustrator 22.0.0, SVG Export Plug-In . SVG Version: 6.00 Build 0)  -->
<svg version="1.1" id="Layer_1" xmlns="http://www.w3.org/2000/svg" xmlns:xlink="http://www.w3.org/1999/xlink" x="0px" y="0px"
	 viewBox="0 0 100 100" style="enable-background:new 0 0 100 100;" xml:space="preserve">
<style type="text/css">
	.st0{fill:#009FDA;}
</style>
<g>
	<path class="st0" d="M50,20.1c-16.5,0-29.9,13.4-29.9,29.9S33.5,79.9,50,79.9S79.9,66.5,79.9,50S66.5,20.1,50,20.1z M50,73.6
		c-13.1,0-23.6-10.6-23.6-23.6S36.9,26.4,50,26.4S73.6,36.9,73.6,50S63.1,73.6,50,73.6z"/>
	<path class="st0" d="M62.3,51.9L53.1,48V35.8c0-1.7-1.4-3.1-3.1-3.1s-3.1,1.4-3.1,3.1V50c0,1.3,0.8,2.4,1.9,2.8l11,4.7
		c0.5,0.2,0.8,0.3,1.3,0.3c1.3,0,2.4-0.8,2.8-1.9C64.6,54.4,63.9,52.5,62.3,51.9z"/>
	<path class="st0" d="M73.6,7.5H26.4C16,7.5,7.5,16,7.5,26.4v47.2C7.5,84,16,92.5,26.4,92.5h47.2c10.4,0,18.9-8.5,18.9-18.9V26.4
		C92.5,16,84,7.5,73.6,7.5z M86.2,73.6c0,6.9-5.7,12.6-12.6,12.6H26.4c-6.9,0-12.6-5.7-12.6-12.6V26.4c0-6.9,5.7-12.6,12.6-12.6
		h47.2c6.9,0,12.6,5.7,12.6,12.6V73.6z"/>
</g>
</svg>
