<?xml version="1.0" encoding="utf-8"?>
<!-- Generator: Adobe Illustrator 22.0.0, SVG Export Plug-In . SVG Version: 6.00 Build 0)  -->
<svg version="1.1" id="Layer_1" xmlns="http://www.w3.org/2000/svg" xmlns:xlink="http://www.w3.org/1999/xlink" x="0px" y="0px"
	 viewBox="0 0 56.5 56.5" style="enable-background:new 0 0 56.5 56.5;" xml:space="preserve">
<style type="text/css">
	.st0{fill:#009FDA;}
</style>
<path class="st0" d="M28.1,55.4c-0.8,0-1.5-0.3-2-0.8L6.1,33.2c-0.7-0.8-0.9-1.9-0.5-2.9s1.3-1.6,2.4-1.6h8.3l2.4-19V9.6
	c0.9-4.8,3.9-7.5,8-7.5h2.7c4.1,0,7,2.7,8,7.5v0.1l2.4,19h8.3c1.1,0,2,0.7,2.4,1.6c0.4,0.9,0.3,2.1-0.5,2.9L29.9,54.6
	C29.6,55.2,28.8,55.4,28.1,55.4z M14.2,34l13.9,14.8L42,34h-4.5c-1.3,0-2.5-1.1-2.7-2.4l-2.7-21.3c-0.7-3.1-2-3.1-2.7-3.1h-2.7
	c-0.7,0-2,0-2.7,3.1l-2.7,21.3C21.3,33,20.1,34,18.8,34C18.8,34,14.2,34,14.2,34z"/>
</svg>
