<svg xmlns="http://www.w3.org/2000/svg" viewBox="0 0 33.9 39.9"><defs><style>.cls-1{fill:#009fda;}</style></defs><title>Recurso 1</title><g id="Capa_2" data-name="Capa 2"><g id="Layer_1" data-name="Layer 1"><path class="cls-1" d="M17,39.9a2,2,0,0,1-1.5-.6l-15-16a2.18,2.18,0,0,1-.4-2.2,1.83,1.83,0,0,1,1.8-1.2h6.2L9.94,5.7V5.6c.7-3.6,2.9-5.6,6-5.6h2c3.1,0,5.2,2,6,5.6v.1l1.8,14.2h6.2a2,2,0,0,1,1.8,1.2,2,2,0,0,1-.4,2.2l-15,16A1.49,1.49,0,0,1,17,39.9Zm-10.4-16L17,35l10.4-11.1H24a2,2,0,0,1-2-1.8L20,6.2c-.5-2.3-1.5-2.3-2-2.3H16c-.5,0-1.5,0-2,2.3L12,22.1a2,2,0,0,1-2,1.8Z"/></g></g></svg>