<?xml version="1.0" encoding="utf-8"?>
<!-- Generator: Adobe Illustrator 22.0.0, SVG Export Plug-In . SVG Version: 6.00 Build 0)  -->
<svg version="1.1" id="Layer_1" xmlns="http://www.w3.org/2000/svg" xmlns:xlink="http://www.w3.org/1999/xlink" x="0px" y="0px"
	 viewBox="0 0 136.1 136.1" style="enable-background:new 0 0 136.1 136.1;" xml:space="preserve">
<style type="text/css">
	.st0{fill:#009FDA;}
</style>
<g>
	<path class="st0" d="M132.2,67.2c-0.2-0.5-3.3-10.6-13-20.8c-8.7-9.2-24.5-20.3-50.7-20.3c-50,0-63.5,40.6-63.5,41.1
		c-0.2,0.9-0.2,1.9,0,2.8c0.2,0.5,3.3,10.6,13,20.8c8.7,9.2,24.5,20.3,50.7,20.3c50,0,63.5-40.6,63.5-41.1
		C132.4,69.1,132.4,67.9,132.2,67.2z M68.4,101.4c-38.5,0-51.4-26.4-54-33c2.6-6.4,15.8-33,54-33c38.5,0,51.4,26.4,54,33
		C119.9,75,106.7,101.4,68.4,101.4z"/>
	<path class="st0" d="M68.4,44.8c-13,0-23.6,10.6-23.6,23.6S55.5,92,68.4,92S92,81.3,92,68.4S81.6,44.8,68.4,44.8z M68.4,82.5
		c-7.8,0-14.2-6.4-14.2-14.2s6.4-14.2,14.2-14.2s14.2,6.4,14.2,14.2S76.5,82.5,68.4,82.5z"/>
	<path class="st0" d="M68.7,63.6L68.7,63.6c-2.6,0-4.7,2.1-4.7,4.7s2.1,4.7,4.7,4.7s4.7-2.1,4.7-4.7S71.3,63.6,68.7,63.6z"/>
</g>
</svg>
