<?xml version="1.0" encoding="utf-8"?>
<!-- Generator: Adobe Illustrator 22.0.0, SVG Export Plug-In . SVG Version: 6.00 Build 0)  -->
<svg version="1.1" id="Layer_1" xmlns="http://www.w3.org/2000/svg" xmlns:xlink="http://www.w3.org/1999/xlink" x="0px" y="0px"
	 viewBox="0 0 100 100" style="enable-background:new 0 0 100 100;" xml:space="preserve">
<style type="text/css">
	.st0{fill:#009FDA;}
</style>
<g>
	<path class="st0" d="M28.9,65.8c0.9,0,1.8-0.4,2.5-1.1l16.9-16.9l11.6,11.6c1.4,1.4,3.5,1.4,4.9,0l15.1-15.1
		c-0.2,1.8,1.1,3.5,3,3.9s3.7-1.1,4-2.8l1.8-10.5c0.2-1.1-0.2-2.3-1.1-3c-0.9-0.9-1.9-1.2-3-1.1l-10.5,1.8c-1.9,0.4-3.2,2.1-2.8,4
		c0.4,1.8,1.9,3.2,3.9,3L62.3,52.1L50.7,40.5c-1.4-1.4-3.5-1.4-4.9,0L26.4,59.8c-1.4,1.4-1.4,3.5,0,4.9C27.2,65.5,28,65.8,28.9,65.8
		z"/>
	<path class="st0" d="M90.4,81.6H18.4V9.6c0-1.9-1.6-3.5-3.5-3.5s-3.5,1.6-3.5,3.5v5.3H9.6c-1.9,0-3.5,1.6-3.5,3.5s1.6,3.5,3.5,3.5
		h1.8v10.5H9.6c-1.9,0-3.5,1.6-3.5,3.5c0,1.9,1.6,3.5,3.5,3.5h1.8V50H9.6c-1.9,0-3.5,1.6-3.5,3.5c0,1.9,1.6,3.5,3.5,3.5h1.8v10.5
		H9.6c-1.9,0-3.5,1.6-3.5,3.5c0,1.9,1.6,3.5,3.5,3.5h1.8v10.5c0,1.9,1.6,3.5,3.5,3.5h10.5v1.8c0,1.9,1.6,3.5,3.5,3.5
		s3.5-1.6,3.5-3.5v-1.8H43v1.8c0,1.9,1.6,3.5,3.5,3.5c1.9,0,3.5-1.6,3.5-3.5v-1.8h10.5v1.8c0,1.9,1.6,3.5,3.5,3.5
		c1.9,0,3.5-1.6,3.5-3.5v-1.8h10.5v1.8c0,1.9,1.6,3.5,3.5,3.5c1.9,0,3.5-1.6,3.5-3.5v-1.8h5.3c1.9,0,3.5-1.6,3.5-3.5
		S92.4,81.6,90.4,81.6z"/>
</g>
</svg>
