<?xml version="1.0" encoding="utf-8"?>
<!-- Generator: Adobe Illustrator 22.0.0, SVG Export Plug-In . SVG Version: 6.00 Build 0)  -->
<svg version="1.1" id="Layer_1" xmlns="http://www.w3.org/2000/svg" xmlns:xlink="http://www.w3.org/1999/xlink" x="0px" y="0px"
	 viewBox="0 0 72.8 72.8" style="enable-background:new 0 0 72.8 72.8;" xml:space="preserve">
<style type="text/css">
	.st0{fill:#009FDA;}
</style>
<path class="st0" d="M37,72c-1.1,0-1.9-0.4-2.6-1.1L8,42.8c-0.9-1.1-1.2-2.5-0.7-3.9c0.5-1.4,1.8-2.1,3.2-2.1h10.9l3.2-24.9v-0.2
	c1.2-6.3,5.1-9.8,10.5-9.8h3.5c5.4,0,9.1,3.5,10.5,9.8v0.2l3.2,24.9h10.9c1.4,0,2.6,0.9,3.2,2.1c0.5,1.2,0.4,2.8-0.7,3.9L39.2,70.9
	C38.9,71.6,38,72,37,72z M18.7,43.9L37,63.4l18.3-19.5h-6c-1.8,0-3.3-1.4-3.5-3.2l-3.5-27.9c-0.9-4-2.6-4-3.5-4h-3.5
	c-0.9,0-2.6,0-3.5,4l-3.5,27.9c-0.2,1.8-1.8,3.2-3.5,3.2H18.7z"/>
</svg>
