<?xml version="1.0" encoding="utf-8"?>
<!-- Generator: Adobe Illustrator 22.0.0, SVG Export Plug-In . SVG Version: 6.00 Build 0)  -->
<svg version="1.1" id="Layer_1" xmlns="http://www.w3.org/2000/svg" xmlns:xlink="http://www.w3.org/1999/xlink" x="0px" y="0px"
	 viewBox="0 0 100 100" style="enable-background:new 0 0 100 100;" xml:space="preserve">
<style type="text/css">
	.st0{fill:#009FDA;}
</style>
<path class="st0" d="M50,93.9c-10.1,0-16.4-0.3-26.4-1.6c-4.1-0.5-7.8-3.4-9.1-7c-3.7-9.3-5-25.7-5.2-38.6l0,0
	c-0.8,0-1.6-0.3-2.3-0.8c-0.7-0.7-1-1.5-1-2.4c0-10.9,3.1-17.1,9-18.6c2.4-0.7,6-1.1,10.1-1.5c-0.8-1.5-1.1-3.3-1.1-5
	c0-5,4.7-9,10.6-9c5.4,0,10.9,3.4,14.3,7.6c2.6-6.8,8.5-10.9,16.6-10.9c7.8,0,13.8,5,13.8,11.4c0,2.1-0.7,4.4-2,6.2
	c3.1,0.3,5.7,0.8,7.6,1.3c5.9,1.3,9,7.5,9,18.4c0,1-0.3,1.8-1,2.4c-0.7,0.5-1.5,0.8-2.3,0.8l0,0c-0.2,12.9-1.5,29.3-5,38.6
	c-1.3,3.6-5.2,6.5-9.1,7C66.4,93.6,60.1,93.9,50,93.9z M46.3,87.4c2.4,0,5.2,0,7.6,0c1.3-13.8,1.5-30.8,1.1-42.3c-3.3,0-6.8,0-9.9,0
	C44.8,56.6,45,73.6,46.3,87.4z M15.8,46.2c0,11.9,1.3,28.2,4.7,36.8c0.5,1.5,2.4,2.6,3.9,2.8c5.9,0.8,10.4,1.1,15.3,1.5
	c-1.1-13.8-1.5-30.4-1.1-42C29.5,45.4,22.3,45.7,15.8,46.2z M61.6,45.2c0.3,11.6,0,28.2-1.1,42c4.9-0.2,9.4-0.7,15.3-1.5
	c1.5-0.2,3.3-1.3,3.9-2.8c3.3-8.6,4.6-24.9,4.6-36.8C77.7,45.7,70.5,45.4,61.6,45.2z M62.5,38.7c9.9,0.2,17.6,0.7,24.9,1.3
	c-0.3-3.9-1.3-8.1-3.9-8.8c-3.7-1-10.9-1.6-18.7-2c-0.2,0-0.2,0-0.3,0c-1,0-1.8-0.2-2.8-0.2C62,31.6,62.4,34.8,62.5,38.7z M38.4,29
	c-9,0.3-17.7,1-21.8,2.1c-2.6,0.7-3.6,4.9-3.9,8.8c7.2-0.5,14.8-1,24.9-1.3C37.6,34.8,38.1,31.6,38.4,29z M50,38.6c2.1,0,4.1,0,6,0
	c-0.2-4.1-0.7-7.2-1.1-9.8c-3.3,0-6.5,0-9.8,0c-0.5,2.6-1,5.7-1.1,9.8C45.9,38.6,47.9,38.6,50,38.6z M54.2,22.3
	c3.4,0,7,0.2,10.6,0.3c5,0,8-2,8-5.2c0-2.3-2.9-4.9-7.3-4.9C57.3,12.5,54.9,18.1,54.2,22.3z M34.5,15.8c-2.1,0-4.1,1.1-4.1,2.4
	c0,0.8,0.2,2.1,1.1,2.9c1,1,2.8,1.5,5.2,1.3c0.2,0,0.2,0,0.3,0c2.6-0.2,5.2-0.2,7.6-0.2C42.8,19.4,38.6,15.8,34.5,15.8z"/>
</svg>
