<?xml version="1.0" encoding="utf-8"?>
<!-- Generator: Adobe Illustrator 22.0.0, SVG Export Plug-In . SVG Version: 6.00 Build 0)  -->
<svg version="1.1" id="Layer_1" xmlns="http://www.w3.org/2000/svg" xmlns:xlink="http://www.w3.org/1999/xlink" x="0px" y="0px"
	 viewBox="0 0 100 100" style="enable-background:new 0 0 100 100;" xml:space="preserve">
<style type="text/css">
	.st0{fill:#009FDA;}
</style>
<g>
	<path class="st0" d="M93.9,52l-5.9-38c-0.3-1.9-2-3-3.9-2.9l-61.6,9.3c-0.8,0.2-1.7,0.7-2.2,1.4c-0.5,0.7-0.7,1.7-0.7,2.5l1.7,11.3
		l-5.4-0.8c-1.9-0.3-3.5,1-3.7,2.9l-6.1,38c-0.2,0.8,0,1.9,0.7,2.5s1.4,1.2,2.2,1.4l61.6,9.3c0.2,0,0.3,0,0.5,0c0.7,0,1.4-0.2,2-0.7
		c0.7-0.5,1.2-1.4,1.4-2.2l4.2-28.2l12.5-1.9c0.8-0.2,1.7-0.7,2.2-1.4C93.7,53.9,94.1,52.9,93.9,52z M68.2,81.6l-54.9-8.3l4.9-31.4
		l4.2,0.5l3,19.7c0.3,1.9,2,3,3.9,2.9l2.4-0.3c1.4,5.1,5.9,8.8,11.5,8.8c6.6,0,11.8-5.2,11.8-11.8c0-0.2,0-0.3,0-0.5l16.5-2.5
		L68.2,81.6z M38.5,63.8l9.8-1.5c-0.2,2.5-2.4,4.6-5.1,4.6C41.2,66.9,39.4,65.5,38.5,63.8z M31.8,57.9l-4.9-31.2l54.9-8.3l4.9,31.2
		L31.8,57.9z"/>
	<path class="st0" d="M56.8,26.4c-6.6,0-11.8,5.2-11.8,11.8S50.2,50,56.8,50s11.8-5.2,11.8-11.8S63.3,26.4,56.8,26.4z M56.8,43.3
		c-2.9,0-5.1-2.2-5.1-5.1s2.2-5.1,5.1-5.1c2.9,0,5.1,2.2,5.1,5.1S59.6,43.3,56.8,43.3z"/>
</g>
</svg>
