<?xml version="1.0" encoding="utf-8"?>
<!-- Generator: Adobe Illustrator 22.0.0, SVG Export Plug-In . SVG Version: 6.00 Build 0)  -->
<svg version="1.1" id="Layer_1" xmlns="http://www.w3.org/2000/svg" xmlns:xlink="http://www.w3.org/1999/xlink" x="0px" y="0px"
	 viewBox="0 0 65.6 65.6" style="enable-background:new 0 0 65.6 65.6;" xml:space="preserve">
<style type="text/css">
	.st0{fill:#009FDA;}
</style>
<g>
	<path class="st0" d="M64.8,32.4c-0.2-0.2-1.7-5.4-6.4-10.4C54,17.5,46.2,11.9,33.1,11.9C8,11.9,1.4,32.2,1.4,32.4
		c-0.2,0.4-0.2,1,0,1.5c0.2,0.2,1.7,5.4,6.4,10.4c4.4,4.6,12.2,10.2,25.3,10.2c25.1,0,31.7-20.3,31.7-20.5
		C65,33.3,65,32.8,64.8,32.4z M33.1,49.6c-19.3,0-25.7-13.3-27-16.6c1.2-3.1,7.9-16.6,27-16.6c19.3,0,25.7,13.3,27,16.6
		C58.8,36.2,52.2,49.6,33.1,49.6z"/>
	<path class="st0" d="M33.1,21.2c-6.4,0-11.8,5.4-11.8,11.8s5.4,11.8,11.8,11.8S44.9,39.5,44.9,33S39.5,21.2,33.1,21.2z M33.1,40.1
		C29.2,40.1,26,37,26,33c0-3.9,3.1-7.1,7.1-7.1c3.9,0,7.1,3.1,7.1,7.1C40.2,37,37,40.1,33.1,40.1z"/>
	<path class="st0" d="M33.1,30.8L33.1,30.8c-1.2,0-2.3,1-2.3,2.3c0,1.2,1,2.3,2.3,2.3c1.2,0,2.3-1,2.3-2.3
		C35.4,31.8,34.3,30.8,33.1,30.8z"/>
</g>
</svg>
