<?xml version="1.0" encoding="utf-8"?>
<!-- Generator: Adobe Illustrator 22.0.0, SVG Export Plug-In . SVG Version: 6.00 Build 0)  -->
<svg version="1.1" id="Layer_1" xmlns="http://www.w3.org/2000/svg" xmlns:xlink="http://www.w3.org/1999/xlink" x="0px" y="0px"
	 viewBox="0 0 46.6 46.6" style="enable-background:new 0 0 46.6 46.6;" xml:space="preserve">
<style type="text/css">
	.st0{fill:#009FDA;}
</style>
<path class="st0" d="M23.7,44.9c-0.6,0-1.1-0.2-1.7-0.6l-15.9-17c-0.6-0.6-0.7-1.5-0.4-2.4c0.4-0.9,1.1-1.3,1.9-1.3h6.5l1.9-15.1
	V8.3c0.7-3.7,3-6,6.3-6h2.1c3.4,0,5.6,2.1,6.3,6v0.2l1.9,15.1h6.5c0.9,0,1.7,0.6,1.9,1.3c0.4,0.7,0.2,1.7-0.4,2.4l-15.9,17
	C24.8,44.7,24.3,44.9,23.7,44.9z M12.7,27.9l11,11.7l11-11.7h-3.5c-1.1,0-2.1-0.9-2.1-1.9L27.1,9.2c-0.6-2.4-1.7-2.4-2.1-2.4h-2.4
	c-0.6,0-1.7,0-2.1,2.4L18.5,26c-0.2,1.1-1.1,1.9-2.1,1.9C16.5,27.9,12.7,27.9,12.7,27.9z"/>
</svg>
