<?xml version="1.0" encoding="utf-8"?>
<!-- Generator: Adobe Illustrator 22.0.0, SVG Export Plug-In . SVG Version: 6.00 Build 0)  -->
<svg version="1.1" id="Layer_1" xmlns="http://www.w3.org/2000/svg" xmlns:xlink="http://www.w3.org/1999/xlink" x="0px" y="0px"
	 viewBox="0 0 100 100" style="enable-background:new 0 0 100 100;" xml:space="preserve">
<style type="text/css">
	.st0{fill:#009FDA;}
</style>
<g>
	<path class="st0" d="M50,14.3c-14.8,0-27.2,12.1-27.2,26.4c0,7.1,3.6,11.9,6.8,16.5c3.4,4.8,6.8,9.2,6.8,16.7V84
		c0,5.3,5.3,8.5,13.8,8.5c9.9,0,13.4-4.4,13.4-8.5V73.8c0-7.5,3.2-11.9,6.8-16.7c3.4-4.6,6.8-9.4,6.8-16.5
		C77.2,26.4,64.8,14.3,50,14.3z M56.8,84c0,0.5-2,1.7-6.6,1.7c-4.8,0-6.8-1.2-7-1.7v-7.5c1.9,0.3,4.3,0.7,6.8,0.7s4.9-0.3,6.8-0.7
		V84z M64.8,53.1c-3.2,4.3-6.6,9.2-7.8,16.3c-1.7,0.3-4.3,0.9-7.1,0.9c-2.9,0-5.4-0.5-7.1-0.9c-1-7.1-4.6-12.1-7.8-16.3
		c-3.1-4.3-5.6-7.5-5.6-12.4c0.3-10.5,9.7-19.6,20.7-19.6s20.4,9,20.4,19.6C70.4,45.6,68,49,64.8,53.1z"/>
	<path class="st0" d="M92.5,38.1h-3.4c-1.9,0-3.4,1.5-3.4,3.4c0,1.9,1.5,3.4,3.4,3.4h3.4c1.9,0,3.4-1.5,3.4-3.4
		C95.9,39.6,94.4,38.1,92.5,38.1z"/>
	<path class="st0" d="M78.2,8.5l-1.7,1.7c-1.4,1.4-1.4,3.4,0,4.8c0.7,0.7,1.5,1,2.4,1s1.7-0.3,2.4-1l1.7-1.7c1.4-1.4,1.4-3.4,0-4.8
		C81.6,7.1,79.6,7.1,78.2,8.5z"/>
	<path class="st0" d="M87.4,29.6c0.5,0,1-0.2,1.5-0.3l3.4-1.7c1.7-0.9,2.4-2.9,1.5-4.6c-0.9-1.7-2.9-2.4-4.6-1.5l-3.4,1.7
		c-1.7,0.9-2.4,2.9-1.5,4.6C85,28.9,86.2,29.6,87.4,29.6z"/>
	<path class="st0" d="M92.3,55.4l-3.4-1.7c-1.7-0.9-3.7-0.2-4.6,1.5c-0.9,1.7-0.2,3.7,1.5,4.6l3.4,1.7c0.5,0.2,1,0.3,1.5,0.3
		c1.2,0,2.4-0.7,3.1-1.9C94.7,58.3,94.1,56.3,92.3,55.4z"/>
	<path class="st0" d="M10.9,44.9c1.9,0,3.4-1.5,3.4-3.4c0-1.9-1.5-3.4-3.4-3.4H7.5c-1.9,0-3.4,1.5-3.4,3.4c0,1.9,1.5,3.4,3.4,3.4
		H10.9z"/>
	<path class="st0" d="M23.5,10.2l-1.7-1.7c-1.4-1.4-3.4-1.4-4.8,0s-1.4,3.4,0,4.8l1.7,1.7c0.7,0.7,1.5,1,2.4,1s1.7-0.3,2.4-1
		C24.8,13.6,24.8,11.6,23.5,10.2z"/>
	<path class="st0" d="M14.1,23.1l-3.4-1.7C9,20.6,7,21.3,6.1,23c-0.9,1.7-0.2,3.7,1.5,4.6l3.4,1.7c0.5,0.2,1,0.3,1.5,0.3
		c1.2,0,2.4-0.7,3.1-1.9C16.5,26,15.8,24,14.1,23.1z"/>
	<path class="st0" d="M11.1,53.7l-3.4,1.7c-1.7,0.9-2.4,2.9-1.5,4.6c0.7,1.2,1.9,1.9,3.1,1.9c0.5,0,1-0.2,1.5-0.3l3.4-1.7
		c1.7-0.9,2.4-2.9,1.5-4.6C14.8,53.6,12.8,52.9,11.1,53.7z"/>
</g>
</svg>
