<?xml version="1.0" encoding="utf-8"?>
<!-- Generator: Adobe Illustrator 22.0.0, SVG Export Plug-In . SVG Version: 6.00 Build 0)  -->
<svg version="1.1" id="Layer_1" xmlns="http://www.w3.org/2000/svg" xmlns:xlink="http://www.w3.org/1999/xlink" x="0px" y="0px"
	 viewBox="0 0 100 100" style="enable-background:new 0 0 100 100;" xml:space="preserve">
<style type="text/css">
	.st0{fill:#009FDA;}
</style>
<path class="st0" d="M50,7.5C26.5,7.5,7.5,26.5,7.5,50S26.5,92.5,50,92.5S92.5,73.5,92.5,50S73.5,7.5,50,7.5z M50,13.8
	c9.9,0,19.1,4.1,25.5,10.6c-5.2,5-3.1,9.4-1.6,12.6c0.6,1.3,1.1,2.4,1.3,3.3C75,40.6,75,40.7,75,40.9c-0.2,0-0.3,0.2-0.8,0.2
	c-3.9,0-5.2,2.4-5.7,3.3c-1.3,3.1,0.5,6.9,2.7,9.3c0.3,2.7-5.2,12.9-8.5,15.1c0-0.6,0-1.4,0-1.9c0-0.3,0-0.6,0-1.1
	c0-9.1-3-17.5-6-20.5c-2.8-2.8-6.8-3.1-10.2-3.1c0.2-0.6,0.6-1.3,0.9-1.6c4.9-0.3,7.4-4.9,7.4-9.4c0-5-2.5-7.6-3.9-8.5
	c-2.4-1.6-5.5-1.9-8.2-0.6c-1.9,0.8-3.1,2.7-4.4,4.6c-0.5,0.6-1.3,1.7-1.9,2.5c0,0,0,0,0-0.2c-0.9-1.4-2.2-4.1-5.4-4.1
	c-5.2,0-6.9,4.7-7.9,7.6c-0.2,0.3-0.3,0.8-0.5,1.3c-0.8-0.9-1.7-2.5-2.5-4.3C26.9,19.9,37.7,13.8,50,13.8z M25.3,64
	c-1.7,2.5-1.6,5.5-1.4,7.7c0.2,1.4,0.2,2.5,0,3.5c-3-3-5.4-6.6-7.1-10.6c1.1-1.9,1.7-4.4,2.4-6.8c0.3-1.3,0.8-3,1.1-4.1
	c0,0.2,0.2,0.2,0.2,0.3c0.5,0.8,1.1,1.9,2,2.8c1.6,1.6,3.8,1.6,5.8,1.6c0.8,0,2.4,0,2.7,0.2c0,0,0,0.2,0.2,0.5
	c-0.3,0.5-1.4,1.1-1.9,1.4C27.8,61.5,26.2,62.6,25.3,64z M50,86.2c-7.9,0-15.1-2.5-20.9-6.8c1.6-3,1.4-5.8,1.3-8.2
	c-0.2-1.9-0.2-3,0.3-3.8c0.3-0.5,1.3-1.1,2-1.6c2-1.4,4.7-3.1,4.7-6.5c0-2.2-0.6-3.9-1.9-5.2c-2-2-5-2-7.1-2c-0.5,0-1.1,0-1.6,0
	c-0.3-0.3-0.5-0.8-0.8-1.3c-0.9-1.6-2.4-4.1-6-4.1s-5.2,3-6.1,6.3c-0.2-1.1-0.2-2-0.2-3.1c0-5,0.9-9.8,2.8-14.2
	c1.6,2.5,3.8,4.7,6.6,4.7c3.8,0,5-3.6,5.8-6c0.5-1.3,0.9-2.4,1.3-3l0,0c0.8,1.4,2.2,4.3,5.5,4.3c3.5,0,5.7-3.1,7.4-5.8
	c0.5-0.8,1.4-2,1.7-2.4c0.6-0.3,1.6-0.3,2.2,0.2c0.9,0.6,1.1,2.4,1.1,3.3c0,0.6-0.3,3.1-1.6,3.1c-3.9,0-6.9,5.2-6.9,8.8
	c0,1.4,0.5,2.7,1.3,3.6c1.1,1.1,2.7,1.7,4.3,1.7c3.8,0,5.8,0.2,6.9,1.4c1.3,1.1,4.1,7.4,4.1,15.9c0,0.3,0,0.6,0,0.9
	c0,2-0.2,4.9,1.7,6.8c0.8,0.8,2.2,1.7,4.6,1.7c5.4,0,11.7-11.3,13.4-15.4c2-4.9,2-8.3,0-10.6c-0.8-0.8-1.3-1.6-1.4-2.2
	c5.7-0.2,6.6-4.3,6.9-6c0-0.2,0.2-0.5,0.2-0.8c0-2.7-1.1-4.7-1.9-6.5c-1.1-2.2-1.6-3.3,0-5c3.9,6.3,6.5,13.5,6.5,21.3
	C86.2,70,70,86.2,50,86.2z"/>
</svg>
