<?xml version="1.0" encoding="utf-8"?>
<!-- Generator: Adobe Illustrator 22.0.0, SVG Export Plug-In . SVG Version: 6.00 Build 0)  -->
<svg version="1.1" id="Layer_1" xmlns="http://www.w3.org/2000/svg" xmlns:xlink="http://www.w3.org/1999/xlink" x="0px" y="0px"
	 viewBox="0 0 100 100" style="enable-background:new 0 0 100 100;" xml:space="preserve">
<style type="text/css">
	.st0{fill:#009FDA;}
</style>
<g>
	<path class="st0" d="M57.1,32.3c-3,0-5.5,1.1-7.3,2.1c-1.6-1.1-4.1-2.1-6.9-2.1c-5.7,0-10.6,5.3-10.6,11.5
		c0,11.5,14.5,19.1,16.1,20c0.5,0.2,1.1,0.4,1.6,0.4s1.1-0.2,1.6-0.4c1.6-0.9,16.1-8.5,16.1-20C67.7,37.2,63.1,32.3,57.1,32.3z
		 M50,56.6c-3.9-2.3-10.6-7.4-10.6-12.8c0-2.7,2.1-4.4,3.5-4.4c2.7,0,4.1,1.9,4.3,2.1c0.7,1.1,1.8,1.6,3,1.4c1.2,0,2.3-0.7,3-1.8
		c0,0,1.2-1.8,4.1-1.8c2.5,0,3.5,2.3,3.5,4.4C60.6,49.1,53.9,54.3,50,56.6z"/>
	<path class="st0" d="M50,7.5C24.7,7.5,3.9,25,3.9,46.5c0,11.2,5.7,21.6,15.6,29.1c-0.9,2.5-3.4,6-8.3,8.5c-1.1,0.5-1.8,1.6-1.9,2.8
		s0.4,2.5,1.4,3.2c0.5,0.4,3.7,2.5,11,2.5c7.6,0,14-2.5,19.7-7.8c2.7,0.4,5.3,0.7,8.7,0.7c25.3,0,46.1-17.5,46.1-39S75.3,7.5,50,7.5
		z M50,78.3c-3.5,0-6.2-0.2-9-0.9c-1.2-0.2-2.3,0.2-3.2,0.9c-4.8,5-9.9,7.1-16.1,7.1c-0.2,0-0.2,0-0.4,0c3.9-3.7,5.7-8.1,5.7-11.5
		c0-1.2-0.5-2.3-1.6-3c-9-6-14.4-15.1-14.4-24.4c0-17.5,17.5-31.9,39-31.9s39,14.4,39,31.9S71.4,78.3,50,78.3z"/>
</g>
</svg>
