<?xml version="1.0" encoding="utf-8"?>
<!-- Generator: Adobe Illustrator 22.0.0, SVG Export Plug-In . SVG Version: 6.00 Build 0)  -->
<svg version="1.1" id="Layer_1" xmlns="http://www.w3.org/2000/svg" xmlns:xlink="http://www.w3.org/1999/xlink" x="0px" y="0px"
	 viewBox="0 0 100 100" style="enable-background:new 0 0 100 100;" xml:space="preserve">
<style type="text/css">
	.st0{fill:#009FDA;}
</style>
<g>
	<path class="st0" d="M45.3,76.6h12.1c2.3,0,4.3-1.9,4.3-4.3V10.7c0-2.3-1.9-4.3-4.3-4.3H45.3c-2.3,0-4.3,1.9-4.3,4.3v61.7
		C41.1,74.7,43,76.6,45.3,76.6z"/>
	<path class="st0" d="M17.3,76.6h12.1c2.3,0,4.3-1.9,4.3-4.3V42.6c0-2.3-1.9-4.3-4.3-4.3H17.3c-2.3,0-4.3,1.9-4.3,4.3v29.8
		C13,74.7,14.9,76.6,17.3,76.6z"/>
	<path class="st0" d="M83.4,25.6H71.3c-2.3,0-4.3,1.9-4.3,4.3v42.5c0,2.3,1.9,4.3,4.3,4.3h12.1c2.3,0,4.3-1.9,4.3-4.3V29.9
		C87.6,27.5,85.7,25.6,83.4,25.6z"/>
	<path class="st0" d="M83.4,83H16.6c-2.3,0-4.3,1.9-4.3,4.3s1.9,4.3,4.3,4.3h66.8c2.3,0,4.3-1.9,4.3-4.3S85.7,83,83.4,83z"/>
</g>
</svg>
