<?xml version="1.0" encoding="utf-8"?>
<!-- Generator: Adobe Illustrator 22.0.0, SVG Export Plug-In . SVG Version: 6.00 Build 0)  -->
<svg version="1.1" id="Layer_1" xmlns="http://www.w3.org/2000/svg" xmlns:xlink="http://www.w3.org/1999/xlink" x="0px" y="0px"
	 viewBox="0 0 100 100" style="enable-background:new 0 0 100 100;" xml:space="preserve">
<style type="text/css">
	.st0{fill:#009FDA;}
</style>
<g>
	<path class="st0" d="M67.9,82.3c-5.2,2.8-11.2,4.4-17.3,4.4c-8.8,0-17-3.1-23.3-8.5l1.9-1.9c1.3-1.3,1.3-3.1,0-4.4
		c-1.3-1.3-3.1-1.3-4.4,0l-1.9,1.9c-4.7-5.5-7.7-12.4-8.3-20.2h3c1.7,0,3.1-1.4,3.1-3.1s-1.4-3.1-3.1-3.1h-3
		c0.6-7.6,3.6-14.6,8.3-20.2l1.9,1.9c0.6,0.6,1.4,0.9,2.2,0.9c0.8,0,1.6-0.3,2.2-0.9c1.3-1.3,1.3-3.1,0-4.4l-1.9-1.9
		c5.5-4.7,12.4-7.7,20.2-8.3v3c0,1.7,1.4,3.1,3.1,3.1s3.1-1.4,3.1-3.1v-3c5,0.5,9.9,1.9,14.2,4.3c1.6,0.8,3.5,0.3,4.3-1.3
		c0.8-1.6,0.3-3.5-1.3-4.3c-6.1-3.3-13.2-5-20.5-5C26.9,8.1,7.9,27.1,7.9,50.6s19.1,42.5,42.5,42.5c7.2,0,14.3-1.7,20.5-5
		c1.6-0.8,2-2.7,1.3-4.3C71.3,82.1,69.4,81.5,67.9,82.3z"/>
	<path class="st0" d="M62,34.9c-3.6,1.4-15.4,6.1-18.1,8.8c-1.7,1.7-2.8,4.1-2.8,6.6c0,2.5,0.9,4.9,2.8,6.6c1.7,1.7,4.1,2.8,6.6,2.8
		c2.5,0,4.9-0.9,6.6-2.8c2.7-2.7,7.4-14.6,8.8-18.1c0.5-1.1,0.2-2.5-0.6-3.3C64.5,34.7,63.1,34.4,62,34.9z M52.7,52.6
		c-1.3,1.3-3.3,1.3-4.4,0c-0.6-0.6-0.9-1.4-0.9-2.2c0-0.8,0.3-1.6,0.9-2.2c0.8-0.8,4.6-2.7,9-4.6C55.4,48.1,53.5,51.9,52.7,52.6z"/>
	<path class="st0" d="M80.6,20.4c-1.3-1.3-3.1-1.3-4.4,0l-4.3,4.3c-1.3,1.3-1.3,3.1,0,4.4c1.3,1.3,3.1,1.3,4.4,0l1.9-1.9
		c4.9,5.7,7.7,12.8,8.3,20.2h-3c-1.7,0-3.1,1.4-3.1,3.1s1.4,3.1,3.1,3.1h3C86,61,83.1,68.1,78.2,73.7l-1.9-1.9
		c-1.3-1.3-3.1-1.3-4.4,0c-1.3,1.3-1.3,3.1,0,4.4l4.3,4.3c0.6,0.6,1.4,0.9,2.2,0.9s1.6-0.3,2.2-0.9c8-8,12.4-18.7,12.4-30.1
		S88.6,28.4,80.6,20.4z"/>
</g>
</svg>
