<?xml version="1.0" encoding="utf-8"?>
<!-- Generator: Adobe Illustrator 22.0.0, SVG Export Plug-In . SVG Version: 6.00 Build 0)  -->
<svg version="1.1" id="Layer_1" xmlns="http://www.w3.org/2000/svg" xmlns:xlink="http://www.w3.org/1999/xlink" x="0px" y="0px"
	 viewBox="0 0 146.8 146.8" style="enable-background:new 0 0 146.8 146.8;" xml:space="preserve">
<style type="text/css">
	.st0{fill:#009FDA;}
</style>
<g>
	<path class="st0" d="M73.9,91.5L73.9,91.5c-2.8,0-5,2.3-5,5c0,2.8,2.3,5,5,5s5-2.3,5-5C78.9,93.8,76.7,91.5,73.9,91.5z"/>
	<path class="st0" d="M73.9,68.9c-6.6,0-12.6,2.5-16.4,6.8c-1.8,2-1.8,5.3,0.5,7.1c1,0.8,2.3,1.3,3.3,1.3c1.3,0,2.8-0.5,3.8-1.8
		c1.8-2,5.3-3.3,8.8-3.3s7.1,1.3,8.8,3.3c1.8,2,5,2.3,7.1,0.5c2-1.8,2.3-5,0.5-7.1C86.5,71.4,80.5,68.9,73.9,68.9z"/>
	<path class="st0" d="M73.9,46.2c-11.3,0-21.9,4.3-29,11.6c-2,2-1.8,5.3,0.3,7.1c1,1,2.3,1.3,3.5,1.3s2.8-0.5,3.8-1.5
		c5-5.3,13.1-8.6,21.4-8.6c8.6,0,16.4,3.3,21.4,8.6c2,2,5,2,7.1,0.3c2-2,2-5,0.3-7.1C95.8,50.5,85.2,46.2,73.9,46.2z"/>
	<path class="st0" d="M101.6,5.9H46.2c-16.6,0-30.2,13.6-30.2,30.2v75.6c0,16.6,13.6,30.2,30.2,30.2h55.4
		c16.6,0,30.2-13.6,30.2-30.2V36.1C131.9,19.5,118.2,5.9,101.6,5.9z M121.8,111.7c0,11.1-9.1,20.2-20.2,20.2H46.2
		c-11.1,0-20.2-9.1-20.2-20.2V36.1c0-11.1,9.1-20.2,20.2-20.2h55.4c11.1,0,20.2,9.1,20.2,20.2V111.7z"/>
</g>
</svg>
