<?xml version="1.0" encoding="utf-8"?>
<!-- Generator: Adobe Illustrator 22.0.0, SVG Export Plug-In . SVG Version: 6.00 Build 0)  -->
<svg version="1.1" id="Layer_1" xmlns="http://www.w3.org/2000/svg" xmlns:xlink="http://www.w3.org/1999/xlink" x="0px" y="0px"
	 viewBox="0 0 100 100" style="enable-background:new 0 0 100 100;" xml:space="preserve">
<style type="text/css">
	.st0{fill:#009FDA;}
</style>
<path class="st0" d="M83.1,7.5C45.9,7.5,36.9,30.8,34.9,39h-8.5C19,39,12.7,51.3,11,54.9c-0.6,1.3-0.3,2.7,0.6,3.6
	c2.7,2.7,4.9,4.3,6.9,5.4c-9.1,7.1-11,24.4-11,25.2c-0.2,0.9,0.3,1.9,0.9,2.5c0.6,0.6,1.4,0.9,2.2,0.9c0.2,0,0.2,0,0.3,0
	c0.8,0,18-1.9,25.2-11c1.1,2,2.8,4.3,5.4,6.9c0.6,0.6,1.4,0.9,2.2,0.9c0.5,0,0.9-0.2,1.4-0.3C50,86.5,61,79.9,61,73.6v-8.5
	c8.2-2,31.5-11.2,31.5-48.2C92.5,12,88,7.5,83.1,7.5z M31.7,76.6c-3,5.2-11.5,7.9-17.3,9c1.1-5.8,3.8-14.3,9-17.3
	c1.3-0.6,2.5-1.1,3.9-1.1c1.4,0,2.8,0.3,4.4,0.9C33.2,71.4,33.2,74.3,31.7,76.6z M57.6,59.4c-1.6,0.2-2.8,1.6-2.8,3.1v11
	c-0.2,1.6-5,5.5-10.4,8.7c-3.9-4.4-3.9-6.8-4.1-9.4c-0.2-2.5-0.2-5.7-3.8-9.3l0,0c-3.6-3.6-6.8-3.6-9.3-3.8c-2.7-0.2-5-0.2-9.4-4.1
	c3-5.7,6.8-10.4,8.7-10.4h11c1.6,0,3-1.3,3.1-2.8c0,0,0.8-7.1,6.3-14.2c7.4-9.6,19.7-14.5,36.2-14.5c1.4,0,3.1,1.7,3.1,3.1
	C86.2,56,58.7,59.3,57.6,59.4z"/>
</svg>
