<?xml version="1.0" encoding="utf-8"?>
<!-- Generator: Adobe Illustrator 22.0.0, SVG Export Plug-In . SVG Version: 6.00 Build 0)  -->
<svg version="1.1" id="Layer_1" xmlns="http://www.w3.org/2000/svg" xmlns:xlink="http://www.w3.org/1999/xlink" x="0px" y="0px"
	 viewBox="0 0 100 100" style="enable-background:new 0 0 100 100;" xml:space="preserve">
<style type="text/css">
	.st0{fill:#009FDA;}
</style>
<g>
	<path class="st0" d="M55.7,38.9c-1.7-1.7-4.3-1.7-6,0c-1.7,1.7-1.7,4.3,0,6l6.4,6.4c3.4,3.4,3.4,7.7,0,11.2L36.8,81.9
		c-3.4,3.4-7.7,3.4-11.2,0l-6.4-6.4c-1.7-1.7-2.6-3.7-2.6-5.6s0.9-3.9,2.6-5.6l10.7-10.7c1.7-1.7,1.7-4.3,0-6c-1.7-1.7-4.3-1.7-6,0
		L13.1,58.2C9.7,61.7,8,65.5,8,69.8s1.7,8.2,5.2,11.6l6.4,6.4C23,91.3,27.1,93,31.2,93s8.2-1.7,11.6-5.2l19.3-19.3
		c6.9-6.9,6.9-16.3,0-23.2L55.7,38.9z"/>
	<path class="st0" d="M87.9,19.6l-6.4-6.4C78,9.7,74.1,8,69.8,8s-8.2,1.7-11.6,5.2L38.9,32.5c-3.4,3.4-5.2,7.3-5.2,11.6
		s1.7,8.2,5.2,11.6l6.4,6.4c0.9,0.9,1.9,1.3,3,1.3s2.1-0.4,3-1.3c1.7-1.7,1.7-4.3,0-6l-6.4-6.4c-1.7-1.7-2.6-3.7-2.6-5.6
		c0-1.9,0.9-3.9,2.6-5.6l19.3-19.3c3.4-3.4,7.7-3.4,11.2,0l6.4,6.4c3.4,3.4,3.4,7.7,0,11.2L71.1,47.5c-1.7,1.7-1.7,4.3,0,6
		s4.3,1.7,6,0l10.7-10.7C94.7,35.9,94.7,26.4,87.9,19.6z"/>
</g>
</svg>
