<svg xmlns="http://www.w3.org/2000/svg" viewBox="0 0 56.6 56"><defs><style>.cls-1{fill:#ffda79;}.cls-2{fill:#363f48;}</style></defs><title>svgengranaje1</title><g id="Capa_2" data-name="Capa 2"><g id="Capa_1-2" data-name="Capa 1"><g id="Layer_8" data-name="Layer 8"><path class="cls-1" d="M45.6,38.7a21.18,21.18,0,0,0,2.8-7.6l8.2-1.4L54.4,17.1l-8.2,1.4a18.5,18.5,0,0,0-2.3-3.4A26.47,26.47,0,0,0,41,12.2l2.8-7.8L31.8,0,28.9,7.8a20.18,20.18,0,0,0-8,1.4L15.6,2.8,5.7,11,11,17.3a21.89,21.89,0,0,0-2.8,7.6L0,26.3,2.2,38.9l8.2-1.4a18.5,18.5,0,0,0,2.3,3.4,26.47,26.47,0,0,0,2.9,2.9l-2.9,7.8,12,4.4,2.9-7.8a20.18,20.18,0,0,0,8-1.4l5.3,6.4L50.8,45Z"/><path class="cls-2" d="M32.5,32.9a6.39,6.39,0,1,0-9-.8,6.37,6.37,0,0,0,9,.8Zm3.9,4.8a12.64,12.64,0,1,0-17.8-1.6,12.66,12.66,0,0,0,17.8,1.6Z"/></g></g></g></svg>