<svg id="Capa_1" data-name="Capa 1" xmlns="http://www.w3.org/2000/svg" viewBox="0 0 378.6 265.3"><defs><style>.cls-1{fill:#fff;}.cls-2{fill:#ec6959;}.cls-3{fill:#bf2829;}.cls-4{fill:#cfd0d2;}.cls-5{fill:#7c7c7c;}</style></defs><title>svglibreta</title><g id="Layer_5" data-name="Layer 5"><rect class="cls-1" x="292.1" y="141.4" width="61.5" height="79.1"/><path class="cls-2" d="M354,141.4H291.8a2.22,2.22,0,0,1-2.2-2.2v-3.3a2.22,2.22,0,0,1,2.2-2.2h22.5c0-.3-.1-.6-.1-.9a8.7,8.7,0,0,1,17.4,0v.9h22.5a2.22,2.22,0,0,1,2.2,2.2v3.3a2.31,2.31,0,0,1-2.3,2.2Zm-31.1-12.1a3.37,3.37,0,0,0-3.4,3.4,3.4,3.4,0,0,0,6.8,0,3.5,3.5,0,0,0-3.4-3.4Z"/><path class="cls-3" d="M354,141.4H291.8a2.22,2.22,0,0,1-2.2-2.2h66.8a2.48,2.48,0,0,1-2.4,2.2Z"/><polygon class="cls-4" points="343.6 220.5 353.6 210.5 343.6 210.6 343.6 220.5"/><rect class="cls-5" x="301.2" y="152.6" width="43.4" height="3.7"/><rect class="cls-5" x="301.2" y="166.8" width="43.4" height="3.7"/><rect class="cls-5" x="301.2" y="181" width="43.4" height="3.7"/><rect class="cls-5" x="301.2" y="195.3" width="43.4" height="3.7"/></g></svg>