<?xml version="1.0" encoding="utf-8"?>
<!-- Generator: Adobe Illustrator 22.0.0, SVG Export Plug-In . SVG Version: 6.00 Build 0)  -->
<svg version="1.1" id="Capa_1" xmlns="http://www.w3.org/2000/svg" xmlns:xlink="http://www.w3.org/1999/xlink" x="0px" y="0px"
	 viewBox="0 0 193.6 116.3" style="enable-background:new 0 0 193.6 116.3;" xml:space="preserve">
<style type="text/css">
	.st0{fill:#2B335E;}
	.st1{fill:#2E3F81;}
	.st2{fill:#2D3766;}
	.st3{fill:#131822;}
	.st4{fill:#C7C6C6;}
	.st5{fill:#B0AFAE;}
	.st6{fill:#EECBAA;}
	.st7{fill:#2D3465;}
	.st8{fill:#202038;}
	.st9{fill:#DA8C7F;}
	.st10{fill:#FFFFFF;}
	.st11{fill:#DFDFDF;}
	.st12{fill:#E3A537;}
	.st13{fill:#0094D8;}
	.st14{opacity:0.7;fill:#FFFFFF;enable-background:new    ;}
	.st15{fill:#373636;}
	.st16{fill:#7D7B7B;}
	.st17{fill:url(#SVGID_1_);}
	.st18{opacity:0.55;}
	.st19{opacity:0.88;}
	.st20{opacity:0.46;fill:#373636;enable-background:new    ;}
	.st21{fill:none;stroke:#FFFFFF;stroke-width:0.31;stroke-linecap:round;stroke-linejoin:round;}
	.st22{font-family:'Montserrat-SemiBold';}
	.st23{font-size:3.46px;}
	.st24{fill:#8EC5D8;}
	.st25{fill:#EEEEEE;}
	.st26{fill:#CACACA;}
	.st27{opacity:0.7;fill:#78BEE5;enable-background:new    ;}
	.st28{fill:#2B325B;}
	.st29{fill:#2D3566;}
	.st30{fill:#F7E43D;}
	.st31{opacity:0.4;fill:#E3A537;enable-background:new    ;}
	.st32{fill:none;stroke:#2D3566;stroke-width:0.17;stroke-miterlimit:10;}
	.st33{fill:none;stroke:#2D3566;stroke-width:0.17;stroke-linecap:round;stroke-linejoin:round;}
	.st34{fill:none;stroke:#FFFFFF;stroke-width:0.69;stroke-miterlimit:10;}
	.st35{fill:#93C8DC;}
	.st36{fill:#76BEED;}
	.st37{fill:#2F3777;}
	.st38{fill:#F3D03B;}
	.st39{opacity:0.4;fill:#F3D03B;enable-background:new    ;}
	.st40{fill:#C57419;}
</style>
<title>ecommerce</title>
<g>
	<g id="Capa_2_1_">
		<g id="Layer_1">
			<path class="st0" d="M30.6,57L12.1,67.6l2.6,0.3c0,0,8.1-0.8,13-5.4"/>
			<polyline class="st0" points="30,61.6 42,68.1 34.4,59.2 30.6,57.7 			"/>
			<path class="st1" d="M54.2,63.5L43,60l-11.6-3.8L20.1,67.7h2c0,0,7.1-2.6,9.8-7.8l10,8.2c0,0,4.9,2.5,7.7,1
				C51.9,68.1,53.6,66,54.2,63.5z"/>
			<path class="st2" d="M54.2,63.5l-9.9-3l0,0c-0.3-0.1,9,5.2,9,5.2C53.7,65,54,64.3,54.2,63.5z"/>
			<polygon class="st3" points="22.1,67.7 22.1,69.6 15.2,69.6 20.1,67.7 			"/>
			<polygon class="st3" points="14.9,67.8 14.3,69.6 7.8,67.2 13,67.1 			"/>
			<path class="st4" d="M47.4,45.2c0.9,1.8,1.3,3.9,1,6c0,0-10.3,0-16.8-11l1.7-1.5C33.3,38.7,40.7,46.1,47.4,45.2z"/>
			<polygon class="st5" points="46.6,45.3 42.6,50 45.1,50.7 			"/>
			<path class="st6" d="M32.4,38.4c0-0.5-0.1-0.9-0.2-1.4c0,0-0.5-1.8-0.6-2c0,0-0.4-0.1-0.4,0.4c0,0.4,0.1,0.8,0.2,1.2
				c-0.3-0.3-0.6-0.6-0.8-1c-0.2-0.5-0.7-1.4-1-1.5s-0.3,0.2-0.3,0.2l0.9,1.7c0.1,0.3,0,0.2,0,0.2s-1-1.5-1.2-1.8s-0.4-0.3-0.5,0
				l0.8,1.4c0.1,0.2,0.5,0.7,0.3,0.8c0,0-0.9-1.3-1.1-1.5s-0.4-0.2-0.4,0l1.1,1.8c0,0,0.1,0.1,0,0.2c-0.3-0.2-0.6-0.4-0.9-0.7
				c-0.1-0.1-0.3-0.3-0.5-0.1c0,0,0,0.1,0.2,0.3s1.2,1.3,1.2,1.3c0.5,0.5,1.1,0.9,1.7,1.2c1.1,0.4,1.4,0.1,0.8,0.3l0.3-0.5
				L32.4,38.4z"/>
			<polygon class="st7" points="30.7,39.3 32.5,37.9 33.3,38.7 31.6,40.3 			"/>
			<path class="st6" d="M46.1,36.5c-0.9,1.6-1.5,3.4-1.8,5.2c1,0.6,2.1,1,3.3,0.9v2.9l2.6-1.5v-2l-0.6-0.1L50,41
				c0.6-0.1,1-0.5,1.2-1c0.3-0.9-0.7-0.7-1-0.6L49.8,40c0,0,0.1-1.3,0.9-1.6l-0.3-1.3C48.9,37.4,47.4,37.2,46.1,36.5z"/>
			<path class="st8" d="M49.6,41.8l0.6,0.1v0.7c0.3-0.2,0.5-0.4,0.6-0.8c0,0,3.1-0.7,2.3-4.4c0,0,0.6-2.4-1.2-3.4s-4.4-0.2-6.1-1.3
				c-0.9,0.4-1.3,1.4-0.9,2.3c0,0.1,0.1,0.2,0.2,0.3h-0.8c0.8,1.1,2.1,1.7,3.5,1.6l-0.6,0.6c1.1,0.2,2.3,0,3.3-0.5l0.3,1.3
				c0,0-0.8,0.2-0.9,1.6l0.4-0.6c0,0,0.6-0.3,0.9,0.1S50.8,40.8,50,41L49.6,41.8z"/>
			<polygon class="st9" points="46.6,38 46.6,39.7 45.9,39.7 			"/>
			<path class="st10" d="M45.1,40.1c0.2,0.8,0.9,1.3,1.7,1.2c0.6-0.1,1.1-0.6,1.2-1.2H45.1z"/>
			<path class="st7" d="M47,45.1l0.5,1.3l0,0l-1.3,0.5l0,0L45.9,46c-0.1-0.2,0-0.4,0.2-0.5L47,45.1L47,45.1z"/>
			<path class="st7" d="M46.3,46.7c0,0-3,5.1-1.6,10.2c1.2-2.9,2.1-5.9,2.8-9"/>
			<path class="st11" d="M54.2,63.5l-9.9-3l1.9-13.7c0,0,0.9-3,3.3-2.8c2.2,0.2,4.2,3.2,4.5,6.8C54.3,54.7,54.2,63.5,54.2,63.5z"/>
			<path class="st7" d="M50.6,44.3l-0.2-1.4c-1.3,0.1-2.6,0.8-3.5,1.8l0.1,0.6C48.2,44.8,49.4,44.5,50.6,44.3z"/>
			<path class="st5" d="M44.4,59.6c1.9,0.4,3.8,0.5,5.7,0.4c0,0,1.7-8.4,1.8-10.4s-0.3-4.1-2.5-4s-2.1,3.3-2.1,3.3l0.1,7.2L45,55.9
				L44.4,59.6z"/>
			<path class="st4" d="M46.8,48.7c0,0,0.2-3.2,2.5-3s2.5,2.2,2.2,4.3s-2.9,9.9-2.9,9.9s-6.1-0.3-13.7-5.3l0.4-1.3l10.9,2.5
				L46.8,48.7z"/>
			<path class="st6" d="M34.5,53.1L32,52.3l-2.2,0.4L29,55.2c0,0,0.5,0.3,1.1-1.2h0.6c0.5,0.4,1.2,0.6,1.8,0.7c0.6,0,1.1,0,1.7,0
				L34.5,53.1z"/>
			
				<rect x="34.1" y="53.4" transform="matrix(0.1745 -0.9847 0.9847 0.1745 -24.371 78.9194)" class="st7" width="1.6" height="1.2"/>
			<path class="st1" d="M24.5,48.6c0.2,0.1,0.3,0.2,0.3,0.4l2.3,7.3l-0.6,0.1L24,48.5C24.2,48.5,24.3,48.5,24.5,48.6z"/>
			<rect x="26.6" y="55.7" class="st1" width="9.5" height="0.7"/>
			<path class="st12" d="M140.8,55c0.1,1.5-0.5,2.9-1.4,4c-0.9,1-2.2,1.7-3.5,2v2c0,0.4,0,0.7,0,0.9c0,0.2-0.1,0.5-0.2,0.7
				c-0.1,0.3-0.3,0.5-0.6,0.6s-0.7,0.2-1.1,0.2c-0.4,0-0.7,0-1.1-0.2c-0.3-0.1-0.5-0.3-0.6-0.6c-0.1-0.2-0.2-0.5-0.2-0.7
				c0-0.3,0-0.6,0-1v-2c-0.8-0.2-1.6-0.5-2.4-1c-0.5-0.3-1-0.7-1.5-1.2l-0.4-0.5c-0.3-0.4-0.6-0.8-0.7-1.3c0.1-0.7,0.5-1.4,1.1-1.9
				c0.3-0.4,0.8-0.6,1.3-0.6c0.7,0.1,1.4,0.5,1.9,1.1l0.2,0.2c0.5,0.7,1.3,1.2,2.3,1.2c1.6,0,2.4-0.7,2.4-2c0-0.5-0.3-0.8-0.9-1.1
				c-0.7-0.3-1.4-0.5-2.2-0.7c-0.9-0.2-1.7-0.5-2.6-0.8c-0.9-0.4-1.6-1-2.2-1.8c-1.3-2.1-1.2-4.7,0.3-6.6c0.8-1.1,2-1.8,3.4-2v-1.8
				c0-0.3,0-0.7,0-1c0-0.2,0.1-0.5,0.2-0.7c0.1-0.3,0.3-0.5,0.6-0.5c0.3-0.1,0.7-0.1,1,0c0.5,0,0.9,0.1,1.3,0.4
				c0.3,0.2,0.4,0.5,0.5,0.8c0.1,0.4,0.1,0.8,0.1,1.2v1.8c0.6,0.1,1.1,0.3,1.6,0.5c0.4,0.2,0.7,0.4,1,0.6l0.3,0.3l0.1,0.1
				c0.5,0.5,0.8,0.9,0.8,1.2c-0.1,0.5-0.3,1.1-0.6,1.5c-0.6,0.8-1.2,1.3-1.8,1.3c-0.5,0-0.9-0.2-1.3-0.5l-0.3-0.3
				c-0.1-0.1-0.3-0.2-0.4-0.3c-0.2-0.1-0.4-0.2-0.6-0.2c-0.3-0.1-0.7-0.1-1-0.1c-0.4,0-0.8,0.1-1.2,0.4c-0.3,0.2-0.5,0.6-0.5,1
				c0,0.5,0.2,1,0.7,1.2c0.5,0.3,1,0.5,1.6,0.6c0.7,0.1,1.4,0.3,2.1,0.5c0.7,0.2,1.4,0.5,2.1,0.8c0.7,0.3,1.3,0.9,1.6,1.6
				C140.6,53.1,140.8,54,140.8,55z"/>
			<path class="st13" d="M51.3,4.2c0,2.3-1.9,4.2-4.2,4.2s-4.2-1.9-4.2-4.2s2-4.2,4.3-4.2l0,0C49.5,0,51.4,1.9,51.3,4.2z"/>
			<path class="st14" d="M47.2,0.5c-2,0-3.7,1.6-3.7,3.7c0,2,1.6,3.7,3.7,3.7c2,0,3.7-1.6,3.7-3.7l0,0C50.9,2.1,49.2,0.5,47.2,0.5z
				 M47.2,7.6c-1.9,0-3.4-1.5-3.4-3.4s1.5-3.4,3.4-3.4s3.4,1.5,3.4,3.4S49.1,7.6,47.2,7.6L47.2,7.6z"/>
			<path class="st14" d="M47.2,1.2c-1.7,0-3,1.3-3,3s1.3,3,3,3s3-1.3,3-3l0,0C50.2,2.5,48.9,1.2,47.2,1.2z M47.2,6.9
				c-1.5,0-2.8-1.3-2.8-2.8s1.3-2.8,2.8-2.8S50,2.6,50,4.1C50,5.7,48.8,6.9,47.2,6.9L47.2,6.9z"/>
			<path class="st10" d="M48.3,4.7c0,0.2-0.1,0.5-0.2,0.7c-0.2,0.2-0.4,0.3-0.6,0.3v0.5v0.1c0,0,0,0.1-0.1,0.1h-0.2H47l-0.1-0.1V6.2
				V5.7c-0.1,0-0.3-0.1-0.4-0.2c-0.1,0-0.2-0.1-0.3-0.2l-0.1-0.1c-0.1,0-0.2-0.1-0.2-0.2s0.1-0.2,0.2-0.3c0.1-0.1,0.1-0.1,0.2-0.1
				c0.1,0,0.2,0.1,0.3,0.2l0,0C46.8,5,47,5,47.1,5c0.3,0,0.4-0.1,0.4-0.3s0-0.1-0.2-0.2L47,4.4c-0.2,0-0.3-0.1-0.4-0.1
				c-0.2-0.1-0.3-0.2-0.4-0.3C46.1,3.8,46,3.6,46,3.4c0-0.2,0.1-0.4,0.2-0.6c0.1-0.2,0.3-0.3,0.6-0.3V2.1V2c0-0.1,0.1-0.1,0.2-0.1
				c0.1,0,0.1,0,0.2,0c0.1,0,0.2,0,0.2,0.1c0,0,0.1,0,0.1,0.1c0,0.1,0,0.1,0,0.2v0.3c0.1,0,0.2,0,0.3,0.1c0.1,0,0.1,0.1,0.2,0.1l0,0
				l0,0c0.1,0,0.1,0.1,0.1,0.2L48,3.1c-0.1,0.1-0.2,0.2-0.3,0.2s-0.2,0-0.2-0.1l0,0c0,0,0,0-0.1-0.1h-0.1h-0.2c-0.1,0-0.1,0-0.2,0.1
				c-0.1,0-0.1,0.1-0.1,0.2c0,0.1,0,0.2,0.1,0.2c0.1,0.1,0.2,0.1,0.3,0.1s0.2,0,0.4,0.1c0.1,0,0.3,0.1,0.4,0.2
				c0.1,0.1,0.2,0.2,0.3,0.3C48.3,4.4,48.4,4.6,48.3,4.7z"/>
			<polygon class="st12" points="35,29.2 39.2,33.4 39.2,25.1 			"/>
			<circle class="st12" cx="29.6" cy="16.3" r="14.3"/>
			<circle class="st10" cx="29.6" cy="16.3" r="12.2"/>
			<path class="st13" d="M37.5,16c0-2.4-1.9-4.3-4.3-4.3c-1.5,0-2.9,0.7-3.7,2c-1.3-2-4-2.6-6-1.3s-2.6,4-1.3,6
				c0.4,0.6,1,1.2,1.6,1.5l5.7,3.3l5.7-3.3C36.7,19.1,37.5,17.6,37.5,16z"/>
			<path class="st15" d="M69.1,3.1h43.4c3.9,0,7.1,3.2,7.1,7.1v91.3c0,3.9-3.2,7.1-7.1,7.1H69.1c-3.9,0-7.1-3.2-7.1-7.1V10.2
				C62,6.3,65.2,3.1,69.1,3.1z"/>
			<path class="st16" d="M69.3,4.6h43c4,0,7.3,3.3,7.3,7.3v89.4c0,4-3.3,7.3-7.3,7.3h-43c-4,0-7.3-3.3-7.3-7.3V11.9
				C62,7.9,65.3,4.6,69.3,4.6z"/>
			<path class="st10" d="M68.8,5.6h44.1c3.2,0,5.7,2.6,5.7,5.7v90.4c0,3.2-2.6,5.7-5.7,5.7H68.8c-3.2,0-5.7-2.6-5.7-5.7V11.4
				C63,8.2,65.6,5.6,68.8,5.6z"/>
			
				<linearGradient id="SVGID_1_" gradientUnits="userSpaceOnUse" x1="90.85" y1="-1002.1417" x2="90.85" y2="-912.4417" gradientTransform="matrix(1 0 0 -1 0 -902.1417)">
				<stop  offset="0" style="stop-color:#FFFFFF"/>
				<stop  offset="1" style="stop-color:#0098D8"/>
			</linearGradient>
			<rect x="65.6" y="10.3" class="st17" width="50.5" height="89.7"/>
			<path class="st16" d="M95.9,9h-10c-0.6,0-1.1-0.5-1.1-1.1l0,0c0-0.6,0.5-1.1,1.1-1.1h10c0.6,0,1.1,0.5,1.1,1.1l0,0l0,0
				C97,8.5,96.5,9,95.9,9L95.9,9z"/>
			<path class="st10" d="M86.6,7.4c0,0.2-0.1,0.3-0.3,0.3S86,7.6,86,7.4s0.1-0.3,0.3-0.3S86.6,7.3,86.6,7.4L86.6,7.4z"/>
			<path class="st10" d="M86.6,8.4c0,0.2-0.1,0.3-0.3,0.3c-0.2,0-0.3-0.1-0.3-0.3s0.1-0.3,0.3-0.3l0,0C86.4,8.1,86.6,8.2,86.6,8.4z"
				/>
			<path class="st10" d="M87.9,7.4c0,0.2-0.1,0.3-0.3,0.3s-0.3-0.1-0.3-0.3s0.1-0.3,0.3-0.3S87.9,7.3,87.9,7.4L87.9,7.4z"/>
			<path class="st10" d="M87.9,8.4c0,0.2-0.1,0.3-0.3,0.3c-0.2,0-0.3-0.1-0.3-0.3s0.1-0.3,0.3-0.3l0,0C87.7,8.1,87.9,8.2,87.9,8.4z"
				/>
			<path class="st10" d="M89.2,7.4c0,0.1-0.1,0.3-0.3,0.3l0,0c-0.2,0-0.3-0.1-0.3-0.3l0,0c0-0.2,0.1-0.3,0.3-0.3l0,0
				C89,7.1,89.2,7.3,89.2,7.4L89.2,7.4z"/>
			<path class="st10" d="M89.2,8.4c0,0.2-0.1,0.3-0.3,0.3l0,0c-0.2,0-0.3-0.1-0.3-0.2c0-0.2,0.1-0.3,0.2-0.3h0.1
				C89,8.1,89.2,8.2,89.2,8.4z"/>
			<path class="st10" d="M90.5,7.4c0,0.1-0.1,0.3-0.3,0.3l0,0c-0.2,0-0.3-0.1-0.3-0.3l0,0c0-0.2,0.1-0.3,0.3-0.3l0,0
				C90.3,7.1,90.5,7.3,90.5,7.4L90.5,7.4z"/>
			<path class="st10" d="M90.5,8.4c0,0.2-0.1,0.3-0.3,0.3l0,0c-0.2,0-0.3-0.1-0.3-0.2c0-0.2,0.1-0.3,0.2-0.3h0.1
				C90.3,8.1,90.5,8.2,90.5,8.4z"/>
			<path class="st10" d="M91.8,7.4c0,0.2-0.2,0.3-0.3,0.2c-0.1,0-0.2-0.1-0.2-0.2c0-0.2,0.1-0.3,0.2-0.3c0.2,0,0.3,0.1,0.3,0.2
				C91.8,7.4,91.8,7.4,91.8,7.4z"/>
			<path class="st10" d="M91.8,8.4c0,0.2-0.1,0.3-0.3,0.3c-0.2,0-0.3-0.1-0.3-0.3s0.1-0.3,0.3-0.3l0,0C91.6,8.1,91.8,8.2,91.8,8.4z"
				/>
			<path class="st10" d="M93.1,7.4c0,0.2-0.2,0.3-0.3,0.2c-0.1,0-0.2-0.1-0.2-0.2c0-0.2,0.1-0.3,0.2-0.3c0.2,0,0.3,0.1,0.3,0.2
				C93.1,7.4,93.1,7.4,93.1,7.4z"/>
			<path class="st10" d="M93.1,8.4c0,0.2-0.1,0.3-0.3,0.3c-0.2,0-0.3-0.1-0.3-0.3s0.1-0.3,0.3-0.3l0,0C92.9,8.1,93.1,8.2,93.1,8.4z"
				/>
			<path class="st10" d="M94.4,7.4c0,0.2-0.2,0.3-0.3,0.2c-0.1,0-0.2-0.1-0.2-0.2c0-0.2,0.1-0.3,0.2-0.3c0.2,0,0.3,0.1,0.3,0.2
				C94.4,7.4,94.4,7.4,94.4,7.4z"/>
			<path class="st10" d="M94.4,8.4c0,0.2-0.1,0.3-0.2,0.3c-0.2,0-0.3-0.1-0.3-0.2V8.4c0-0.2,0.2-0.3,0.3-0.2
				C94.3,8.2,94.3,8.3,94.4,8.4z"/>
			<path class="st10" d="M95.7,7.4c0,0.2-0.2,0.3-0.3,0.2c-0.1,0-0.2-0.1-0.2-0.2c0-0.2,0.1-0.3,0.2-0.3c0.2,0,0.3,0.1,0.3,0.2
				C95.7,7.4,95.7,7.4,95.7,7.4z"/>
			<path class="st10" d="M95.7,8.4c0,0.2-0.1,0.3-0.2,0.3c-0.2,0-0.3-0.1-0.3-0.2V8.4c0-0.2,0.2-0.3,0.3-0.2
				C95.6,8.2,95.6,8.3,95.7,8.4z"/>
			<path class="st15" d="M81.9,7.9c0,0.9-0.7,1.5-1.5,1.5c-0.9,0-1.5-0.7-1.5-1.5s0.7-1.5,1.5-1.5l0,0C81.2,6.4,81.9,7.1,81.9,7.9
				L81.9,7.9z"/>
			<path class="st16" d="M81.8,7.9c0,0.8-0.6,1.4-1.4,1.5c-0.8,0-1.4-0.6-1.5-1.4s0.6-1.4,1.4-1.5l0,0C81.1,6.5,81.8,7.1,81.8,7.9
				L81.8,7.9z"/>
			<g class="st18">
				<path class="st10" d="M84.5,58.8l-2.9,5.6c-0.8,1.5-0.9,3.3-0.4,4.9l6.7,21c0.5,1.4,2,2.2,3.4,1.8l0,0l13.4-4.3
					c1.4-0.5,2.2-2,1.8-3.4l-6.7-21c-0.5-1.6-1.7-3-3.2-3.7L91,56.9C88.7,55.5,85.7,56.4,84.5,58.8L84.5,58.8z"/>
			</g>
			<g class="st19">
				<path class="st15" d="M87.3,56.4c1.2-0.4,2.6-0.3,3.7,0.3l5.6,2.9c1.5,0.8,2.6,2.1,3.2,3.7l6.7,21c0.5,1.4-0.3,3-1.8,3.4
					L91.4,92c-1.4,0.4-2.9-0.3-3.4-1.8l-6.7-21c-0.5-1.6-0.4-3.4,0.4-4.9l2.9-5.5C85.1,57.7,86.2,56.8,87.3,56.4 M87.1,55.5
					c-1.5,0.5-2.7,1.5-3.4,2.9l-2.9,5.5c-0.9,1.7-1.1,3.7-0.5,5.6l6.7,21c0.6,2,2.6,3.1,4.6,2.5l0,0l13.4-4.3c1.9-0.6,3-2.7,2.4-4.6
					V84l-6.7-21c-0.6-1.9-1.9-3.4-3.6-4.3l-5.6-2.9C90.1,55.1,88.5,55,87.1,55.5L87.1,55.5z"/>
			</g>
			<path class="st13" d="M98.7,75.4c0.4,1,0.3,2.1-0.1,3.1c-0.4,0.9-1.1,1.6-2,2.2l0.4,1.4c0.1,0.3,0.2,0.5,0.2,0.7s0,0.4,0,0.5
				c0,0.2-0.1,0.4-0.3,0.5c-0.4,0.3-1,0.5-1.5,0.5c-0.2,0-0.3-0.1-0.4-0.3c-0.1-0.1-0.2-0.3-0.3-0.4c-0.1-0.1-0.1-0.3-0.2-0.7
				L94,81.6c-0.6,0.1-1.3,0-1.9-0.1c-0.4-0.1-0.9-0.3-1.3-0.5l-0.4-0.3c-0.3-0.2-0.6-0.4-0.8-0.8c-0.1-0.5,0-1.1,0.3-1.5
				c0.2-0.3,0.4-0.6,0.8-0.7c0.5-0.1,1.1,0.1,1.6,0.4l0.2,0.1c0.5,0.4,1.2,0.5,1.8,0.3c1.1-0.3,1.5-1,1.2-1.9
				C95.4,76.2,95,76,94.6,76c-0.6,0-1.1,0-1.7,0c-0.7,0.1-1.3,0.1-2,0s-1.4-0.3-1.9-0.7c-1.4-1.1-1.9-3-1.3-4.7
				c0.4-0.9,1-1.7,1.9-2.1l-0.4-1.3c-0.1-0.3-0.2-0.5-0.2-0.7s0-0.3,0-0.5s0.1-0.4,0.3-0.5c0.2-0.2,0.5-0.3,0.7-0.3
				c0.3-0.1,0.7-0.1,1,0c0.2,0.1,0.4,0.2,0.5,0.4c0.1,0.3,0.2,0.5,0.3,0.8l0.4,1.3c0.4-0.1,0.8-0.1,1.3,0c0.3,0,0.6,0.1,0.8,0.2
				l0.3,0.1h0.1c0.5,0.2,0.8,0.4,0.8,0.6c0.1,0.4,0,0.8-0.1,1.2c-0.2,0.7-0.5,1.2-0.9,1.3c-0.3,0.1-0.7,0-1-0.1l-0.3-0.1L93,70.7
				c-0.2,0-0.3,0-0.5,0s-0.5,0.1-0.7,0.1c-0.3,0.1-0.5,0.3-0.7,0.5s-0.2,0.6-0.1,0.8c0.1,0.3,0.4,0.6,0.7,0.7c0.4,0.1,0.8,0.1,1.3,0
				s1-0.1,1.6-0.1s1.1,0,1.7,0.1s1.1,0.3,1.5,0.7C98.1,74.1,98.5,74.8,98.7,75.4z"/>
			<path class="st20" d="M89.7,58.4c0.3,0.9-0.2,1.8-1.1,2.1s-1.8-0.2-2.1-1.1c-0.3-0.9,0.2-1.8,1.1-2.1
				C88.5,57,89.4,57.5,89.7,58.4L89.7,58.4z"/>
			<path class="st20" d="M89.2,58.5c0.2,0.6-0.1,1.3-0.7,1.4l0,0c-0.6,0.2-1.2-0.1-1.5-0.7c-0.2-0.6,0.1-1.2,0.7-1.5h0.1
				C88.4,57.6,89,57.9,89.2,58.5L89.2,58.5z"/>
			<path class="st10" d="M100.4,49.6H82.6c-2.5,0.1-4.7-1.8-4.8-4.4s1.8-4.7,4.4-4.8c0.1,0,0.3,0,0.4,0h17.8
				c2.5-0.1,4.7,1.8,4.8,4.4s-1.8,4.7-4.4,4.8C100.7,49.6,100.5,49.6,100.4,49.6z M82.6,41.1c-2.2-0.1-4,1.6-4.1,3.7
				c-0.1,2.2,1.6,4,3.7,4.1c0.1,0,0.3,0,0.4,0h17.8c2.2,0.1,4-1.6,4.1-3.7c0.1-2.2-1.6-4-3.7-4.1c-0.1,0-0.3,0-0.4,0H82.6z"/>
			<path class="st10" d="M100.4,49.3H82.6c-2.4,0-4.3-1.9-4.3-4.3l0,0l0,0c0-2.4,1.9-4.3,4.3-4.3h17.8c2.4,0,4.3,1.9,4.3,4.3l0,0
				C104.6,47.4,102.7,49.3,100.4,49.3L100.4,49.3z"/>
			<path class="st21" d="M79.9,45c0,0-3.1,2.6-2.3,5.8s5.5,3.2,5.3,1.1c-0.2-1.6-5.5-3.6-5.8,2s7.4,7.8,11.1,5"/>
			<text transform="matrix(1 0 0 1 85.68 46.35)" class="st13 st22 st23">C</text>
			<text transform="matrix(1 0 0 1 87.62 46.35)" class="st13 st22 st23">OMP</text>
			<text transform="matrix(1 0 0 1 94.63 46.35)" class="st13 st22 st23">R</text>
			<text transform="matrix(1 0 0 1 96.51 46.35)" class="st13 st22 st23">AR</text>
			<path class="st13" d="M80.5,44.8c0.1,0.3-0.1,0.7-0.4,0.8s-0.7-0.1-0.8-0.4c-0.1-0.3,0.1-0.7,0.4-0.8S80.4,44.5,80.5,44.8
				L80.5,44.8z"/>
			<polyline class="st24" points="64,22.8 71.1,23.6 84.7,22.5 104.8,22.8 115,21.9 114.2,10.8 106.2,10.3 75.3,10.3 66.5,11.5 
				62.2,15.9 			"/>
			<polygon class="st25" points="70.9,15.2 57.7,15.2 65.6,10.3 75.7,10.3 			"/>
			<polygon class="st13" points="84.2,15.2 70.9,15.2 75.7,10.3 85.8,10.3 			"/>
			<polygon class="st25" points="97.5,15.2 84.2,15.2 85.8,10.3 95.9,10.3 			"/>
			<polygon class="st13" points="110.7,15.2 97.5,15.2 95.9,10.3 106,10.3 			"/>
			<polygon class="st25" points="124,15.2 110.7,15.2 106,10.3 116.1,10.3 			"/>
			<path class="st13" d="M117.4,30L117.4,30c3.7,0,6.6-3,6.6-6.6v-8.2h-13.3v8.2C110.7,27,113.7,30,117.4,30z"/>
			<path class="st25" d="M104.1,30L104.1,30c3.7,0,6.6-3,6.6-6.6v-8.2H97.5v8.2C97.5,27,100.4,30,104.1,30z"/>
			<path class="st13" d="M90.8,30L90.8,30c3.7,0,6.6-3,6.6-6.6v-8.2H84.2v8.2C84.2,27,87.2,30,90.8,30z"/>
			<path class="st25" d="M77.6,30L77.6,30c3.7,0,6.6-3,6.6-6.6v-8.2H70.9v8.2C71,27,73.9,30,77.6,30z"/>
			<path class="st13" d="M64.3,30L64.3,30c3.7,0,6.6-3,6.6-6.6v-8.2H57.7v8.2C57.7,27,60.7,30,64.3,30z"/>
			<path class="st26" d="M8.6,69.6h59c3,0,5.4,2.4,5.4,5.4v31.4c0,3-2.4,5.4-5.4,5.4h-59c-3,0-5.4-2.4-5.4-5.4V75
				C3.2,72,5.6,69.6,8.6,69.6z"/>
			<rect x="3.2" y="98.2" class="st15" width="69.8" height="5.4"/>
			<rect x="3.2" y="94.6" class="st15" width="69.8" height="1.5"/>
			<rect x="6.1" y="79.7" class="st10" width="15.2" height="5.4"/>
			<rect x="26.8" y="79.7" class="st10" width="15.2" height="5.4"/>
			<path class="st10" d="M47.8,83c0,3.1,2.5,5.5,5.5,5.5c3.1,0,5.5-2.5,5.5-5.5s-2.5-5.5-5.5-5.5l0,0C50.3,77.5,47.9,80,47.8,83z"/>
			<path class="st10" d="M57.1,83c0,3.1,2.5,5.5,5.5,5.5c3.1,0,5.5-2.5,5.5-5.5c0-3.1-2.5-5.5-5.5-5.5l0,0
				C59.6,77.5,57.1,79.9,57.1,83z"/>
			<rect x="12.3" y="105.1" class="st16" width="11.2" height="2.4"/>
			<rect x="29.4" y="105.1" class="st16" width="2.4" height="2.4"/>
			<path class="st27" d="M75.7,65.6c0,2.2-1.8,4-4,4s-4-1.8-4-4c0-2.2,1.8-4,4-4S75.7,63.4,75.7,65.6z"/>
			<path class="st27" d="M71.6,62.1c-2,0-3.6,1.6-3.6,3.6s1.6,3.6,3.6,3.6s3.6-1.6,3.6-3.6l0,0C75.2,63.7,73.6,62.1,71.6,62.1
				L71.6,62.1z M71.6,68.9c-1.8,0-3.3-1.5-3.3-3.4c0-1.8,1.5-3.3,3.4-3.3c1.8,0,3.3,1.5,3.3,3.3C75,67.4,73.5,68.9,71.6,68.9
				C71.7,68.9,71.7,68.9,71.6,68.9z"/>
			<path class="st27" d="M71.6,62.7c-1.6,0-2.9,1.3-2.9,2.9s1.3,2.9,2.9,2.9s2.9-1.3,2.9-2.9S73.2,62.7,71.6,62.7L71.6,62.7z
				 M71.6,68.3c-1.5,0-2.7-1.2-2.7-2.7s1.2-2.7,2.7-2.7s2.7,1.2,2.7,2.7l0,0C74.3,67.1,73.1,68.3,71.6,68.3L71.6,68.3z"/>
			<path class="st24" d="M72.8,66.2c0,0.2-0.1,0.5-0.2,0.7c-0.2,0.2-0.4,0.3-0.6,0.3v0.5v0.1l-0.1,0.1c-0.1,0-0.1,0-0.2,0
				s-0.1,0-0.2,0c0,0-0.1,0-0.1-0.1v-0.1v-0.5c-0.1,0-0.3-0.1-0.4-0.2c-0.1,0-0.2-0.1-0.2-0.2l-0.1-0.1c-0.1-0.1-0.1-0.1-0.1-0.2
				s0.1-0.2,0.2-0.3c0.1-0.1,0.1-0.1,0.2-0.1s0.2,0.1,0.3,0.2l0,0c0.1,0.1,0.2,0.2,0.4,0.2c0.3,0,0.4-0.1,0.4-0.3S72,66,71.9,66
				c-0.1-0.1-0.2-0.1-0.4-0.1c-0.1,0-0.3-0.1-0.4-0.1c-0.1-0.1-0.3-0.2-0.4-0.3c-0.1-0.2-0.1-0.3-0.1-0.5s0.1-0.4,0.2-0.6
				s0.3-0.3,0.6-0.3v-0.5v-0.1l0.1-0.1h0.2c0.1,0,0.1,0,0.2,0.1l0.1,0.1c0,0.1,0,0.1,0,0.2v0.3c0.1,0,0.2,0,0.3,0.1
				c0.1,0,0.1,0.1,0.2,0.1h0.1l0,0c0.1,0.1,0.1,0.1,0.1,0.2s-0.1,0.2-0.1,0.2c0,0.2-0.2,0.2-0.4,0.2c0,0-0.1,0-0.1-0.1l0,0H72h-0.1
				h-0.2c-0.1,0-0.1,0-0.2,0.1c-0.1,0-0.1,0.1-0.1,0.2s0,0.2,0.1,0.2s0.2,0.1,0.3,0.1c0.1,0,0.2,0,0.3,0.1l0.3,0.1
				c0.1,0.1,0.2,0.1,0.3,0.3C72.7,65.9,72.7,66,72.8,66.2z"/>
			<path class="st13" d="M158,23.7c0,1.3-1,2.3-2.3,2.3s-2.3-1-2.3-2.3s1-2.3,2.3-2.3C157,21.4,158,22.4,158,23.7L158,23.7z"/>
			<path class="st14" d="M155.7,21.7c-1.1,0-2,0.9-2,2s0.9,2,2,2s2-0.9,2-2S156.8,21.7,155.7,21.7z M155.7,25.6
				c-1,0-1.9-0.8-1.9-1.9s0.8-1.9,1.9-1.9s1.9,0.8,1.9,1.9l0,0C157.6,24.7,156.8,25.6,155.7,25.6z"/>
			<path class="st14" d="M155.7,22.1c-0.9,0-1.6,0.7-1.6,1.6s0.7,1.6,1.6,1.6c0.9,0,1.6-0.7,1.6-1.6
				C157.4,22.8,156.6,22.1,155.7,22.1L155.7,22.1z M155.7,25.2c-0.8,0-1.5-0.7-1.5-1.5s0.7-1.5,1.5-1.5s1.5,0.7,1.5,1.5l0,0
				C157.3,24.5,156.6,25.2,155.7,25.2z"/>
			<path class="st10" d="M156.4,24c0,0.1,0,0.3-0.1,0.4s-0.2,0.2-0.3,0.2v0.3c0,0,0,0,0,0.1l0,0h-0.1h-0.1l0,0c0,0,0,0,0-0.1v-0.3
				c-0.1,0-0.2,0-0.2-0.1c-0.1,0-0.1-0.1-0.1-0.1l0,0l-0.1-0.1c0-0.1,0-0.1,0.1-0.2l0.1-0.1c0.1,0,0.1,0,0.2,0.1l0,0
				c0.1,0.1,0.1,0.1,0.2,0.1c0.1,0,0.2-0.1,0.2-0.2c0,0,0-0.1-0.1-0.1s-0.1,0-0.2-0.1l-0.2-0.1c-0.1,0-0.2-0.1-0.2-0.2
				c-0.1-0.1-0.1-0.2-0.1-0.3c0-0.1,0-0.2,0.1-0.3c0.1-0.1,0.2-0.2,0.3-0.2v-0.3c0,0,0,0,0-0.1l0,0h0.1h0.1c0,0,0,0,0,0.1v0.3
				c0.1,0,0.1,0,0.1,0s0.1,0,0.1,0.1l0,0l0,0l0.1,0.1c0,0,0,0.1-0.1,0.1c0,0.1-0.1,0.1-0.2,0.1h-0.1l0,0l0,0h-0.1h-0.1h-0.1
				l-0.1,0.1c0,0,0,0.1,0.1,0.1l0.1,0.1h0.2l0.2,0.1c0.1,0,0.1,0.1,0.1,0.1C156.4,23.8,156.4,23.9,156.4,24z"/>
			<path class="st13" d="M162.6,26.9c0,1.3-1,2.3-2.3,2.3s-2.3-1-2.3-2.3s1-2.3,2.3-2.3C161.5,24.7,162.6,25.7,162.6,26.9
				L162.6,26.9z"/>
			<path class="st14" d="M160.3,24.9c-1.1,0-2,0.9-2,2s0.9,2,2,2s2-0.9,2-2S161.4,24.9,160.3,24.9z M160.3,28.8
				c-1,0-1.9-0.8-1.9-1.9s0.8-1.9,1.9-1.9s1.9,0.8,1.9,1.9l0,0C162.2,28,161.3,28.8,160.3,28.8z"/>
			<path class="st14" d="M160.3,25.3c-0.9,0-1.6,0.7-1.6,1.6s0.7,1.6,1.6,1.6s1.6-0.7,1.6-1.6l0,0C161.9,26,161.2,25.3,160.3,25.3z
				 M160.3,28.4c-0.8,0-1.5-0.7-1.5-1.5s0.7-1.5,1.5-1.5s1.5,0.7,1.5,1.5l0,0C161.8,27.8,161.1,28.5,160.3,28.4z"/>
			<path class="st10" d="M160.9,27.2c0,0.1,0,0.3-0.1,0.4s-0.2,0.2-0.3,0.2v0.3c0,0,0,0,0,0.1c0,0,0,0-0.1,0h-0.2h-0.1
				c0,0,0,0,0-0.1c0,0,0,0,0-0.1v-0.2c-0.1,0-0.2,0-0.2-0.1l-0.1-0.1l0,0l-0.1-0.1c0-0.1,0-0.1,0.1-0.2l0.1-0.1c0.1,0,0.1,0,0.2,0.1
				l0,0c0.1,0.1,0.1,0.1,0.2,0.1c0.1,0,0.2-0.1,0.2-0.2c0,0,0-0.1-0.1-0.1s-0.1-0.1-0.2-0.1H160c-0.1,0-0.1-0.1-0.2-0.2
				c-0.1-0.1-0.1-0.2-0.1-0.3c0-0.1,0-0.2,0.1-0.3c0.1-0.1,0.2-0.2,0.3-0.2v-0.2v-0.1v-0.1c0,0,0,0,0.1,0h0.1h0.1c0,0,0,0,0.1,0.1
				V26c0.1,0,0.1,0,0.1,0h0.1l0,0l0,0l0.1,0.1c0,0,0,0.1-0.1,0.1c0,0.1-0.1,0.1-0.2,0.1h-0.1l0,0l0,0h-0.1h-0.1h-0.1v0.1
				c0,0,0,0.1,0.1,0.1l0.1,0.1h0.2l0.2,0.1c0.1,0,0.1,0.1,0.1,0.1C161,27,161,27.1,160.9,27.2z"/>
			<polygon class="st3" points="168.3,105.9 168.3,107.5 161.7,107.5 166.2,105.9 			"/>
			<polygon class="st3" points="184.2,105.9 184.2,107.5 180.2,109.3 178.4,109.3 181.7,105.9 			"/>
			<path class="st1" d="M166.2,63.2v42.7h2.1c0,0,3.6-10,3-19.8l2.4-14.8l8,34.6h2.4c0,0,2.1-12.8-0.9-20.5l-1.1-22.2H166.2z"/>
			<path class="st28" d="M166.2,63.2c0,0,3.9,3,16.1,2.7l-0.1-2.7l-9.2-1.7"/>
			<polygon class="st28" points="173.8,71.3 171,65.9 171.3,86.1 			"/>
			<path class="st8" d="M171.3,23.7c0.2-0.3,0.3-0.6,0.4-1c1.7,0,4.8,0.2,5.3,2.7c0,0,3.1,3.4-0.8,8.4l-1.7,0.2l-2.4-2l-3.3-4.6
				c-0.3,0-0.6-0.1-0.9-0.2C169.3,26.3,170.5,25.1,171.3,23.7z"/>
			<path class="st9" d="M168.5,29.3c-0.8,0.6-1.3,1.6-1.3,2.6h2.3L168.5,29.3z"/>
			<path class="st6" d="M175,33.8c-0.6-0.8-1-1.8-1.2-2.8c0,0,1.8-0.4,1.5-1.7c-0.3-1.1-1.6-0.7-2.1,0.2v1.2c0,0-0.7,0-0.8-2.4
				l-0.8-1h-2.8c-0.7,1.7-0.9,3.5-0.7,5.3h2c-0.4,0.6-1.1,0.9-1.8,1c0.1,0.6,0.3,1.1,0.6,1.7h2.8v2.1l1.6,0.7l1.4,0.4l1.2-0.5
				l0.4-1.5v-2.7C176.3,33.8,175,33.8,175,33.8z"/>
			<path class="st8" d="M171.6,27.3c-1.4,0.7-2.9,0.9-4.4,0.7l0.8-0.9c-1.2-0.2-2.1-1.3-2.1-2.5h1.8c0,0-1.8-1.2-1.1-3l2.5,0.7
				l2.8,0.4l-0.2,2.1"/>
			<path class="st4" d="M168.6,38.8c0,0-5,6-6.9,7.3c-2.8-1.2-5.2-3-7-5.4L150,43c2.9,4,6.6,7.2,11,9.5c4.9-0.7,8-5.4,8-5.4
				L168.6,38.8z"/>
			<path class="st5" d="M167.8,39.9l0.3,1.5l0.8,4.5L169,47c-1.2,1.7-2.6,3.1-4.3,4.1L167.8,39.9z"/>
			<path class="st11" d="M182.1,63.2c0,0-8.7,2.4-15.9,0c0,0,0.9-15.2,1.3-22.1c0.1-1.9,1.7-3.4,3.6-3.4l6.2-0.1
				c0.6,0.2,1.2,0.5,1.7,1c1,1,1.7,2.3,1.9,3.8l1.5,21.2L182.1,63.2z"/>
			<path class="st4" d="M166.4,59.5c7.4-4.2,8.4-10.9,9.3-16.3c0.6-3.9,2.8-4.4,4-3.8c0.7,0.8,1.1,1.8,1.2,2.9l0.3,4
				c-0.1,0.7-0.3,1.4-0.4,1.8C178,58.5,170.4,61.9,166.2,63C166.3,62.5,166.3,61.3,166.4,59.5z"/>
			<rect x="168.1" y="43" class="st29" width="3.3" height="1.1"/>
			<path class="st5" d="M172.8,39.2c1.8,7,2.1,14.2,1,21.3l-3,2.3l-2.2-2.3c0,0,5.2-13.5,3.6-21.4L172.8,39.2z"/>
			<path class="st29" d="M172.8,39.2c1.7,6.9,1.9,14,0.6,20.9l-3.1,2.3l-2.2-2.3c0,0,5.5-13.2,4-21L172.8,39.2z"/>
			<path class="st1" d="M172.1,39.5c0.3,0.3,0.9,0.3,1.2,0l1.5-1.5l-2.2-0.2c-0.1,0-0.2,0.1-0.3,0.2l-1.2,0.6L172.1,39.5z"/>
			<path class="st29" d="M172.6,37.7l-2,2c-0.3-1.1,0.1-2.3,1-3.1C171.8,37.1,172.1,37.5,172.6,37.7z"/>
			<path class="st29" d="M172.6,37.7c0,0,2.5-0.2,3.6-1.5c0.5,0.4,1,0.9,1.3,1.5c-0.6,1.4-2,2.2-3.4,2.1L172.6,37.7z"/>
			<path class="st30" d="M168.7,59.5h-16.6c-1.2,0-2.1-0.9-2.1-2.1V40.8c0-1.2,0.9-2.1,2.1-2.1h16.6c1.2,0,2.1,0.9,2.1,2.1v16.6
				C170.8,58.6,169.8,59.5,168.7,59.5z"/>
			<rect x="158.1" y="38.7" class="st12" width="4.5" height="20.8"/>
			<path class="st31" d="M159.9,58.9c0,0,7.9-3.2,10.9-9.4V55l-5.4,4.5l-4.5,0.6"/>
			<path class="st4" d="M180.4,40c-0.8-1.3-3.7-2-5.1,2.7c-1.7,5.9-3.8,13.5-14.5,16.2v2.4c0,0,13.4,0.8,18.9-13.3
				C180.5,46.4,182,42.5,180.4,40z"/>
			<path class="st6" d="M159.9,61.4c0,0-2.2,0.3-5.7-1.9h3.9l1.8-0.7V61.4z"/>
			<rect x="159.9" y="58.9" class="st1" width="1.4" height="2.6"/>
			<path class="st32" d="M170.1,29.4c0,0.6-0.3,1.1-0.7,1.1s-0.7-0.5-0.7-1.1s0.3-1,0.7-1S170.1,28.8,170.1,29.4z"/>
			<line class="st33" x1="173.4" y1="29.3" x2="170.1" y2="29.3"/>
			<path class="st33" d="M168.8,29.4c-0.2-0.1-0.5-0.1-0.7,0"/>
			<path class="st34" d="M155.4,27.5V26c-0.1-1.5,1.1-2.8,2.6-2.9s2.8,1.1,2.9,2.6c0,0.1,0,0.2,0,0.3v1.5"/>
			<path class="st35" d="M152.9,26.7h10.5l0,0v10.7c0,0.8-0.6,1.4-1.4,1.4l0,0h-7.7c-0.8,0-1.4-0.6-1.4-1.4l0,0L152.9,26.7
				L152.9,26.7z"/>
			<path class="st36" d="M154.6,38.7h7.2c0.2,0,0.5,0,0.7-0.2l-9.5-1.6l0,0C152.9,37.9,153.6,38.7,154.6,38.7
				C154.5,38.7,154.5,38.7,154.6,38.7z"/>
			<path class="st37" d="M155.8,28.1c0,0.2-0.2,0.4-0.4,0.4s-0.4-0.2-0.4-0.4c0-0.2,0.2-0.4,0.4-0.4S155.8,27.9,155.8,28.1
				L155.8,28.1z"/>
			<path class="st37" d="M161.4,28.1c0,0.2-0.2,0.4-0.4,0.4s-0.4-0.2-0.4-0.4c0-0.2,0.2-0.4,0.4-0.4l0,0
				C161.2,27.7,161.4,27.9,161.4,28.1z"/>
			<path class="st13" d="M165.4,17.6c0,2.3-1.9,4.2-4.2,4.2s-4.2-1.9-4.2-4.2s1.9-4.2,4.2-4.2l0,0C163.5,13.4,165.4,15.3,165.4,17.6
				L165.4,17.6z"/>
			<path class="st14" d="M161.2,13.9c-2,0-3.7,1.6-3.7,3.7s1.6,3.7,3.7,3.7c2,0,3.7-1.6,3.7-3.7l0,0
				C164.9,15.6,163.2,13.9,161.2,13.9z M161.2,21c-1.9,0-3.4-1.5-3.4-3.4s1.5-3.4,3.4-3.4s3.4,1.5,3.4,3.4l0,0
				C164.6,19.5,163.1,21,161.2,21L161.2,21z"/>
			<path class="st14" d="M161.2,14.6c-1.7,0-3,1.3-3,3s1.3,3,3,3s3-1.3,3-3S162.9,14.6,161.2,14.6z M161.2,20.4
				c-1.5,0-2.8-1.3-2.8-2.8s1.3-2.8,2.8-2.8s2.8,1.2,2.8,2.8C164,19.1,162.8,20.4,161.2,20.4L161.2,20.4z"/>
			<path class="st10" d="M162.4,18.1c0,0.2-0.1,0.5-0.2,0.7c-0.2,0.2-0.4,0.3-0.6,0.3v0.5v0.1c0,0,0,0.1-0.1,0.1h-0.2h-0.2l-0.1-0.1
				v-0.1v-0.5c-0.1,0-0.3-0.1-0.4-0.2c-0.1-0.1-0.2-0.1-0.3-0.2l-0.1-0.1c-0.1-0.1-0.1-0.1-0.1-0.2s0.1-0.2,0.2-0.3
				c0.1-0.1,0.1-0.1,0.2-0.1c0.1,0,0.2,0.1,0.3,0.2l0,0c0.1,0.1,0.2,0.2,0.4,0.2c0.3,0,0.4-0.1,0.4-0.3s-0.1-0.1-0.1-0.2
				c-0.1-0.1-0.2-0.1-0.4-0.1s-0.3-0.1-0.4-0.1c-0.2-0.1-0.3-0.2-0.4-0.3c-0.2-0.4-0.2-0.8,0.1-1.1c0.1-0.2,0.3-0.3,0.6-0.3v-0.5
				v-0.1c0,0,0-0.1,0.1-0.1s0.1,0,0.2,0c0.1,0,0.2,0,0.2,0.1l0.1,0.1c0,0.1,0,0.1,0,0.2V16c0.1,0,0.2,0,0.3,0.1l0.2,0.1l0,0l0,0
				c0.1,0,0.1,0.1,0.1,0.2s0,0.2-0.1,0.3c-0.1,0.1-0.2,0.2-0.3,0.2s-0.2,0-0.2-0.1h-0.1c0,0-0.1,0-0.1-0.1h-0.1h-0.2
				c-0.1,0-0.1,0-0.2,0.1c-0.1,0-0.1,0.1-0.1,0.2s0,0.2,0.1,0.2c0.1,0.1,0.2,0.1,0.3,0.1s0.2,0,0.4,0.1c0.1,0,0.2,0.1,0.4,0.1
				c0.1,0.1,0.2,0.2,0.3,0.3C162.3,17.9,162.3,18,162.4,18.1z"/>
			<path class="st38" d="M129.8,77.6H149c1.3,0,2.4,1.1,2.4,2.4v28.3c0,1.3-1.1,2.4-2.4,2.4h-19.2c-1.3,0-2.4-1.1-2.4-2.4V80
				C127.4,78.7,128.5,77.6,129.8,77.6z"/>
			<polygon class="st39" points="131.6,89.5 134.4,110.8 127.4,110.8 			"/>
			<rect x="136.8" y="77.6" class="st12" width="5.2" height="33.2"/>
			<path class="st30" d="M110,88.6h19.2c1.3,0,2.4,1.1,2.4,2.4v19.2c0,1.3-1.1,2.4-2.4,2.4H110c-1.3,0-2.4-1.1-2.4-2.4V91
				C107.6,89.6,108.7,88.6,110,88.6z"/>
			<rect x="117" y="88.6" class="st40" width="5.2" height="24"/>
			<path class="st10" d="M156.5,96.6h-0.9v-2.4c-0.1-2.1-1.9-3.7-4-3.6c-1.9,0.1-3.5,1.7-3.6,3.6v2.4h-0.9v-2.4
				c-0.1-2.6,1.9-4.8,4.5-4.9s4.8,1.9,4.9,4.5c0,0.1,0,0.3,0,0.4V96.6z"/>
			<path class="st13" d="M158.2,113.8h-12.8c-0.9,0-1.6-0.7-1.6-1.6l0,0V95.3l0,0h16.1l0,0v16.9C159.9,113,159.1,113.8,158.2,113.8
				L158.2,113.8z"/>
			<path class="st37" d="M155.4,97.5c0,0.4,0.3,0.7,0.7,0.7s0.7-0.3,0.7-0.7c0-0.4-0.3-0.7-0.7-0.7S155.4,97.1,155.4,97.5z"/>
			<path class="st37" d="M146.9,97.5c0,0.4,0.3,0.7,0.6,0.7l0,0c0.4,0,0.7-0.3,0.7-0.7c0-0.4-0.3-0.7-0.7-0.7l0,0
				C147.2,96.8,146.9,97.1,146.9,97.5L146.9,97.5z"/>
			<path class="st15" d="M93.5,103c0,1.5-1.2,2.6-2.7,2.6s-2.6-1.2-2.6-2.7s1.2-2.6,2.7-2.6l0,0C92.3,100.3,93.5,101.5,93.5,103
				L93.5,103z"/>
			<circle class="st15" cx="90.8" cy="103" r="2.1"/>
			<path class="st15" d="M92.7,103c0,1.1-0.9,1.9-1.9,1.9c-1.1,0-1.9-0.9-1.9-1.9s0.9-1.9,1.9-1.9l0,0
				C91.9,101.1,92.7,101.9,92.7,103L92.7,103z"/>
		</g>
	</g>
</g>
</svg>
