<?xml version="1.0" encoding="utf-8"?>
<!-- Generator: Adobe Illustrator 22.0.0, SVG Export Plug-In . SVG Version: 6.00 Build 0)  -->
<svg version="1.1" id="Capa_1" xmlns="http://www.w3.org/2000/svg" xmlns:xlink="http://www.w3.org/1999/xlink" x="0px" y="0px"
	 viewBox="0 0 212.9 115.3" style="enable-background:new 0 0 212.9 115.3;" xml:space="preserve">
<style type="text/css">
	.st0{fill:#C57419;}
	.st1{fill:#424243;}
	.st2{fill:#E7E7E8;}
	.st3{fill:#A5A7A9;}
	.st4{fill:#CFD1D2;}
	.st5{fill:#FAFBFD;}
	.st6{fill:#F1CD60;}
	.st7{opacity:0.3;fill:none;stroke:#FFFFFF;stroke-width:0.14;stroke-miterlimit:10;enable-background:new    ;}
	.st8{opacity:0.2;fill:#FFFFFF;enable-background:new    ;}
	.st9{fill:#353939;}
	.st10{fill:url(#SVGID_1_);}
	.st11{fill:none;stroke:#9B9B9B;stroke-width:0.4;stroke-linecap:round;stroke-linejoin:round;}
	.st12{fill:none;stroke:#9B9B9B;stroke-width:0.4;stroke-linecap:round;stroke-linejoin:round;stroke-dasharray:1.67,1.67;}
	.st13{fill:none;stroke:#9B9B9B;stroke-width:0.4;stroke-linecap:round;stroke-linejoin:round;stroke-dasharray:1.66,1.66;}
	.st14{fill:none;stroke:#9B9B9B;stroke-width:0.4;stroke-linecap:round;stroke-linejoin:round;stroke-dasharray:1.64,1.64;}
	.st15{fill:none;stroke:#9B9B9B;stroke-width:1.05;stroke-linejoin:round;}
	.st16{fill:#E2A67F;}
	.st17{opacity:0.3;fill:#BD6639;enable-background:new    ;}
	.st18{fill:#D0635B;}
	.st19{fill:none;stroke:#FFFFFF;stroke-width:1.77;stroke-linecap:round;stroke-linejoin:round;}
	.st20{fill:none;stroke:#F1F1F2;stroke-linecap:round;stroke-linejoin:round;}
	.st21{fill:none;stroke:#D0D1D2;stroke-width:1.19;stroke-linecap:round;stroke-linejoin:round;}
	.st22{fill:none;stroke:#FFFFFF;stroke-width:1.21;stroke-linecap:round;stroke-linejoin:round;}
	.st23{fill:none;stroke:#C3C4C5;stroke-width:1.19;stroke-linecap:round;stroke-linejoin:round;}
	.st24{fill:#919396;}
	.st25{clip-path:url(#SVGID_3_);}
	.st26{fill:#EED8BC;}
	.st27{fill:#66A9E0;}
	.st28{fill:#E0A29A;}
	.st29{fill:#2E2F2F;}
	.st30{fill:#E1A385;}
	.st31{fill:#2C2C2E;}
	.st32{opacity:0.2;fill:#E1A385;enable-background:new    ;}
	.st33{opacity:0.1;fill:#F2F3F3;enable-background:new    ;}
	.st34{fill:none;stroke:#2C2C2E;stroke-width:0.16;stroke-miterlimit:10;}
	.st35{fill:none;stroke:#5A5A5C;stroke-width:0.4;stroke-miterlimit:10;}
	.st36{clip-path:url(#SVGID_5_);}
	.st37{fill:#E9BB92;}
	.st38{fill:#EACDB3;}
	.st39{opacity:0.4;fill:#E2A67F;enable-background:new    ;}
	.st40{fill:#4F4E4E;}
	.st41{opacity:0.1;fill:#353939;enable-background:new    ;}
	.st42{fill:none;}
	.st43{fill:#E1A27A;}
	.st44{fill:#CE7949;}
	.st45{fill:#E3A97E;}
	.st46{fill:#989898;}
	.st47{fill:#1A1A1A;}
	.st48{opacity:0.2;fill:#F1F0F0;enable-background:new    ;}
	.st49{fill:none;stroke:#74B070;stroke-width:1.19;stroke-miterlimit:10;}
	.st50{fill:#E8E8E8;}
	.st51{fill:#FFFFFF;}
	.st52{font-family:'Montserrat-Regular';}
	.st53{font-size:4.77px;}
</style>
<title>facturacion_electronica</title>
<g id="Capa_2_1_">
	<g id="Layer_1">
		<path class="st0" d="M122.4,33.5l26.3-8.6c1.2-0.4,2.4,0.3,2.8,1.4l5,15.3c0.4,1.2-0.3,2.4-1.4,2.8L128.8,53
			c-1.2,0.4-2.4-0.3-2.8-1.4l-5-15.3C120.6,35.1,121.2,33.8,122.4,33.5z"/>
		<rect x="121.3" y="32.8" transform="matrix(0.951 -0.3092 0.3092 0.951 -4.062 44.1805)" class="st1" width="32.1" height="4.2"/>
		<path class="st1" d="M153,40.8c0.3,0.9-0.2,1.9-1.1,2.2s-1.9-0.2-2.2-1.1c-0.3-0.9,0.2-1.9,1.1-2.2
			C151.7,39.4,152.7,39.9,153,40.8L153,40.8z"/>
		<polygon class="st2" points="49,33.6 28.3,54.5 0,26.6 17.9,8.5 17.9,8.5 20.3,8.3 23.1,8.1 		"/>
		<polygon class="st3" points="17.9,8.5 20.3,10.9 23.1,8.1 23.1,8.1 		"/>
		
			<rect x="6.7" y="23.7" transform="matrix(0.7023 -0.7119 0.7119 0.7023 -16.5855 15.9807)" class="st4" width="8.3" height="8.3"/>
		<rect x="11.6" y="16.3" transform="matrix(0.7023 -0.7119 0.7119 0.7023 -6.8189 17.2656)" class="st4" width="11.3" height="1"/>
		<rect x="13.1" y="17.8" transform="matrix(0.7023 -0.7119 0.7119 0.7023 -7.4412 18.7943)" class="st4" width="11.3" height="1"/>
		<rect x="14.6" y="19.3" transform="matrix(0.7023 -0.7119 0.7119 0.7023 -8.0695 20.3171)" class="st4" width="11.3" height="1"/>
		<rect x="16.1" y="20.8" transform="matrix(0.7023 -0.7119 0.7119 0.7023 -8.6876 21.8357)" class="st4" width="11.3" height="1"/>
		
			<rect x="14.7" y="31.7" transform="matrix(0.7023 -0.7119 0.7119 0.7023 -19.9009 24.106)" class="st4" width="8.3" height="8.3"/>
		
			<rect x="19.6" y="24.2" transform="matrix(0.7023 -0.7119 0.7119 0.7023 -10.1055 25.3193)" class="st4" width="11.3" height="1"/>
		
			<rect x="21.1" y="25.8" transform="matrix(0.7023 -0.7119 0.7119 0.7023 -10.7337 26.8481)" class="st4" width="11.3" height="1"/>
		
			<rect x="22.6" y="27.3" transform="matrix(0.7023 -0.7119 0.7119 0.7023 -11.3561 28.3624)" class="st4" width="11.3" height="1"/>
		
			<rect x="24.2" y="28.7" transform="matrix(0.7023 -0.7119 0.7119 0.7023 -11.9127 29.9201)" class="st4" width="11.3" height="1"/>
		
			<rect x="22.8" y="39.6" transform="matrix(0.7023 -0.7119 0.7119 0.7023 -23.116 32.1801)" class="st4" width="8.3" height="8.3"/>
		
			<rect x="27.7" y="32.2" transform="matrix(0.7023 -0.7119 0.7119 0.7023 -13.3594 33.4753)" class="st4" width="11.3" height="1"/>
		
			<rect x="29.2" y="33.7" transform="matrix(0.7023 -0.7119 0.7119 0.7023 -13.9776 34.9938)" class="st4" width="11.3" height="1"/>
		
			<rect x="30.7" y="35.2" transform="matrix(0.7023 -0.7119 0.7119 0.7023 -14.6058 36.5166)" class="st4" width="11.3" height="1"/>
		
			<rect x="32.2" y="36.7" transform="matrix(0.7023 -0.7119 0.7119 0.7023 -15.2323 38.0412)" class="st4" width="11.3" height="1"/>
		<polygon class="st5" points="49.3,31.4 26.8,50.4 1.2,20 20.6,3.6 20.6,3.6 23,3.6 25.9,3.7 		"/>
		<polygon class="st3" points="20.6,3.6 22.8,6.2 25.9,3.7 25.9,3.7 		"/>
		
			<rect x="7.7" y="18.1" transform="matrix(0.7638 -0.6455 0.6455 0.7638 -11.5412 12.8911)" class="st4" width="8.3" height="8.3"/>
		<rect x="13.5" y="11.3" transform="matrix(0.7638 -0.6455 0.6455 0.7638 -3.1123 15.1627)" class="st4" width="11.3" height="1"/>
		<rect x="14.9" y="12.8" transform="matrix(0.76 -0.65 0.65 0.76 -3.7085 16.5583)" class="st4" width="11.3" height="1"/>
		<rect x="16.3" y="14.4" transform="matrix(0.76 -0.65 0.65 0.76 -4.4074 17.8366)" class="st4" width="11.3" height="1"/>
		<rect x="17.6" y="16" transform="matrix(0.76 -0.65 0.65 0.76 -5.1664 19.0896)" class="st4" width="11.3" height="1"/>
		<rect x="15" y="26.8" transform="matrix(0.7638 -0.6455 0.6455 0.7638 -15.4189 19.6791)" class="st4" width="8.3" height="8.3"/>
		<rect x="20.8" y="19.8" transform="matrix(0.76 -0.65 0.65 0.76 -6.819 22.0403)" class="st4" width="11.3" height="1"/>
		<rect x="22.2" y="21.6" transform="matrix(0.7638 -0.6455 0.6455 0.7638 -7.6889 23.2154)" class="st4" width="11.3" height="1"/>
		<rect x="23.6" y="23.2" transform="matrix(0.7638 -0.6455 0.6455 0.7638 -8.3925 24.4794)" class="st4" width="11.3" height="1"/>
		<rect x="25" y="24.8" transform="matrix(0.7638 -0.6455 0.6455 0.7638 -9.0879 25.7412)" class="st4" width="11.3" height="1"/>
		
			<rect x="22.3" y="35.4" transform="matrix(0.7638 -0.6455 0.6455 0.7638 -19.2625 26.4073)" class="st4" width="8.3" height="8.3"/>
		<rect x="28.2" y="28.3" transform="matrix(0.76 -0.65 0.65 0.76 -10.5971 28.8956)" class="st4" width="11.3" height="1"/>
		
			<rect x="29.5" y="30.2" transform="matrix(0.7638 -0.6455 0.6455 0.7638 -11.5362 29.9467)" class="st4" width="11.3" height="1"/>
		
			<rect x="30.9" y="31.8" transform="matrix(0.7638 -0.6455 0.6455 0.7638 -12.2361 31.2076)" class="st4" width="11.3" height="1"/>
		<rect x="32.3" y="33.2" transform="matrix(0.76 -0.65 0.65 0.76 -12.7859 32.7648)" class="st4" width="11.3" height="1"/>
		<path class="st6" d="M18.3,28l-2.8-4.8c-0.7-1.3-0.3-3,1-3.7l0,0L34.3,9.3c1.3-0.7,3-0.3,3.7,1l0,0L57.5,44c0.7,1.3,0.3,3-1,3.7
			l0,0L42.2,56l-5.8,3.3l-2.3,1.4c-1.3,0.7-3,0.3-3.7-1l0,0l-14-24.3c-0.7-1.3-0.3-3,1-3.7l0,0l0,0C18.7,31,19.1,29.3,18.3,28
			L18.3,28z"/>
		<path class="st7" d="M56.5,45.4l-24,13.9L18,34.1l1.3-0.7c1.8-1.1,2.5-3.4,1.4-5.3l0,0l-3.9-6.7l19.3-11.2L56.5,45.4z"/>
		<path class="st8" d="M50.4,44L50.4,44c0.8-0.5,1-1.5,0.6-2.3L36.2,16.1c-0.5-0.8-1.5-1.1-2.3-0.6l0,0c-0.8,0.5-1.1,1.5-0.6,2.3
			l14.8,25.6C48.6,44.2,49.6,44.5,50.4,44z"/>
		<path class="st9" d="M34.4,24h95.1c1.9,0,3.4,1.5,3.4,3.4v60c0,1.9-1.5,3.4-3.4,3.4H34.4c-1.9,0-3.4-1.5-3.4-3.4v-60
			C30.9,25.6,32.5,24,34.4,24z"/>
		
			<linearGradient id="SVGID_1_" gradientUnits="userSpaceOnUse" x1="81.9" y1="1105.605" x2="81.9" y2="1045.2999" gradientTransform="matrix(1 0 0 1 0 -1018)">
			<stop  offset="0" style="stop-color:#FFFFFF"/>
			<stop  offset="1" style="stop-color:#0098D8"/>
		</linearGradient>
		<path class="st10" d="M126.9,87.6h-90c-1.8,0-3.2-1.3-3.3-3.1V30.4c0-1.8,1.5-3.1,3.3-3.1h90c1.8,0,3.2,1.3,3.3,3.1l0,0v54.1
			C130.1,86.3,128.7,87.7,126.9,87.6L126.9,87.6z"/>
		<path class="st9" d="M75.3,90.9v20.3h13.3V90.9H75.3z M81.9,106.1c-2.4,0-4.3-1.9-4.3-4.3s1.9-4.3,4.3-4.3s4.3,1.9,4.3,4.3l0,0
			C86.2,104.2,84.3,106.1,81.9,106.1C81.9,106.2,81.9,106.2,81.9,106.1z"/>
		<rect x="61.5" y="111.3" class="st9" width="40.7" height="4"/>
		<line class="st11" x1="175.5" y1="90.4" x2="176.3" y2="90.4"/>
		<line class="st12" x1="178" y1="90.4" x2="183.8" y2="90.4"/>
		<polyline class="st11" points="184.7,90.4 185.5,90.4 185.5,89.6 		"/>
		<line class="st13" x1="185.5" y1="88" x2="185.5" y2="19"/>
		<polyline class="st11" points="185.5,18.1 185.5,17.3 184.7,17.3 		"/>
		<line class="st14" x1="183" y1="17.3" x2="118.1" y2="17.3"/>
		<line class="st11" x1="117.3" y1="17.3" x2="116.5" y2="17.3"/>
		<circle class="st15" cx="173.6" cy="90.5" r="2.1"/>
		<circle class="st15" cx="114.4" cy="17.3" r="2.1"/>
		<path class="st16" d="M62.7,45c1.7-0.7,3.8-1.1,5.1,0.1c0.7,0.7,1.1,1.6,1.2,2.5c0.4,1.8,0.7,3.7,0.9,5.5c0.4,2.7,0.5,5.5,0.2,8.2
			c-0.3,2.8-1.5,5.3-3.4,7.3c-0.4,0.5-1,0.8-1.7,1c-0.5,0.1-0.9,0.1-1.4,0l-4.8-0.7c-0.5-0.1-1.1-0.2-1.6-0.4
			c-0.7-0.3-1.3-0.8-1.8-1.5c-3.3-3.9-4.3-9.2-2.8-14.1C54,48.7,58.8,46.5,62.7,45z"/>
		<polyline class="st17" points="59.5,51.2 57.5,52.1 59.5,51.8 59.5,51 		"/>
		<rect x="59.5" y="9.7" class="st5" width="47.8" height="62.3"/>
		<rect x="59.5" y="9.7" class="st9" width="47.8" height="4"/>
		<path class="st18" d="M104.8,11.4c0,0.4-0.3,0.7-0.7,0.7l0,0c-0.4,0-0.7-0.3-0.7-0.7s0.3-0.7,0.7-0.7S104.8,11,104.8,11.4z"/>
		<path class="st2" d="M102.1,11.4c0,0.4-0.3,0.7-0.7,0.7l0,0c-0.4,0-0.7-0.3-0.7-0.7s0.3-0.7,0.7-0.7S102.1,11,102.1,11.4z"/>
		<path class="st2" d="M99.3,11.4c0,0.4-0.3,0.7-0.7,0.7s-0.7-0.3-0.7-0.7s0.3-0.7,0.7-0.7l0,0C98.9,10.6,99.2,11,99.3,11.4
			C99.2,11.4,99.3,11.4,99.3,11.4z"/>
		<line class="st19" x1="162.9" y1="59.1" x2="136.6" y2="59.1"/>
		<path class="st20" d="M39.2,107.2c0,0.9-0.7,1.6-1.6,1.6S36,108,36,107.2c0-0.9,0.7-1.6,1.6-1.6l0,0
			C38.5,105.6,39.2,106.3,39.2,107.2z"/>
		<path class="st21" d="M167,52.8c0,1.1-0.9,1.9-2,1.9s-1.9-0.9-1.9-2s0.9-1.9,1.9-1.9C166.1,50.8,167,51.7,167,52.8L167,52.8z"/>
		<path class="st22" d="M97.6,100c0,1.1-0.8,2-1.9,2.1s-2-0.8-2.1-1.9s0.8-2,1.9-2.1c0,0,0,0,0.1,0C96.7,98.1,97.6,98.9,97.6,100z"
			/>
		<circle class="st23" cx="22" cy="67.8" r="1.9"/>
		<circle class="st24" cx="71" cy="26.1" r="8"/>
		<g>
			<g>
				<defs>
					<circle id="SVGID_2_" cx="71" cy="26.2" r="7.8"/>
				</defs>
				<clipPath id="SVGID_3_">
					<use xlink:href="#SVGID_2_"  style="overflow:visible;"/>
				</clipPath>
				<g class="st25">
					<path class="st26" d="M72.1,30l0.8,0.2c1.3,0.3,2.1,1.4,2.1,2.7V34c0,0.2-0.1,0.3-0.3,0.3l0,0h-7.4c-0.2,0-0.3-0.1-0.3-0.3l0,0
						v-1.1c0-1.3,0.9-2.4,2.2-2.7l0.7-0.1l0,0l0.7-0.1h1H72.1L72.1,30z"/>
					<path class="st27" d="M73.3,30.3L72.1,30h-0.3v0.8l0,0v-0.1c0,0,0,0,0,0.1l0,0c-0.1,0.4-0.4,0.7-0.8,0.6
						c-0.3-0.1-0.6-0.3-0.6-0.7l0,0V30L70,30.1l-1.1,0.3c-0.3,0.1-0.6,0.2-0.8,0.3v3.7h6.2v-3.7C73.9,30.5,73.6,30.4,73.3,30.3z"/>
					<path class="st27" d="M68,32.9h-1c-0.1-0.9,0.3-1.7,1-2.2V32.9z"/>
					<path class="st27" d="M74.1,32.9h1c0.1-0.9-0.3-1.7-1-2.2V32.9z"/>
					<path class="st26" d="M71.8,29.9v0.7c0,0.4-0.3,0.7-0.7,0.7c-0.4,0-0.7-0.3-0.7-0.7l0,0v-1.2l0.2-0.2h0.1l0.7-0.2h0.2l0.2,0.1"
						/>
					<path class="st28" d="M71.3,29.2l-0.7,0.2h-0.1l-0.2,0.2v0.6c0.2,0.1,0.5,0.2,0.8,0.2s0.5-0.1,0.7-0.2v-0.8l-0.2-0.1L71.3,29.2
						z"/>
					<path class="st26" d="M71,29.8L71,29.8c-1.6,0-2.9-1.3-2.9-2.9l0,0v-3.2c0-1.6,1.3-2.9,2.9-2.9l0,0l0,0c1.6,0,2.9,1.3,2.9,2.9
						l0,0v3.2C73.9,28.5,72.6,29.8,71,29.8L71,29.8z"/>
					<path class="st29" d="M72.7,25c0,0.2-0.1,0.3-0.3,0.3c-0.2,0-0.3-0.2-0.2-0.4c0-0.1,0.1-0.2,0.2-0.2
						C72.5,24.7,72.6,24.9,72.7,25z"/>
					<path class="st29" d="M70.1,25c0,0.2-0.1,0.3-0.3,0.3c-0.2,0-0.3-0.2-0.2-0.4c0-0.1,0.1-0.2,0.2-0.2C70,24.7,70.1,24.9,70.1,25
						z"/>
					<path class="st30" d="M71.1,28c-0.4,0-0.7-0.1-1-0.3v-0.1h0.1l0,0c0.3,0.2,0.6,0.3,1,0.3s0.7-0.1,1-0.3h0.1l0,0v0.1
						C71.9,27.9,71.5,28,71.1,28z"/>
					<path class="st30" d="M70.8,29C70.7,29,70.7,29,70.8,29C70.7,29,70.7,28.9,70.8,29c0-0.1,0.1-0.2,0.3-0.2c0.1,0,0.2,0,0.3,0.1
						V29h-0.1c-0.1,0-0.1,0-0.2,0C70.9,29,70.8,29,70.8,29L70.8,29z"/>
					<path class="st28" d="M73.9,25L73.9,25c0.3,0,0.6,0.2,0.6,0.6v0.3c0,0.3-0.3,0.6-0.6,0.6l0,0"/>
					<path class="st28" d="M68.1,25L68.1,25c-0.3,0-0.6,0.3-0.6,0.6v0.3c0,0.3,0.2,0.6,0.6,0.6l0,0"/>
					<path class="st28" d="M71,25.2l-0.2,0.9c0,0.2,0.1,0.4,0.2,0.4h0.1l0,0c0.2,0,0.3-0.2,0.3-0.3c0,0,0,0,0-0.1l-0.2-0.9
						C71.2,25.1,71.1,25.1,71,25.2C71,25.1,71,25.1,71,25.2z"/>
					<path class="st31" d="M70.2,24.3L70.2,24.3c-0.5-0.3-0.8,0-0.8,0c-0.1,0-0.1,0-0.2,0c0,0-0.1-0.1,0-0.2l0,0
						c0.3-0.3,0.7-0.3,1,0l0,0C70.3,24.2,70.3,24.2,70.2,24.3C70.3,24.3,70.2,24.3,70.2,24.3z"/>
					<path class="st31" d="M71.9,24.3C71.9,24.3,71.8,24.3,71.9,24.3c-0.1-0.1-0.1-0.2-0.1-0.2c0.3-0.3,0.7-0.3,1,0l0,0
						c0,0.1,0,0.1,0,0.2c-0.1,0-0.1,0-0.2,0C72.6,24.2,72.3,23.9,71.9,24.3L71.9,24.3z"/>
					<path class="st26" d="M72.4,29L72.4,29"/>
					<rect x="74.1" y="32.9" class="st28" width="0.4" height="1.5"/>
					<rect x="67.6" y="32.9" class="st28" width="0.4" height="1.5"/>
					<path class="st32" d="M71,29.8L71,29.8c1.6,0,2.9-1.2,3-2.8v-0.1v-2.1c0,0-0.2,2.9-2.4,3.7c-0.3,0.1-0.7,0.1-1,0
						c-2.2-0.9-2.4-3.7-2.4-3.7v2.1C68.2,28.4,69.4,29.7,71,29.8L71,29.8"/>
					<path class="st31" d="M73.7,21.3c-0.4-1-1.4-1.8-3.6-1.4c-0.4,0.1-0.7,0.3-0.9,0.7c-0.7,0.1-1.5,0.7-1.1,4.1
						c0,0,0.5-3.8,1.8-2.4l0,0c0.4,0.5,1.5,1.3,4,1.4c0,0.3,0,0.7,0,1C74.7,22.1,74.1,21.5,73.7,21.3z"/>
					<path class="st33" d="M71.2,22.6c-0.4-0.2-0.7-0.4-0.9-0.8c-0.2-0.3-0.6-0.5-1-0.4v0.1c0.3-0.1,0.7,0.1,0.8,0.4
						C70.4,22.3,70.8,22.5,71.2,22.6c0.9,0.5,1.9,0.7,3,0.7v-0.1C73.2,23.2,72.2,23,71.2,22.6z"/>
					<path class="st33" d="M74.3,22.3c-2.5,0-3.1-0.6-3.2-0.9l0,0c-0.4-0.6-1.1-0.8-1.7-0.6V21c0.6-0.2,1.2,0,1.6,0.5l0,0
						c0.3,0.6,1.4,0.9,3.3,0.9C74.3,22.4,74.3,22.4,74.3,22.3z"/>
				</g>
			</g>
		</g>
		<path class="st34" d="M73,25.1c0,0.4-0.3,0.7-0.7,0.7s-0.7-0.3-0.7-0.7c0-0.4,0.3-0.7,0.7-0.7l0,0C72.7,24.4,73,24.7,73,25.1z"/>
		<line class="st34" x1="73" y1="24.9" x2="73.9" y2="24.9"/>
		<path class="st34" d="M69,25.1c0,0.4,0.3,0.7,0.7,0.7s0.7-0.3,0.7-0.7c0-0.4-0.3-0.7-0.7-0.7l0,0C69.3,24.4,69,24.7,69,25.1z"/>
		<line class="st34" x1="69" y1="24.9" x2="68.1" y2="24.9"/>
		<line class="st34" x1="70.4" y1="25" x2="71.6" y2="25"/>
		<rect x="82.6" y="20.9" class="st4" width="20.1" height="2.4"/>
		<rect x="82.6" y="26.1" class="st4" width="20.1" height="2.4"/>
		<rect x="82.6" y="31.3" class="st4" width="20.1" height="2.4"/>
		<rect x="72.3" y="39.1" class="st4" width="30.4" height="2.4"/>
		<rect x="72.3" y="47" class="st4" width="30.4" height="2.4"/>
		<rect x="72.3" y="54.8" class="st4" width="30.4" height="2.4"/>
		<rect x="72.3" y="62.7" class="st4" width="30.4" height="2.4"/>
		<rect x="64.6" y="38.5" class="st35" width="3.4" height="3"/>
		<rect x="64.6" y="46.7" class="st35" width="3.4" height="3"/>
		<rect x="64.6" y="54.9" class="st35" width="3.4" height="3"/>
		<rect x="64.6" y="63" class="st35" width="3.4" height="3"/>
		<g>
			<g>
				<defs>
					<path id="SVGID_4_" d="M126.9,87.6h-90c-1.8,0-3.2-1.3-3.3-3.1V30.4c0-1.8,1.5-3.1,3.3-3.1h90c1.8,0,3.2,1.3,3.3,3.1l0,0v54.1
						C130.1,86.3,128.7,87.7,126.9,87.6L126.9,87.6z"/>
				</defs>
				<clipPath id="SVGID_5_">
					<use xlink:href="#SVGID_4_"  style="overflow:visible;"/>
				</clipPath>
				<g class="st36">
					<path class="st37" d="M59.7,65.9c-0.7-0.6-1-1.5-1-2.4c-0.2,1.3-1.2,2.4-2.5,2.6l0,0l0,0c1.5-1.2,2.5-2.9,2.6-4.8
						c0-3-0.9-5.9-2.5-8.4c-1.1-1.6-2.7-3.5-1.3-5.4c0.4-0.5,0.9-0.9,1.4-1.2c1.2-0.8,2.1-2,2.5-3.4c0.2-0.7,0.7-4.2-0.7-4
						c-0.2,0.1-0.4,0.2-0.6,0.3c-1.4,1-2.9,2-4.5,2.8c-1.3,0.8-2.3,1-2.8,2.5c-1.7,5-3.5,9.7-2.5,15.1c0.6,3.4-1.3,7-3.1,9.9
						c-0.3,0.5-0.6,1-0.7,1.6c2.5,3.2,5.4,6,8.6,8.4c1.1-1.7,2.5-3.3,4-4.7c1.3-1.2,1.4-1.8,3-2.7V69L59.7,65.9z"/>
					<path class="st38" d="M54.6,43.4C54.6,43.5,54.6,43.5,54.6,43.4c0.1,0.1,0.2,0.1,0.3,0.1c0.5-0.3,1.1-0.6,1.6-0.9
						c0.2-0.1,0.4-0.3,0.6-0.5c0.2-0.3,0.4-0.7,0.4-1.1c0.1-0.6,0.1-1.1-0.1-1.7c-1.1,0.8-2.3,1.5-3.4,2.2
						C54,42.2,54.2,42.9,54.6,43.4z"/>
					<path class="st16" d="M53.6,43.9c-0.3-0.2-0.3-1.1-0.4-1.4s0-0.4,0-0.5h-0.1l-0.3,0.1C52.8,42.8,53.1,43.5,53.6,43.9z"/>
					<path class="st16" d="M52.8,43.9c-0.3-0.2-0.3-1.1-0.4-1.4c0,0,0-0.1,0-0.2l-0.3,0.2C52.2,43.1,52.4,43.6,52.8,43.9z"/>
					<path class="st39" d="M50.6,61.3c-0.1-3.2-1.8-6-2.4-9l-0.1-0.4c-0.6,2.5-0.7,5.2-0.3,7.8c0.6,3.4-1.3,6.9-3.1,9.9
						c-0.3,0.5-0.6,1-0.7,1.5c0.4,0.5,0.8,1,1.3,1.5c0.5-0.6,0.9-1.2,1.3-1.8C48.6,67.9,50.7,64.8,50.6,61.3z"/>
					<path class="st16" d="M52.9,47.7c0.7-0.1,1.4-0.2,2.1-0.4c0.1-0.1,0.2-0.2,0.3-0.3l-0.4,0.2c-0.7,0.3-1.5,0.5-2.3,0.6
						L52.9,47.7z"/>
					<path class="st16" d="M53,78.8l0.7-1c-0.2-0.3-0.4-0.5-0.7-0.7c-1.9-1.7-3.7-3.5-5.4-5.5l4.1,5.6C52.2,77.7,52.6,78.3,53,78.8z
						"/>
					<path class="st5" d="M43.2,67.3c2.5,5,6.1,9.4,10.5,12.9c0.1,0.3-1.2,2.2-1.2,2.2S43.8,77,40.8,69.1
						C41.1,68.3,43.2,67.3,43.2,67.3z"/>
					<path class="st40" d="M40.2,67.3c0,0,1.3,8.3,15.6,15.8c-0.6-0.4-15,19.4-15,19.4L18.6,84.9L40.2,67.3z"/>
					<path class="st41" d="M49,78.8h-1.1l-20.5,13l13.4,10.7c0,0,14.4-19.8,15-19.4C53.4,81.9,51.1,80.4,49,78.8z"/>
					<path class="st6" d="M51.7,84c0,0.9-0.7,1.6-1.6,1.6s-1.6-0.7-1.6-1.6s0.7-1.6,1.6-1.6l0,0C51,82.4,51.7,83.1,51.7,84z"/>
					<rect x="82.3" y="34.2" class="st42" width="36" height="51.2"/>
					<path class="st43" d="M106.9,46c0.4,0.5,0.7,1.1,0.9,1.7c0.5,1.2,1,2.3,1.4,3.5c0.5,1.3,0.8,2.6,1,3.9c0.1,0.9,0.1,1.7,0.1,2.6
						c-0.1,3.8-0.2,7.7-0.2,11.5c-0.5-0.7-0.9-1.5-1.2-2.3c-1.6-4.2-2.8-8.4-3.8-12.8c-0.3-1.4-0.6-2.9-1.1-4.2
						c-0.3-0.9-0.7-1.8-1.2-2.7c-0.7-1.4-1.3-2.7-2-4.1c0.9-0.3,2,0.4,2.9,0.7C104.9,44.3,106,45,106.9,46z"/>
					<path class="st44" d="M90.3,47c0.2,0.2,0.5,0.3,0.8,0.4c0.6,0.2,1.2-0.4,1.8-0.6c0.4-0.1,0.7-0.1,1.1-0.1l2.7-0.1
						c0.1,0,0.2,0,0.3,0c0.1,0.1,0.2,0.2,0.3,0.3c0.3,0.5,0.7,1,1.2,1.4c0.2,0.1,0.3,0.3,0.4,0.5c0,0.3,0,0.7-0.2,0.9
						c-0.4,0.8-0.5,1.6-0.4,2.5c0,0.1,0,0.3,0,0.4c-0.1,0.2-0.2,0.3-0.3,0.4c-0.9,0.8-1.4,1.9-1.4,3.1c1.2,0.1,2.5-0.1,3.6-0.6
						c0.6-0.2,1.2-0.6,1.7-1.2c0.5-0.6,0.8-1.4,0.8-2.2s0-1.6-0.1-2.3c0-0.7-0.2-1.4-0.5-2.1c-0.3-0.6-0.8-1.2-1.4-1.6
						C99.9,45.6,99,45.2,98,45c-1.7-0.5-3.5-0.4-5.1,0.1l-2.5,1.1c-0.1,0-0.2,0.1-0.2,0.1C89.8,46.5,90,46.7,90.3,47z"/>
					<path class="st43" d="M99.2,52.4c-0.1-0.4-0.1-0.8,0-1.3c0.2-0.5,0.5-0.9,0.8-1.2c0.1-0.1,0.1-0.2,0.1-0.3s0-0.2-0.1-0.2
						c-0.8-1.5-0.8-3.1-2.7-3.6S93,45.5,91,45.6c-0.7,0-1.4-0.1-1.6-0.9c0-0.1,0-0.1,0-0.2c0-0.1,0.1-0.1,0.1-0.1
						c0.3-0.2,0.7-0.3,1.1-0.4c1-0.3,2-0.7,3-0.9l4.9-0.9c0.2,0,0.5,0,0.7,0c0.2,0.1,0.5,0.2,0.6,0.4l2.7,2.2
						c0.7,0.5,1.2,1.1,1.6,1.9c0.2,0.7,0.3,1.4,0.2,2.1c-0.1,2.6-0.1,5.3,0,7.9c0.1,0.8,0,1.6-0.4,2.3c-1,1.2-3.9,0.2-5-0.5
						c-1.5-0.9-2-2.3-0.9-3.8c0.6-0.6,1-1.3,1.2-2.1C99.2,52.6,99.2,52.5,99.2,52.4z"/>
					<path class="st37" d="M110.6,63.9c-0.3-3.1-0.4-6-1-9l0.1,0.7c0.1-1-0.1-2-0.6-2.9s-1.1-1.7-1.6-2.6c-1.2-2.1-1.6-4.5-2.8-6.6
						c-0.3-0.5-0.7-0.9-1.2-1.3c-0.4-0.2-0.9-0.3-1.3-0.3l-4.5-0.6c-1-0.2-2-0.2-3-0.2c-1.6,0.1-3,0.5-4.5,0.1
						c-0.3-0.1-0.6,0.2-0.6,0.6c0,0.3,0.1,0.6,0.4,0.9c0.8,0.9,1.8,1.5,3,1.7c0.8,0.1,1.7,0,2.6,0.2c0.7,0.2,1.5,0.4,2.2,0.7
						c1.2,0.5,2.5,1.1,3.7,1.7c0.4,0.2,0.8,0.5,0.9,0.9c0,0.4-0.2,0.8-0.4,1.1c-1.1,1.6-1.4,3.5-0.9,5.3c0.3,1-0.9,1.3-1.7,1.4
						s-1.4-0.4-1.9-1.2c-0.7-1.4-1.3-2.9-1.6-4.4c0-0.1-0.1-0.2-0.1-0.3c-0.3-0.8-0.6-1.5-1.1-2.2c-0.2-0.4-0.5-0.8-0.8-1.1
						c-0.6-0.7-1.6-1-2.4-0.7c-0.5,0.2-1,0.6-1.2,1.1c-0.6,1.1-0.2,2.2,0,3.3l0.3,2c0.2,1.4,0.6,2.8,1.2,4.1c0.9,2,1.6,4.1,2.1,6.2
						c0.8,2.3,1.9,4.4,3.3,6.4c2.6,4.1,5.8,7.8,7.8,12.3c1.1,2.4,1.9,4.9,2.4,7.5c0.3,1.1,0.6,6.4,1.7,6.8c0.5,0.1,1.6-0.8,2.1-1
						c1.3-0.4,2.6-0.8,3.9-1c0.8-0.2,7.3-2,7.7-1.4C117,83.9,111.5,73.8,110.6,63.9z"/>
					<path class="st38" d="M90,48.4c0,0-0.2-3,3-1.5c0.4,0.9,0.6,1.8,0.8,2.8c-0.1-0.2-1.3,1.1-3,1.2C90.7,51,90,48.4,90,48.4z"/>
					<path class="st38" d="M90.7,41.9c0.7,0.2,1.5,0.3,2.2,0.2c-0.1-0.3-0.1-0.5-0.2-0.8c-0.8,0.1-1.6,0.1-2.3,0
						c0,0.2,0.1,0.4,0.2,0.6C90.6,41.9,90.7,41.9,90.7,41.9z"/>
					<path class="st45" d="M93.6,42.4c0-0.4,0-0.8,0-1.2h-0.2C93.5,41.6,93.5,42,93.6,42.4z"/>
					<path class="st45" d="M94.2,42c0-0.3,0-0.6,0-0.8H94v0.1C94.1,41.5,94.2,41.8,94.2,42z"/>
					<path class="st45" d="M95,44.5c0.2-0.1,0.3-0.2,0.4-0.3c0.3-0.2,0.5-0.4,0.7-0.6c-0.5,0.4-1,0.7-1.6,0.9L95,44.5z"/>
					<path class="st45" d="M99.3,46.1c0.4-0.1,0.7-0.3,1.1-0.4C100,45.9,99.5,46,99,46L99.3,46.1z"/>
					<path class="st45" d="M102.8,43.7c-0.1-0.6-0.1-1.2,0-1.7h-0.3C102.5,42.5,102.6,43.2,102.8,43.7z"/>
					<path class="st43" d="M97.6,55.1c0.2,1.2,0.3,2.4,0.2,3.7c0.1-1.1,0.2-2.2,0.1-3.3C97.8,55.3,97.7,55.2,97.6,55.1z"/>
					<path class="st45" d="M104.8,48.3c-1-0.2-1.9-0.4-2.8-0.8c0.1,0.1,0.2,0.3,0.2,0.4c0,0.1,0,0.2,0,0.3
						C103,48.4,103.9,48.4,104.8,48.3z"/>
					<path class="st45" d="M94.5,50.3c-1,0.7-2.2,1.2-3.4,1.4c0.4-0.3,0.9-0.5,1.4-0.6C93.2,50.9,93.9,50.6,94.5,50.3z"/>
					<path class="st45" d="M91.4,52.2c0.6,0.1,1.1,0.1,1.7,0c0.5-0.1,1-0.5,1.4-0.9c-0.4,0.2-0.9,0.3-1.3,0.5
						C92.6,52,92,52.1,91.4,52.2z"/>
					<path class="st5" d="M99.7,75.2v2c0,0,12.2-2.9,14-5.6c-0.2,0.1-1.2-1.6-1.2-1.6S111.3,72.9,99.7,75.2z"/>
					<path class="st40" d="M116,69.5c0,0-5.6,6-19,8.2c0,0.2,6.3,22.8,6.3,22.8s24.5-8.8,24.4-9.1S116,69.5,116,69.5z"/>
					<path class="st41" d="M115.9,96c-2.4-6.6-7.9-21.3-8.1-21.1c-2.3,1-4.7,1.7-7.2,2.1c-1.1,0.3-2.3,0.5-3.6,0.7
						c0,0.2,6.3,22.8,6.3,22.8S109.7,98.2,115.9,96z"/>
					<path class="st9" d="M85,40.8c9.6,4.3,18.8,9.6,27.3,15.8c0.1,0.2,0.5,1.4-1.5,1.9C110.7,58.6,89.2,45.2,85,40.8z"/>
					<path class="st46" d="M85,40.8c0,0,1.2,1.2,2.3,2c0,0,0.8,0.1,0.7-0.7L85,40.8z"/>
					<path class="st47" d="M85,40.8l1,0.9c0,0,0.4,0,0.3-0.3L85,40.8z"/>
					<path class="st47" d="M105.3,51.7c-0.3,0.9-0.9,1.7-1.7,2.3l0.2,0.1c0.8-0.6,1.4-1.4,1.7-2.3L105.3,51.7z"/>
					<path class="st48" d="M89.1,43c0,0,11.4,5.8,15.3,8.9c0,0.1-0.4,0.5-0.4,0.5L89.1,43z"/>
					<path class="st48" d="M105.5,53.3l6,4.3c0.3-0.1,0.5-0.5,0.4-0.8l-6.3-4L105.5,53.3z"/>
					<path class="st6" d="M104,81c0,0.9-0.7,1.6-1.6,1.6s-1.6-0.7-1.6-1.6s0.7-1.6,1.6-1.6l0,0C103.3,79.4,104,80.1,104,81z"/>
				</g>
			</g>
		</g>
		<path class="st9" d="M116,69.5c-1.1,0-2.2,0.4-3.2,1c-0.1-0.1,0.9,1.1,0.9,1.1L116,69.5z"/>
		<path class="st9" d="M97,77.8c0.5-1,1.6-1.7,2.7-1.8v1.3L97,77.8z"/>
		<path class="st9" d="M40.2,67.3c0.6,0,1.2,0.3,1.5,0.9c-0.4,0.3-0.7,0.6-0.9,1C40.5,68.6,40.3,67.9,40.2,67.3z"/>
		<path class="st9" d="M53.6,80.6c0,0,2.2,1.4,2.2,2.5c0,0-2.2-1.2-2.8-1.5C53.2,81.2,53.4,80.9,53.6,80.6z"/>
		<polyline class="st49" points="64.1,37.2 66.3,40 71.6,36.2 		"/>
		<polyline class="st49" points="64.1,45.4 66.3,48.2 71.6,44.3 		"/>
		<polyline class="st49" points="64.1,53.6 66.3,56.4 71.6,52.5 		"/>
		<polyline class="st49" points="64.1,61.8 66.3,64.6 71.6,60.7 		"/>
		<path class="st6" d="M195.3,43.3c-0.3-0.3-0.6-0.5-1-0.7c-0.7-0.4-1.4-0.8-2.1-1.1c-0.9-0.4-1.8-0.8-2.8-1.1c-1-0.4-2-0.6-3.1-0.8
			v7.6l1.8,0.5c1.7,0.5,3.5,1,5.1,1.7c1.4,0.5,2.7,1.3,3.9,2.3c1.1,0.9,1.9,2.1,2.5,3.4c0.6,1.5,0.9,3.1,0.9,4.7
			c0.1,1.9-0.3,3.7-1.1,5.4c-0.7,1.4-1.7,2.7-3,3.7s-2.8,1.7-4.3,2.2c-1.7,0.5-3.4,0.8-5.1,0.8v6.5h-3.9v-6.6
			c-2.6-0.2-5.2-0.7-7.6-1.6c-2.4-0.8-4.7-1.9-6.8-3.3l4-8c0.4,0.4,0.8,0.7,1.2,0.9c0.8,0.5,1.6,1,2.5,1.3c1.1,0.5,2.3,1,3.4,1.3
			c1.3,0.4,2.6,0.7,3.9,0.9V56l-2.7-0.8c-1.6-0.5-3.2-1.1-4.8-1.8c-1.2-0.6-2.3-1.3-3.3-2.3c-0.9-0.8-1.6-1.9-2-3
			c-0.5-1.3-0.7-2.6-0.6-3.9c0-1.8,0.3-3.5,1-5.2c0.6-1.5,1.6-2.8,2.7-3.9c1.2-1.1,2.5-2,4-2.5c1.6-0.6,3.3-1,5-1.2v-5.6h3.9v5.6
			c2.3,0.2,4.6,0.7,6.8,1.6c1.9,0.8,3.8,1.6,5.5,2.6L195.3,43.3z M179.8,42.8c0,0.9,0.3,1.7,1,2.2c0.9,0.7,1.9,1.1,2.9,1.4v-6.9
			C181.1,39.7,179.8,40.8,179.8,42.8z M190.7,60.6c0-0.9-0.4-1.8-1.2-2.3c-1-0.6-2-1.1-3.1-1.5v6.7
			C189.2,63.4,190.6,62.4,190.7,60.6L190.7,60.6z"/>
		<polygon class="st6" points="135.5,91.9 155.6,99.2 150.2,105.3 		"/>
		<polygon class="st6" points="132.7,93 137.6,102.4 132.7,103 		"/>
		<polygon class="st50" points="26.9,89.8 14.5,100.9 11.1,96.6 		"/>
		<polygon class="st50" points="25.8,87.3 13.9,90.2 13.4,85 		"/>
		<path class="st6" d="M158.7,80.6h-29.4c-4.4,0-8-3.6-8-8l0,0c0-4.4,3.6-8,8-8h29.4c4.4,0,8,3.6,8,8l0,0
			C166.7,77,163.1,80.6,158.7,80.6z"/>
		<text transform="matrix(1 0 0 1 127.17 74.26)" class="st51 st52 st53">R</text>
		<text transform="matrix(1 0 0 1 130.62 74.26)" class="st51 st52 st53">E</text>
		<text transform="matrix(1 0 0 1 133.79 74.26)" class="st51 st52 st53">GI</text>
		<text transform="matrix(1 0 0 1 138.91 74.26)" class="st51 st52 st53">S</text>
		<text transform="matrix(1 0 0 1 141.8 74.26)" class="st51 st52 st53">TRARSE</text>
	</g>
</g>
</svg>
