<?xml version="1.0" encoding="utf-8"?>
<!-- Generator: Adobe Illustrator 22.0.0, SVG Export Plug-In . SVG Version: 6.00 Build 0)  -->
<svg version="1.1" id="Capa_1" xmlns="http://www.w3.org/2000/svg" xmlns:xlink="http://www.w3.org/1999/xlink" x="0px" y="0px"
	 viewBox="0 0 317.8 207.2" style="enable-background:new 0 0 317.8 207.2;" xml:space="preserve">
<style type="text/css">
	.st0{clip-path:url(#SVGID_2_);}
	.st1{fill:url(#SVGID_3_);}
	.st2{clip-path:url(#SVGID_5_);}
	.st3{fill:url(#SVGID_6_);}
	.st4{fill:url(#SVGID_7_);}
</style>
<title>fondo_nube_azul</title>
<g>
	<g>
		<g id="Capa_2_1_">
			<defs>
				<rect id="SVGID_1_" x="-1" width="318.8" height="207"/>
			</defs>
			<clipPath id="SVGID_2_">
				<use xlink:href="#SVGID_1_"  style="overflow:visible;"/>
			</clipPath>
			<g id="Layer_1" class="st0">
				
					<linearGradient id="SVGID_3_" gradientUnits="userSpaceOnUse" x1="-80.2443" y1="849.7809" x2="-111.1243" y2="747.3309" gradientTransform="matrix(-0.83 0.56 0.55 0.84 -326.0822 -501.3345)">
					<stop  offset="0" style="stop-color:#0083B9"/>
					<stop  offset="1" style="stop-color:#008BC5"/>
				</linearGradient>
				<path class="st1" d="M20.8,45c-30.1,25.6-18,68.7,11.9,77.5c29.5,8.7,35.1-20.5,37,24.9c0.7,15.4,7.9,31.1,21.8,39.9
					c10.4,6.5,22.9,8.3,34.7,5c6.4-1.9,12.2-5.4,18.4-7.9s1-12.2,5.7-7.5c8.2,8.2,16.7,19.1,36.3,24.2
					c31.6,8.1,38.4-20.7,116.8-20.8c19.5,0,7.3,35.6,19.5,21.1c15.6-18.5,21.6-30.4,29.3-52.9c6.9-20,11-41,9.6-61.9
					c-2.2-33.1-21.2-77.4-63.3-75.6c-50.7,2.1-48.8,52.3-75.6,18.5c-16-20.3-55.4-43-87.6,0.8S64.2,8.2,20.8,45z"/>
				<g>
					<defs>
						<path id="SVGID_4_" d="M10.7,60.3c-18.8,29.4,3.8,59.8,24.9,63.1c30.7,4.8,27.1-6.1,35,38.2c2.7,15.1,11.9,29.7,27.1,36.7
							c10.9,5.1,24.3,5.7,35.4,1.1c6.2-2.6,11.5-6.6,17.4-9.7s13.4-6.7,19.4-3.8c50.8,24.4,47.1-17.1,115.9,3.4
							c20.6,6.1,36.1,25.8,46.4,10.3c13.2-19.9,16.7-44.8,21.4-67.6c4.2-20.3,5.6-41.4,1.5-61.7c-6.5-32.2-31.4-73.5-73.4-67.2
							c-50.5,7.5-42,56.6-73.3,26.3c-18.7-18.1-61.1-36.1-87.7,10.3S40.9,13.3,10.7,60.3z"/>
					</defs>
					<clipPath id="SVGID_5_">
						<use xlink:href="#SVGID_4_"  style="overflow:visible;"/>
					</clipPath>
					<g class="st2">
						
							<linearGradient id="SVGID_6_" gradientUnits="userSpaceOnUse" x1="188.3902" y1="280.4365" x2="146.3703" y2="198.7365" gradientTransform="matrix(1 -8.000000e-02 -8.000000e-02 -1 31.4787 359.0031)">
							<stop  offset="0" style="stop-color:#81C3EF"/>
							<stop  offset="1" style="stop-color:#0095D4"/>
						</linearGradient>
						<path class="st3" d="M2.3,108.6c-2.1-34.8,33.3-41.8,52-34.1c26.5,10.8,25.9,25.4,59.1-3c11.3-9.6,27.2-15.5,42.7-12.8
							c11.1,2,21.4,8.5,26.7,17.7c3,5.1,4.4,10.9,6.8,16.2s6.1,10.6,11.9,12.9c5.6,2.2,12.1,1.3,17.8-0.6
							c13.8-4.5,25.2-14.1,39.4-17.4c12-2.8,26.8-1.8,37.4,4.4c13.9,8.1,20,23.7,24,37.6c4.6,16.3,5.9,33.4,3.7,50.2
							c-2.6,21.5-10.3,42.3-20.9,61.5c-9.5,17.1-21.6,33.3-37.2,46.1c-24.7,20.2-68.6,37.5-95.5,11c-32.4-32,4.3-63.5-37.5-57.6
							c-25,3.5-67.2-5.4-57.9-53.4C84,139.3,5.3,158.8,2.3,108.6z"/>
						
							<linearGradient id="SVGID_7_" gradientUnits="userSpaceOnUse" x1="116.0659" y1="-63.3337" x2="126.9459" y2="64.4963" gradientTransform="matrix(1 -8.000000e-02 -8.000000e-02 -1 31.4787 359.0031)">
							<stop  offset="0" style="stop-color:#95CBF2"/>
							<stop  offset="1" style="stop-color:#58B3EA"/>
						</linearGradient>
						<path class="st4" d="M-10.5,113.9C0.5,79.7,31,82.2,46.2,95.5c21.4,18.8,15.3,32.7,58,15.9c14.5-5.7,32-6.3,45.8,1.2
							c10,5.4,17.4,15,19,25.5c0.9,5.9,0.1,11.8,0.4,17.8s2,12.2,6.7,16.2c4.5,3.9,11.1,5,17.4,5.1c14.9,0,29.5-3.5,44.5-4.3
							c38.3-2,73,23.4,80.9,32.7c10.3,12.2-36.3,12.6-37.6,27.2c-1.7,17.4-6.9,34.2-15.3,49.5c-10.6,19.8-25.7,37.5-43.2,52.6
							c-15.6,13.5-33.3,25.2-53.1,32.6c-31.4,11.7-80.1,14.4-96.1-19.7c-19.2-41,27.9-59.7-14.4-67.3c-25.3-4.5-62.7-26.6-35.7-69.8
							S-26.5,163.1-10.5,113.9z"/>
					</g>
				</g>
			</g>
		</g>
	</g>
</g>
</svg>
