<?xml version="1.0" encoding="utf-8"?>
<!-- Generator: Adobe Illustrator 22.0.0, SVG Export Plug-In . SVG Version: 6.00 Build 0)  -->
<svg version="1.1" id="Capa_1" xmlns="http://www.w3.org/2000/svg" xmlns:xlink="http://www.w3.org/1999/xlink" x="0px" y="0px"
	 viewBox="0 0 421.2 434.1" style="enable-background:new 0 0 421.2 434.1;" xml:space="preserve">
<style type="text/css">
	.st0{fill:#DFDFDF;}
	.st1{clip-path:url(#SVGID_2_);}
	.st2{fill:#D5D5D5;}
	.st3{clip-path:url(#SVGID_4_);}
	.st4{fill:#F1F1F1;}
	.st5{fill:#E4E4E4;}
</style>
<title>nube_servicios</title>
<g>
	<g>
		<path class="st0" d="M421.2,0H50.3c-13.4,21.6-2.8,46,13.5,57c31,20.7,68.4,9.2,57.6,66.5c-3.7,19.5,0.9,29.8,14.8,44.6
			c10,10.6,24.1,13.6,40.4,13.6c28.8,0,46.2,20.9,59.9,49.7c10.8,22.7,36.8,42.5,64.3,42.5c39.8,0,60-44.8,120.4-9.3L421.2,0z"/>
		<g>
			<g>
				<defs>
					<rect id="SVGID_1_" x="102.3" y="58.8" width="318.8" height="207"/>
				</defs>
				<clipPath id="SVGID_2_">
					<use xlink:href="#SVGID_1_"  style="overflow:visible;"/>
				</clipPath>
				<g id="Capa_2_1_" class="st1">
					<path class="st2" d="M124.2,103.9c-30.1,25.6-18,68.7,11.9,77.5c29.5,8.7,35.1-20.5,37,24.9c0.7,15.4,7.9,31.1,21.8,39.9
						c10.4,6.5,22.9,8.3,34.7,5c6.4-1.9,12.2-5.4,18.4-7.9s1-12.2,5.7-7.5c8.2,8.2,21.9,2.9,41.4,8c31.6,8.2,33.3-4.5,111.6-4.6
						c19.5,0,7.3,35.6,19.5,21.1c15.6-18.5,21.6-30.5,29.3-52.9c6.9-20,11-41,9.6-61.9c-2.2-33.1-21.2-77.3-63.3-75.6
						c-50.7,2.1-48.8,52.3-75.6,18.5c-16-20.3-55.4-43-87.6,0.8S167.5,67,124.2,103.9z"/>
					<g id="Layer_1">
						<g>
							<defs>
								<path id="SVGID_3_" d="M114.1,119.2c-18.9,29.4,3.8,59.8,24.9,63.1c30.7,4.8,27.1-6.1,35,38.2c2.7,15.1,11.9,29.7,27.1,36.7
									c10.9,5.1,24.3,5.7,35.4,1.1c6.2-2.6,11.5-6.6,17.4-9.7c5.9-3.1,15.2,5.3,21.3,8.1c54.9,25,45.3-29,114.1-8.5
									c20.6,6.1,36.1,25.8,46.4,10.3c13.2-19.9,16.7-44.8,21.4-67.6c4.2-20.3,5.6-41.4,1.5-61.7C452,97.1,427.2,55.8,385.2,62
									c-50.5,7.5-42,56.6-73.3,26.3c-18.7-18.1-61.1-36.1-87.7,10.3S144.2,72.1,114.1,119.2z"/>
							</defs>
							<clipPath id="SVGID_4_">
								<use xlink:href="#SVGID_3_"  style="overflow:visible;"/>
							</clipPath>
							<g class="st3">
								<path class="st4" d="M105.6,167.5c-2.1-34.8,33.3-41.8,52-34.1c26.5,10.8,25.9,25.4,59.1-3c11.3-9.6,27.2-15.5,42.6-12.8
									c11.1,2,21.4,8.5,26.7,17.7c3,5.1,4.4,10.9,6.8,16.2s6.1,10.6,11.9,12.9c5.6,2.2,12.1,1.3,17.8-0.6
									c13.8-4.5,25.2-14.1,39.4-17.4c12-2.8,26.8-1.8,37.4,4.4c13.9,8.1,20,23.7,24,37.6c4.6,16.3,5.9,33.4,3.7,50.2
									c-2.6,21.5-10.2,42.3-20.9,61.5c-9.5,17.1-21.6,33.3-37.2,46.1c-24.8,20.2-68.6,37.5-95.5,11c-32.4-32,4.3-63.5-37.5-57.6
									c-25,3.5-67.2-5.5-57.9-53.4S108.6,217.6,105.6,167.5z"/>
								<path class="st5" d="M92.8,172.7c11.1-34.2,41.6-31.7,56.7-18.4c21.4,18.8,15.3,32.7,58,15.9c14.5-5.7,32-6.3,45.8,1.2
									c10,5.4,17.4,14.9,19,25.5c0.9,5.9,0.1,11.8,0.4,17.8s1.9,12.2,6.6,16.2c4.5,3.9,11.1,5,17.3,5c14.9,0,29.5-3.5,44.5-4.3
									c38.3-2,73.1,23.4,80.9,32.7c10.3,12.2-36.3,12.5-37.6,27.2c-1.7,17.4-6.9,34.2-15.2,49.6c-10.6,19.8-25.8,37.5-43.3,52.6
									c-15.6,13.5-33.3,25.2-53.1,32.6c-31.4,11.6-80.1,14.4-96.1-19.7c-19.2-41,27.9-59.7-14.4-67.3
									c-25.4-4.5-62.7-26.5-35.7-69.8S76.9,222,92.8,172.7z"/>
							</g>
						</g>
					</g>
				</g>
			</g>
		</g>
	</g>
</g>
</svg>
