<?xml version="1.0" encoding="utf-8"?>
<!-- Generator: Adobe Illustrator 22.0.0, SVG Export Plug-In . SVG Version: 6.00 Build 0)  -->
<svg version="1.1" id="Layer_1" xmlns="http://www.w3.org/2000/svg" xmlns:xlink="http://www.w3.org/1999/xlink" x="0px" y="0px"
	 viewBox="0 0 57 57" style="enable-background:new 0 0 57 57;" xml:space="preserve">
<style type="text/css">
	.st0{fill:#009FDA;}
</style>
<g>
	<path class="st0" d="M29.1,38.7c-1,0-1.8-0.5-2.3-1.4c-2.9-5.7-9-9.8-9.2-9.8c-1.1-0.8-1.5-2.3-0.8-3.6c0.8-1.1,2.3-1.5,3.6-0.8
		c0.3,0.1,4.8,3.1,8.4,7.9c7.5-13,17.9-18.3,22.2-20.2c1.3-0.5,2.8,0.1,3.3,1.4S54.3,15,53,15.5c-3.3,1.4-14.9,7-21.7,21.6
		C31,38,30.1,38.7,29.1,38.7L29.1,38.7z"/>
	<path class="st0" d="M28,50.1c-4.1,0-8-0.4-11.9-1.3c-3.7-0.9-7.5-4.7-8.4-8.3c-1.7-8-1.7-16,0-24c0.9-3.7,4.7-7.5,8.3-8.4
		C23,6.6,30.1,6.5,37.2,7.7c1.4,0.3,2.3,1.5,2.2,2.9s-1.5,2.3-2.9,2.2c-6.5-1-13-0.9-19.4,0.5c-1.8,0.4-4.1,2.7-4.4,4.4
		c-1.5,7.2-1.5,14.6,0,21.9c0.4,1.8,2.7,4.1,4.4,4.4c7.2,1.5,14.6,1.5,21.9,0c1.8-0.4,4.1-2.7,4.4-4.4c0.8-3.6,1.1-7.2,1.1-10.9
		c0-1.4,1.1-2.5,2.5-2.5s2.5,1.1,2.5,2.5c0,3.9-0.4,8-1.3,11.9c-0.9,3.7-4.7,7.5-8.3,8.4C36,49.7,32,50.1,28,50.1z"/>
</g>
</svg>
