<?xml version="1.0" encoding="utf-8"?>
<!-- Generator: Adobe Illustrator 21.0.0, SVG Export Plug-In . SVG Version: 6.00 Build 0)  -->
<svg version="1.1" id="Layer_1" xmlns="http://www.w3.org/2000/svg" xmlns:xlink="http://www.w3.org/1999/xlink" x="0px" y="0px"
	 viewBox="0 0 57 57" style="enable-background:new 0 0 57 57;" xml:space="preserve">
<style type="text/css">
	.st0{fill:#009FDA;}
</style>
<g>
	<path class="st0" d="M29.4,36.5c-0.8,0-1.4-0.4-1.8-1.1c-2.3-4.5-7.1-7.7-7.2-7.7c-0.9-0.6-1.2-1.8-0.6-2.8
		c0.6-0.9,1.8-1.2,2.8-0.6c0.2,0.1,3.8,2.4,6.6,6.2c5.9-10.2,14.1-14.4,17.5-15.9c1-0.4,2.2,0.1,2.6,1.1c0.4,1-0.1,2.2-1.1,2.6
		c-2.6,1.1-11.7,5.5-17.1,17C30.9,36,30.2,36.5,29.4,36.5C29.4,36.5,29.4,36.5,29.4,36.5z"/>
	<path class="st0" d="M28.5,45.5c-3.2,0-6.3-0.3-9.4-1c-2.9-0.7-5.9-3.7-6.6-6.5c-1.3-6.3-1.3-12.6,0-18.9c0.7-2.9,3.7-5.9,6.5-6.6
		c5.6-1.2,11.2-1.3,16.8-0.4c1.1,0.2,1.8,1.2,1.7,2.3s-1.2,1.8-2.3,1.7c-5.1-0.8-10.2-0.7-15.3,0.4c-1.4,0.3-3.2,2.1-3.5,3.5
		c-1.2,5.7-1.2,11.5,0,17.2c0.3,1.4,2.1,3.2,3.5,3.5c5.7,1.2,11.5,1.2,17.2,0c1.4-0.3,3.2-2.1,3.5-3.5c0.6-2.8,0.9-5.7,0.9-8.6
		c0-1.1,0.9-2,2-2s2,0.9,2,2c0,3.1-0.3,6.3-1,9.4c-0.7,2.9-3.7,5.9-6.5,6.6C34.8,45.2,31.7,45.5,28.5,45.5z"/>
</g>
</svg>
