<?xml version="1.0" encoding="utf-8"?>
<!-- Generator: Adobe Illustrator 22.0.0, SVG Export Plug-In . SVG Version: 6.00 Build 0)  -->
<svg version="1.1" id="Layer_1" xmlns="http://www.w3.org/2000/svg" xmlns:xlink="http://www.w3.org/1999/xlink" x="0px" y="0px"
	 viewBox="0 0 64 64" style="enable-background:new 0 0 64 64;" xml:space="preserve">
<style type="text/css">
	.st0{fill:#009FDA;}
</style>
<g>
	<path class="st0" d="M59.9,36.2c-1.1-1.1-2.8-1.1-3.9,0l-6.5,6.5V15.6c0-1.6-1.3-2.8-2.8-2.8s-2.8,1.3-2.8,2.8v27.1l-6.5-6.5
		c-1.1-1.1-2.8-1.1-3.9,0s-1.1,2.8,0,3.9l11.3,11.3c0.1,0.1,0.3,0.3,0.4,0.4l0.1,0.1c0.1,0,0.1,0.1,0.3,0.1c0.1,0,0.1,0,0.3,0.1
		c0.1,0,0.1,0,0.3,0.1c0.1,0,0.4,0,0.6,0c0.1,0,0.4,0,0.6,0c0.1,0,0.1,0,0.3-0.1c0.1,0,0.1,0,0.3-0.1c0.1,0,0.1-0.1,0.3-0.1
		c0,0,0.1,0,0.1-0.1c0.1-0.1,0.3-0.3,0.4-0.4l11.3-11.3C61,39,61,37.3,59.9,36.2z"/>
	<path class="st0" d="M31.7,24.9L20.4,13.6c-0.1-0.1-0.3-0.3-0.4-0.4c-0.1,0-0.1-0.1-0.3-0.1c-0.1,0-0.1-0.1-0.3-0.1s-0.1,0-0.3-0.1
		c-0.1,0-0.1,0-0.3,0c-0.4-0.1-0.7-0.1-1.1,0c-0.1,0-0.1,0-0.3,0.1c-0.1,0-0.1,0-0.3,0.1c-0.1,0-0.1,0.1-0.3,0.1s-0.1,0.1-0.3,0.1
		c-0.1,0.1-0.3,0.3-0.4,0.4L4.9,25c-1.1,1.1-1.1,2.8,0,3.9c0.6,0.6,1.3,0.8,2,0.8s1.4-0.3,2-0.8l6.5-6.5v27.1c0,1.6,1.3,2.8,2.8,2.8
		c1.6,0,2.8-1.3,2.8-2.8V22.3l6.5,6.5c0.6,0.6,1.3,0.8,2,0.8s1.4-0.3,2-0.8C32.8,27.7,32.8,26,31.7,24.9z"/>
</g>
</svg>
