<?xml version="1.0" encoding="utf-8"?>
<!-- Generator: Adobe Illustrator 22.0.0, SVG Export Plug-In . SVG Version: 6.00 Build 0)  -->
<svg version="1.1" id="Layer_1" xmlns="http://www.w3.org/2000/svg" xmlns:xlink="http://www.w3.org/1999/xlink" x="0px" y="0px"
	 viewBox="0 0 100 100" style="enable-background:new 0 0 100 100;" xml:space="preserve">
<style type="text/css">
	.st0{fill:#009FDA;}
</style>
<g>
	<path class="st0" d="M44.7,79.1h12.8c2.5,0,4.5-2,4.5-4.5v-65c0-2.5-2-4.5-4.5-4.5H44.7c-2.5,0-4.5,2-4.5,4.5v65
		C40.2,77.1,42.2,79.1,44.7,79.1z"/>
	<path class="st0" d="M15.1,79.1h12.8c2.5,0,4.5-2,4.5-4.5V43.3c0-2.5-2-4.5-4.5-4.5H15.1c-2.5,0-4.5,2-4.5,4.5v31.4
		C10.6,77.1,12.6,79.1,15.1,79.1z"/>
	<path class="st0" d="M84.8,25.3H72c-2.5,0-4.5,2-4.5,4.5v44.8c0,2.5,2,4.5,4.5,4.5h12.8c2.5,0,4.5-2,4.5-4.5V29.8
		C89.3,27.4,87.3,25.3,84.8,25.3z"/>
	<path class="st0" d="M84.8,85.9H14.4c-2.5,0-4.5,2-4.5,4.5s2,4.5,4.5,4.5h70.4c2.5,0,4.5-2,4.5-4.5S87.3,85.9,84.8,85.9z"/>
</g>
</svg>
