<?xml version="1.0" encoding="utf-8"?>
<!-- Generator: Adobe Illustrator 22.0.0, SVG Export Plug-In . SVG Version: 6.00 Build 0)  -->
<svg version="1.1" id="Layer_1" xmlns="http://www.w3.org/2000/svg" xmlns:xlink="http://www.w3.org/1999/xlink" x="0px" y="0px"
	 viewBox="0 0 73.9 73.9" style="enable-background:new 0 0 73.9 73.9;" xml:space="preserve">
<style type="text/css">
	.st0{fill:#009FDA;}
</style>
<g>
	<path class="st0" d="M44.1,44.7l-3.8-1.2l-0.1-0.2l1.8-3.4c0.5-0.9,0.2-1.8-0.4-2.6l-4.1-4.1c-0.6-0.6-1.7-0.9-2.6-0.4l-3.5,1.8
		l0-0.1l-1.2-3.8c-0.2-0.9-1.1-1.5-2.1-1.5h-5.8l0,0c-1,0-1.7,0.6-2.1,1.5L19,34.4l-0.2,0.1l-3.5-1.8c-0.9-0.5-1.8-0.2-2.6,0.4
		l-4.1,4.1c-0.6,0.6-0.9,1.7-0.4,2.6l1.8,3.5l0.1,0.1l-3.8,1.2c-0.9,0.2-1.5,1.1-1.5,2.1v5.8c0,1,0.6,1.7,1.5,2.1l3.8,1.2l0.1,0.2
		l-1.8,3.5c-0.5,0.9-0.2,1.8,0.4,2.6l4.1,4.1c0.6,0.6,1.7,0.9,2.6,0.4l3.5-1.8l0.2,0.1l1.2,3.8c0.2,0.9,1.1,1.5,2.1,1.5h5.8
		c1,0,1.7-0.6,2.1-1.5l1.2-3.8l0.2-0.1l3.5,1.8c0.9,0.5,1.8,0.2,2.6-0.4l4.1-4.1c0.6-0.6,0.9-1.7,0.4-2.6l-1.8-3.5l0.1-0.2l3.8-1.2
		c0.9-0.2,1.5-1.1,1.5-2.1v-5.8C45.7,45.8,45.1,44.9,44.1,44.7z M38.2,52c-0.6,0.2-1.1,0.6-1.3,1.2L36,55.3
		c-0.2,0.6-0.2,1.2,0.1,1.8l1.6,2.9L35.7,62l-2.9-1.6c-0.6-0.2-1.2-0.4-1.8-0.1l-2.1,1c-0.6,0.2-1,0.7-1.2,1.3l-1,3.2H24l-1-3.2
		c-0.2-0.6-0.6-1.1-1.2-1.3l-2.1-0.9c-0.6-0.2-1.2-0.2-1.8,0.1L15,62.1L12.9,60l1.6-2.9c0.2-0.6,0.4-1.2,0.1-1.8l-0.9-2.1
		c-0.2-0.6-0.7-1.1-1.3-1.2l-3.2-1v-2.7l3.2-1c0.6-0.2,1.1-0.6,1.3-1.2l0.9-2.1c0.2-0.6,0.2-1.2-0.1-1.8l-1.6-2.9l1.9-1.9l2.9,1.6
		c0.6,0.2,1.2,0.4,1.8,0.1l2.1-0.9c0.6-0.2,1.1-0.7,1.2-1.3l1-3.2h2.7l1,3.2c0.2,0.6,0.6,1.1,1.2,1.3l2.1,0.9
		c0.6,0.2,1.2,0.2,1.8-0.1l2.9-1.6l1.9,1.9l-1.6,2.9c-0.2,0.6-0.4,1.2-0.1,1.8l0.9,2.1c0.2,0.6,0.7,1,1.3,1.2l3.2,1V51L38.2,52z"/>
	<circle class="st0" cx="25.2" cy="49.5" r="6.7"/>
	<path class="st0" d="M69.7,18.2c0-0.9-0.5-1.5-1.3-1.7l-2.6-0.9l1.2-2.4c0.4-0.7,0.2-1.6-0.4-2.2l-2.9-3c-0.6-0.6-1.5-0.7-2.2-0.4
		L59.1,9l-0.7-2.6c-0.2-0.7-1-1.3-1.7-1.3h-4.3c-0.9,0-1.5,0.5-1.7,1.3L49.8,9l-2.4-1.3c-0.7-0.4-1.6-0.2-2.2,0.4l-3,3
		c-0.6,0.6-0.7,1.5-0.4,2.2l1.2,2.4l-2.4,0.7c-0.7,0.2-1.3,1-1.3,1.7v4.3c0,0.9,0.5,1.5,1.3,1.7l2.6,0.9l-1.2,2.4
		c-0.4,0.7-0.2,1.6,0.4,2.2l3,3c0.6,0.6,1.5,0.7,2.2,0.4l2.4-1.3l0.9,2.6c0.2,0.7,1,1.3,1.7,1.3h4.3c0.9,0,1.5-0.5,1.7-1.3l0.9-2.6
		l2.4,1.3c0.7,0.4,1.6,0.2,2.2-0.4l3-3c0.6-0.6,0.7-1.5,0.4-2.2l-1.2-2.4l2.6-0.9c0.7-0.2,1.3-1,1.3-1.7L69.7,18.2z M64,21.7
		c-0.5,0.1-1,0.5-1.1,1.1l-0.6,1.6C62,24.9,62,25.5,62.4,26l1.1,1.9l-1.1,1.1L60.1,28c-0.5-0.2-1.1-0.2-1.6-0.1l-1.6,0.6
		c-0.5,0.2-0.9,0.6-1.1,1.1l-0.7,2.2h-1.6l-0.7-2.2c-0.1-0.5-0.5-1-1.1-1.1l-1.6-0.6c-0.5-0.2-1.1-0.2-1.6,0.1l-2.1,1.1L45.3,28
		l1.1-1.9c0.2-0.5,0.2-1.1,0.1-1.6l-0.6-1.6c-0.2-0.5-0.6-0.9-1.1-1.1L42.6,21v-1.6l2.2-0.7c0.5-0.1,1-0.5,1.1-1.1l0.6-1.6
		c0.2-0.5,0.1-1.1-0.1-1.6l-1.1-1.9l1.1-1.1l2.1,1.1c0.5,0.2,1.1,0.2,1.6,0.1l1.6-0.6c0.5-0.2,0.9-0.6,1.1-1.1l0.7-2.2h1.6l0.7,2.2
		c0.1,0.5,0.5,1,1.1,1.1l1.6,0.6c0.5,0.2,1.1,0.1,1.6-0.1l2.1-1.1l1.1,1.1l-1.1,1.9c-0.2,0.5-0.2,1.1-0.1,1.6l0.6,1.6
		c0.2,0.5,0.6,0.9,1.1,1.1l2.2,0.7V21L64,21.7z"/>
	<path class="st0" d="M54.4,17.2c-1.7,0-3,1.3-3,3s1.3,3,3,3c1.7,0,3-1.3,3-3S56.2,17.2,54.4,17.2z"/>
</g>
</svg>
