<?xml version="1.0" encoding="utf-8"?>
<!-- Generator: Adobe Illustrator 22.0.0, SVG Export Plug-In . SVG Version: 6.00 Build 0)  -->
<svg version="1.1" id="Layer_1" xmlns="http://www.w3.org/2000/svg" xmlns:xlink="http://www.w3.org/1999/xlink" x="0px" y="0px"
	 viewBox="0 0 100 100" style="enable-background:new 0 0 100 100;" xml:space="preserve">
<style type="text/css">
	.st0{fill:#009FDA;}
</style>
<g>
	<path class="st0" d="M53.4,82.3c-13.6,0-25-7.5-29.8-19.6c4.4-1.7,7.7-6.1,7.7-11.1c0-6.6-5.3-11.9-11.9-11.9S7.5,45.1,7.5,51.7
		c0,5.6,3.9,10.2,9,11.6c5.3,15.5,19.9,25.9,36.9,25.9c1.9,0,3.4-1.5,3.4-3.4C56.8,83.8,55.3,82.3,53.4,82.3z M19.4,56.8
		c-2.9,0-5.1-2.2-5.1-5.1s2.2-5.1,5.1-5.1s5.1,2.2,5.1,5.1S22.3,56.8,19.4,56.8z"/>
	<path class="st0" d="M92.5,50c0-6-1.2-11.6-3.7-16.8c-0.9-1.7-2.9-2.4-4.6-1.5c-1.7,0.9-2.4,2.9-1.5,4.6c2,4.3,3.1,9,3.1,13.8
		c0,7-2.6,13.9-7,19.7c-1.5-0.7-3.2-1-4.9-1c-6.6,0-11.9,5.3-11.9,11.9s5.3,11.9,11.9,11.9c6.6,0,11.9-5.3,11.9-11.9
		c0-2.4-0.7-4.6-1.9-6.5C89.5,67.2,92.5,58.7,92.5,50z M73.8,85.7c-2.9,0-5.1-2.2-5.1-5.1s2.2-5.1,5.1-5.1s5.1,2.2,5.1,5.1
		S76.7,85.7,73.8,85.7z"/>
	<path class="st0" d="M70.4,31.3c6.6,0,11.9-5.3,11.9-11.9S77,7.5,70.4,7.5c-3.6,0-6.8,1.5-9,4.1c-2.2-0.5-4.9-0.7-8-0.7
		c-13.9,0-26.5,7-33.5,18.7c-1,1.5-0.5,3.7,1.2,4.6c0.5,0.3,1.2,0.5,1.7,0.5c1.2,0,2.2-0.5,2.9-1.7c5.8-9.7,16.2-15.3,27.7-15.3
		c2,0,3.7,0.2,5.1,0.3c0,0.5,0,0.9,0,1.4C58.5,26,63.8,31.3,70.4,31.3z M70.4,14.3c2.9,0,5.1,2.2,5.1,5.1s-2.2,5.1-5.1,5.1
		c-2.9,0-5.1-2.2-5.1-5.1S67.5,14.3,70.4,14.3z"/>
</g>
</svg>
