<?xml version="1.0" encoding="utf-8"?>
<!-- Generator: Adobe Illustrator 22.0.0, SVG Export Plug-In . SVG Version: 6.00 Build 0)  -->
<svg version="1.1" id="Layer_1" xmlns="http://www.w3.org/2000/svg" xmlns:xlink="http://www.w3.org/1999/xlink" x="0px" y="0px"
	 viewBox="0 0 92.4 92.4" style="enable-background:new 0 0 92.4 92.4;" xml:space="preserve">
<style type="text/css">
	.st0{fill:#009FDA;}
</style>
<g>
	<path class="st0" d="M68.7,59.3H56.1c-1.7,0-3.1,1.4-3.1,3.1s1.4,3.1,3.1,3.1h12.6c1.7,0,3.1-1.4,3.1-3.1S70.5,59.3,68.7,59.3z"/>
	<path class="st0" d="M68.7,46.7H56.1c-1.7,0-3.1,1.4-3.1,3.1c0,1.7,1.4,3.1,3.1,3.1h12.6c1.7,0,3.1-1.4,3.1-3.1
		C71.9,48.1,70.5,46.7,68.7,46.7z"/>
	<path class="st0" d="M56.1,40.4h9.4c1.7,0,3.1-1.4,3.1-3.1s-1.4-3.1-3.1-3.1h-9.4c-1.7,0-3.1,1.4-3.1,3.1S54.4,40.4,56.1,40.4z"/>
	<path class="st0" d="M37.3,49.7c1.9-1.4,3.1-3.8,3.1-6.3c0-4.4-3.3-7.9-7.9-7.9s-7.9,3.3-7.9,7.9c0,2.5,1.3,4.9,3.1,6.3
		c-2.7,2.7-6.3,7.2-6.3,12.6c0,1.7,1.4,3.1,3.1,3.1h15.7c1.7,0,3.1-1.4,3.1-3.1C43.6,56.9,39.9,52.4,37.3,49.7z"/>
	<path class="st0" d="M70.3,12.1c-1.7,0-3.1,1.4-3.1,3.1v3.1c0,0.9-1.3,1.6-3.1,1.6c-1.9,0-3.1-0.6-3.1-1.6v-3.1
		c0-1.7-1.4-3.1-3.1-3.1h-22c-1.7,0-3.1,1.4-3.1,3.1v3.1c0,0.9-1.3,1.6-3.1,1.6c-1.9,0-3.1-0.6-3.1-1.6v-3.1c0-1.7-1.4-3.1-3.1-3.1
		C12.7,12.1,4.2,20.6,4.2,31v31.5c0,10.4,8.5,18.9,18.9,18.9h47.2c10.4,0,18.9-8.5,18.9-18.9V31C89.2,20.6,80.7,12.1,70.3,12.1z
		 M82.9,62.4c0,6.9-5.7,12.6-12.6,12.6H23.1c-6.9,0-12.6-5.7-12.6-12.6V31c0-5.8,4.1-10.9,9.4-12.1c0.2,3.8,3.5,7.4,9.4,7.4
		c6.1,0,9.4-3.9,9.4-7.9h15.7c0,3.9,3.3,7.9,9.4,7.9c6,0,9.3-3.6,9.4-7.4c5.5,1.4,9.4,6.3,9.4,12.1V62.4z"/>
</g>
</svg>
