<svg xmlns="http://www.w3.org/2000/svg" viewBox="0 0 34.93 95.86"><defs><style>.cls-1{fill:#0094da;}.cls-2,.cls-3{fill:#fff;}.cls-2{opacity:0.7;}.cls-16,.cls-2{isolation:isolate;}.cls-4{fill:#09111d;}.cls-5{fill:#203c83;}.cls-6{fill:#232f5c;}.cls-7{fill:#1a1a36;}.cls-8{fill:#f08c7e;}.cls-9{fill:#facca9;}.cls-10{fill:#c8c8c7;}.cls-11{fill:#b1afae;}.cls-12{fill:#dfdfdf;}.cls-13{fill:#263267;}.cls-14{fill:#ffe41a;}.cls-15,.cls-16{fill:#f6a526;}.cls-16{opacity:0.4;}.cls-17,.cls-18,.cls-19{fill:none;}.cls-17,.cls-18{stroke:#263267;stroke-width:0.17px;}.cls-17,.cls-19{stroke-miterlimit:10;}.cls-18{stroke-linecap:round;stroke-linejoin:round;}.cls-19{stroke:#fff;stroke-width:0.69px;}.cls-20{fill:#75c8dc;}.cls-21{fill:#3ebeee;}.cls-22{fill:#28347a;}</style></defs><title>paso9</title><g id="Capa_2" data-name="Capa 2"><g id="Capa_1-2" data-name="Capa 1"><g id="Layer_9" data-name="Layer 9"><path class="cls-1" d="M8.05,10.21A2.27,2.27,0,1,1,5.78,7.94a2.27,2.27,0,0,1,2.27,2.27Z"/><path class="cls-2" d="M5.78,8.21a2,2,0,1,0,2,2A2,2,0,0,0,5.78,8.21Zm0,3.87a1.87,1.87,0,1,1,1.87-1.87h0A1.87,1.87,0,0,1,5.78,12.08Z"/><path class="cls-2" d="M5.78,8.59a1.63,1.63,0,1,0,1.63,1.63h0A1.63,1.63,0,0,0,5.79,8.59Zm0,3.14a1.52,1.52,0,1,1,1.54-1.52,1.52,1.52,0,0,1-1.54,1.52Z"/><path class="cls-3" d="M6.41,10.52a.5.5,0,0,1-.13.37.69.69,0,0,1-.33.19v.34l0,.05H5.7a.12.12,0,0,1,0-.05v-.34A.85.85,0,0,1,5.43,11l-.14-.11v-.05a.31.31,0,0,1-.06-.13.27.27,0,0,1,.1-.17.18.18,0,0,1,.12,0,.32.32,0,0,1,.18.1h0a.26.26,0,0,0,.21.12c.15,0,.22-.06.22-.18a.1.1,0,0,0-.08-.1l-.21-.07-.23-.07a.68.68,0,0,1-.21-.17.51.51,0,0,1-.08-.29.52.52,0,0,1,.11-.32.46.46,0,0,1,.32-.18V9A0,0,0,0,1,5.73,9h.1A.13.13,0,0,1,6,9,.09.09,0,0,1,6,9V9.3l.15,0,.1.05h0a.26.26,0,0,1,.07.11.35.35,0,0,1-.06.14.22.22,0,0,1-.16.12.18.18,0,0,1-.12,0H5.68a.12.12,0,0,0,0,.1.13.13,0,0,0,.06.11.27.27,0,0,0,.15.05L6,10l.2.07a.36.36,0,0,1,.15.15A.63.63,0,0,1,6.41,10.52Z"/><path class="cls-1" d="M12.6,13.46a2.29,2.29,0,1,1,0-.05Z"/><path class="cls-2" d="M10.32,11.46a2,2,0,1,0,2,2h0A2,2,0,0,0,10.32,11.46Zm0,3.87a1.87,1.87,0,1,1,1.87-1.87h0a1.86,1.86,0,0,1-1.85,1.87Z"/><path class="cls-2" d="M10.32,11.84a1.63,1.63,0,1,0,1.62,1.64v0A1.63,1.63,0,0,0,10.32,11.84Zm0,3.14a1.52,1.52,0,1,1,1.51-1.53h0A1.52,1.52,0,0,1,10.32,15Z"/><path class="cls-3" d="M11,13.77a.55.55,0,0,1-.14.37.52.52,0,0,1-.32.18v.35h-.2a.06.06,0,0,1,0-.06.06.06,0,0,1,0-.06v-.27a.85.85,0,0,1-.22-.09.69.69,0,0,1-.13-.11h0A.31.31,0,0,1,9.89,14a.22.22,0,0,1,.1-.17.17.17,0,0,1,.12,0,.23.23,0,0,1,.17.1h0a.26.26,0,0,0,.21.12c.14,0,.22-.06.22-.18s0-.08-.09-.1a.68.68,0,0,0-.2-.07l-.24-.07a.55.55,0,0,1-.2-.17.51.51,0,0,1-.08-.29.52.52,0,0,1,.11-.32.51.51,0,0,1,.31-.19v-.25a.06.06,0,0,1,0-.06h.1a.13.13,0,0,1,.12,0,.18.18,0,0,1,.05.07v.28h.15l.1.05h0a.26.26,0,0,1,.07.11.35.35,0,0,1-.06.14.22.22,0,0,1-.16.12h-.47a.09.09,0,0,0,0,.1.13.13,0,0,0,.06.11.3.3,0,0,0,.15,0h.19l.2.07a.36.36,0,0,1,.15.15A.5.5,0,0,1,11,13.77Z"/><polygon class="cls-4" points="18.38 92.43 18.38 94.03 11.76 94.03 16.25 92.43 18.38 92.43"/><polygon class="cls-4" points="34.2 92.43 34.2 94.03 30.2 95.86 28.4 95.86 31.76 92.43 34.2 92.43"/><path class="cls-5" d="M16.25,49.75V92.43h2.13s3.56-10,3-19.78L23.8,57.86l8,34.57h2.42s2.1-12.76-.9-20.49L32.19,49.75Z"/><path class="cls-6" d="M16.25,49.75s3.89,3,16.07,2.67l-.13-2.67L23,48"/><polygon class="cls-6" points="23.79 57.86 21.06 52.42 21.37 72.65 23.79 57.86"/><path class="cls-7" d="M21.32,10.2a8.1,8.1,0,0,0,.45-.94c1.71,0,4.77.2,5.28,2.67,0,0,3.15,3.37-.83,8.38l-1.69.19-2.43-2-3.33-4.64a4.28,4.28,0,0,1-.87-.15A10.53,10.53,0,0,0,21.32,10.2Z"/><path class="cls-8" d="M18.53,15.79a3.62,3.62,0,0,0-1.34,2.6h2.29Z"/><path class="cls-9" d="M25.07,20.31a7.61,7.61,0,0,1-1.24-2.79s1.79-.37,1.49-1.67c-.25-1.08-1.61-.72-2.05.21V17.3s-.69,0-.82-2.4l-.82-1H18.81a11.46,11.46,0,0,0-.72,5.28H20a2.56,2.56,0,0,1-1.75,1,9,9,0,0,0,.55,1.69h2.82v2.06l1.61.73,1.39.44,1.19-.54L26.26,23V20.31Z"/><path class="cls-7" d="M21.63,13.85a7.47,7.47,0,0,1-4.44.69l.75-.84a2.52,2.52,0,0,1-2.11-2.55h1.81S15.83,9.9,16.51,8.09L19,8.84l2.78.4-.18,2.12"/><path class="cls-10" d="M18.63,25.31s-5,6-6.86,7.34a17.26,17.26,0,0,1-7-5.36L.05,29.56A31,31,0,0,0,11.13,39c4.92-.73,8-5.43,8-5.43Z"/><path class="cls-11" d="M17.85,26.46,18.13,28,19,32.42,19,33.57a14.63,14.63,0,0,1-4.34,4.1Z"/><path class="cls-12" d="M32.19,49.75s-8.74,2.37-15.94,0c0,0,.91-15.22,1.33-22.14a3.58,3.58,0,0,1,3.57-3.36l6.17-.1a3.51,3.51,0,0,1,1.71,1A6.33,6.33,0,0,1,31,28.91l1.52,21.17Z"/><path class="cls-10" d="M16.47,46.08c7.37-4.21,8.41-10.87,9.29-16.26.63-3.94,2.75-4.41,4-3.84A5.29,5.29,0,0,1,31,28.84l.28,4c-.14.72-.3,1.37-.43,1.85C28,45.1,20.38,48.47,16.25,49.55,16.32,49,16.37,47.79,16.47,46.08Z"/><rect class="cls-13" x="18.13" y="29.56" width="3.3" height="1.13"/><path class="cls-11" d="M22.81,25.74a52.09,52.09,0,0,1,1,21.31l-3,2.29-2.23-2.29s5.2-13.47,3.59-21.36Z"/><path class="cls-13" d="M22.81,25.73a50,50,0,0,1,.58,20.92L20.32,48.9l-2.18-2.25s5.47-13.22,4-21Z"/><path class="cls-5" d="M22.15,26a.86.86,0,0,0,1.21,0l1.53-1.53-2.22-.22c-.08,0-.24.14-.31.15L21.17,25Z"/><path class="cls-13" d="M22.67,24.25l-2,2a3.14,3.14,0,0,1,.95-3.11A1.6,1.6,0,0,0,22.67,24.25Z"/><path class="cls-13" d="M22.67,24.25s2.51-.14,3.59-1.52a4.77,4.77,0,0,1,1.33,1.53,3.44,3.44,0,0,1-3.43,2.11Z"/><rect class="cls-14" y="25.25" width="20.81" height="20.81" rx="2.1" ry="2.1"/><rect class="cls-15" x="8.15" y="25.25" width="4.51" height="20.81"/><path class="cls-16" d="M10,45.41s7.89-3.23,10.85-9.35v5.51l-5.43,4.49-4.47.63"/><path class="cls-10" d="M30.47,26.56c-.78-1.24-3.74-2-5.08,2.74-1.68,5.94-3.76,13.47-14.48,16.22V48s13.38.75,18.94-13.27C30.55,32.93,32,29,30.47,26.56Z"/><path class="cls-9" d="M10,48s-2.24.29-5.71-1.9h3.9L10,45.41Z"/><rect class="cls-5" x="9.96" y="45.41" width="1.37" height="2.56"/><ellipse class="cls-17" cx="19.48" cy="15.93" rx="0.66" ry="1.06"/><line class="cls-18" x1="23.43" y1="15.79" x2="20.14" y2="15.79"/><path class="cls-18" d="M18.81,15.93a1.31,1.31,0,0,0-.68,0"/><path class="cls-19" d="M5.43,14.05V12.51a2.78,2.78,0,0,1,5.55,0v1.54"/><path class="cls-20" d="M3,13.15h10.5V23.84a1.41,1.41,0,0,1-1.41,1.41H4.38A1.41,1.41,0,0,1,3,23.84H3V13.15Z"/><path class="cls-21" d="M4.59,25.25h7.23a1.6,1.6,0,0,0,.68-.15L3,23.57H3a1.63,1.63,0,0,0,1.58,1.68Z"/><path class="cls-22" d="M5.83,14.64a.44.44,0,0,1-.44.44h0A.44.44,0,0,1,5,14.64a.43.43,0,0,1,.43-.43A.44.44,0,0,1,5.83,14.64Z"/><path class="cls-22" d="M11.41,14.64a.44.44,0,1,1-.87,0h0a.44.44,0,0,1,.44-.43A.43.43,0,0,1,11.41,14.64Z"/><path class="cls-1" d="M15.4,4.15A4.16,4.16,0,1,1,11.23,0h0A4.15,4.15,0,0,1,15.4,4.15Z"/><path class="cls-2" d="M11.25.43a3.65,3.65,0,1,0,.05,0Zm0,7.1A3.43,3.43,0,1,1,14.68,4.1v.05A3.41,3.41,0,0,1,11.25,7.53Z"/><path class="cls-2" d="M11.25,1.15a3,3,0,1,0,3,3A3,3,0,0,0,11.25,1.15Zm0,5.76A2.78,2.78,0,1,1,14,4.13v0a2.76,2.76,0,0,1-2.78,2.73Z"/><path class="cls-3" d="M12.4,4.67a1,1,0,0,1-.24.68,1.15,1.15,0,0,1-.6.33v.47a.24.24,0,0,1,0,.12.2.2,0,0,1-.09.09H11.1A.2.2,0,0,1,11,6.27V5.65a1.16,1.16,0,0,1-.4-.16,1.22,1.22,0,0,1-.25-.2l-.07-.1A.48.48,0,0,1,10.17,5a.47.47,0,0,1,.19-.32.32.32,0,0,1,.22-.1.51.51,0,0,1,.32.19h0a.49.49,0,0,0,.38.21c.27,0,.4-.11.4-.33s0-.14-.15-.19a2.26,2.26,0,0,0-.37-.11,3.22,3.22,0,0,1-.44-.14.84.84,0,0,1-.37-.3.87.87,0,0,1-.15-.54.88.88,0,0,1,.21-.58A.91.91,0,0,1,11,2.42V1.84a.15.15,0,0,1,.09-.1h.19a.33.33,0,0,1,.22.06.22.22,0,0,1,.08.13.74.74,0,0,1,0,.21v.3a1.33,1.33,0,0,1,.28.1l.17.09.05.05h0c.09.09.13.15.13.2a.47.47,0,0,1-.11.25c-.1.15-.19.22-.3.22a.45.45,0,0,1-.22-.08l-.05,0-.07-.05h-.27a.31.31,0,0,0-.2.07.2.2,0,0,0-.09.17.26.26,0,0,0,.11.21.71.71,0,0,0,.28.09l.36.09a1.48,1.48,0,0,1,.35.13.57.57,0,0,1,.34.22A1,1,0,0,1,12.4,4.67Z"/></g></g></g></svg>