<svg xmlns="http://www.w3.org/2000/svg" xmlns:xlink="http://www.w3.org/1999/xlink" viewBox="0 0 66.32 105.4"><defs><style>.cls-1{fill:#333;}.cls-2{fill:#7f7c7c;}.cls-3{fill:#fff;}.cls-4{fill:url(#Degradado_sin_nombre);}.cls-5{fill:#70c6d9;}.cls-6{fill:#ededed;}.cls-7{fill:#0094da;}</style><linearGradient id="Degradado_sin_nombre" x1="33.16" y1="9.94" x2="33.16" y2="99.68" gradientTransform="matrix(1, 0, 0, -1, 0, 106.84)" gradientUnits="userSpaceOnUse"><stop offset="0" stop-color="#fff"/><stop offset="1" stop-color="#0098db"/></linearGradient></defs><title>paso2</title><g id="Capa_2" data-name="Capa 2"><g id="Capa_1-2" data-name="Capa 1"><g id="Layer_2" data-name="Layer 2"><rect class="cls-1" x="4.37" width="57.58" height="105.4" rx="7.07" ry="7.07"/><rect class="cls-2" x="4.37" y="1.5" width="57.58" height="103.9" rx="7.27" ry="7.27"/><rect class="cls-3" x="5.37" y="2.5" width="55.57" height="101.89" rx="5.74" ry="5.74"/><rect class="cls-4" x="7.91" y="7.16" width="50.5" height="89.74"/><path class="cls-2" d="M38.18,5.88h-10a1.09,1.09,0,0,1-1.09-1.09h0a1.09,1.09,0,0,1,1.08-1.1h10a1.1,1.1,0,0,1,1.1,1.1h0A1.11,1.11,0,0,1,38.18,5.88Z"/><path class="cls-3" d="M28.9,4.3A.29.29,0,1,1,28.6,4h0A.29.29,0,0,1,28.9,4.3Z"/><path class="cls-3" d="M28.9,5.27A.29.29,0,1,1,28.61,5a.29.29,0,0,1,.29.29Z"/><path class="cls-3" d="M30.2,4.3A.29.29,0,1,1,29.9,4h0A.29.29,0,0,1,30.2,4.3Z"/><path class="cls-3" d="M30.2,5.27A.29.29,0,1,1,29.91,5a.29.29,0,0,1,.29.29Z"/><path class="cls-3" d="M31.49,4.3a.29.29,0,0,1-.27.29h0a.29.29,0,0,1-.34-.23A.29.29,0,0,1,31.1,4h.11A.29.29,0,0,1,31.49,4.3Z"/><path class="cls-3" d="M31.49,5.27a.29.29,0,0,1-.27.29h0a.29.29,0,1,1,0-.58.29.29,0,0,1,.28.28Z"/><path class="cls-3" d="M32.79,4.3a.29.29,0,0,1-.27.29h0a.29.29,0,0,1-.34-.23A.29.29,0,0,1,32.4,4h.11A.29.29,0,0,1,32.79,4.3Z"/><path class="cls-3" d="M32.79,5.27a.29.29,0,0,1-.27.29h0a.29.29,0,1,1,0-.58.29.29,0,0,1,.28.28Z"/><path class="cls-3" d="M34.09,4.3a.29.29,0,1,1-.3-.28h0A.3.3,0,0,1,34.09,4.3Z"/><path class="cls-3" d="M34.09,5.27A.29.29,0,1,1,33.8,5h0A.29.29,0,0,1,34.09,5.27Z"/><path class="cls-3" d="M35.39,4.3a.29.29,0,1,1-.3-.28h0A.3.3,0,0,1,35.39,4.3Z"/><path class="cls-3" d="M35.39,5.27A.29.29,0,1,1,35.1,5h0A.29.29,0,0,1,35.39,5.27Z"/><path class="cls-3" d="M36.69,4.3a.29.29,0,0,1-.23.34.29.29,0,0,1-.34-.23.21.21,0,0,1,0-.11.29.29,0,0,1,.34-.23A.28.28,0,0,1,36.69,4.3Z"/><path class="cls-3" d="M36.69,5.27A.29.29,0,1,1,36.4,5a.29.29,0,0,1,.29.29Z"/><path class="cls-3" d="M38,4.3a.29.29,0,0,1-.29.29h0a.29.29,0,0,1-.23-.34A.28.28,0,0,1,37.7,4,.29.29,0,0,1,38,4.3Z"/><path class="cls-3" d="M38,5.27a.29.29,0,0,1-.29.29h0A.29.29,0,1,1,38,5.27Z"/><path class="cls-1" d="M24.21,4.8a1.54,1.54,0,1,1-1.55-1.53h0A1.54,1.54,0,0,1,24.21,4.8Z"/><path class="cls-2" d="M24.1,4.8a1.44,1.44,0,1,1-1.45-1.43h0A1.43,1.43,0,0,1,24.1,4.8Z"/><polyline class="cls-5" points="6.35 19.7 13.42 20.49 27.04 19.41 47.08 19.64 57.31 18.79 56.52 7.67 48.56 7.16 17.67 7.16 8.83 8.34 4.52 12.73"/><polygon class="cls-6" points="13.26 12.04 0 12.04 7.91 7.16 18.01 7.16 13.26 12.04"/><polygon class="cls-7" points="26.52 12.04 13.26 12.04 18.01 7.16 28.11 7.16 26.52 12.04"/><polygon class="cls-6" points="39.79 12.04 26.52 12.04 28.11 7.16 38.21 7.16 39.79 12.04"/><polygon class="cls-7" points="53.05 12.04 39.79 12.04 38.21 7.16 48.31 7.16 53.05 12.04"/><polygon class="cls-6" points="66.32 12.04 53.05 12.04 48.31 7.16 58.41 7.16 66.32 12.04"/><path class="cls-7" d="M59.69,26.89h0a6.63,6.63,0,0,0,6.63-6.63V12H53.05v8.22a6.63,6.63,0,0,0,6.63,6.63Z"/><path class="cls-6" d="M46.42,26.89h0a6.63,6.63,0,0,0,6.63-6.63V12H39.79v8.22A6.63,6.63,0,0,0,46.42,26.89Z"/><path class="cls-7" d="M33.16,26.89h0a6.63,6.63,0,0,0,6.63-6.63V12H26.52v8.22a6.63,6.63,0,0,0,6.63,6.63Z"/><path class="cls-6" d="M19.89,26.89h0a6.63,6.63,0,0,0,6.63-6.63V12H13.26v8.22A6.63,6.63,0,0,0,19.89,26.89Z"/><path class="cls-7" d="M6.6,26.89h0a6.63,6.63,0,0,0,6.63-6.63V12H0v8.22A6.63,6.63,0,0,0,6.6,26.89Z"/><path class="cls-1" d="M35.06,99.9A1.91,1.91,0,1,1,33.15,98h0a1.9,1.9,0,0,1,1.9,1.9Z"/></g><g id="Layer_9" data-name="Layer 9"><path class="cls-1" d="M35.8,99.9a2.65,2.65,0,1,1-2.66-2.64h0A2.65,2.65,0,0,1,35.8,99.9Z"/></g></g></g></svg>