<svg xmlns="http://www.w3.org/2000/svg" viewBox="0 0 46.36 36.85"><defs><style>.cls-1{fill:#233060;}.cls-2{fill:#203c83;}.cls-3{fill:#233467;}.cls-4{fill:#09111d;}.cls-5{fill:#c8c8c7;}.cls-6{fill:#b1afae;}.cls-7{fill:#facca9;}.cls-8{fill:#263067;}.cls-9{fill:#1a1a36;}.cls-10{fill:#f08c7e;}.cls-11{fill:#fff;}.cls-12{fill:#dfdfdf;}</style></defs><title>paso7</title><g id="Capa_2" data-name="Capa 2"><g id="Layer_7" data-name="Layer 7"><path class="cls-1" d="M22.8,24.2,4.31,34.83l2.58.27s8.07-.85,13-5.45"/><polyline class="cls-1" points="22.21 28.82 34.13 35.35 26.54 26.44 22.8 24.94"/><path class="cls-2" d="M46.34,30.72,35.17,27.26,23.55,23.44,12.23,34.92h2s7.08-2.55,9.83-7.78l10,8.21s4.89,2.51,7.71,1A8.44,8.44,0,0,0,46.34,30.72Z"/><path class="cls-3" d="M46.34,30.72l-9.9-3.06h0c-.29-.09,9,5.17,9.05,5.17A7.3,7.3,0,0,0,46.34,30.72Z"/><polygon class="cls-4" points="14.26 34.92 14.26 36.85 7.4 36.85 12.23 34.92 14.26 34.92"/><polygon class="cls-4" points="7.1 35.05 6.41 36.85 0 34.41 5.2 34.33 7.1 35.05"/><path class="cls-5" d="M39.58,12.41a10.12,10.12,0,0,1,1,6s-10.34,0-16.8-11L25.44,6S32.83,13.35,39.58,12.41Z"/><polygon class="cls-6" points="38.8 12.49 34.75 17.17 37.23 17.96 38.8 12.49"/><path class="cls-7" d="M24.54,5.56a5.45,5.45,0,0,0-.23-1.33s-.52-1.77-.62-2c0,0-.43-.08-.42.44a5.08,5.08,0,0,0,.17,1.16,4.33,4.33,0,0,1-.81-1c-.22-.47-.69-1.37-1-1.49a.2.2,0,0,0-.3.2l.87,1.69c.13.27,0,.25,0,.25S21.2,2,21,1.69s-.39-.28-.54,0c0,0,.7,1.21.8,1.4s.53.71.34.82c0,0-.9-1.28-1.07-1.49s-.37-.21-.43.06l1.15,1.83s.07.13,0,.14a4.72,4.72,0,0,1-.89-.65c-.08-.08-.34-.31-.48-.08,0,0,0,.09.21.3s1.23,1.35,1.23,1.35a5,5,0,0,0,1.74,1.2c1.06.43,1.38.13.78.33l.28-.54Z"/><polygon class="cls-8" points="22.89 6.55 24.65 5.07 25.47 5.95 23.74 7.48 22.89 6.55"/><path class="cls-7" d="M38.22,3.75a14.49,14.49,0,0,0-1.78,5.19,5.21,5.21,0,0,0,3.25.89v2.86l2.63-1.54v-2L41.7,9l.42-.83a1.43,1.43,0,0,0,1.19-1c.3-.9-.74-.68-1-.57l-.37.57s.1-1.29.88-1.62l-.27-1.27A7.58,7.58,0,0,1,38.22,3.75Z"/><path class="cls-9" d="M41.72,9.05l.62.11v.67A1.41,1.41,0,0,0,43,9.05S46,8.35,45.3,4.69c0,0,.58-2.35-1.18-3.36S39.68,1.19,38,0a1.77,1.77,0,0,0-.94,2.33,1.59,1.59,0,0,0,.15.29l-.77,0a3.89,3.89,0,0,0,3.46,1.62l-.64.62a4.81,4.81,0,0,0,3.3-.55l.27,1.27S42,5.85,42,7.25l.37-.57s.58-.31.9.12S42.93,8,42.14,8.22Z"/><polygon class="cls-10" points="38.8 5.25 38.8 6.9 38.02 6.9 38.8 5.25"/><path class="cls-11" d="M37.23,7.36a1.49,1.49,0,0,0,2.93,0Z"/><path class="cls-8" d="M39.18,12.34l.48,1.28h0l-1.3.49h0L38,13.17a.41.41,0,0,1,.24-.53l.94-.35Z"/><path class="cls-8" d="M38.44,13.94s-3,5.09-1.62,10.21a60.16,60.16,0,0,0,2.81-9"/><path class="cls-12" d="M46.34,30.72l-9.9-3.06,2-13.72s.88-3,3.28-2.78c2.19.22,4.22,3.23,4.48,6.8C46.44,21.92,46.34,30.72,46.34,30.72Z"/><path class="cls-8" d="M42.78,11.49l-.24-1.37a5.41,5.41,0,0,0-3.44,1.71l.07.6A24.87,24.87,0,0,1,42.78,11.49Z"/><path class="cls-6" d="M36.6,26.83a21.09,21.09,0,0,0,5.66.43S44,18.89,44.07,16.83s-.31-4.09-2.49-4-2.14,3.28-2.14,3.28l.13,7.22-2.45-.23Z"/><path class="cls-5" d="M38.91,16s.18-3.18,2.51-3,2.54,2.24,2.22,4.32-2.89,9.91-2.89,9.91-6.1-.35-13.67-5.35l.4-1.34,11,2.5Z"/><path class="cls-7" d="M26.62,20.33l-2.42-.84L22,19.91l-.84,2.47s.54.29,1.08-1.16h.59a3.54,3.54,0,0,0,1.84.61,12.06,12.06,0,0,1,1.7,0Z"/><rect class="cls-8" x="26.26" y="20.64" width="1.59" height="1.16" transform="translate(1.44 44.16) rotate(-79.95)"/><path class="cls-2" d="M16.62,15.83a.86.86,0,0,1,.33.42l2.32,7.26-.57.13-2.52-7.86A.52.52,0,0,1,16.62,15.83Z"/><rect class="cls-2" x="18.72" y="22.95" width="9.51" height="0.66"/></g></g></svg>