<svg id="Layer_1" data-name="Layer 1" xmlns="http://www.w3.org/2000/svg" viewBox="0 0 202 125.33"><defs><style>.cls-1{fill:#e4e4e4;}</style></defs><title>paso1</title><path class="cls-1" d="M10.09,43.61C-5.12,60.1,6,73.78,18.18,76.6c17.21,4,15.4-3.55,19.88,22.25,1.52,8.76,6.78,17.27,15.37,21.37a25,25,0,0,0,20.1.66c3.52-1.49,6.54-3.83,9.89-5.63s14-4.73,17.34-3.35c29.62,12.38,19.33-4.39,59.49,3.12,14.05,2.63,36.12-16.33,36.12-54.79,0-19.1-17.55-46-41.36-42.42-28.68,4.39-20.9,21.72-38.66,4.11-10.63-10.54-34.68-21-49.76,6S32,19.85,10.09,43.61Z"/></svg>