<svg xmlns="http://www.w3.org/2000/svg" viewBox="0 0 30.71 52.68"><defs><style>.cls-1{opacity:0.55;}.cls-2{fill:#fff;}.cls-3{opacity:0.88;}.cls-4,.cls-6{fill:#333;}.cls-10,.cls-11,.cls-5,.cls-9{fill:#0094da;}.cls-6{opacity:0.46;}.cls-10,.cls-11,.cls-6,.cls-8,.cls-9{isolation:isolate;}.cls-7{fill:none;stroke:#fff;stroke-linecap:round;stroke-linejoin:round;stroke-width:0.31px;}.cls-10,.cls-11,.cls-9{font-size:3.46px;font-family:Montserrat-SemiBold, Montserrat;font-weight:700;}.cls-9{letter-spacing:-0.02em;}.cls-11{letter-spacing:0.01em;}</style></defs><title>paso3</title><g id="Capa_2" data-name="Capa 2"><g id="Layer_3" data-name="Layer 3"><g class="cls-1"><path class="cls-2" d="M7.58,18.41,4.72,24a6.37,6.37,0,0,0-.4,4.88l6.73,21a2.75,2.75,0,0,0,3.45,1.78l13.36-4.28a2.75,2.75,0,0,0,1.78-3.45l-6.74-21a6.4,6.4,0,0,0-3.17-3.73l-5.55-2.86A4.9,4.9,0,0,0,7.58,18.41Z"/></g><g class="cls-3"><path class="cls-4" d="M10.44,16a4.86,4.86,0,0,1,3.74.31l5.55,2.86a6.4,6.4,0,0,1,3.17,3.73l6.74,21a2.75,2.75,0,0,1-1.78,3.45L14.5,51.65a2.75,2.75,0,0,1-3.45-1.78l-6.68-21A6.37,6.37,0,0,1,4.77,24l2.86-5.56A5,5,0,0,1,10.49,16m-.28-.89A5.79,5.79,0,0,0,6.8,18L3.94,23.54a7.34,7.34,0,0,0-.47,5.59l6.74,21a3.69,3.69,0,0,0,4.63,2.38l13.31-4.29a3.68,3.68,0,0,0,2.38-4.63h0l-6.74-21a7.2,7.2,0,0,0-3.63-4.28l-5.55-2.86a5.74,5.74,0,0,0-4.45-.37Z"/></g><path class="cls-5" d="M21.76,35.05a4,4,0,0,1-.11,3.1,5,5,0,0,1-2,2.15l.45,1.43c.09.28.15.5.19.65a1.57,1.57,0,0,1,0,.53.75.75,0,0,1-.28.51,2.05,2.05,0,0,1-.71.35,2.28,2.28,0,0,1-.78.13.7.7,0,0,1-.51-.27,2.23,2.23,0,0,1-.29-.44c-.06-.14-.14-.36-.24-.65L17,41.16A5.56,5.56,0,0,1,15.18,41a4.55,4.55,0,0,1-1.28-.5l-.38-.3a1.84,1.84,0,0,1-.77-.79,2.08,2.08,0,0,1,.34-1.53,1.44,1.44,0,0,1,.78-.68,2.2,2.2,0,0,1,1.56.36l.15.07A2.11,2.11,0,0,0,17.4,38c1.1-.36,1.51-1,1.22-1.89a.88.88,0,0,0-.87-.55,9.2,9.2,0,0,0-1.66,0,13.35,13.35,0,0,1-2,0,3.66,3.66,0,0,1-1.9-.74,4.18,4.18,0,0,1-1.25-4.68A4,4,0,0,1,12.83,28l-.4-1.25c-.09-.3-.16-.52-.19-.66a2.26,2.26,0,0,1,0-.52.73.73,0,0,1,.28-.51,2.19,2.19,0,0,1,.72-.35,1.43,1.43,0,0,1,1,0,1,1,0,0,1,.52.44,6.39,6.39,0,0,1,.31.83l.4,1.22a5.23,5.23,0,0,1,1.25,0,3.91,3.91,0,0,1,.84.17l.26.12h.11c.48.23.76.44.82.65a2.09,2.09,0,0,1-.12,1.16c-.21.73-.52,1.15-.93,1.29a1.8,1.8,0,0,1-1-.07l-.33-.08a1.91,1.91,0,0,0-.36-.13,1.85,1.85,0,0,0-.47,0,2.55,2.55,0,0,0-.72.14,1.49,1.49,0,0,0-.71.53.9.9,0,0,0-.14.85,1,1,0,0,0,.72.69,2.93,2.93,0,0,0,1.25,0,10.41,10.41,0,0,1,1.57-.14,11.33,11.33,0,0,1,1.65.07,2.67,2.67,0,0,1,1.47.75A3.93,3.93,0,0,1,21.76,35.05Z"/><path class="cls-6" d="M12.82,18a1.65,1.65,0,1,1-2.08-1.07A1.64,1.64,0,0,1,12.82,18Z"/><path class="cls-6" d="M12.37,18.15a1.12,1.12,0,0,1-.73,1.43,1.14,1.14,0,0,1-1.44-.73,1.15,1.15,0,0,1,.74-1.44A1.14,1.14,0,0,1,12.37,18.15Z"/><path class="cls-2" d="M23.46,9.22H5.69A4.61,4.61,0,0,1,5.69,0H23.46a4.61,4.61,0,0,1,0,9.22ZM5.69.67a3.94,3.94,0,0,0,0,7.88H23.46a3.94,3.94,0,0,0,0-7.88Z"/><path class="cls-2" d="M23.46,8.89H5.69A4.29,4.29,0,0,1,1.42,4.61h0A4.29,4.29,0,0,1,5.69.34H23.46a4.27,4.27,0,0,1,4.27,4.27h0A4.28,4.28,0,0,1,23.46,8.89Z"/><path class="cls-7" d="M3,4.61S-.13,7.22.66,10.42,6.14,13.6,6,11.48c-.15-1.63-5.52-3.57-5.8,2s7.37,7.86,11.09,5"/><g class="cls-8"><text class="cls-9" transform="translate(8.77 5.95)">C</text><text class="cls-10" transform="translate(10.71 5.95)">OMP</text><text class="cls-11" transform="translate(17.72 5.95)">R</text><text class="cls-10" transform="translate(19.6 5.95)">AR</text></g><path class="cls-5" d="M3.58,4.42a.63.63,0,1,1-1.18.43s0,0,0,0A.63.63,0,0,1,2.83,4,.62.62,0,0,1,3.58,4.42Z"/></g></g></svg>