<svg xmlns="http://www.w3.org/2000/svg" viewBox="0 0 13.65 27.48"><defs><style>.cls-1{fill:#f6a526;}</style></defs><title>paso5</title><g id="Capa_2" data-name="Capa 2"><g id="Layer_5" data-name="Layer 5"><path class="cls-1" d="M13.64,17.13a5.55,5.55,0,0,1-1.44,4,6.91,6.91,0,0,1-3.5,2v2.93a2.78,2.78,0,0,1-.21.71,1,1,0,0,1-.58.54,2.65,2.65,0,0,1-1.08.16,2.61,2.61,0,0,1-1.07-.16.89.89,0,0,1-.56-.56,2.34,2.34,0,0,1-.19-.7,8.34,8.34,0,0,1,0-1v-2a7.39,7.39,0,0,1-2.37-1,6.19,6.19,0,0,1-1.55-1l-.42-.55A2.59,2.59,0,0,1,0,19.12a2.91,2.91,0,0,1,1.09-1.87,2.06,2.06,0,0,1,1.32-.61A3.15,3.15,0,0,1,4.3,17.77l.16.16a2.86,2.86,0,0,0,2.25,1.22c1.58,0,2.37-.66,2.37-2,0-.47-.3-.84-.89-1.09A13.92,13.92,0,0,0,6,15.37a17.86,17.86,0,0,1-2.57-.82,4.9,4.9,0,0,1-2.18-1.77,5.33,5.33,0,0,1-.9-3.2A5.48,5.48,0,0,1,1.57,6.14a5.71,5.71,0,0,1,3.37-2V2.4a8.34,8.34,0,0,1,0-1A2.45,2.45,0,0,1,5.13.71,1,1,0,0,1,5.71.16,3.35,3.35,0,0,1,6.8,0,2,2,0,0,1,8.1.37a1.31,1.31,0,0,1,.49.79,7.19,7.19,0,0,1,.07,1.22V4.17a8.45,8.45,0,0,1,1.63.55,7,7,0,0,1,1,.58l.29.26.13.09c.53.49.8.89.8,1.19a3,3,0,0,1-.64,1.47c-.52.93-1.09,1.39-1.7,1.39a2.26,2.26,0,0,1-1.31-.52l-.29-.25a4.63,4.63,0,0,0-.42-.32,2.16,2.16,0,0,0-.61-.24,4.21,4.21,0,0,0-1-.12,2,2,0,0,0-1.16.41,1.26,1.26,0,0,0-.54,1,1.36,1.36,0,0,0,.66,1.2,3.91,3.91,0,0,0,1.61.58,19.12,19.12,0,0,1,2.12.48,15.37,15.37,0,0,1,2.12.79A3.77,3.77,0,0,1,13,14.3,5.6,5.6,0,0,1,13.64,17.13Z"/></g></g></svg>