<svg xmlns="http://www.w3.org/2000/svg" viewBox="0 0 52.28 36.17"><defs><style>.cls-1,.cls-2{fill:#ffd11e;}.cls-2{opacity:0.4;isolation:isolate;}.cls-3{fill:#f6a526;}.cls-4{fill:#ffe41a;}.cls-5{fill:#dd7500;}.cls-6{fill:#fff;}.cls-7{fill:#0094da;}.cls-8{fill:#28347a;}</style></defs><title>paso4</title><g id="Capa_2" data-name="Capa 2"><g id="Capa_1-2" data-name="Capa 1"><g id="Layer_4" data-name="Layer 4"><rect class="cls-1" x="19.84" width="24.03" height="33.18" rx="2.43" ry="2.43"/><polygon class="cls-2" points="24.03 11.94 26.87 33.18 19.84 33.18 24.03 11.94"/><rect class="cls-3" x="29.25" width="5.21" height="33.18"/><rect class="cls-4" y="10.97" width="24.03" height="24.03" rx="2.43" ry="2.43"/><rect class="cls-5" x="9.41" y="10.97" width="5.21" height="24.03"/><path class="cls-6" d="M48.93,19H48V16.67a3.8,3.8,0,1,0-7.59-.39,2.54,2.54,0,0,0,0,.39V19h-.91V16.67a4.71,4.71,0,1,1,9.41-.43,3.09,3.09,0,0,1,0,.43Z"/><path class="cls-7" d="M50.64,36.17H37.81a1.63,1.63,0,0,1-1.63-1.63h0V17.67h16.1V34.54a1.63,1.63,0,0,1-1.63,1.63Z"/><path class="cls-8" d="M47.87,19.9a.67.67,0,1,0,.68-.66h0A.67.67,0,0,0,47.87,19.9Z"/><path class="cls-8" d="M39.31,19.9a.67.67,0,0,0,.65.67h0a.67.67,0,0,0,.75-.58.68.68,0,0,0-.59-.75H40a.67.67,0,0,0-.66.66Z"/></g></g></g></svg>