<svg xmlns="http://www.w3.org/2000/svg" viewBox="0 0 69.75 42.13"><defs><style>.cls-1{fill:#cbcaca;}.cls-2{fill:#333;}.cls-3{fill:#fff;}.cls-4{fill:#7f7c7c;}</style></defs><title>paso6</title><g id="Capa_2" data-name="Capa 2"><g id="Layer_6" data-name="Layer 6"><rect class="cls-1" width="69.75" height="42.13" rx="5.37" ry="5.37"/><rect class="cls-2" y="28.61" width="69.75" height="5.45"/><rect class="cls-2" y="25" width="69.75" height="1.46"/><rect class="cls-3" x="2.92" y="10.08" width="15.17" height="5.45"/><rect class="cls-3" x="23.59" y="10.08" width="15.17" height="5.45"/><path class="cls-3" d="M44.64,13.33A5.53,5.53,0,1,0,50.17,7.8h0A5.54,5.54,0,0,0,44.64,13.33Z"/><path class="cls-3" d="M53.93,13.33A5.53,5.53,0,1,0,59.46,7.8h0a5.52,5.52,0,0,0-5.53,5.51Z"/><rect class="cls-4" x="9.12" y="35.51" width="11.2" height="2.41"/><rect class="cls-4" x="26.24" y="35.51" width="2.41" height="2.41"/></g></g></svg>