<svg xmlns="http://www.w3.org/2000/svg" viewBox="0 0 36.08 33.36"><defs><style>.cls-1{fill:#0094da;}.cls-2,.cls-3{fill:#fff;}.cls-2{opacity:0.7;isolation:isolate;}.cls-4{fill:#f6a526;}</style></defs><title>paso8_1</title><g id="Capa_2" data-name="Capa 2"><g id="Layer_8" data-name="Layer 8"><path class="cls-1" d="M36.08,4.15A4.16,4.16,0,1,1,31.91,0h0a4.15,4.15,0,0,1,4.15,4.15Z"/><path class="cls-2" d="M31.93.48A3.68,3.68,0,1,0,35.6,4.17v0A3.67,3.67,0,0,0,31.93.48Zm0,7.1a3.43,3.43,0,1,1,3.42-3.44h0A3.42,3.42,0,0,1,32,7.62h-.05Z"/><path class="cls-2" d="M31.93,1.17a3,3,0,1,0,3,3A3,3,0,0,0,31.93,1.17Zm0,5.76a2.78,2.78,0,1,1,2.78-2.78h0A2.78,2.78,0,0,1,32,6.93Z"/><path class="cls-3" d="M33.08,4.72a1,1,0,0,1-.24.68,1.21,1.21,0,0,1-.6.34v.62a.22.22,0,0,1-.1.09h-.36a.16.16,0,0,1-.09-.09V5.74a1.16,1.16,0,0,1-.4-.16.82.82,0,0,1-.25-.2L31,5.28a.39.39,0,0,1-.11-.22A.47.47,0,0,1,31,4.74a.29.29,0,0,1,.22-.1.53.53,0,0,1,.32.19h0A.51.51,0,0,0,32,5c.26,0,.4-.11.4-.33s0-.14-.15-.18a1.6,1.6,0,0,0-.37-.12,3.22,3.22,0,0,1-.44-.14A.84.84,0,0,1,31,4a.87.87,0,0,1-.15-.54A.82.82,0,0,1,31,2.87a.91.91,0,0,1,.57-.34V2.06a.21.21,0,0,1,0-.11.12.12,0,0,1,.09-.09.6.6,0,0,1,.19,0,.35.35,0,0,1,.22.06.22.22,0,0,1,.08.13v.51l.28.1.17.09v0h0a.42.42,0,0,1,.13.21.71.71,0,0,1-.11.25c-.1.14-.19.21-.3.21a.42.42,0,0,1-.22-.08V3.34h-.34a.27.27,0,0,0-.2.07.2.2,0,0,0-.09.17.26.26,0,0,0,.11.21.66.66,0,0,0,.28.09l.36.09a1.48,1.48,0,0,1,.35.13.66.66,0,0,1,.28.27A1.15,1.15,0,0,1,33.08,4.72Z"/><polygon class="cls-4" points="19.78 29.25 23.89 33.36 23.89 25.12 19.78 29.25"/><circle class="cls-4" cx="14.32" cy="16.27" r="14.32"/><circle class="cls-3" cx="14.32" cy="16.27" r="12.18"/><path class="cls-1" d="M22.27,16a4.31,4.31,0,0,0-7.95-2.32,4.31,4.31,0,1,0-7.25,4.66A4.24,4.24,0,0,0,8.66,19.8l5.66,3.32L20,19.8A4.32,4.32,0,0,0,22.27,16Z"/></g></g></svg>